<svg width="10" height="10" viewBox="0 0 10 10" fill="none" xmlns="http://www.w3.org/2000/svg">
<g clip-path="url(#clip0_160_363)">
<rect x="0.5" y="0.5" width="4" height="0.7" rx="0.35" fill="#101010"/>
<rect x="9.5" y="9.5" width="4" height="0.7" rx="0.35" transform="rotate(-180 9.5 9.5)" fill="#101010"/>
<rect x="9.5" y="0.5" width="4" height="0.7" rx="0.35" transform="rotate(90 9.5 0.5)" fill="#101010"/>
<rect x="0.5" y="9.5" width="4" height="0.7" rx="0.35" transform="rotate(-90 0.5 9.5)" fill="#101010"/>
<rect x="0.5" y="0.5" width="0.7" height="4" rx="0.35" fill="#101010"/>
<rect x="9.5" y="9.5" width="0.7" height="4" rx="0.35" transform="rotate(-180 9.5 9.5)" fill="#101010"/>
<rect x="9.5" y="0.5" width="0.7" height="4" rx="0.35" transform="rotate(90 9.5 0.5)" fill="#101010"/>
<rect x="0.5" y="9.5" width="0.7" height="4" rx="0.35" transform="rotate(-90 0.5 9.5)" fill="#101010"/>
<path d="M2.23578 4.59067V3.02099H2.65889V4.21283H3.1972V4.59067H2.23578Z" fill="#101010"/>
<path d="M3.98529 4.61166C3.83456 4.61166 3.70537 4.57979 3.5977 4.51603C3.49004 4.45151 3.4075 4.35938 3.35008 4.23965C3.29266 4.11914 3.26395 3.97493 3.26395 3.807C3.26395 3.63829 3.29266 3.49368 3.35008 3.37318C3.4075 3.25267 3.49004 3.16054 3.5977 3.09679C3.70537 3.03226 3.83456 3 3.98529 3C4.13673 3 4.26628 3.03226 4.37395 3.09679C4.48161 3.16054 4.56415 3.25267 4.62157 3.37318C4.67899 3.49368 4.7077 3.63829 4.7077 3.807C4.7077 3.97493 4.67899 4.11914 4.62157 4.23965C4.56415 4.35938 4.48161 4.45151 4.37395 4.51603C4.26628 4.57979 4.13673 4.61166 3.98529 4.61166ZM3.98529 4.22799C4.05491 4.22799 4.11089 4.20855 4.15324 4.16968C4.19559 4.13081 4.22609 4.07949 4.24475 4.01574C4.26413 3.95121 4.27382 3.88163 4.27382 3.807C4.27382 3.73158 4.26413 3.662 4.24475 3.59825C4.22609 3.53372 4.19559 3.48202 4.15324 3.44315C4.11089 3.40428 4.05491 3.38484 3.98529 3.38484C3.91566 3.38484 3.85968 3.40389 3.81733 3.44198C3.77499 3.4793 3.74448 3.52983 3.72582 3.59359C3.70716 3.65734 3.69783 3.72847 3.69783 3.807C3.69783 3.8863 3.70716 3.95782 3.72582 4.02157C3.74448 4.08533 3.77499 4.13586 3.81733 4.17318C3.85968 4.20972 3.91566 4.22799 3.98529 4.22799Z" fill="#101010"/>
<path d="M5.60883 4.61166C5.46313 4.61166 5.33537 4.58017 5.22555 4.5172C5.11574 4.45345 5.02997 4.36171 4.96824 4.24198C4.90723 4.12148 4.87673 3.97648 4.87673 3.807C4.87673 3.63673 4.90723 3.49174 4.96824 3.37201C5.02997 3.25151 5.11574 3.15938 5.22555 3.09563C5.33537 3.03188 5.46313 3 5.60883 3C5.69065 3 5.77032 3.01088 5.84784 3.03265C5.92535 3.05442 5.99569 3.08863 6.05886 3.13528C6.12202 3.18115 6.17334 3.24062 6.21281 3.3137C6.25229 3.38601 6.2749 3.47269 6.28064 3.57376H5.84461C5.83887 3.53489 5.82595 3.50146 5.80585 3.47347C5.78647 3.44548 5.75955 3.42371 5.7251 3.40816C5.69065 3.39261 5.6483 3.38484 5.59806 3.38484C5.52844 3.38484 5.47246 3.4035 5.43011 3.44082C5.38776 3.47813 5.35726 3.52867 5.3386 3.59242C5.31994 3.65539 5.3106 3.72692 5.3106 3.807C5.3106 3.8863 5.31994 3.95821 5.3386 4.02274C5.35798 4.08727 5.38956 4.13858 5.43334 4.17668C5.47712 4.21399 5.53562 4.23265 5.60883 4.23265C5.65979 4.23265 5.70285 4.22488 5.73802 4.20933C5.77319 4.19378 5.80118 4.1724 5.822 4.14519C5.84353 4.1172 5.85824 4.08494 5.86614 4.0484H5.57976V3.69971H6.28818V3.8793C6.28818 4.02779 6.26234 4.15724 6.21066 4.26764C6.1597 4.37726 6.08362 4.462 5.98241 4.52187C5.88193 4.58173 5.7574 4.61166 5.60883 4.61166Z" fill="#101010"/>
<path d="M7.17854 4.61166C7.02781 4.61166 6.89862 4.57979 6.79096 4.51603C6.68329 4.45151 6.60075 4.35938 6.54333 4.23965C6.48591 4.11914 6.4572 3.97493 6.4572 3.807C6.4572 3.63829 6.48591 3.49368 6.54333 3.37318C6.60075 3.25267 6.68329 3.16054 6.79096 3.09679C6.89862 3.03226 7.02781 3 7.17854 3C7.32998 3 7.45954 3.03226 7.5672 3.09679C7.67486 3.16054 7.7574 3.25267 7.81482 3.37318C7.87224 3.49368 7.90095 3.63829 7.90095 3.807C7.90095 3.97493 7.87224 4.11914 7.81482 4.23965C7.7574 4.35938 7.67486 4.45151 7.5672 4.51603C7.45954 4.57979 7.32998 4.61166 7.17854 4.61166ZM7.17854 4.22799C7.24816 4.22799 7.30414 4.20855 7.34649 4.16968C7.38884 4.13081 7.41934 4.07949 7.438 4.01574C7.45738 3.95121 7.46707 3.88163 7.46707 3.807C7.46707 3.73158 7.45738 3.662 7.438 3.59825C7.41934 3.53372 7.38884 3.48202 7.34649 3.44315C7.30414 3.40428 7.24816 3.38484 7.17854 3.38484C7.10892 3.38484 7.05293 3.40389 7.01059 3.44198C6.96824 3.4793 6.93774 3.52983 6.91907 3.59359C6.90041 3.65734 6.89108 3.72847 6.89108 3.807C6.89108 3.8863 6.90041 3.95782 6.91907 4.02157C6.93774 4.08533 6.96824 4.13586 7.01059 4.17318C7.05293 4.20972 7.10892 4.22799 7.17854 4.22799Z" fill="#101010"/>
<path d="M2.61798 7C2.5017 7 2.39727 6.9829 2.30468 6.94869C2.21209 6.9137 2.13853 6.8585 2.08398 6.78309C2.03015 6.7069 2.00215 6.60661 2 6.48222H2.43711C2.43998 6.52031 2.44859 6.55063 2.46295 6.57318C2.4773 6.59572 2.49776 6.61205 2.52431 6.62216C2.55087 6.63226 2.58353 6.63732 2.62229 6.63732C2.66248 6.63732 2.69514 6.63382 2.72026 6.62682C2.7461 6.61905 2.76512 6.60777 2.77732 6.593C2.79024 6.57823 2.7967 6.56035 2.7967 6.53936C2.7967 6.51759 2.79024 6.49854 2.77732 6.48222C2.7644 6.46589 2.73856 6.44879 2.6998 6.4309C2.66176 6.41224 2.60362 6.3897 2.52539 6.36327C2.43567 6.33217 2.35277 6.29757 2.27669 6.25947C2.20061 6.22138 2.1396 6.17046 2.09367 6.10671C2.04773 6.04295 2.02476 5.95782 2.02476 5.85131C2.02476 5.73547 2.05132 5.64412 2.10443 5.57726C2.15755 5.5104 2.22824 5.46258 2.31653 5.43382C2.40553 5.40505 2.50314 5.39067 2.60937 5.39067C2.71846 5.39067 2.81751 5.407 2.90651 5.43965C2.99551 5.4723 3.06621 5.52362 3.11861 5.59359C3.17172 5.66356 3.19828 5.75452 3.19828 5.86647H2.76117C2.76117 5.82527 2.74753 5.79378 2.72026 5.77201C2.69298 5.75024 2.65602 5.73936 2.60937 5.73936C2.56774 5.73936 2.53293 5.74636 2.50493 5.76035C2.47766 5.77434 2.46402 5.79378 2.46402 5.81866C2.46402 5.83499 2.47048 5.85053 2.4834 5.86531C2.49632 5.8793 2.52395 5.89563 2.5663 5.91429C2.60865 5.93294 2.6736 5.95743 2.76117 5.98776C2.86883 6.0243 2.95783 6.06317 3.02817 6.10437C3.09851 6.1448 3.15091 6.19689 3.18536 6.26064C3.21981 6.32362 3.23704 6.40797 3.23704 6.5137C3.23704 6.63343 3.20904 6.72906 3.15306 6.80058C3.09708 6.87133 3.02207 6.92225 2.92805 6.95335C2.83474 6.98445 2.73138 7 2.61798 7Z" fill="#101010"/>
<path d="M4.1091 7C3.95837 7 3.82918 6.96812 3.72151 6.90437C3.61385 6.83984 3.53131 6.74772 3.47389 6.62799C3.41647 6.50748 3.38776 6.36327 3.38776 6.19534C3.38776 6.02663 3.41647 5.88202 3.47389 5.76152C3.53131 5.64101 3.61385 5.54888 3.72151 5.48513C3.82918 5.4206 3.95837 5.38834 4.1091 5.38834C4.26054 5.38834 4.39009 5.4206 4.49776 5.48513C4.60542 5.54888 4.68796 5.64101 4.74538 5.76152C4.8028 5.88202 4.83151 6.02663 4.83151 6.19534C4.83151 6.36327 4.8028 6.50748 4.74538 6.62799C4.68796 6.74772 4.60542 6.83984 4.49776 6.90437C4.39009 6.96812 4.26054 7 4.1091 7ZM4.1091 6.61633C4.17872 6.61633 4.2347 6.59689 4.27705 6.55802C4.3194 6.51914 4.3499 6.46783 4.36856 6.40408C4.38794 6.33955 4.39763 6.26997 4.39763 6.19534C4.39763 6.11992 4.38794 6.05034 4.36856 5.98659C4.3499 5.92206 4.3194 5.87036 4.27705 5.83149C4.2347 5.79261 4.17872 5.77318 4.1091 5.77318C4.03948 5.77318 3.98349 5.79223 3.94114 5.83032C3.8988 5.86764 3.86829 5.91817 3.84963 5.98192C3.83097 6.04568 3.82164 6.11681 3.82164 6.19534C3.82164 6.27464 3.83097 6.34616 3.84963 6.40991C3.86829 6.47366 3.8988 6.5242 3.94114 6.56152C3.98349 6.59806 4.03948 6.61633 4.1091 6.61633Z" fill="#101010"/>
<path d="M5.72187 7C5.57115 7 5.44195 6.96812 5.33429 6.90437C5.22663 6.83984 5.14409 6.74772 5.08667 6.62799C5.02925 6.50748 5.00054 6.36327 5.00054 6.19534C5.00054 6.02663 5.02925 5.88202 5.08667 5.76152C5.14409 5.64101 5.22663 5.54888 5.33429 5.48513C5.44195 5.4206 5.57115 5.38834 5.72187 5.38834C5.87332 5.38834 6.00287 5.4206 6.11053 5.48513C6.21819 5.54888 6.30074 5.64101 6.35816 5.76152C6.41558 5.88202 6.44428 6.02663 6.44428 6.19534C6.44428 6.36327 6.41558 6.50748 6.35816 6.62799C6.30074 6.74772 6.21819 6.83984 6.11053 6.90437C6.00287 6.96812 5.87332 7 5.72187 7ZM5.72187 6.61633C5.79149 6.61633 5.84748 6.59689 5.88983 6.55802C5.93217 6.51914 5.96268 6.46783 5.98134 6.40408C6.00072 6.33955 6.01041 6.26997 6.01041 6.19534C6.01041 6.11992 6.00072 6.05034 5.98134 5.98659C5.96268 5.92206 5.93217 5.87036 5.88983 5.83149C5.84748 5.79261 5.79149 5.77318 5.72187 5.77318C5.65225 5.77318 5.59627 5.79223 5.55392 5.83032C5.51157 5.86764 5.48107 5.91817 5.46241 5.98192C5.44375 6.04568 5.43442 6.11681 5.43442 6.19534C5.43442 6.27464 5.44375 6.34616 5.46241 6.40991C5.48107 6.47366 5.51157 6.5242 5.55392 6.56152C5.59627 6.59806 5.65225 6.61633 5.72187 6.61633Z" fill="#101010"/>
<path d="M6.67253 6.97901V5.40933H7.08057L7.60273 6.26764V5.40933H8V6.97901H7.59411L7.06765 6.1102V6.97901H6.67253Z" fill="#101010"/>
</g>
<defs>
<clipPath id="clip0_160_363">
<rect width="10" height="10" fill="white"/>
</clipPath>
</defs>
</svg>
