<svg width="10" height="10" viewBox="0 0 10 10" fill="none" xmlns="http://www.w3.org/2000/svg">
<g clip-path="url(#clip0_360_2557)">
<path d="M0.649414 2.76131C0.649414 1.85521 1.38395 1.12068 2.29004 1.12068H7.70996C8.61605 1.12068 9.35059 1.85521 9.35059 2.76131V7.60267C9.35059 8.50876 8.61605 9.2433 7.70996 9.2433H2.29004C1.38395 9.2433 0.649414 8.50876 0.649414 7.60267V2.76131Z" fill="url(#paint0_linear_360_2557)"/>
<path d="M0.649414 2.76131C0.649414 1.85521 1.38395 1.12068 2.29004 1.12068H7.70996C8.61605 1.12068 9.35059 1.85521 9.35059 2.76131V7.60267C9.35059 8.50876 8.61605 9.2433 7.70996 9.2433H2.29004C1.38395 9.2433 0.649414 8.50876 0.649414 7.60267V2.76131Z" fill="url(#paint1_linear_360_2557)"/>
<path d="M0.649414 2.76131C0.649414 1.85521 1.38395 1.12068 2.29004 1.12068H7.70996C8.61605 1.12068 9.35059 1.85521 9.35059 2.76131V7.60267C9.35059 8.50876 8.61605 9.2433 7.70996 9.2433H2.29004C1.38395 9.2433 0.649414 8.50876 0.649414 7.60267V2.76131Z" fill="url(#paint2_linear_360_2557)"/>
<path d="M0.649414 2.76131C0.649414 1.85521 1.38395 1.12068 2.29004 1.12068H7.70996C8.61605 1.12068 9.35059 1.85521 9.35059 2.76131V7.60267C9.35059 8.50876 8.61605 9.2433 7.70996 9.2433H2.29004C1.38395 9.2433 0.649414 8.50876 0.649414 7.60267V2.76131Z" fill="url(#paint3_linear_360_2557)"/>
<path d="M0.649414 2.76131C0.649414 1.85521 1.38395 1.12068 2.29004 1.12068H7.70996C8.61605 1.12068 9.35059 1.85521 9.35059 2.76131V7.60267C9.35059 8.50876 8.61605 9.2433 7.70996 9.2433H2.29004C1.38395 9.2433 0.649414 8.50876 0.649414 7.60267V2.76131Z" fill="url(#paint4_linear_360_2557)"/>
<path d="M0.649414 2.76131C0.649414 1.85521 1.38395 1.12068 2.29004 1.12068H7.70996C8.61605 1.12068 9.35059 1.85521 9.35059 2.76131V7.60267C9.35059 8.50876 8.61605 9.2433 7.70996 9.2433H2.29004C1.38395 9.2433 0.649414 8.50876 0.649414 7.60267V2.76131Z" fill="url(#paint5_linear_360_2557)"/>
<path d="M0.649414 2.76131C0.649414 1.85521 1.38395 1.12068 2.29004 1.12068H7.70996C8.61605 1.12068 9.35059 1.85521 9.35059 2.76131V7.60267C9.35059 8.50876 8.61605 9.2433 7.70996 9.2433H2.29004C1.38395 9.2433 0.649414 8.50876 0.649414 7.60267V2.76131Z" fill="url(#paint6_radial_360_2557)"/>
<path d="M0.649414 2.76131C0.649414 1.85521 1.38395 1.12068 2.29004 1.12068H7.70996C8.61605 1.12068 9.35059 1.85521 9.35059 2.76131V7.60267C9.35059 8.50876 8.61605 9.2433 7.70996 9.2433H2.29004C1.38395 9.2433 0.649414 8.50876 0.649414 7.60267V2.76131Z" fill="url(#paint7_radial_360_2557)"/>
<path d="M0.649414 2.76131C0.649414 1.85521 1.38395 1.12068 2.29004 1.12068H7.70996C8.61605 1.12068 9.35059 1.85521 9.35059 2.76131V7.60267C9.35059 8.50876 8.61605 9.2433 7.70996 9.2433H2.29004C1.38395 9.2433 0.649414 8.50876 0.649414 7.60267V2.76131Z" fill="url(#paint8_linear_360_2557)"/>
<path d="M0.649414 2.76131C0.649414 1.85521 1.38395 1.12068 2.29004 1.12068H7.70996C8.61605 1.12068 9.35059 1.85521 9.35059 2.76131V7.60267C9.35059 8.50876 8.61605 9.2433 7.70996 9.2433H2.29004C1.38395 9.2433 0.649414 8.50876 0.649414 7.60267V2.76131Z" fill="url(#paint9_linear_360_2557)"/>
<path d="M9.35059 3.24959H0.649414V2.71443C0.649414 1.83423 1.36295 1.12068 2.24316 1.12068H7.75684C8.63705 1.12068 9.35059 1.83423 9.35059 2.71443V3.24959Z" fill="url(#paint10_linear_360_2557)"/>
<path d="M9.35059 3.24959H0.649414V2.71443C0.649414 1.83423 1.36295 1.12068 2.24316 1.12068H7.75684C8.63705 1.12068 9.35059 1.83423 9.35059 2.71443V3.24959Z" fill="url(#paint11_linear_360_2557)"/>
<path d="M9.35059 3.24959H0.649414V2.71443C0.649414 1.83423 1.36295 1.12068 2.24316 1.12068H7.75684C8.63705 1.12068 9.35059 1.83423 9.35059 2.71443V3.24959Z" fill="url(#paint12_radial_360_2557)"/>
<path d="M9.35059 3.24959H0.649414V2.71443C0.649414 1.83423 1.36295 1.12068 2.24316 1.12068H7.75684C8.63705 1.12068 9.35059 1.83423 9.35059 2.71443V3.24959Z" fill="url(#paint13_radial_360_2557)"/>
<path d="M9.35059 3.24959H0.649414V2.71443C0.649414 1.83423 1.36295 1.12068 2.24316 1.12068H7.75684C8.63705 1.12068 9.35059 1.83423 9.35059 2.71443V3.24959Z" fill="url(#paint14_linear_360_2557)"/>
<path d="M9.35059 3.24959H0.649414V2.71443C0.649414 1.83423 1.36295 1.12068 2.24316 1.12068H7.75684C8.63705 1.12068 9.35059 1.83423 9.35059 2.71443V3.24959Z" fill="url(#paint15_linear_360_2557)"/>
<path d="M9.35059 3.24959H0.649414V2.71443C0.649414 1.83423 1.36295 1.12068 2.24316 1.12068H7.75684C8.63705 1.12068 9.35059 1.83423 9.35059 2.71443V3.24959Z" fill="url(#paint16_radial_360_2557)"/>
<path d="M9.35059 3.24959H0.649414V2.71443C0.649414 1.83423 1.36295 1.12068 2.24316 1.12068H7.75684C8.63705 1.12068 9.35059 1.83423 9.35059 2.71443V3.24959Z" fill="url(#paint17_radial_360_2557)"/>
<path d="M9.35059 3.24959H0.649414V2.71443C0.649414 1.83423 1.36295 1.12068 2.24316 1.12068H7.75684C8.63705 1.12068 9.35059 1.83423 9.35059 2.71443V3.24959Z" fill="url(#paint18_radial_360_2557)"/>
<path d="M9.35059 3.24959H0.649414V2.71443C0.649414 1.83423 1.36295 1.12068 2.24316 1.12068H7.75684C8.63705 1.12068 9.35059 1.83423 9.35059 2.71443V3.24959Z" fill="url(#paint19_radial_360_2557)"/>
<path d="M9.35059 3.24959H0.649414V2.71443C0.649414 1.83423 1.36295 1.12068 2.24316 1.12068H7.75684C8.63705 1.12068 9.35059 1.83423 9.35059 2.71443V3.24959Z" fill="url(#paint20_radial_360_2557)"/>
<path d="M9.35072 6.31577V7.64956C9.35072 8.52976 8.63718 9.24331 7.75697 9.24331H6.40527L9.35072 6.31577Z" fill="#D3CBDD"/>
<path d="M9.35072 6.31577V7.64956C9.35072 8.52976 8.63718 9.24331 7.75697 9.24331H6.40527L9.35072 6.31577Z" fill="url(#paint21_linear_360_2557)"/>
<path d="M9.35072 6.31577V7.64956C9.35072 8.52976 8.63718 9.24331 7.75697 9.24331H6.40527L9.35072 6.31577Z" fill="url(#paint22_radial_360_2557)"/>
<path d="M9.35072 6.31577V7.64956C9.35072 8.52976 8.63718 9.24331 7.75697 9.24331H6.40527L9.35072 6.31577Z" fill="url(#paint23_linear_360_2557)"/>
<path d="M9.35072 6.31577V7.64956C9.35072 8.52976 8.63718 9.24331 7.75697 9.24331H6.40527L9.35072 6.31577Z" fill="url(#paint24_linear_360_2557)"/>
<path d="M9.35072 6.31577V7.64956C9.35072 8.52976 8.63718 9.24331 7.75697 9.24331H6.40527L9.35072 6.31577Z" fill="url(#paint25_linear_360_2557)"/>
<path d="M9.35072 6.31577V7.64956C9.35072 8.52976 8.63718 9.24331 7.75697 9.24331H6.40527L9.35072 6.31577Z" fill="url(#paint26_radial_360_2557)"/>
<path d="M6.41846 4.15974C6.41846 4.14249 6.43245 4.12849 6.44971 4.12849H7.26367C7.28093 4.12849 7.29492 4.14249 7.29492 4.15974V4.97371C7.29492 4.99097 7.28093 5.00496 7.26367 5.00496H6.44971C6.43245 5.00496 6.41846 4.99097 6.41846 4.97371V4.15974Z" fill="#9896A1"/>
<path d="M6.41846 4.15974C6.41846 4.14249 6.43245 4.12849 6.44971 4.12849H7.26367C7.28093 4.12849 7.29492 4.14249 7.29492 4.15974V4.97371C7.29492 4.99097 7.28093 5.00496 7.26367 5.00496H6.44971C6.43245 5.00496 6.41846 4.99097 6.41846 4.97371V4.15974Z" fill="url(#paint27_linear_360_2557)"/>
<path d="M6.41846 4.15974C6.41846 4.14249 6.43245 4.12849 6.44971 4.12849H7.26367C7.28093 4.12849 7.29492 4.14249 7.29492 4.15974V4.97371C7.29492 4.99097 7.28093 5.00496 7.26367 5.00496H6.44971C6.43245 5.00496 6.41846 4.99097 6.41846 4.97371V4.15974Z" fill="url(#paint28_linear_360_2557)"/>
<path d="M6.41846 4.15974C6.41846 4.14249 6.43245 4.12849 6.44971 4.12849H7.26367C7.28093 4.12849 7.29492 4.14249 7.29492 4.15974V4.97371C7.29492 4.99097 7.28093 5.00496 7.26367 5.00496H6.44971C6.43245 5.00496 6.41846 4.99097 6.41846 4.97371V4.15974Z" fill="url(#paint29_linear_360_2557)"/>
<path d="M6.41846 4.15974C6.41846 4.14249 6.43245 4.12849 6.44971 4.12849H7.26367C7.28093 4.12849 7.29492 4.14249 7.29492 4.15974V4.97371C7.29492 4.99097 7.28093 5.00496 7.26367 5.00496H6.44971C6.43245 5.00496 6.41846 4.99097 6.41846 4.97371V4.15974Z" fill="url(#paint30_linear_360_2557)"/>
<path d="M6.41846 5.72224C6.41846 5.70499 6.43245 5.69099 6.44971 5.69099H7.26367C7.28093 5.69099 7.29492 5.70499 7.29492 5.72224V6.53621C7.29492 6.55347 7.28093 6.56746 7.26367 6.56746H6.44971C6.43245 6.56746 6.41846 6.55347 6.41846 6.53621V5.72224Z" fill="url(#paint31_linear_360_2557)"/>
<path d="M6.41846 5.72224C6.41846 5.70499 6.43245 5.69099 6.44971 5.69099H7.26367C7.28093 5.69099 7.29492 5.70499 7.29492 5.72224V6.53621C7.29492 6.55347 7.28093 6.56746 7.26367 6.56746H6.44971C6.43245 6.56746 6.41846 6.55347 6.41846 6.53621V5.72224Z" fill="url(#paint32_linear_360_2557)"/>
<path d="M6.41846 5.72224C6.41846 5.70499 6.43245 5.69099 6.44971 5.69099H7.26367C7.28093 5.69099 7.29492 5.70499 7.29492 5.72224V6.53621C7.29492 6.55347 7.28093 6.56746 7.26367 6.56746H6.44971C6.43245 6.56746 6.41846 6.55347 6.41846 6.53621V5.72224Z" fill="url(#paint33_linear_360_2557)"/>
<path d="M6.41846 5.72224C6.41846 5.70499 6.43245 5.69099 6.44971 5.69099H7.26367C7.28093 5.69099 7.29492 5.70499 7.29492 5.72224V6.53621C7.29492 6.55347 7.28093 6.56746 7.26367 6.56746H6.44971C6.43245 6.56746 6.41846 6.55347 6.41846 6.53621V5.72224Z" fill="url(#paint34_linear_360_2557)"/>
<path d="M6.41846 5.72224C6.41846 5.70499 6.43245 5.69099 6.44971 5.69099H7.26367C7.28093 5.69099 7.29492 5.70499 7.29492 5.72224V6.53621C7.29492 6.55347 7.28093 6.56746 7.26367 6.56746H6.44971C6.43245 6.56746 6.41846 6.55347 6.41846 6.53621V5.72224Z" fill="url(#paint35_linear_360_2557)"/>
<path d="M6.41846 7.32396C6.41846 7.3067 6.43245 7.29271 6.44971 7.29271H7.26367C7.28093 7.29271 7.29492 7.3067 7.29492 7.32396V8.13792C7.29492 8.15518 7.28093 8.16917 7.26367 8.16917H6.44971C6.43245 8.16917 6.41846 8.15518 6.41846 8.13792V7.32396Z" fill="#9896A1"/>
<path d="M6.41846 7.32396C6.41846 7.3067 6.43245 7.29271 6.44971 7.29271H7.26367C7.28093 7.29271 7.29492 7.3067 7.29492 7.32396V8.13792C7.29492 8.15518 7.28093 8.16917 7.26367 8.16917H6.44971C6.43245 8.16917 6.41846 8.15518 6.41846 8.13792V7.32396Z" fill="url(#paint36_linear_360_2557)"/>
<path d="M6.41846 7.32396C6.41846 7.3067 6.43245 7.29271 6.44971 7.29271H7.26367C7.28093 7.29271 7.29492 7.3067 7.29492 7.32396V8.13792C7.29492 8.15518 7.28093 8.16917 7.26367 8.16917H6.44971C6.43245 8.16917 6.41846 8.15518 6.41846 8.13792V7.32396Z" fill="url(#paint37_linear_360_2557)"/>
<path d="M6.41846 7.32396C6.41846 7.3067 6.43245 7.29271 6.44971 7.29271H7.26367C7.28093 7.29271 7.29492 7.3067 7.29492 7.32396V8.13792C7.29492 8.15518 7.28093 8.16917 7.26367 8.16917H6.44971C6.43245 8.16917 6.41846 8.15518 6.41846 8.13792V7.32396Z" fill="url(#paint38_linear_360_2557)"/>
<path d="M6.41846 7.32396C6.41846 7.3067 6.43245 7.29271 6.44971 7.29271H7.26367C7.28093 7.29271 7.29492 7.3067 7.29492 7.32396V8.13792C7.29492 8.15518 7.28093 8.16917 7.26367 8.16917H6.44971C6.43245 8.16917 6.41846 8.15518 6.41846 8.13792V7.32396Z" fill="url(#paint39_linear_360_2557)"/>
<path d="M4.54712 7.28467C4.54712 7.26741 4.56111 7.25342 4.57837 7.25342H5.39233C5.40959 7.25342 5.42358 7.26741 5.42358 7.28467V8.09863C5.42358 8.11589 5.40959 8.12988 5.39233 8.12988H4.57837C4.56111 8.12988 4.54712 8.11589 4.54712 8.09863V7.28467Z" fill="#9896A1"/>
<path d="M4.54712 7.28467C4.54712 7.26741 4.56111 7.25342 4.57837 7.25342H5.39233C5.40959 7.25342 5.42358 7.26741 5.42358 7.28467V8.09863C5.42358 8.11589 5.40959 8.12988 5.39233 8.12988H4.57837C4.56111 8.12988 4.54712 8.11589 4.54712 8.09863V7.28467Z" fill="url(#paint40_linear_360_2557)"/>
<path d="M4.54712 7.28467C4.54712 7.26741 4.56111 7.25342 4.57837 7.25342H5.39233C5.40959 7.25342 5.42358 7.26741 5.42358 7.28467V8.09863C5.42358 8.11589 5.40959 8.12988 5.39233 8.12988H4.57837C4.56111 8.12988 4.54712 8.11589 4.54712 8.09863V7.28467Z" fill="url(#paint41_linear_360_2557)"/>
<path d="M4.54712 7.28467C4.54712 7.26741 4.56111 7.25342 4.57837 7.25342H5.39233C5.40959 7.25342 5.42358 7.26741 5.42358 7.28467V8.09863C5.42358 8.11589 5.40959 8.12988 5.39233 8.12988H4.57837C4.56111 8.12988 4.54712 8.11589 4.54712 8.09863V7.28467Z" fill="url(#paint42_linear_360_2557)"/>
<path d="M4.54712 7.28467C4.54712 7.26741 4.56111 7.25342 4.57837 7.25342H5.39233C5.40959 7.25342 5.42358 7.26741 5.42358 7.28467V8.09863C5.42358 8.11589 5.40959 8.12988 5.39233 8.12988H4.57837C4.56111 8.12988 4.54712 8.11589 4.54712 8.09863V7.28467Z" fill="url(#paint43_linear_360_2557)"/>
<path d="M4.54712 5.72224C4.54712 5.70499 4.56111 5.69099 4.57837 5.69099H5.39233C5.40959 5.69099 5.42358 5.70499 5.42358 5.72224V6.53621C5.42358 6.55347 5.40959 6.56746 5.39233 6.56746H4.57837C4.56111 6.56746 4.54712 6.55347 4.54712 6.53621V5.72224Z" fill="#9896A1"/>
<path d="M4.54712 5.72224C4.54712 5.70499 4.56111 5.69099 4.57837 5.69099H5.39233C5.40959 5.69099 5.42358 5.70499 5.42358 5.72224V6.53621C5.42358 6.55347 5.40959 6.56746 5.39233 6.56746H4.57837C4.56111 6.56746 4.54712 6.55347 4.54712 6.53621V5.72224Z" fill="url(#paint44_linear_360_2557)"/>
<path d="M4.54712 5.72224C4.54712 5.70499 4.56111 5.69099 4.57837 5.69099H5.39233C5.40959 5.69099 5.42358 5.70499 5.42358 5.72224V6.53621C5.42358 6.55347 5.40959 6.56746 5.39233 6.56746H4.57837C4.56111 6.56746 4.54712 6.55347 4.54712 6.53621V5.72224Z" fill="url(#paint45_linear_360_2557)"/>
<path d="M4.54712 5.72224C4.54712 5.70499 4.56111 5.69099 4.57837 5.69099H5.39233C5.40959 5.69099 5.42358 5.70499 5.42358 5.72224V6.53621C5.42358 6.55347 5.40959 6.56746 5.39233 6.56746H4.57837C4.56111 6.56746 4.54712 6.55347 4.54712 6.53621V5.72224Z" fill="url(#paint46_linear_360_2557)"/>
<path d="M4.54712 5.72224C4.54712 5.70499 4.56111 5.69099 4.57837 5.69099H5.39233C5.40959 5.69099 5.42358 5.70499 5.42358 5.72224V6.53621C5.42358 6.55347 5.40959 6.56746 5.39233 6.56746H4.57837C4.56111 6.56746 4.54712 6.55347 4.54712 6.53621V5.72224Z" fill="url(#paint47_linear_360_2557)"/>
<path d="M2.67578 7.28467C2.67578 7.26741 2.68977 7.25342 2.70703 7.25342H3.521C3.53826 7.25342 3.55225 7.26741 3.55225 7.28467V8.09863C3.55225 8.11589 3.53826 8.12988 3.521 8.12988H2.70703C2.68977 8.12988 2.67578 8.11589 2.67578 8.09863V7.28467Z" fill="#9896A1"/>
<path d="M2.67578 7.28467C2.67578 7.26741 2.68977 7.25342 2.70703 7.25342H3.521C3.53826 7.25342 3.55225 7.26741 3.55225 7.28467V8.09863C3.55225 8.11589 3.53826 8.12988 3.521 8.12988H2.70703C2.68977 8.12988 2.67578 8.11589 2.67578 8.09863V7.28467Z" fill="url(#paint48_linear_360_2557)"/>
<path d="M2.67578 7.28467C2.67578 7.26741 2.68977 7.25342 2.70703 7.25342H3.521C3.53826 7.25342 3.55225 7.26741 3.55225 7.28467V8.09863C3.55225 8.11589 3.53826 8.12988 3.521 8.12988H2.70703C2.68977 8.12988 2.67578 8.11589 2.67578 8.09863V7.28467Z" fill="url(#paint49_linear_360_2557)"/>
<path d="M2.67578 7.28467C2.67578 7.26741 2.68977 7.25342 2.70703 7.25342H3.521C3.53826 7.25342 3.55225 7.26741 3.55225 7.28467V8.09863C3.55225 8.11589 3.53826 8.12988 3.521 8.12988H2.70703C2.68977 8.12988 2.67578 8.11589 2.67578 8.09863V7.28467Z" fill="url(#paint50_linear_360_2557)"/>
<path d="M2.67578 7.28467C2.67578 7.26741 2.68977 7.25342 2.70703 7.25342H3.521C3.53826 7.25342 3.55225 7.26741 3.55225 7.28467V8.09863C3.55225 8.11589 3.53826 8.12988 3.521 8.12988H2.70703C2.68977 8.12988 2.67578 8.11589 2.67578 8.09863V7.28467Z" fill="url(#paint51_linear_360_2557)"/>
<path d="M2.67578 5.72224C2.67578 5.70499 2.68977 5.69099 2.70703 5.69099H3.521C3.53826 5.69099 3.55225 5.70499 3.55225 5.72224V6.53621C3.55225 6.55347 3.53826 6.56746 3.521 6.56746H2.70703C2.68977 6.56746 2.67578 6.55347 2.67578 6.53621V5.72224Z" fill="#9896A1"/>
<path d="M2.67578 5.72224C2.67578 5.70499 2.68977 5.69099 2.70703 5.69099H3.521C3.53826 5.69099 3.55225 5.70499 3.55225 5.72224V6.53621C3.55225 6.55347 3.53826 6.56746 3.521 6.56746H2.70703C2.68977 6.56746 2.67578 6.55347 2.67578 6.53621V5.72224Z" fill="url(#paint52_linear_360_2557)"/>
<path d="M2.67578 5.72224C2.67578 5.70499 2.68977 5.69099 2.70703 5.69099H3.521C3.53826 5.69099 3.55225 5.70499 3.55225 5.72224V6.53621C3.55225 6.55347 3.53826 6.56746 3.521 6.56746H2.70703C2.68977 6.56746 2.67578 6.55347 2.67578 6.53621V5.72224Z" fill="url(#paint53_linear_360_2557)"/>
<path d="M2.67578 5.72224C2.67578 5.70499 2.68977 5.69099 2.70703 5.69099H3.521C3.53826 5.69099 3.55225 5.70499 3.55225 5.72224V6.53621C3.55225 6.55347 3.53826 6.56746 3.521 6.56746H2.70703C2.68977 6.56746 2.67578 6.55347 2.67578 6.53621V5.72224Z" fill="url(#paint54_linear_360_2557)"/>
<path d="M2.67578 5.72224C2.67578 5.70499 2.68977 5.69099 2.70703 5.69099H3.521C3.53826 5.69099 3.55225 5.70499 3.55225 5.72224V6.53621C3.55225 6.55347 3.53826 6.56746 3.521 6.56746H2.70703C2.68977 6.56746 2.67578 6.55347 2.67578 6.53621V5.72224Z" fill="url(#paint55_linear_360_2557)"/>
<path d="M2.67578 4.15974C2.67578 4.14249 2.68977 4.12849 2.70703 4.12849H3.521C3.53826 4.12849 3.55225 4.14249 3.55225 4.15974V4.97371C3.55225 4.99097 3.53826 5.00496 3.521 5.00496H2.70703C2.68977 5.00496 2.67578 4.99097 2.67578 4.97371V4.15974Z" fill="#9896A1"/>
<path d="M2.67578 4.15974C2.67578 4.14249 2.68977 4.12849 2.70703 4.12849H3.521C3.53826 4.12849 3.55225 4.14249 3.55225 4.15974V4.97371C3.55225 4.99097 3.53826 5.00496 3.521 5.00496H2.70703C2.68977 5.00496 2.67578 4.99097 2.67578 4.97371V4.15974Z" fill="url(#paint56_linear_360_2557)"/>
<path d="M2.67578 4.15974C2.67578 4.14249 2.68977 4.12849 2.70703 4.12849H3.521C3.53826 4.12849 3.55225 4.14249 3.55225 4.15974V4.97371C3.55225 4.99097 3.53826 5.00496 3.521 5.00496H2.70703C2.68977 5.00496 2.67578 4.99097 2.67578 4.97371V4.15974Z" fill="url(#paint57_linear_360_2557)"/>
<path d="M2.67578 4.15974C2.67578 4.14249 2.68977 4.12849 2.70703 4.12849H3.521C3.53826 4.12849 3.55225 4.14249 3.55225 4.15974V4.97371C3.55225 4.99097 3.53826 5.00496 3.521 5.00496H2.70703C2.68977 5.00496 2.67578 4.99097 2.67578 4.97371V4.15974Z" fill="url(#paint58_linear_360_2557)"/>
<path d="M2.67578 4.15974C2.67578 4.14249 2.68977 4.12849 2.70703 4.12849H3.521C3.53826 4.12849 3.55225 4.14249 3.55225 4.15974V4.97371C3.55225 4.99097 3.53826 5.00496 3.521 5.00496H2.70703C2.68977 5.00496 2.67578 4.99097 2.67578 4.97371V4.15974Z" fill="url(#paint59_linear_360_2557)"/>
<path d="M4.54712 4.15974C4.54712 4.14249 4.56111 4.12849 4.57837 4.12849H5.39233C5.40959 4.12849 5.42358 4.14249 5.42358 4.15974V4.97371C5.42358 4.99097 5.40959 5.00496 5.39233 5.00496H4.57837C4.56111 5.00496 4.54712 4.99097 4.54712 4.97371V4.15974Z" fill="#9896A1"/>
<path d="M4.54712 4.15974C4.54712 4.14249 4.56111 4.12849 4.57837 4.12849H5.39233C5.40959 4.12849 5.42358 4.14249 5.42358 4.15974V4.97371C5.42358 4.99097 5.40959 5.00496 5.39233 5.00496H4.57837C4.56111 5.00496 4.54712 4.99097 4.54712 4.97371V4.15974Z" fill="url(#paint60_linear_360_2557)"/>
<path d="M4.54712 4.15974C4.54712 4.14249 4.56111 4.12849 4.57837 4.12849H5.39233C5.40959 4.12849 5.42358 4.14249 5.42358 4.15974V4.97371C5.42358 4.99097 5.40959 5.00496 5.39233 5.00496H4.57837C4.56111 5.00496 4.54712 4.99097 4.54712 4.97371V4.15974Z" fill="url(#paint61_linear_360_2557)"/>
<path d="M4.54712 4.15974C4.54712 4.14249 4.56111 4.12849 4.57837 4.12849H5.39233C5.40959 4.12849 5.42358 4.14249 5.42358 4.15974V4.97371C5.42358 4.99097 5.40959 5.00496 5.39233 5.00496H4.57837C4.56111 5.00496 4.54712 4.99097 4.54712 4.97371V4.15974Z" fill="url(#paint62_linear_360_2557)"/>
<path d="M4.54712 4.15974C4.54712 4.14249 4.56111 4.12849 4.57837 4.12849H5.39233C5.40959 4.12849 5.42358 4.14249 5.42358 4.15974V4.97371C5.42358 4.99097 5.40959 5.00496 5.39233 5.00496H4.57837C4.56111 5.00496 4.54712 4.99097 4.54712 4.97371V4.15974Z" fill="url(#paint63_linear_360_2557)"/>
<path d="M9.32106 6.37121C9.34 6.35227 9.35064 6.32658 9.35064 6.2998C9.35064 6.24402 9.30543 6.19881 9.24965 6.19881H8.88428C7.46042 6.19881 6.30615 7.35307 6.30615 8.77693V9.14231C6.30615 9.19808 6.35137 9.2433 6.40714 9.2433C6.43393 9.2433 6.45961 9.23266 6.47855 9.21372L9.32106 6.37121Z" fill="url(#paint64_radial_360_2557)"/>
<path d="M9.32106 6.37121C9.34 6.35227 9.35064 6.32658 9.35064 6.2998C9.35064 6.24402 9.30543 6.19881 9.24965 6.19881H8.88428C7.46042 6.19881 6.30615 7.35307 6.30615 8.77693V9.14231C6.30615 9.19808 6.35137 9.2433 6.40714 9.2433C6.43393 9.2433 6.45961 9.23266 6.47855 9.21372L9.32106 6.37121Z" fill="url(#paint65_linear_360_2557)"/>
<path d="M9.32106 6.37121C9.34 6.35227 9.35064 6.32658 9.35064 6.2998C9.35064 6.24402 9.30543 6.19881 9.24965 6.19881H8.88428C7.46042 6.19881 6.30615 7.35307 6.30615 8.77693V9.14231C6.30615 9.19808 6.35137 9.2433 6.40714 9.2433C6.43393 9.2433 6.45961 9.23266 6.47855 9.21372L9.32106 6.37121Z" fill="url(#paint66_radial_360_2557)"/>
<path d="M2.54883 0.905838C2.54883 0.690102 2.72372 0.515213 2.93945 0.515213C3.15519 0.515213 3.33008 0.690102 3.33008 0.905838V2.11189C3.33008 2.32763 3.15519 2.50252 2.93945 2.50252C2.72372 2.50252 2.54883 2.32763 2.54883 2.11189V0.905838Z" fill="url(#paint67_linear_360_2557)"/>
<path d="M2.54883 0.905838C2.54883 0.690102 2.72372 0.515213 2.93945 0.515213C3.15519 0.515213 3.33008 0.690102 3.33008 0.905838V2.11189C3.33008 2.32763 3.15519 2.50252 2.93945 2.50252C2.72372 2.50252 2.54883 2.32763 2.54883 2.11189V0.905838Z" fill="url(#paint68_radial_360_2557)"/>
<path d="M2.54883 0.905838C2.54883 0.690102 2.72372 0.515213 2.93945 0.515213C3.15519 0.515213 3.33008 0.690102 3.33008 0.905838V2.11189C3.33008 2.32763 3.15519 2.50252 2.93945 2.50252C2.72372 2.50252 2.54883 2.32763 2.54883 2.11189V0.905838Z" fill="url(#paint69_radial_360_2557)"/>
<path d="M6.62598 0.905838C6.62598 0.690102 6.80087 0.515213 7.0166 0.515213C7.23234 0.515213 7.40723 0.690102 7.40723 0.905838V2.11189C7.40723 2.32763 7.23234 2.50252 7.0166 2.50252C6.80087 2.50252 6.62598 2.32763 6.62598 2.11189V0.905838Z" fill="url(#paint70_linear_360_2557)"/>
<path d="M6.62598 0.905838C6.62598 0.690102 6.80087 0.515213 7.0166 0.515213C7.23234 0.515213 7.40723 0.690102 7.40723 0.905838V2.11189C7.40723 2.32763 7.23234 2.50252 7.0166 2.50252C6.80087 2.50252 6.62598 2.32763 6.62598 2.11189V0.905838Z" fill="url(#paint71_radial_360_2557)"/>
<path d="M6.62598 0.905838C6.62598 0.690102 6.80087 0.515213 7.0166 0.515213C7.23234 0.515213 7.40723 0.690102 7.40723 0.905838V2.11189C7.40723 2.32763 7.23234 2.50252 7.0166 2.50252C6.80087 2.50252 6.62598 2.32763 6.62598 2.11189V0.905838Z" fill="url(#paint72_radial_360_2557)"/>
</g>
<defs>
<linearGradient id="paint0_linear_360_2557" x1="1.61729" y1="5.65191" x2="8.75721" y2="5.65191" gradientUnits="userSpaceOnUse">
<stop stop-color="#E4DEEC"/>
<stop offset="1" stop-color="#E7E2EF"/>
</linearGradient>
<linearGradient id="paint1_linear_360_2557" x1="0.446399" y1="5.4036" x2="1.45706" y2="5.4036" gradientUnits="userSpaceOnUse">
<stop stop-color="#AC9EBF" stop-opacity="0.73"/>
<stop offset="0.565214" stop-color="#AC9EBF" stop-opacity="0.226703"/>
<stop offset="0.831735" stop-color="#AC9EBF" stop-opacity="0.0550695"/>
<stop offset="1" stop-color="#AC9EBF" stop-opacity="0"/>
</linearGradient>
<linearGradient id="paint2_linear_360_2557" x1="0.571865" y1="5.2914" x2="1.55219" y2="5.2914" gradientUnits="userSpaceOnUse">
<stop stop-color="#CCC9D1"/>
<stop offset="0.504059" stop-color="#CCC9D1" stop-opacity="0.381425"/>
<stop offset="0.748215" stop-color="#CCC9D1" stop-opacity="0.133098"/>
<stop offset="1" stop-color="#CCC9D1" stop-opacity="0"/>
</linearGradient>
<linearGradient id="paint3_linear_360_2557" x1="0.423357" y1="5.47516" x2="1.09083" y2="5.47516" gradientUnits="userSpaceOnUse">
<stop stop-color="#AB9EBE" stop-opacity="0.62"/>
<stop offset="0.844796" stop-color="#AB9EBE" stop-opacity="0.03"/>
<stop offset="1" stop-color="#AB9EBE" stop-opacity="0"/>
</linearGradient>
<linearGradient id="paint4_linear_360_2557" x1="2.61963" y1="9.95039" x2="2.61963" y2="8.08992" gradientUnits="userSpaceOnUse">
<stop stop-color="#AC9EBF"/>
<stop offset="0.777445" stop-color="#AC9EBF" stop-opacity="0.164632"/>
<stop offset="1" stop-color="#AC9EBF" stop-opacity="0"/>
</linearGradient>
<linearGradient id="paint5_linear_360_2557" x1="3.1682" y1="9.8184" x2="3.1682" y2="8.77377" gradientUnits="userSpaceOnUse">
<stop offset="0.364621" stop-color="#AC9EBF"/>
<stop offset="0.865223" stop-color="#AC9EBF" stop-opacity="0.0952221"/>
<stop offset="1" stop-color="#AC9EBF" stop-opacity="0"/>
</linearGradient>
<radialGradient id="paint6_radial_360_2557" cx="0" cy="0" r="1" gradientUnits="userSpaceOnUse" gradientTransform="translate(7.67612 1.8949) rotate(133.809) scale(9.57998 5.81565)">
<stop stop-color="#AC9EBF" stop-opacity="0"/>
<stop offset="0.884758" stop-color="#AC9EBF" stop-opacity="0.0191153"/>
<stop offset="0.911221" stop-color="#AC9EBF" stop-opacity="0.116465"/>
<stop offset="1" stop-color="#AC9EBF" stop-opacity="0.73"/>
</radialGradient>
<radialGradient id="paint7_radial_360_2557" cx="0" cy="0" r="1" gradientUnits="userSpaceOnUse" gradientTransform="translate(7.67612 1.8949) rotate(133.809) scale(9.57998 5.81565)">
<stop stop-color="#AB9EBE" stop-opacity="0"/>
<stop offset="0.941889" stop-color="#AB9EBE" stop-opacity="0.0191153"/>
<stop offset="0.968045" stop-color="#AB9EBE" stop-opacity="0.116465"/>
<stop offset="1" stop-color="#AB9EBE" stop-opacity="0.73"/>
</radialGradient>
<linearGradient id="paint8_linear_360_2557" x1="9.38832" y1="5.18199" x2="8.58894" y2="5.18199" gradientUnits="userSpaceOnUse">
<stop offset="0.145191" stop-color="#F4F1F9"/>
<stop offset="0.616923" stop-color="#F4F1F9" stop-opacity="0.496781"/>
<stop offset="0.823441" stop-color="#F4F1F9" stop-opacity="0.121417"/>
<stop offset="1" stop-color="#F4F1F9" stop-opacity="0"/>
</linearGradient>
<linearGradient id="paint9_linear_360_2557" x1="9.59749" y1="5.45277" x2="9.12631" y2="5.45277" gradientUnits="userSpaceOnUse">
<stop stop-color="#AB9EBE" stop-opacity="0.72"/>
<stop offset="0.85823" stop-color="#AB9EBE" stop-opacity="0.0549551"/>
<stop offset="1" stop-color="#AB9EBE" stop-opacity="0"/>
</linearGradient>
<linearGradient id="paint10_linear_360_2557" x1="0.547276" y1="2.76488" x2="8.69885" y2="2.76488" gradientUnits="userSpaceOnUse">
<stop stop-color="#4271C7"/>
<stop offset="0.794195" stop-color="#4F9FDC"/>
</linearGradient>
<linearGradient id="paint11_linear_360_2557" x1="5" y1="1.12068" x2="5" y2="1.71944" gradientUnits="userSpaceOnUse">
<stop offset="0.315625" stop-color="#5591D3"/>
<stop offset="1" stop-color="#5591D3" stop-opacity="0"/>
</linearGradient>
<radialGradient id="paint12_radial_360_2557" cx="0" cy="0" r="1" gradientUnits="userSpaceOnUse" gradientTransform="translate(7.49913 3.09466) rotate(-55.7615) scale(2.02498 1.856)">
<stop stop-color="#70C0F8" stop-opacity="0"/>
<stop offset="0.537712" stop-color="#70C0F8" stop-opacity="0.129121"/>
<stop offset="0.600109" stop-color="#70C0F8" stop-opacity="0.242949"/>
<stop offset="0.777418" stop-color="#70C0F8" stop-opacity="0.823821"/>
<stop offset="0.806938" stop-color="#70C0F8" stop-opacity="0.911572"/>
<stop offset="0.837741" stop-color="#70C0F8" stop-opacity="0.94"/>
<stop offset="0.877133" stop-color="#70C0F8" stop-opacity="0.95"/>
<stop offset="0.910017" stop-color="#70C0F8" stop-opacity="0.747082"/>
<stop offset="0.953809" stop-color="#70C0F8" stop-opacity="0.445935"/>
<stop offset="1" stop-color="#70C0F8" stop-opacity="0.07"/>
</radialGradient>
<radialGradient id="paint13_radial_360_2557" cx="0" cy="0" r="1" gradientUnits="userSpaceOnUse" gradientTransform="translate(6.24828 1.96713) rotate(-32.5413) scale(1.85277 4.21533)">
<stop offset="0.411532" stop-color="#4F9FDC"/>
<stop offset="0.653004" stop-color="#4F9FDC" stop-opacity="0.82"/>
<stop offset="0.765553" stop-color="#4F9FDC" stop-opacity="0.42869"/>
<stop offset="0.858234" stop-color="#4F9FDC" stop-opacity="0.187929"/>
<stop offset="1" stop-color="#4F9FDC" stop-opacity="0"/>
</radialGradient>
<linearGradient id="paint14_linear_360_2557" x1="6.61718" y1="3.5062" x2="6.61718" y2="2.93658" gradientUnits="userSpaceOnUse">
<stop stop-color="#437AC4"/>
<stop offset="0.837011" stop-color="#437AC4" stop-opacity="0.0841696"/>
<stop offset="1" stop-color="#437AC4" stop-opacity="0"/>
</linearGradient>
<linearGradient id="paint15_linear_360_2557" x1="0.547276" y1="2.76488" x2="8.69885" y2="2.76488" gradientUnits="userSpaceOnUse">
<stop stop-color="#4271C7"/>
<stop offset="0.794195" stop-color="#4F9FDC" stop-opacity="0.25"/>
</linearGradient>
<radialGradient id="paint16_radial_360_2557" cx="0" cy="0" r="1" gradientUnits="userSpaceOnUse" gradientTransform="translate(6.78478 3.24959) rotate(-170.157) scale(6.22702 3.4618)">
<stop offset="0.710095" stop-color="#3E62C2" stop-opacity="0"/>
<stop offset="1" stop-color="#3B41A1"/>
</radialGradient>
<radialGradient id="paint17_radial_360_2557" cx="0" cy="0" r="1" gradientUnits="userSpaceOnUse" gradientTransform="translate(6.85037 2.08596) rotate(173.753) scale(0.614256)">
<stop offset="0.146645" stop-color="#407FC8"/>
<stop offset="0.874064" stop-color="#407FC8" stop-opacity="0.141953"/>
<stop offset="1" stop-color="#407FC8" stop-opacity="0"/>
</radialGradient>
<radialGradient id="paint18_radial_360_2557" cx="0" cy="0" r="1" gradientUnits="userSpaceOnUse" gradientTransform="translate(6.70459 1.31779) rotate(-179.549) scale(0.687406 1.48174)">
<stop offset="0.12869" stop-color="#407FC8"/>
<stop offset="0.517303" stop-color="#407FC8" stop-opacity="0.624625"/>
<stop offset="0.841964" stop-color="#407FC8" stop-opacity="0.141953"/>
<stop offset="1" stop-color="#407FC8" stop-opacity="0"/>
</radialGradient>
<radialGradient id="paint19_radial_360_2557" cx="0" cy="0" r="1" gradientUnits="userSpaceOnUse" gradientTransform="translate(2.74048 2.20143) rotate(-180) scale(0.531683)">
<stop stop-color="#375DB2"/>
<stop offset="0.83386" stop-color="#375DB2" stop-opacity="0.0893559"/>
<stop offset="1" stop-color="#375DB2" stop-opacity="0"/>
</radialGradient>
<radialGradient id="paint20_radial_360_2557" cx="0" cy="0" r="1" gradientUnits="userSpaceOnUse" gradientTransform="translate(2.55851 1.56254) rotate(174.289) scale(0.533966 1.09367)">
<stop stop-color="#375DB2"/>
<stop offset="0.428737" stop-color="#375DB2" stop-opacity="0.606993"/>
<stop offset="0.83386" stop-color="#375DB2" stop-opacity="0.0893559"/>
<stop offset="1" stop-color="#375DB2" stop-opacity="0"/>
</radialGradient>
<linearGradient id="paint21_linear_360_2557" x1="9.19763" y1="7.39779" x2="8.33522" y2="7.39779" gradientUnits="userSpaceOnUse">
<stop stop-color="#EFEAF6"/>
<stop offset="0.589482" stop-color="#EFEAF6" stop-opacity="0.2095"/>
<stop offset="0.848243" stop-color="#EFEAF6" stop-opacity="0.069066"/>
<stop offset="1" stop-color="#EFEAF6" stop-opacity="0"/>
</linearGradient>
<radialGradient id="paint22_radial_360_2557" cx="0" cy="0" r="1" gradientUnits="userSpaceOnUse" gradientTransform="translate(7.24527 7.01539) rotate(47.0246) scale(2.40801 3.35335)">
<stop stop-color="#EFEAF6" stop-opacity="0"/>
<stop offset="0.382846" stop-color="#EFEAF6" stop-opacity="0.069066"/>
<stop offset="0.609706" stop-color="#EFEAF6" stop-opacity="0.38"/>
<stop offset="0.844218" stop-color="#EFEAF6"/>
</radialGradient>
<linearGradient id="paint23_linear_360_2557" x1="7.58438" y1="7.50763" x2="8.1183" y2="8.05253" gradientUnits="userSpaceOnUse">
<stop stop-color="#A89BBA" stop-opacity="0.69"/>
<stop offset="0.880123" stop-color="#A89BBA" stop-opacity="0.0522108"/>
<stop offset="1" stop-color="#A89BBA" stop-opacity="0"/>
</linearGradient>
<linearGradient id="paint24_linear_360_2557" x1="8.06655" y1="9.9045" x2="8.06655" y2="8.53513" gradientUnits="userSpaceOnUse">
<stop offset="0.248984" stop-color="#A89BBA"/>
<stop offset="0.856001" stop-color="#A89BBA" stop-opacity="0.0971553"/>
<stop offset="1" stop-color="#A89BBA" stop-opacity="0"/>
</linearGradient>
<linearGradient id="paint25_linear_360_2557" x1="9.66278" y1="6.88385" x2="9.14664" y2="6.88385" gradientUnits="userSpaceOnUse">
<stop stop-color="#A89BBA" stop-opacity="0.74"/>
<stop offset="0.839186" stop-color="#A89BBA" stop-opacity="0.0553304"/>
<stop offset="0.91781" stop-color="#A89BBA" stop-opacity="0.0244732"/>
<stop offset="1" stop-color="#A89BBA" stop-opacity="0"/>
</linearGradient>
<radialGradient id="paint26_radial_360_2557" cx="0" cy="0" r="1" gradientUnits="userSpaceOnUse" gradientTransform="translate(6.90254 6.8666) rotate(44.9994) scale(2.78987 2.57088)">
<stop stop-color="#A89BBA" stop-opacity="0"/>
<stop offset="0.899092" stop-color="#A89BBA" stop-opacity="0.0553304"/>
<stop offset="0.920202" stop-color="#A89BBA" stop-opacity="0.090963"/>
<stop offset="0.938557" stop-color="#A89BBA" stop-opacity="0.171545"/>
<stop offset="1" stop-color="#A89BBA" stop-opacity="0.5"/>
</radialGradient>
<linearGradient id="paint27_linear_360_2557" x1="6.41846" y1="4.56673" x2="6.47168" y2="4.56673" gradientUnits="userSpaceOnUse">
<stop stop-color="#92909B"/>
<stop offset="1" stop-color="#92909B" stop-opacity="0"/>
</linearGradient>
<linearGradient id="paint28_linear_360_2557" x1="6.85669" y1="5.00496" x2="6.85669" y2="4.94173" gradientUnits="userSpaceOnUse">
<stop stop-color="#92909B"/>
<stop offset="1" stop-color="#92909B" stop-opacity="0"/>
</linearGradient>
<linearGradient id="paint29_linear_360_2557" x1="6.85669" y1="4.12849" x2="6.85669" y2="4.17926" gradientUnits="userSpaceOnUse">
<stop stop-color="#A7A5AE"/>
<stop offset="1" stop-color="#A7A5AE" stop-opacity="0"/>
</linearGradient>
<linearGradient id="paint30_linear_360_2557" x1="7.29492" y1="4.63045" x2="7.23764" y2="4.63045" gradientUnits="userSpaceOnUse">
<stop stop-color="#A7A5AE"/>
<stop offset="1" stop-color="#A7A5AE" stop-opacity="0"/>
</linearGradient>
<linearGradient id="paint31_linear_360_2557" x1="7.3877" y1="5.69099" x2="6.24512" y2="6.51131" gradientUnits="userSpaceOnUse">
<stop stop-color="#4C92DE"/>
<stop offset="1" stop-color="#4B91DB"/>
</linearGradient>
<linearGradient id="paint32_linear_360_2557" x1="6.41846" y1="6.12923" x2="6.47055" y2="6.12923" gradientUnits="userSpaceOnUse">
<stop stop-color="#417FD1"/>
<stop offset="1" stop-color="#417FD1" stop-opacity="0"/>
</linearGradient>
<linearGradient id="paint33_linear_360_2557" x1="6.82203" y1="6.56746" x2="6.82203" y2="6.50798" gradientUnits="userSpaceOnUse">
<stop stop-color="#417FD1"/>
<stop offset="1" stop-color="#417FD1" stop-opacity="0"/>
</linearGradient>
<linearGradient id="paint34_linear_360_2557" x1="6.85669" y1="5.69099" x2="6.85669" y2="5.7891" gradientUnits="userSpaceOnUse">
<stop stop-color="#59A1EA"/>
<stop offset="1" stop-color="#59A1EA" stop-opacity="0"/>
</linearGradient>
<linearGradient id="paint35_linear_360_2557" x1="7.29492" y1="6.1741" x2="7.18619" y2="6.1741" gradientUnits="userSpaceOnUse">
<stop stop-color="#59A1EA"/>
<stop offset="1" stop-color="#59A1EA" stop-opacity="0"/>
</linearGradient>
<linearGradient id="paint36_linear_360_2557" x1="6.41846" y1="7.73094" x2="6.47168" y2="7.73094" gradientUnits="userSpaceOnUse">
<stop stop-color="#92909B"/>
<stop offset="1" stop-color="#92909B" stop-opacity="0"/>
</linearGradient>
<linearGradient id="paint37_linear_360_2557" x1="6.85669" y1="8.16917" x2="6.85669" y2="8.10594" gradientUnits="userSpaceOnUse">
<stop stop-color="#92909B"/>
<stop offset="1" stop-color="#92909B" stop-opacity="0"/>
</linearGradient>
<linearGradient id="paint38_linear_360_2557" x1="6.85669" y1="7.29271" x2="6.85669" y2="7.34348" gradientUnits="userSpaceOnUse">
<stop stop-color="#A7A5AE"/>
<stop offset="1" stop-color="#A7A5AE" stop-opacity="0"/>
</linearGradient>
<linearGradient id="paint39_linear_360_2557" x1="7.29492" y1="7.79466" x2="7.23764" y2="7.79466" gradientUnits="userSpaceOnUse">
<stop stop-color="#A7A5AE"/>
<stop offset="1" stop-color="#A7A5AE" stop-opacity="0"/>
</linearGradient>
<linearGradient id="paint40_linear_360_2557" x1="4.54712" y1="7.69165" x2="4.60034" y2="7.69165" gradientUnits="userSpaceOnUse">
<stop stop-color="#92909B"/>
<stop offset="1" stop-color="#92909B" stop-opacity="0"/>
</linearGradient>
<linearGradient id="paint41_linear_360_2557" x1="4.98535" y1="8.12988" x2="4.98535" y2="8.06665" gradientUnits="userSpaceOnUse">
<stop stop-color="#92909B"/>
<stop offset="1" stop-color="#92909B" stop-opacity="0"/>
</linearGradient>
<linearGradient id="paint42_linear_360_2557" x1="4.98535" y1="7.25342" x2="4.98535" y2="7.30419" gradientUnits="userSpaceOnUse">
<stop stop-color="#A7A5AE"/>
<stop offset="1" stop-color="#A7A5AE" stop-opacity="0"/>
</linearGradient>
<linearGradient id="paint43_linear_360_2557" x1="5.42358" y1="7.75537" x2="5.36631" y2="7.75537" gradientUnits="userSpaceOnUse">
<stop stop-color="#A7A5AE"/>
<stop offset="1" stop-color="#A7A5AE" stop-opacity="0"/>
</linearGradient>
<linearGradient id="paint44_linear_360_2557" x1="4.54712" y1="6.12923" x2="4.60034" y2="6.12923" gradientUnits="userSpaceOnUse">
<stop stop-color="#92909B"/>
<stop offset="1" stop-color="#92909B" stop-opacity="0"/>
</linearGradient>
<linearGradient id="paint45_linear_360_2557" x1="4.98535" y1="6.56746" x2="4.98535" y2="6.50423" gradientUnits="userSpaceOnUse">
<stop stop-color="#92909B"/>
<stop offset="1" stop-color="#92909B" stop-opacity="0"/>
</linearGradient>
<linearGradient id="paint46_linear_360_2557" x1="4.98535" y1="5.69099" x2="4.98535" y2="5.74176" gradientUnits="userSpaceOnUse">
<stop stop-color="#A7A5AE"/>
<stop offset="1" stop-color="#A7A5AE" stop-opacity="0"/>
</linearGradient>
<linearGradient id="paint47_linear_360_2557" x1="5.42358" y1="6.19295" x2="5.36631" y2="6.19295" gradientUnits="userSpaceOnUse">
<stop stop-color="#A7A5AE"/>
<stop offset="1" stop-color="#A7A5AE" stop-opacity="0"/>
</linearGradient>
<linearGradient id="paint48_linear_360_2557" x1="2.67578" y1="7.69165" x2="2.72901" y2="7.69165" gradientUnits="userSpaceOnUse">
<stop stop-color="#92909B"/>
<stop offset="1" stop-color="#92909B" stop-opacity="0"/>
</linearGradient>
<linearGradient id="paint49_linear_360_2557" x1="3.11401" y1="8.12988" x2="3.11401" y2="8.06665" gradientUnits="userSpaceOnUse">
<stop stop-color="#92909B"/>
<stop offset="1" stop-color="#92909B" stop-opacity="0"/>
</linearGradient>
<linearGradient id="paint50_linear_360_2557" x1="3.11401" y1="7.25342" x2="3.11401" y2="7.30419" gradientUnits="userSpaceOnUse">
<stop stop-color="#A7A5AE"/>
<stop offset="1" stop-color="#A7A5AE" stop-opacity="0"/>
</linearGradient>
<linearGradient id="paint51_linear_360_2557" x1="3.55225" y1="7.75537" x2="3.49497" y2="7.75537" gradientUnits="userSpaceOnUse">
<stop stop-color="#A7A5AE"/>
<stop offset="1" stop-color="#A7A5AE" stop-opacity="0"/>
</linearGradient>
<linearGradient id="paint52_linear_360_2557" x1="2.67578" y1="6.12923" x2="2.72901" y2="6.12923" gradientUnits="userSpaceOnUse">
<stop stop-color="#92909B"/>
<stop offset="1" stop-color="#92909B" stop-opacity="0"/>
</linearGradient>
<linearGradient id="paint53_linear_360_2557" x1="3.11401" y1="6.56746" x2="3.11401" y2="6.50423" gradientUnits="userSpaceOnUse">
<stop stop-color="#92909B"/>
<stop offset="1" stop-color="#92909B" stop-opacity="0"/>
</linearGradient>
<linearGradient id="paint54_linear_360_2557" x1="3.11401" y1="5.69099" x2="3.11401" y2="5.74176" gradientUnits="userSpaceOnUse">
<stop stop-color="#A7A5AE"/>
<stop offset="1" stop-color="#A7A5AE" stop-opacity="0"/>
</linearGradient>
<linearGradient id="paint55_linear_360_2557" x1="3.55225" y1="6.19295" x2="3.49497" y2="6.19295" gradientUnits="userSpaceOnUse">
<stop stop-color="#A7A5AE"/>
<stop offset="1" stop-color="#A7A5AE" stop-opacity="0"/>
</linearGradient>
<linearGradient id="paint56_linear_360_2557" x1="2.67578" y1="4.56673" x2="2.72901" y2="4.56673" gradientUnits="userSpaceOnUse">
<stop stop-color="#92909B"/>
<stop offset="1" stop-color="#92909B" stop-opacity="0"/>
</linearGradient>
<linearGradient id="paint57_linear_360_2557" x1="3.11401" y1="5.00496" x2="3.11401" y2="4.94173" gradientUnits="userSpaceOnUse">
<stop stop-color="#92909B"/>
<stop offset="1" stop-color="#92909B" stop-opacity="0"/>
</linearGradient>
<linearGradient id="paint58_linear_360_2557" x1="3.11401" y1="4.12849" x2="3.11401" y2="4.17926" gradientUnits="userSpaceOnUse">
<stop stop-color="#A7A5AE"/>
<stop offset="1" stop-color="#A7A5AE" stop-opacity="0"/>
</linearGradient>
<linearGradient id="paint59_linear_360_2557" x1="3.55225" y1="4.63045" x2="3.49497" y2="4.63045" gradientUnits="userSpaceOnUse">
<stop stop-color="#A7A5AE"/>
<stop offset="1" stop-color="#A7A5AE" stop-opacity="0"/>
</linearGradient>
<linearGradient id="paint60_linear_360_2557" x1="4.54712" y1="4.56673" x2="4.60034" y2="4.56673" gradientUnits="userSpaceOnUse">
<stop stop-color="#92909B"/>
<stop offset="1" stop-color="#92909B" stop-opacity="0"/>
</linearGradient>
<linearGradient id="paint61_linear_360_2557" x1="4.98535" y1="5.00496" x2="4.98535" y2="4.94173" gradientUnits="userSpaceOnUse">
<stop stop-color="#92909B"/>
<stop offset="1" stop-color="#92909B" stop-opacity="0"/>
</linearGradient>
<linearGradient id="paint62_linear_360_2557" x1="4.98535" y1="4.12849" x2="4.98535" y2="4.17926" gradientUnits="userSpaceOnUse">
<stop stop-color="#A7A5AE"/>
<stop offset="1" stop-color="#A7A5AE" stop-opacity="0"/>
</linearGradient>
<linearGradient id="paint63_linear_360_2557" x1="5.42358" y1="4.63045" x2="5.36631" y2="4.63045" gradientUnits="userSpaceOnUse">
<stop stop-color="#A7A5AE"/>
<stop offset="1" stop-color="#A7A5AE" stop-opacity="0"/>
</linearGradient>
<radialGradient id="paint64_radial_360_2557" cx="0" cy="0" r="1" gradientUnits="userSpaceOnUse" gradientTransform="translate(7.19244 6.96053) rotate(45.6992) scale(1.06266 2.57525)">
<stop offset="0.188388" stop-color="#E4DDED"/>
<stop offset="1" stop-color="#D5CFDC"/>
</radialGradient>
<linearGradient id="paint65_linear_360_2557" x1="7.84685" y1="7.90166" x2="7.7663" y2="7.82111" gradientUnits="userSpaceOnUse">
<stop offset="0.461334" stop-color="#BFB8CA"/>
<stop offset="1" stop-color="#D9D3E0" stop-opacity="0"/>
</linearGradient>
<radialGradient id="paint66_radial_360_2557" cx="0" cy="0" r="1" gradientUnits="userSpaceOnUse" gradientTransform="translate(7.99757 7.91306) rotate(-135.735) scale(1.36974 2.1392)">
<stop stop-color="#CDCEDE" stop-opacity="0"/>
<stop offset="0.86023" stop-color="#CDCEDE" stop-opacity="0"/>
<stop offset="0.912513" stop-color="#CDCEDE" stop-opacity="0.180902"/>
<stop offset="1" stop-color="#CDCEDE"/>
</radialGradient>
<linearGradient id="paint67_linear_360_2557" x1="3.33008" y1="1.6564" x2="2.54883" y2="1.6564" gradientUnits="userSpaceOnUse">
<stop stop-color="#C0C0C1"/>
<stop offset="0.931802" stop-color="#A6A6A8"/>
</linearGradient>
<radialGradient id="paint68_radial_360_2557" cx="0" cy="0" r="1" gradientUnits="userSpaceOnUse" gradientTransform="translate(2.93945 2.50252) rotate(-90) scale(1.20326 1.11398)">
<stop stop-color="#8C88AD"/>
<stop offset="1" stop-color="#9D9AA2" stop-opacity="0"/>
</radialGradient>
<radialGradient id="paint69_radial_360_2557" cx="0" cy="0" r="1" gradientUnits="userSpaceOnUse" gradientTransform="translate(3.1829 1.18765) rotate(90) scale(0.892857 0.481859)">
<stop stop-color="#D9D8DD"/>
<stop offset="0.345336" stop-color="#D2D1D5" stop-opacity="0.73815"/>
<stop offset="0.99631" stop-color="#BEBEC0" stop-opacity="0"/>
</radialGradient>
<linearGradient id="paint70_linear_360_2557" x1="7.40723" y1="1.6564" x2="6.62598" y2="1.6564" gradientUnits="userSpaceOnUse">
<stop stop-color="#C0C0C1"/>
<stop offset="0.931802" stop-color="#A6A6A8"/>
</linearGradient>
<radialGradient id="paint71_radial_360_2557" cx="0" cy="0" r="1" gradientUnits="userSpaceOnUse" gradientTransform="translate(7.0166 2.50252) rotate(-90) scale(1.20326 1.11398)">
<stop stop-color="#8C88AD"/>
<stop offset="1" stop-color="#9D9AA2" stop-opacity="0"/>
</radialGradient>
<radialGradient id="paint72_radial_360_2557" cx="0" cy="0" r="1" gradientUnits="userSpaceOnUse" gradientTransform="translate(7.26004 1.18765) rotate(90) scale(0.892857 0.481859)">
<stop stop-color="#D9D8DD"/>
<stop offset="0.418005" stop-color="#D1D0D5" stop-opacity="0.710557"/>
<stop offset="0.853264" stop-color="#C1C1C3" stop-opacity="0.105989"/>
<stop offset="0.99631" stop-color="#BEBEC0" stop-opacity="0"/>
</radialGradient>
<clipPath id="clip0_360_2557">
<rect width="10" height="10" fill="white"/>
</clipPath>
</defs>
</svg>
