<svg width="10" height="10" viewBox="0 0 10 10" fill="none" xmlns="http://www.w3.org/2000/svg">
<path d="M2.50439 1.17871C2.50439 0.902569 2.72825 0.678711 3.00439 0.678711H6.97998C7.25612 0.678711 7.47998 0.902569 7.47998 1.17871V8.90918C7.47998 9.18532 7.25612 9.40918 6.97998 9.40918H3.00439C2.72825 9.40918 2.50439 9.18532 2.50439 8.90918V1.17871Z" fill="url(#paint0_linear_377_536)"/>
<path d="M2.50439 1.17871C2.50439 0.902569 2.72825 0.678711 3.00439 0.678711H6.97998C7.25612 0.678711 7.47998 0.902569 7.47998 1.17871V8.90918C7.47998 9.18532 7.25612 9.40918 6.97998 9.40918H3.00439C2.72825 9.40918 2.50439 9.18532 2.50439 8.90918V1.17871Z" fill="url(#paint1_radial_377_536)"/>
<path d="M2.50439 1.17871C2.50439 0.902569 2.72825 0.678711 3.00439 0.678711H6.97998C7.25612 0.678711 7.47998 0.902569 7.47998 1.17871V8.90918C7.47998 9.18532 7.25612 9.40918 6.97998 9.40918H3.00439C2.72825 9.40918 2.50439 9.18532 2.50439 8.90918V1.17871Z" fill="url(#paint2_linear_377_536)"/>
<path d="M2.50439 1.17871C2.50439 0.902569 2.72825 0.678711 3.00439 0.678711H6.97998C7.25612 0.678711 7.47998 0.902569 7.47998 1.17871V8.90918C7.47998 9.18532 7.25612 9.40918 6.97998 9.40918H3.00439C2.72825 9.40918 2.50439 9.18532 2.50439 8.90918V1.17871Z" fill="url(#paint3_radial_377_536)"/>
<path d="M2.50439 1.17871C2.50439 0.902569 2.72825 0.678711 3.00439 0.678711H6.97998C7.25612 0.678711 7.47998 0.902569 7.47998 1.17871V8.90918C7.47998 9.18532 7.25612 9.40918 6.97998 9.40918H3.00439C2.72825 9.40918 2.50439 9.18532 2.50439 8.90918V1.17871Z" fill="url(#paint4_linear_377_536)"/>
<path d="M2.50439 1.17871C2.50439 0.902569 2.72825 0.678711 3.00439 0.678711H6.97998C7.25612 0.678711 7.47998 0.902569 7.47998 1.17871V8.90918C7.47998 9.18532 7.25612 9.40918 6.97998 9.40918H3.00439C2.72825 9.40918 2.50439 9.18532 2.50439 8.90918V1.17871Z" fill="url(#paint5_linear_377_536)"/>
<path d="M2.50439 1.17871C2.50439 0.902569 2.72825 0.678711 3.00439 0.678711H6.97998C7.25612 0.678711 7.47998 0.902569 7.47998 1.17871V8.90918C7.47998 9.18532 7.25612 9.40918 6.97998 9.40918H3.00439C2.72825 9.40918 2.50439 9.18532 2.50439 8.90918V1.17871Z" fill="url(#paint6_linear_377_536)"/>
<path d="M2.50439 1.17871C2.50439 0.902569 2.72825 0.678711 3.00439 0.678711H6.97998C7.25612 0.678711 7.47998 0.902569 7.47998 1.17871V8.90918C7.47998 9.18532 7.25612 9.40918 6.97998 9.40918H3.00439C2.72825 9.40918 2.50439 9.18532 2.50439 8.90918V1.17871Z" fill="url(#paint7_radial_377_536)"/>
<path d="M3.07422 1.73267C3.07422 1.49104 3.27009 1.29517 3.51172 1.29517H6.48804C6.72966 1.29517 6.92554 1.49104 6.92554 1.73267V3.60791C6.92554 3.84953 6.72966 4.04541 6.48804 4.04541H3.51172C3.27009 4.04541 3.07422 3.84953 3.07422 3.60791V1.73267Z" fill="url(#paint8_linear_377_536)"/>
<path d="M3.07422 1.73267C3.07422 1.49104 3.27009 1.29517 3.51172 1.29517H6.48804C6.72966 1.29517 6.92554 1.49104 6.92554 1.73267V3.60791C6.92554 3.84953 6.72966 4.04541 6.48804 4.04541H3.51172C3.27009 4.04541 3.07422 3.84953 3.07422 3.60791V1.73267Z" fill="url(#paint9_linear_377_536)"/>
<path d="M3.07422 1.73267C3.07422 1.49104 3.27009 1.29517 3.51172 1.29517H6.48804C6.72966 1.29517 6.92554 1.49104 6.92554 1.73267V3.60791C6.92554 3.84953 6.72966 4.04541 6.48804 4.04541H3.51172C3.27009 4.04541 3.07422 3.84953 3.07422 3.60791V1.73267Z" fill="url(#paint10_linear_377_536)"/>
<path d="M3.07422 1.73267C3.07422 1.49104 3.27009 1.29517 3.51172 1.29517H6.48804C6.72966 1.29517 6.92554 1.49104 6.92554 1.73267V3.60791C6.92554 3.84953 6.72966 4.04541 6.48804 4.04541H3.51172C3.27009 4.04541 3.07422 3.84953 3.07422 3.60791V1.73267Z" fill="url(#paint11_linear_377_536)"/>
<path d="M3.07422 1.73267C3.07422 1.49104 3.27009 1.29517 3.51172 1.29517H6.48804C6.72966 1.29517 6.92554 1.49104 6.92554 1.73267V3.60791C6.92554 3.84953 6.72966 4.04541 6.48804 4.04541H3.51172C3.27009 4.04541 3.07422 3.84953 3.07422 3.60791V1.73267Z" fill="url(#paint12_linear_377_536)"/>
<path d="M3.07422 1.73267C3.07422 1.49104 3.27009 1.29517 3.51172 1.29517H6.48804C6.72966 1.29517 6.92554 1.49104 6.92554 1.73267V3.60791C6.92554 3.84953 6.72966 4.04541 6.48804 4.04541H3.51172C3.27009 4.04541 3.07422 3.84953 3.07422 3.60791V1.73267Z" fill="url(#paint13_linear_377_536)"/>
<path d="M3.07422 1.73267C3.07422 1.49104 3.27009 1.29517 3.51172 1.29517H6.48804C6.72966 1.29517 6.92554 1.49104 6.92554 1.73267V3.60791C6.92554 3.84953 6.72966 4.04541 6.48804 4.04541H3.51172C3.27009 4.04541 3.07422 3.84953 3.07422 3.60791V1.73267Z" fill="url(#paint14_linear_377_536)"/>
<path d="M3.07422 1.73267C3.07422 1.49104 3.27009 1.29517 3.51172 1.29517H6.48804C6.72966 1.29517 6.92554 1.49104 6.92554 1.73267V3.60791C6.92554 3.84953 6.72966 4.04541 6.48804 4.04541H3.51172C3.27009 4.04541 3.07422 3.84953 3.07422 3.60791V1.73267Z" fill="url(#paint15_linear_377_536)"/>
<path d="M3.07422 1.73267C3.07422 1.49104 3.27009 1.29517 3.51172 1.29517H6.48804C6.72966 1.29517 6.92554 1.49104 6.92554 1.73267V3.60791C6.92554 3.84953 6.72966 4.04541 6.48804 4.04541H3.51172C3.27009 4.04541 3.07422 3.84953 3.07422 3.60791V1.73267Z" fill="url(#paint16_radial_377_536)"/>
<path d="M3.07422 1.73267C3.07422 1.49104 3.27009 1.29517 3.51172 1.29517H6.48804C6.72966 1.29517 6.92554 1.49104 6.92554 1.73267V3.60791C6.92554 3.84953 6.72966 4.04541 6.48804 4.04541H3.51172C3.27009 4.04541 3.07422 3.84953 3.07422 3.60791V1.73267Z" fill="url(#paint17_radial_377_536)"/>
<path d="M3.07422 1.73267C3.07422 1.49104 3.27009 1.29517 3.51172 1.29517H6.48804C6.72966 1.29517 6.92554 1.49104 6.92554 1.73267V3.60791C6.92554 3.84953 6.72966 4.04541 6.48804 4.04541H3.51172C3.27009 4.04541 3.07422 3.84953 3.07422 3.60791V1.73267Z" fill="url(#paint18_radial_377_536)"/>
<path d="M3.07422 1.73267C3.07422 1.49104 3.27009 1.29517 3.51172 1.29517H6.48804C6.72966 1.29517 6.92554 1.49104 6.92554 1.73267V3.60791C6.92554 3.84953 6.72966 4.04541 6.48804 4.04541H3.51172C3.27009 4.04541 3.07422 3.84953 3.07422 3.60791V1.73267Z" fill="url(#paint19_radial_377_536)"/>
<path d="M3.07422 5.49609C3.07422 5.25447 3.27009 5.05859 3.51172 5.05859H6.48804C6.72966 5.05859 6.92554 5.25447 6.92554 5.49609V6.13965C6.92554 6.38127 6.72966 6.57715 6.48804 6.57715H3.51172C3.27009 6.57715 3.07422 6.38127 3.07422 6.13965V5.49609Z" fill="url(#paint20_linear_377_536)"/>
<path d="M3.07422 5.49609C3.07422 5.25447 3.27009 5.05859 3.51172 5.05859H6.48804C6.72966 5.05859 6.92554 5.25447 6.92554 5.49609V6.13965C6.92554 6.38127 6.72966 6.57715 6.48804 6.57715H3.51172C3.27009 6.57715 3.07422 6.38127 3.07422 6.13965V5.49609Z" fill="url(#paint21_linear_377_536)"/>
<path d="M3.07422 5.49609C3.07422 5.25447 3.27009 5.05859 3.51172 5.05859H6.48804C6.72966 5.05859 6.92554 5.25447 6.92554 5.49609V6.13965C6.92554 6.38127 6.72966 6.57715 6.48804 6.57715H3.51172C3.27009 6.57715 3.07422 6.38127 3.07422 6.13965V5.49609Z" fill="url(#paint22_linear_377_536)"/>
<path d="M3.07422 5.49609C3.07422 5.25447 3.27009 5.05859 3.51172 5.05859H6.48804C6.72966 5.05859 6.92554 5.25447 6.92554 5.49609V6.13965C6.92554 6.38127 6.72966 6.57715 6.48804 6.57715H3.51172C3.27009 6.57715 3.07422 6.38127 3.07422 6.13965V5.49609Z" fill="url(#paint23_linear_377_536)"/>
<path d="M3.07422 5.49609C3.07422 5.25447 3.27009 5.05859 3.51172 5.05859H6.48804C6.72966 5.05859 6.92554 5.25447 6.92554 5.49609V6.13965C6.92554 6.38127 6.72966 6.57715 6.48804 6.57715H3.51172C3.27009 6.57715 3.07422 6.38127 3.07422 6.13965V5.49609Z" fill="url(#paint24_linear_377_536)"/>
<path d="M3.07422 5.49609C3.07422 5.25447 3.27009 5.05859 3.51172 5.05859H6.48804C6.72966 5.05859 6.92554 5.25447 6.92554 5.49609V6.13965C6.92554 6.38127 6.72966 6.57715 6.48804 6.57715H3.51172C3.27009 6.57715 3.07422 6.38127 3.07422 6.13965V5.49609Z" fill="url(#paint25_linear_377_536)"/>
<path d="M3.07422 5.49609C3.07422 5.25447 3.27009 5.05859 3.51172 5.05859H6.48804C6.72966 5.05859 6.92554 5.25447 6.92554 5.49609V6.13965C6.92554 6.38127 6.72966 6.57715 6.48804 6.57715H3.51172C3.27009 6.57715 3.07422 6.38127 3.07422 6.13965V5.49609Z" fill="url(#paint26_linear_377_536)"/>
<path d="M3.07422 5.49609C3.07422 5.25447 3.27009 5.05859 3.51172 5.05859H6.48804C6.72966 5.05859 6.92554 5.25447 6.92554 5.49609V6.13965C6.92554 6.38127 6.72966 6.57715 6.48804 6.57715H3.51172C3.27009 6.57715 3.07422 6.38127 3.07422 6.13965V5.49609Z" fill="url(#paint27_linear_377_536)"/>
<path d="M3.07422 5.49609C3.07422 5.25447 3.27009 5.05859 3.51172 5.05859H6.48804C6.72966 5.05859 6.92554 5.25447 6.92554 5.49609V6.13965C6.92554 6.38127 6.72966 6.57715 6.48804 6.57715H3.51172C3.27009 6.57715 3.07422 6.38127 3.07422 6.13965V5.49609Z" fill="url(#paint28_radial_377_536)"/>
<path d="M3.07422 5.49609C3.07422 5.25447 3.27009 5.05859 3.51172 5.05859H6.48804C6.72966 5.05859 6.92554 5.25447 6.92554 5.49609V6.13965C6.92554 6.38127 6.72966 6.57715 6.48804 6.57715H3.51172C3.27009 6.57715 3.07422 6.38127 3.07422 6.13965V5.49609Z" fill="url(#paint29_radial_377_536)"/>
<path d="M3.07422 5.49609C3.07422 5.25447 3.27009 5.05859 3.51172 5.05859H6.48804C6.72966 5.05859 6.92554 5.25447 6.92554 5.49609V6.13965C6.92554 6.38127 6.72966 6.57715 6.48804 6.57715H3.51172C3.27009 6.57715 3.07422 6.38127 3.07422 6.13965V5.49609Z" fill="url(#paint30_radial_377_536)"/>
<path d="M3.07422 5.49609C3.07422 5.25447 3.27009 5.05859 3.51172 5.05859H6.48804C6.72966 5.05859 6.92554 5.25447 6.92554 5.49609V6.13965C6.92554 6.38127 6.72966 6.57715 6.48804 6.57715H3.51172C3.27009 6.57715 3.07422 6.38127 3.07422 6.13965V5.49609Z" fill="url(#paint31_radial_377_536)"/>
<path d="M3.07422 7.66772C3.07422 7.4261 3.27009 7.23022 3.51172 7.23022H6.48804C6.72966 7.23022 6.92554 7.4261 6.92554 7.66772V8.31128C6.92554 8.5529 6.72966 8.74878 6.48804 8.74878H3.51172C3.27009 8.74878 3.07422 8.5529 3.07422 8.31128V7.66772Z" fill="url(#paint32_linear_377_536)"/>
<path d="M3.07422 7.66772C3.07422 7.4261 3.27009 7.23022 3.51172 7.23022H6.48804C6.72966 7.23022 6.92554 7.4261 6.92554 7.66772V8.31128C6.92554 8.5529 6.72966 8.74878 6.48804 8.74878H3.51172C3.27009 8.74878 3.07422 8.5529 3.07422 8.31128V7.66772Z" fill="url(#paint33_linear_377_536)"/>
<path d="M3.07422 7.66772C3.07422 7.4261 3.27009 7.23022 3.51172 7.23022H6.48804C6.72966 7.23022 6.92554 7.4261 6.92554 7.66772V8.31128C6.92554 8.5529 6.72966 8.74878 6.48804 8.74878H3.51172C3.27009 8.74878 3.07422 8.5529 3.07422 8.31128V7.66772Z" fill="url(#paint34_linear_377_536)"/>
<path d="M3.07422 7.66772C3.07422 7.4261 3.27009 7.23022 3.51172 7.23022H6.48804C6.72966 7.23022 6.92554 7.4261 6.92554 7.66772V8.31128C6.92554 8.5529 6.72966 8.74878 6.48804 8.74878H3.51172C3.27009 8.74878 3.07422 8.5529 3.07422 8.31128V7.66772Z" fill="url(#paint35_linear_377_536)"/>
<path d="M3.07422 7.66772C3.07422 7.4261 3.27009 7.23022 3.51172 7.23022H6.48804C6.72966 7.23022 6.92554 7.4261 6.92554 7.66772V8.31128C6.92554 8.5529 6.72966 8.74878 6.48804 8.74878H3.51172C3.27009 8.74878 3.07422 8.5529 3.07422 8.31128V7.66772Z" fill="url(#paint36_linear_377_536)"/>
<path d="M3.07422 7.66772C3.07422 7.4261 3.27009 7.23022 3.51172 7.23022H6.48804C6.72966 7.23022 6.92554 7.4261 6.92554 7.66772V8.31128C6.92554 8.5529 6.72966 8.74878 6.48804 8.74878H3.51172C3.27009 8.74878 3.07422 8.5529 3.07422 8.31128V7.66772Z" fill="url(#paint37_linear_377_536)"/>
<path d="M3.07422 7.66772C3.07422 7.4261 3.27009 7.23022 3.51172 7.23022H6.48804C6.72966 7.23022 6.92554 7.4261 6.92554 7.66772V8.31128C6.92554 8.5529 6.72966 8.74878 6.48804 8.74878H3.51172C3.27009 8.74878 3.07422 8.5529 3.07422 8.31128V7.66772Z" fill="url(#paint38_linear_377_536)"/>
<path d="M3.07422 7.66772C3.07422 7.4261 3.27009 7.23022 3.51172 7.23022H6.48804C6.72966 7.23022 6.92554 7.4261 6.92554 7.66772V8.31128C6.92554 8.5529 6.72966 8.74878 6.48804 8.74878H3.51172C3.27009 8.74878 3.07422 8.5529 3.07422 8.31128V7.66772Z" fill="url(#paint39_linear_377_536)"/>
<path d="M3.07422 7.66772C3.07422 7.4261 3.27009 7.23022 3.51172 7.23022H6.48804C6.72966 7.23022 6.92554 7.4261 6.92554 7.66772V8.31128C6.92554 8.5529 6.72966 8.74878 6.48804 8.74878H3.51172C3.27009 8.74878 3.07422 8.5529 3.07422 8.31128V7.66772Z" fill="url(#paint40_radial_377_536)"/>
<path d="M3.07422 7.66772C3.07422 7.4261 3.27009 7.23022 3.51172 7.23022H6.48804C6.72966 7.23022 6.92554 7.4261 6.92554 7.66772V8.31128C6.92554 8.5529 6.72966 8.74878 6.48804 8.74878H3.51172C3.27009 8.74878 3.07422 8.5529 3.07422 8.31128V7.66772Z" fill="url(#paint41_radial_377_536)"/>
<path d="M3.07422 7.66772C3.07422 7.4261 3.27009 7.23022 3.51172 7.23022H6.48804C6.72966 7.23022 6.92554 7.4261 6.92554 7.66772V8.31128C6.92554 8.5529 6.72966 8.74878 6.48804 8.74878H3.51172C3.27009 8.74878 3.07422 8.5529 3.07422 8.31128V7.66772Z" fill="url(#paint42_radial_377_536)"/>
<path d="M3.07422 7.66772C3.07422 7.4261 3.27009 7.23022 3.51172 7.23022H6.48804C6.72966 7.23022 6.92554 7.4261 6.92554 7.66772V8.31128C6.92554 8.5529 6.72966 8.74878 6.48804 8.74878H3.51172C3.27009 8.74878 3.07422 8.5529 3.07422 8.31128V7.66772Z" fill="url(#paint43_radial_377_536)"/>
<path d="M3.27002 7.72999C3.27002 7.56431 3.40433 7.42999 3.57002 7.42999H6.43002C6.59571 7.42999 6.73002 7.56431 6.73002 7.72999V8.24999C6.73002 8.41568 6.59571 8.54999 6.43002 8.54999H3.57002C3.40433 8.54999 3.27002 8.41568 3.27002 8.24999V7.72999Z" fill="url(#paint44_linear_377_536)"/>
<path d="M3.27002 7.72999C3.27002 7.56431 3.40433 7.42999 3.57002 7.42999H6.43002C6.59571 7.42999 6.73002 7.56431 6.73002 7.72999V8.24999C6.73002 8.41568 6.59571 8.54999 6.43002 8.54999H3.57002C3.40433 8.54999 3.27002 8.41568 3.27002 8.24999V7.72999Z" fill="url(#paint45_radial_377_536)"/>
<path d="M3.27002 7.72999C3.27002 7.56431 3.40433 7.42999 3.57002 7.42999H6.43002C6.59571 7.42999 6.73002 7.56431 6.73002 7.72999V8.24999C6.73002 8.41568 6.59571 8.54999 6.43002 8.54999H3.57002C3.40433 8.54999 3.27002 8.41568 3.27002 8.24999V7.72999Z" fill="url(#paint46_radial_377_536)"/>
<path d="M3.27002 7.72999C3.27002 7.56431 3.40433 7.42999 3.57002 7.42999H6.43002C6.59571 7.42999 6.73002 7.56431 6.73002 7.72999V8.24999C6.73002 8.41568 6.59571 8.54999 6.43002 8.54999H3.57002C3.40433 8.54999 3.27002 8.41568 3.27002 8.24999V7.72999Z" fill="url(#paint47_linear_377_536)"/>
<path d="M3.27002 7.72999C3.27002 7.56431 3.40433 7.42999 3.57002 7.42999H6.43002C6.59571 7.42999 6.73002 7.56431 6.73002 7.72999V8.24999C6.73002 8.41568 6.59571 8.54999 6.43002 8.54999H3.57002C3.40433 8.54999 3.27002 8.41568 3.27002 8.24999V7.72999Z" fill="url(#paint48_linear_377_536)"/>
<path d="M3.27002 7.72999C3.27002 7.56431 3.40433 7.42999 3.57002 7.42999H6.43002C6.59571 7.42999 6.73002 7.56431 6.73002 7.72999V8.24999C6.73002 8.41568 6.59571 8.54999 6.43002 8.54999H3.57002C3.40433 8.54999 3.27002 8.41568 3.27002 8.24999V7.72999Z" fill="url(#paint49_linear_377_536)"/>
<path d="M3.27002 7.72999C3.27002 7.56431 3.40433 7.42999 3.57002 7.42999H6.43002C6.59571 7.42999 6.73002 7.56431 6.73002 7.72999V8.24999C6.73002 8.41568 6.59571 8.54999 6.43002 8.54999H3.57002C3.40433 8.54999 3.27002 8.41568 3.27002 8.24999V7.72999Z" fill="url(#paint50_linear_377_536)"/>
<path d="M3.95508 8.32001V7.66278H4.23633C4.28223 7.66278 4.32471 7.67027 4.36377 7.68524C4.40283 7.70022 4.43408 7.72414 4.45752 7.75702C4.48128 7.78957 4.49316 7.83254 4.49316 7.88593C4.49316 7.94029 4.48128 7.98423 4.45752 8.01776C4.43408 8.05129 4.40283 8.0757 4.36377 8.091C4.32471 8.1063 4.28223 8.11395 4.23633 8.11395H4.14697V8.32001H3.95508ZM4.14697 7.96307H4.21826C4.24137 7.96307 4.26009 7.9564 4.27441 7.94305C4.28874 7.92971 4.2959 7.91066 4.2959 7.88593C4.2959 7.86249 4.28825 7.84507 4.27295 7.83368C4.25798 7.82196 4.23975 7.8161 4.21826 7.8161H4.14697V7.96307Z" fill="#101010"/>
<path d="M4.58008 8.32001V7.66278H4.86621C4.91471 7.66278 4.95752 7.66864 4.99463 7.68036C5.03206 7.69175 5.06136 7.71112 5.08252 7.73846C5.10368 7.76581 5.11426 7.80324 5.11426 7.85077C5.11426 7.89211 5.10254 7.92727 5.0791 7.95624C5.05566 7.98488 5.02295 8.00653 4.98096 8.02118C5.01351 8.02606 5.03841 8.03501 5.05566 8.04803C5.07292 8.06073 5.08626 8.07782 5.0957 8.0993C5.10514 8.12079 5.11426 8.14667 5.12305 8.17694L5.16602 8.32001H4.97021L4.94434 8.21893C4.93587 8.18703 4.92757 8.16229 4.91943 8.14471C4.91162 8.12714 4.90088 8.11493 4.88721 8.10809C4.87386 8.10126 4.85482 8.09784 4.83008 8.09784H4.77197V8.32001H4.58008ZM4.77197 7.94696H4.83594C4.85352 7.94696 4.86816 7.94419 4.87988 7.93866C4.8916 7.9328 4.90039 7.92466 4.90625 7.91425C4.91211 7.90383 4.91504 7.89146 4.91504 7.87714C4.91504 7.85402 4.90853 7.83775 4.89551 7.82831C4.88249 7.81887 4.86833 7.81415 4.85303 7.81415H4.77197V7.94696Z" fill="#101010"/>
<path d="M5.23145 8.32001V7.66278H5.42334V8.32001H5.23145Z" fill="#101010"/>
<path d="M5.79883 8.3288C5.74609 8.3288 5.69873 8.32163 5.65674 8.30731C5.61475 8.29266 5.58138 8.26955 5.55664 8.23798C5.53223 8.20608 5.51953 8.16408 5.51855 8.112H5.7168C5.7181 8.12795 5.72201 8.14065 5.72852 8.15009C5.73503 8.15953 5.7443 8.16636 5.75635 8.17059C5.76839 8.17483 5.7832 8.17694 5.80078 8.17694C5.81901 8.17694 5.83382 8.17548 5.84521 8.17255C5.85693 8.16929 5.86556 8.16457 5.87109 8.15839C5.87695 8.1522 5.87988 8.14471 5.87988 8.13593C5.87988 8.12681 5.87695 8.11884 5.87109 8.112C5.86523 8.10516 5.85352 8.098 5.83594 8.09052C5.81868 8.0827 5.79232 8.07326 5.75684 8.06219C5.71615 8.04917 5.67855 8.03469 5.64404 8.01874C5.60954 8.00279 5.58187 7.98147 5.56104 7.95477C5.5402 7.92808 5.52979 7.89244 5.52979 7.84784C5.52979 7.79934 5.54183 7.76109 5.56592 7.73309C5.59001 7.7051 5.62207 7.68508 5.66211 7.67303C5.70247 7.66099 5.74674 7.65497 5.79492 7.65497C5.8444 7.65497 5.88932 7.6618 5.92969 7.67548C5.97005 7.68915 6.00212 7.71063 6.02588 7.73993C6.04997 7.76923 6.06201 7.80731 6.06201 7.85419H5.86377C5.86377 7.83693 5.85758 7.82375 5.84521 7.81464C5.83285 7.80552 5.81608 7.80096 5.79492 7.80096C5.77604 7.80096 5.76025 7.80389 5.74756 7.80975C5.73519 7.81561 5.729 7.82375 5.729 7.83417C5.729 7.841 5.73193 7.84751 5.73779 7.8537C5.74365 7.85956 5.75618 7.86639 5.77539 7.87421C5.7946 7.88202 5.82406 7.89227 5.86377 7.90497C5.9126 7.92027 5.95296 7.93654 5.98486 7.9538C6.01676 7.97072 6.04053 7.99253 6.05615 8.01923C6.07178 8.04559 6.07959 8.08091 6.07959 8.12518C6.07959 8.17531 6.06689 8.21535 6.0415 8.2453C6.01611 8.27492 5.9821 8.29624 5.93945 8.30927C5.89714 8.32229 5.85026 8.3288 5.79883 8.3288Z" fill="#101010"/>
<path d="M7.24561 4.55933C7.24561 4.73596 7.10242 4.87915 6.92578 4.87915C6.74915 4.87915 6.60596 4.73596 6.60596 4.55933C6.60596 4.38269 6.74915 4.2395 6.92578 4.2395C7.10242 4.2395 7.24561 4.38269 7.24561 4.55933Z" fill="url(#paint51_radial_377_536)"/>
<path d="M7.24561 4.55933C7.24561 4.73596 7.10242 4.87915 6.92578 4.87915C6.74915 4.87915 6.60596 4.73596 6.60596 4.55933C6.60596 4.38269 6.74915 4.2395 6.92578 4.2395C7.10242 4.2395 7.24561 4.38269 7.24561 4.55933Z" fill="url(#paint52_radial_377_536)"/>
<path d="M7.24561 4.55933C7.24561 4.73596 7.10242 4.87915 6.92578 4.87915C6.74915 4.87915 6.60596 4.73596 6.60596 4.55933C6.60596 4.38269 6.74915 4.2395 6.92578 4.2395C7.10242 4.2395 7.24561 4.38269 7.24561 4.55933Z" fill="url(#paint53_radial_377_536)"/>
<path d="M3.5 2.16839C3.5 2.03673 3.60745 1.92999 3.74 1.92999H6.26C6.39255 1.92999 6.5 2.03673 6.5 2.16839V3.18159C6.5 3.31326 6.39255 3.41999 6.26 3.41999H3.74C3.60745 3.41999 3.5 3.31326 3.5 3.18159V2.16839Z" fill="url(#paint54_linear_377_536)"/>
<path d="M3.5 2.16839C3.5 2.03673 3.60745 1.92999 3.74 1.92999H6.26C6.39255 1.92999 6.5 2.03673 6.5 2.16839V3.18159C6.5 3.31326 6.39255 3.41999 6.26 3.41999H3.74C3.60745 3.41999 3.5 3.31326 3.5 3.18159V2.16839Z" fill="url(#paint55_radial_377_536)"/>
<path d="M3.5 2.16839C3.5 2.03673 3.60745 1.92999 3.74 1.92999H6.26C6.39255 1.92999 6.5 2.03673 6.5 2.16839V3.18159C6.5 3.31326 6.39255 3.41999 6.26 3.41999H3.74C3.60745 3.41999 3.5 3.31326 3.5 3.18159V2.16839Z" fill="url(#paint56_radial_377_536)"/>
<path d="M3.5 2.16839C3.5 2.03673 3.60745 1.92999 3.74 1.92999H6.26C6.39255 1.92999 6.5 2.03673 6.5 2.16839V3.18159C6.5 3.31326 6.39255 3.41999 6.26 3.41999H3.74C3.60745 3.41999 3.5 3.31326 3.5 3.18159V2.16839Z" fill="url(#paint57_linear_377_536)"/>
<path d="M3.5 2.16839C3.5 2.03673 3.60745 1.92999 3.74 1.92999H6.26C6.39255 1.92999 6.5 2.03673 6.5 2.16839V3.18159C6.5 3.31326 6.39255 3.41999 6.26 3.41999H3.74C3.60745 3.41999 3.5 3.31326 3.5 3.18159V2.16839Z" fill="url(#paint58_linear_377_536)"/>
<path d="M3.5 2.16839C3.5 2.03673 3.60745 1.92999 3.74 1.92999H6.26C6.39255 1.92999 6.5 2.03673 6.5 2.16839V3.18159C6.5 3.31326 6.39255 3.41999 6.26 3.41999H3.74C3.60745 3.41999 3.5 3.31326 3.5 3.18159V2.16839Z" fill="url(#paint59_linear_377_536)"/>
<path d="M3.5 2.16839C3.5 2.03673 3.60745 1.92999 3.74 1.92999H6.26C6.39255 1.92999 6.5 2.03673 6.5 2.16839V3.18159C6.5 3.31326 6.39255 3.41999 6.26 3.41999H3.74C3.60745 3.41999 3.5 3.31326 3.5 3.18159V2.16839Z" fill="url(#paint60_linear_377_536)"/>
<path d="M3.8833 2.98V2.32277H4.12939C4.20524 2.32277 4.26497 2.33595 4.30859 2.36232C4.35254 2.38836 4.37451 2.42987 4.37451 2.48683C4.37451 2.52199 4.36507 2.55112 4.34619 2.57423C4.32764 2.59735 4.30339 2.6146 4.27344 2.62599C4.32259 2.63706 4.3584 2.65643 4.38086 2.6841C4.40332 2.71144 4.41455 2.74513 4.41455 2.78517C4.41455 2.8314 4.40316 2.86883 4.38037 2.89748C4.35791 2.92612 4.32699 2.94712 4.2876 2.96046C4.24821 2.97349 4.20312 2.98 4.15234 2.98H3.8833ZM4.0752 2.83693H4.14551C4.16081 2.83693 4.17415 2.83465 4.18555 2.83009C4.19694 2.82521 4.20573 2.81805 4.21191 2.80861C4.2181 2.79917 4.22119 2.78729 4.22119 2.77296C4.22119 2.75246 4.21452 2.73797 4.20117 2.72951C4.18783 2.72104 4.16895 2.71681 4.14453 2.71681H4.0752V2.83693ZM4.0752 2.57423H4.12646C4.14144 2.57423 4.1543 2.56951 4.16504 2.56007C4.17578 2.55031 4.18115 2.53599 4.18115 2.51711C4.18115 2.50408 4.17839 2.49383 4.17285 2.48634C4.16732 2.47886 4.16032 2.47365 4.15186 2.47072C4.14372 2.46746 4.13525 2.46584 4.12646 2.46584H4.0752V2.57423Z" fill="#101010"/>
<path d="M4.69336 2.98V2.54201C4.68132 2.55405 4.66813 2.56544 4.65381 2.57619C4.63981 2.5866 4.62223 2.59572 4.60107 2.60353C4.58024 2.61134 4.55371 2.61753 4.52148 2.62209V2.45509C4.55469 2.44598 4.58203 2.43654 4.60352 2.42677C4.62533 2.41668 4.64437 2.40464 4.66064 2.39064C4.67692 2.37632 4.69352 2.35874 4.71045 2.33791H4.88623V2.98H4.69336Z" fill="#101010"/>
<path d="M5.05957 2.98V2.86183L5.32959 2.63087C5.34684 2.6159 5.3597 2.60158 5.36816 2.58791C5.37695 2.57423 5.38135 2.55796 5.38135 2.53908C5.38135 2.51955 5.37565 2.50506 5.36426 2.49562C5.35286 2.48586 5.33659 2.48097 5.31543 2.48097C5.28743 2.48097 5.26676 2.48911 5.25342 2.50539C5.24007 2.52134 5.2334 2.54347 5.2334 2.57179H5.06641C5.06641 2.51743 5.07699 2.47251 5.09814 2.43703C5.1193 2.40155 5.1486 2.37502 5.18604 2.35744C5.22347 2.33986 5.2666 2.33107 5.31543 2.33107C5.36296 2.33107 5.40527 2.33856 5.44238 2.35353C5.47949 2.36818 5.50879 2.39048 5.53027 2.42043C5.55176 2.45005 5.5625 2.48716 5.5625 2.53175C5.5625 2.56984 5.55501 2.60207 5.54004 2.62843C5.52507 2.6548 5.50602 2.67808 5.48291 2.69826C5.4598 2.71844 5.43604 2.7383 5.41162 2.75783L5.32324 2.82814H5.56445V2.98H5.05957Z" fill="#101010"/>
<path d="M5.89355 2.98781C5.80827 2.98781 5.74414 2.96925 5.70117 2.93214C5.6582 2.89503 5.63672 2.841 5.63672 2.77003H5.80371C5.80371 2.79347 5.81234 2.81138 5.82959 2.82375C5.84684 2.83579 5.86816 2.84181 5.89355 2.84181C5.91699 2.84181 5.93538 2.83628 5.94873 2.82521C5.96208 2.81414 5.96875 2.79738 5.96875 2.77492C5.96875 2.75474 5.96126 2.73944 5.94629 2.72902C5.93164 2.71828 5.91032 2.71291 5.88232 2.71291H5.8335V2.57814H5.88867C5.91667 2.57814 5.93636 2.57309 5.94775 2.563C5.95947 2.55291 5.96533 2.53989 5.96533 2.52394C5.96533 2.50962 5.95964 2.49806 5.94824 2.48927C5.93685 2.48048 5.91895 2.47609 5.89453 2.47609C5.87109 2.47609 5.85303 2.48097 5.84033 2.49074C5.82764 2.50018 5.82096 2.51466 5.82031 2.53419H5.65332C5.65332 2.48667 5.66439 2.44809 5.68652 2.41847C5.70866 2.38852 5.73796 2.36655 5.77441 2.35255C5.8112 2.33823 5.85124 2.33107 5.89453 2.33107C5.93555 2.33107 5.97412 2.33709 6.01025 2.34914C6.04671 2.36086 6.07633 2.37957 6.09912 2.40529C6.12191 2.43068 6.1333 2.46388 6.1333 2.5049C6.1333 2.54201 6.1237 2.57228 6.10449 2.59572C6.08529 2.61883 6.05859 2.63462 6.02441 2.64308C6.06022 2.65057 6.09001 2.66652 6.11377 2.69093C6.13753 2.71502 6.14941 2.74904 6.14941 2.79298C6.14941 2.83367 6.13916 2.86867 6.11865 2.89796C6.09814 2.92694 6.06868 2.94923 6.03027 2.96486C5.99219 2.98016 5.94661 2.98781 5.89355 2.98781Z" fill="#101010"/>
<path d="M3.27002 5.55999C3.27002 5.39431 3.40433 5.25999 3.57002 5.25999H6.43002C6.59571 5.25999 6.73002 5.39431 6.73002 5.55999V6.07999C6.73002 6.24568 6.59571 6.37999 6.43002 6.37999H3.57002C3.40433 6.37999 3.27002 6.24568 3.27002 6.07999V5.55999Z" fill="url(#paint61_linear_377_536)"/>
<path d="M3.27002 5.55999C3.27002 5.39431 3.40433 5.25999 3.57002 5.25999H6.43002C6.59571 5.25999 6.73002 5.39431 6.73002 5.55999V6.07999C6.73002 6.24568 6.59571 6.37999 6.43002 6.37999H3.57002C3.40433 6.37999 3.27002 6.24568 3.27002 6.07999V5.55999Z" fill="url(#paint62_radial_377_536)"/>
<path d="M3.27002 5.55999C3.27002 5.39431 3.40433 5.25999 3.57002 5.25999H6.43002C6.59571 5.25999 6.73002 5.39431 6.73002 5.55999V6.07999C6.73002 6.24568 6.59571 6.37999 6.43002 6.37999H3.57002C3.40433 6.37999 3.27002 6.24568 3.27002 6.07999V5.55999Z" fill="url(#paint63_radial_377_536)"/>
<path d="M3.27002 5.55999C3.27002 5.39431 3.40433 5.25999 3.57002 5.25999H6.43002C6.59571 5.25999 6.73002 5.39431 6.73002 5.55999V6.07999C6.73002 6.24568 6.59571 6.37999 6.43002 6.37999H3.57002C3.40433 6.37999 3.27002 6.24568 3.27002 6.07999V5.55999Z" fill="url(#paint64_linear_377_536)"/>
<path d="M3.27002 5.55999C3.27002 5.39431 3.40433 5.25999 3.57002 5.25999H6.43002C6.59571 5.25999 6.73002 5.39431 6.73002 5.55999V6.07999C6.73002 6.24568 6.59571 6.37999 6.43002 6.37999H3.57002C3.40433 6.37999 3.27002 6.24568 3.27002 6.07999V5.55999Z" fill="url(#paint65_linear_377_536)"/>
<path d="M3.27002 5.55999C3.27002 5.39431 3.40433 5.25999 3.57002 5.25999H6.43002C6.59571 5.25999 6.73002 5.39431 6.73002 5.55999V6.07999C6.73002 6.24568 6.59571 6.37999 6.43002 6.37999H3.57002C3.40433 6.37999 3.27002 6.24568 3.27002 6.07999V5.55999Z" fill="url(#paint66_linear_377_536)"/>
<path d="M3.27002 5.55999C3.27002 5.39431 3.40433 5.25999 3.57002 5.25999H6.43002C6.59571 5.25999 6.73002 5.39431 6.73002 5.55999V6.07999C6.73002 6.24568 6.59571 6.37999 6.43002 6.37999H3.57002C3.40433 6.37999 3.27002 6.24568 3.27002 6.07999V5.55999Z" fill="url(#paint67_linear_377_536)"/>
<path d="M3.71777 6.14999V5.49277H3.90967V5.99179H4.15381V6.14999H3.71777Z" fill="#101010"/>
<path d="M4.23145 6.14999V5.49277H4.42334V6.14999H4.23145Z" fill="#101010"/>
<path d="M4.55371 6.14999V5.49277H4.7998C4.87565 5.49277 4.93538 5.50595 4.979 5.53232C5.02295 5.55836 5.04492 5.59986 5.04492 5.65683C5.04492 5.69199 5.03548 5.72112 5.0166 5.74423C4.99805 5.76734 4.9738 5.7846 4.94385 5.79599C4.993 5.80706 5.02881 5.82643 5.05127 5.8541C5.07373 5.88144 5.08496 5.91513 5.08496 5.95517C5.08496 6.00139 5.07357 6.03883 5.05078 6.06747C5.02832 6.09612 4.9974 6.11712 4.95801 6.13046C4.91862 6.14348 4.87354 6.14999 4.82275 6.14999H4.55371ZM4.74561 6.00693H4.81592C4.83122 6.00693 4.84456 6.00465 4.85596 6.00009C4.86735 5.99521 4.87614 5.98805 4.88232 5.97861C4.88851 5.96917 4.8916 5.95729 4.8916 5.94296C4.8916 5.92245 4.88493 5.90797 4.87158 5.89951C4.85824 5.89104 4.83936 5.88681 4.81494 5.88681H4.74561V6.00693ZM4.74561 5.74423H4.79688C4.81185 5.74423 4.82471 5.73951 4.83545 5.73007C4.84619 5.72031 4.85156 5.70598 4.85156 5.6871C4.85156 5.67408 4.8488 5.66383 4.84326 5.65634C4.83773 5.64885 4.83073 5.64365 4.82227 5.64072C4.81413 5.63746 4.80566 5.63583 4.79688 5.63583H4.74561V5.74423Z" fill="#101010"/>
<path d="M5.17969 6.14999V5.49277H5.46582C5.51432 5.49277 5.55713 5.49863 5.59424 5.51035C5.63167 5.52174 5.66097 5.54111 5.68213 5.56845C5.70329 5.59579 5.71387 5.63323 5.71387 5.68076C5.71387 5.7221 5.70215 5.75725 5.67871 5.78622C5.65527 5.81487 5.62256 5.83652 5.58057 5.85117C5.61312 5.85605 5.63802 5.865 5.65527 5.87802C5.67253 5.89072 5.68587 5.90781 5.69531 5.92929C5.70475 5.95078 5.71387 5.97665 5.72266 6.00693L5.76562 6.14999H5.56982L5.54395 6.04892C5.53548 6.01702 5.52718 5.99228 5.51904 5.9747C5.51123 5.95712 5.50049 5.94492 5.48682 5.93808C5.47347 5.93124 5.45443 5.92783 5.42969 5.92783H5.37158V6.14999H5.17969ZM5.37158 5.77695H5.43555C5.45312 5.77695 5.46777 5.77418 5.47949 5.76865C5.49121 5.76279 5.5 5.75465 5.50586 5.74423C5.51172 5.73382 5.51465 5.72145 5.51465 5.70712C5.51465 5.68401 5.50814 5.66773 5.49512 5.65829C5.4821 5.64885 5.46794 5.64413 5.45264 5.64413H5.37158V5.77695Z" fill="#101010"/>
<path d="M5.83105 6.14999V5.49277H6.29688V5.65097H6.02295V5.74277H6.26514V5.89511H6.02295V5.99179H6.29688V6.14999H5.83105Z" fill="#101010"/>
<defs>
<linearGradient id="paint0_linear_377_536" x1="4.99219" y1="0.678711" x2="4.99219" y2="9.40918" gradientUnits="userSpaceOnUse">
<stop stop-color="#DA9662"/>
<stop offset="1" stop-color="#D58763"/>
</linearGradient>
<radialGradient id="paint1_radial_377_536" cx="0" cy="0" r="1" gradientUnits="userSpaceOnUse" gradientTransform="translate(7.47998 0.827897) rotate(137.527) scale(0.812793 0.743437)">
<stop offset="0.0393727" stop-color="#E8A66F"/>
<stop offset="1" stop-color="#E8A66F" stop-opacity="0"/>
</radialGradient>
<linearGradient id="paint2_linear_377_536" x1="2.50439" y1="3.77856" x2="3.07979" y2="3.77856" gradientUnits="userSpaceOnUse">
<stop stop-color="#A56F56"/>
<stop offset="0.782609" stop-color="#C98355" stop-opacity="0"/>
</linearGradient>
<radialGradient id="paint3_radial_377_536" cx="0" cy="0" r="1" gradientUnits="userSpaceOnUse" gradientTransform="translate(6.83836 4.61332) rotate(130.641) scale(0.619582 0.553795)">
<stop offset="0.385675" stop-color="#C76B48"/>
<stop offset="0.721001" stop-color="#C76B48" stop-opacity="0"/>
</radialGradient>
<linearGradient id="paint4_linear_377_536" x1="7.51652" y1="5.44751" x2="6.97482" y2="5.44751" gradientUnits="userSpaceOnUse">
<stop stop-color="#D79965"/>
<stop offset="0.325809" stop-color="#E59F6A"/>
<stop offset="1" stop-color="#E59F6A" stop-opacity="0"/>
</linearGradient>
<linearGradient id="paint5_linear_377_536" x1="4.99219" y1="0.678711" x2="4.99219" y2="9.62579" gradientUnits="userSpaceOnUse">
<stop offset="0.912677" stop-color="#BA625A" stop-opacity="0"/>
<stop offset="0.995644" stop-color="#BA625A"/>
</linearGradient>
<linearGradient id="paint6_linear_377_536" x1="4.99219" y1="0.678711" x2="4.99219" y2="9.40918" gradientUnits="userSpaceOnUse">
<stop stop-color="#C98C58"/>
<stop offset="0.051065" stop-color="#C98C58" stop-opacity="0"/>
</linearGradient>
<radialGradient id="paint7_radial_377_536" cx="0" cy="0" r="1" gradientUnits="userSpaceOnUse" gradientTransform="translate(4.99219 5.04395) rotate(90) scale(4.36523 2.48779)">
<stop stop-color="#DD9364"/>
<stop offset="1" stop-color="#DD9364" stop-opacity="0"/>
</radialGradient>
<linearGradient id="paint8_linear_377_536" x1="3.07422" y1="2.76855" x2="6.92554" y2="2.76855" gradientUnits="userSpaceOnUse">
<stop stop-color="#CC8D6A"/>
<stop offset="1" stop-color="#C48462"/>
</linearGradient>
<linearGradient id="paint9_linear_377_536" x1="3.07422" y1="2.81213" x2="3.51467" y2="2.81213" gradientUnits="userSpaceOnUse">
<stop stop-color="#CC906A"/>
<stop offset="1" stop-color="#CC906A" stop-opacity="0"/>
</linearGradient>
<linearGradient id="paint10_linear_377_536" x1="3.51467" y1="4.04541" x2="3.51467" y2="3.50946" gradientUnits="userSpaceOnUse">
<stop offset="0.315214" stop-color="#CC906A"/>
<stop offset="1" stop-color="#CC906A" stop-opacity="0"/>
</linearGradient>
<linearGradient id="paint11_linear_377_536" x1="4.99988" y1="1.12139" x2="4.99988" y2="4.04541" gradientUnits="userSpaceOnUse">
<stop stop-color="#B76747"/>
<stop offset="0.183052" stop-color="#B76747" stop-opacity="0"/>
</linearGradient>
<linearGradient id="paint12_linear_377_536" x1="4.99988" y1="1.12139" x2="4.99988" y2="4.04541" gradientUnits="userSpaceOnUse">
<stop stop-color="#B76747"/>
<stop offset="0.183052" stop-color="#B76747" stop-opacity="0"/>
</linearGradient>
<linearGradient id="paint13_linear_377_536" x1="5.42681" y1="4.10045" x2="5.42681" y2="1.29517" gradientUnits="userSpaceOnUse">
<stop stop-color="#C27C45"/>
<stop offset="0.11255" stop-color="#C27C45" stop-opacity="0"/>
</linearGradient>
<linearGradient id="paint14_linear_377_536" x1="3.07422" y1="3.00449" x2="4.91148" y2="3.00449" gradientUnits="userSpaceOnUse">
<stop stop-color="#C27C45"/>
<stop offset="0.110304" stop-color="#C27C45" stop-opacity="0"/>
</linearGradient>
<linearGradient id="paint15_linear_377_536" x1="6.92554" y1="2.67029" x2="4.7906" y2="2.67029" gradientUnits="userSpaceOnUse">
<stop stop-color="#B76747"/>
<stop offset="0.180812" stop-color="#B76747" stop-opacity="0"/>
</linearGradient>
<radialGradient id="paint16_radial_377_536" cx="0" cy="0" r="1" gradientUnits="userSpaceOnUse" gradientTransform="translate(6.65116 1.43155) rotate(122.282) scale(3.09176 4.32956)">
<stop stop-color="#B86A4A"/>
<stop offset="0.118379" stop-color="#B86A4A" stop-opacity="0"/>
</radialGradient>
<radialGradient id="paint17_radial_377_536" cx="0" cy="0" r="1" gradientUnits="userSpaceOnUse" gradientTransform="translate(3.27923 3.92255) rotate(-35.0256) scale(4.03775 5.65428)">
<stop stop-color="#C27C45"/>
<stop offset="0.0695929" stop-color="#C27C45" stop-opacity="0"/>
</radialGradient>
<radialGradient id="paint18_radial_377_536" cx="0" cy="0" r="1" gradientUnits="userSpaceOnUse" gradientTransform="translate(3.51082 3.66774) rotate(6.66663) scale(0.36272 0.382461)">
<stop stop-color="#C98967"/>
<stop offset="1" stop-color="#C98967" stop-opacity="0"/>
</radialGradient>
<radialGradient id="paint19_radial_377_536" cx="0" cy="0" r="1" gradientUnits="userSpaceOnUse" gradientTransform="translate(6.42103 3.59756) rotate(-127.807) scale(0.343469 0.319429)">
<stop stop-color="#C68664"/>
<stop offset="1" stop-color="#C48362" stop-opacity="0"/>
</radialGradient>
<linearGradient id="paint20_linear_377_536" x1="3.07422" y1="5.87213" x2="6.92554" y2="5.87213" gradientUnits="userSpaceOnUse">
<stop stop-color="#CC8D6A"/>
<stop offset="1" stop-color="#C48462"/>
</linearGradient>
<linearGradient id="paint21_linear_377_536" x1="3.20981" y1="5.89619" x2="3.73977" y2="5.89619" gradientUnits="userSpaceOnUse">
<stop stop-color="#CC906A"/>
<stop offset="1" stop-color="#CC906A" stop-opacity="0"/>
</linearGradient>
<linearGradient id="paint22_linear_377_536" x1="3.51467" y1="6.57715" x2="3.51467" y2="6.28122" gradientUnits="userSpaceOnUse">
<stop offset="0.315214" stop-color="#CC906A"/>
<stop offset="1" stop-color="#CC906A" stop-opacity="0"/>
</linearGradient>
<linearGradient id="paint23_linear_377_536" x1="4.99988" y1="4.96264" x2="4.99988" y2="6.57715" gradientUnits="userSpaceOnUse">
<stop stop-color="#B76747"/>
<stop offset="0.183052" stop-color="#B76747" stop-opacity="0"/>
</linearGradient>
<linearGradient id="paint24_linear_377_536" x1="4.99988" y1="4.96264" x2="4.99988" y2="6.57715" gradientUnits="userSpaceOnUse">
<stop stop-color="#B76747"/>
<stop offset="0.255996" stop-color="#B76747" stop-opacity="0"/>
</linearGradient>
<linearGradient id="paint25_linear_377_536" x1="5.42681" y1="6.60754" x2="5.42681" y2="5.05859" gradientUnits="userSpaceOnUse">
<stop stop-color="#C27C45"/>
<stop offset="0.11255" stop-color="#C27C45" stop-opacity="0"/>
</linearGradient>
<linearGradient id="paint26_linear_377_536" x1="3.07422" y1="6.0024" x2="4.91148" y2="6.0024" gradientUnits="userSpaceOnUse">
<stop stop-color="#C27C45"/>
<stop offset="0.110304" stop-color="#C27C45" stop-opacity="0"/>
</linearGradient>
<linearGradient id="paint27_linear_377_536" x1="6.92554" y1="5.81787" x2="4.7906" y2="5.81787" gradientUnits="userSpaceOnUse">
<stop stop-color="#B76747"/>
<stop offset="0.180812" stop-color="#B76747" stop-opacity="0"/>
</linearGradient>
<radialGradient id="paint28_radial_377_536" cx="0" cy="0" r="1" gradientUnits="userSpaceOnUse" gradientTransform="translate(6.65116 5.1339) rotate(138.846) scale(2.1931 3.37015)">
<stop stop-color="#B86A4A"/>
<stop offset="0.118379" stop-color="#B86A4A" stop-opacity="0"/>
</radialGradient>
<radialGradient id="paint29_radial_377_536" cx="0" cy="0" r="1" gradientUnits="userSpaceOnUse" gradientTransform="translate(3.27923 6.50931) rotate(-21.1559) scale(3.54545 3.55553)">
<stop stop-color="#C27C45"/>
<stop offset="0.0695929" stop-color="#C27C45" stop-opacity="0"/>
</radialGradient>
<radialGradient id="paint30_radial_377_536" cx="0" cy="0" r="1" gradientUnits="userSpaceOnUse" gradientTransform="translate(3.51082 6.36862) rotate(3.69258) scale(0.361017 0.212173)">
<stop stop-color="#C98967"/>
<stop offset="1" stop-color="#C98967" stop-opacity="0"/>
</radialGradient>
<radialGradient id="paint31_radial_377_536" cx="0" cy="0" r="1" gradientUnits="userSpaceOnUse" gradientTransform="translate(6.42103 6.32987) rotate(-144.562) scale(0.25842 0.23442)">
<stop stop-color="#C68664"/>
<stop offset="1" stop-color="#C48362" stop-opacity="0"/>
</radialGradient>
<linearGradient id="paint32_linear_377_536" x1="3.07422" y1="8.04376" x2="6.92554" y2="8.04376" gradientUnits="userSpaceOnUse">
<stop stop-color="#CC8D6A"/>
<stop offset="1" stop-color="#C48462"/>
</linearGradient>
<linearGradient id="paint33_linear_377_536" x1="3.20981" y1="8.06782" x2="3.73977" y2="8.06782" gradientUnits="userSpaceOnUse">
<stop stop-color="#CC906A"/>
<stop offset="1" stop-color="#CC906A" stop-opacity="0"/>
</linearGradient>
<linearGradient id="paint34_linear_377_536" x1="3.51467" y1="8.74878" x2="3.51467" y2="8.45285" gradientUnits="userSpaceOnUse">
<stop offset="0.315214" stop-color="#CC906A"/>
<stop offset="1" stop-color="#CC906A" stop-opacity="0"/>
</linearGradient>
<linearGradient id="paint35_linear_377_536" x1="4.99988" y1="7.13427" x2="4.99988" y2="8.74878" gradientUnits="userSpaceOnUse">
<stop stop-color="#B76747"/>
<stop offset="0.183052" stop-color="#B76747" stop-opacity="0"/>
</linearGradient>
<linearGradient id="paint36_linear_377_536" x1="4.99988" y1="7.13427" x2="4.99988" y2="8.74878" gradientUnits="userSpaceOnUse">
<stop stop-color="#B76747"/>
<stop offset="0.255996" stop-color="#B76747" stop-opacity="0"/>
</linearGradient>
<linearGradient id="paint37_linear_377_536" x1="5.42681" y1="8.77917" x2="5.42681" y2="7.23022" gradientUnits="userSpaceOnUse">
<stop stop-color="#C27C45"/>
<stop offset="0.11255" stop-color="#C27C45" stop-opacity="0"/>
</linearGradient>
<linearGradient id="paint38_linear_377_536" x1="3.07422" y1="8.17403" x2="4.91148" y2="8.17403" gradientUnits="userSpaceOnUse">
<stop stop-color="#C27C45"/>
<stop offset="0.110304" stop-color="#C27C45" stop-opacity="0"/>
</linearGradient>
<linearGradient id="paint39_linear_377_536" x1="6.92554" y1="7.9895" x2="4.7906" y2="7.9895" gradientUnits="userSpaceOnUse">
<stop stop-color="#B76747"/>
<stop offset="0.180812" stop-color="#B76747" stop-opacity="0"/>
</linearGradient>
<radialGradient id="paint40_radial_377_536" cx="0" cy="0" r="1" gradientUnits="userSpaceOnUse" gradientTransform="translate(6.65116 7.30553) rotate(138.846) scale(2.1931 3.37015)">
<stop stop-color="#B86A4A"/>
<stop offset="0.118379" stop-color="#B86A4A" stop-opacity="0"/>
</radialGradient>
<radialGradient id="paint41_radial_377_536" cx="0" cy="0" r="1" gradientUnits="userSpaceOnUse" gradientTransform="translate(3.27923 8.68094) rotate(-21.1559) scale(3.54545 3.55553)">
<stop stop-color="#C27C45"/>
<stop offset="0.0695929" stop-color="#C27C45" stop-opacity="0"/>
</radialGradient>
<radialGradient id="paint42_radial_377_536" cx="0" cy="0" r="1" gradientUnits="userSpaceOnUse" gradientTransform="translate(3.51082 8.54025) rotate(3.69258) scale(0.361017 0.212173)">
<stop stop-color="#C98967"/>
<stop offset="1" stop-color="#C98967" stop-opacity="0"/>
</radialGradient>
<radialGradient id="paint43_radial_377_536" cx="0" cy="0" r="1" gradientUnits="userSpaceOnUse" gradientTransform="translate(6.42103 8.5015) rotate(-144.562) scale(0.25842 0.23442)">
<stop stop-color="#C68664"/>
<stop offset="1" stop-color="#C48362" stop-opacity="0"/>
</radialGradient>
<linearGradient id="paint44_linear_377_536" x1="5.00002" y1="7.42999" x2="5.00002" y2="8.54999" gradientUnits="userSpaceOnUse">
<stop stop-color="#FE4D8F"/>
<stop offset="1" stop-color="#F84B73"/>
</linearGradient>
<radialGradient id="paint45_radial_377_536" cx="0" cy="0" r="1" gradientUnits="userSpaceOnUse" gradientTransform="translate(6.54466 7.48999) rotate(162.063) scale(0.32471 0.222242)">
<stop stop-color="#FF5699" stop-opacity="0.6"/>
<stop offset="1" stop-color="#FF5699" stop-opacity="0"/>
</radialGradient>
<radialGradient id="paint46_radial_377_536" cx="0" cy="0" r="1" gradientUnits="userSpaceOnUse" gradientTransform="translate(3.39359 8.50999) rotate(-15.507) scale(0.448839 0.273326)">
<stop stop-color="#E42D53" stop-opacity="0.7"/>
<stop offset="1" stop-color="#E42D53" stop-opacity="0"/>
</radialGradient>
<linearGradient id="paint47_linear_377_536" x1="6.73002" y1="7.98999" x2="6.17395" y2="7.98999" gradientUnits="userSpaceOnUse">
<stop stop-color="#FF5699" stop-opacity="0"/>
<stop offset="0.479167" stop-color="#FF5699" stop-opacity="0.5"/>
<stop offset="1" stop-color="#FF5699" stop-opacity="0"/>
</linearGradient>
<linearGradient id="paint48_linear_377_536" x1="5.00002" y1="7.42999" x2="5.00002" y2="7.58999" gradientUnits="userSpaceOnUse">
<stop stop-color="#FF5699" stop-opacity="0"/>
<stop offset="0.479167" stop-color="#FF5699"/>
<stop offset="1" stop-color="#FF5699" stop-opacity="0"/>
</linearGradient>
<linearGradient id="paint49_linear_377_536" x1="5.00002" y1="7.42999" x2="5.00002" y2="8.54999" gradientUnits="userSpaceOnUse">
<stop stop-color="#E42D53" stop-opacity="0.35"/>
<stop offset="0.058296" stop-color="#E42D53" stop-opacity="0"/>
<stop offset="0.872197" stop-color="#E42D53" stop-opacity="0"/>
<stop offset="0.939462" stop-color="#E42D53" stop-opacity="0.438597"/>
<stop offset="1" stop-color="#E42D53"/>
</linearGradient>
<linearGradient id="paint50_linear_377_536" x1="6.71781" y1="7.97995" x2="3.30436" y2="7.97995" gradientUnits="userSpaceOnUse">
<stop stop-color="#E42D53" stop-opacity="0.35"/>
<stop offset="0.058296" stop-color="#E42D53" stop-opacity="0"/>
<stop offset="0.872197" stop-color="#E42D53" stop-opacity="0"/>
<stop offset="0.939462" stop-color="#E42D53" stop-opacity="0.438597"/>
<stop offset="1" stop-color="#E42D53"/>
</linearGradient>
<radialGradient id="paint51_radial_377_536" cx="0" cy="0" r="1" gradientUnits="userSpaceOnUse" gradientTransform="translate(7.09424 4.375) rotate(118.044) scale(0.571217)">
<stop offset="0.242049" stop-color="#FFB62F"/>
<stop offset="0.90503" stop-color="#E07124"/>
</radialGradient>
<radialGradient id="paint52_radial_377_536" cx="0" cy="0" r="1" gradientUnits="userSpaceOnUse" gradientTransform="translate(7.07471 4.46289) rotate(131.634) scale(0.293984)">
<stop offset="0.166667" stop-color="#FFCB6E"/>
<stop offset="1" stop-color="#FEA32F" stop-opacity="0"/>
</radialGradient>
<radialGradient id="paint53_radial_377_536" cx="0" cy="0" r="1" gradientUnits="userSpaceOnUse" gradientTransform="translate(7.14307 4.55933) rotate(180) scale(0.600586)">
<stop offset="0.681818" stop-color="#F0972A" stop-opacity="0"/>
<stop offset="1" stop-color="#D37D22"/>
</radialGradient>
<linearGradient id="paint54_linear_377_536" x1="5" y1="1.92999" x2="5" y2="3.41999" gradientUnits="userSpaceOnUse">
<stop stop-color="#5BB3FD"/>
<stop offset="1" stop-color="#5194EC"/>
</linearGradient>
<radialGradient id="paint55_radial_377_536" cx="0" cy="0" r="1" gradientUnits="userSpaceOnUse" gradientTransform="translate(6.33929 2.00981) rotate(153.588) scale(0.299075 0.278327)">
<stop stop-color="#7AD3FE" stop-opacity="0.7"/>
<stop offset="1" stop-color="#7AD3FE" stop-opacity="0"/>
</radialGradient>
<radialGradient id="paint56_radial_377_536" cx="0" cy="0" r="1" gradientUnits="userSpaceOnUse" gradientTransform="translate(3.60714 3.36678) rotate(-23.0601) scale(0.407567 0.347204)">
<stop stop-color="#3F70D6" stop-opacity="0.7"/>
<stop offset="1" stop-color="#3F70D6" stop-opacity="0"/>
</radialGradient>
<linearGradient id="paint57_linear_377_536" x1="6.5" y1="2.67499" x2="6.01786" y2="2.67499" gradientUnits="userSpaceOnUse">
<stop stop-color="#7AD3FE" stop-opacity="0"/>
<stop offset="0.479167" stop-color="#7AD3FE" stop-opacity="0.1"/>
<stop offset="1" stop-color="#7AD3FE" stop-opacity="0"/>
</linearGradient>
<linearGradient id="paint58_linear_377_536" x1="5" y1="1.92999" x2="5" y2="2.14285" gradientUnits="userSpaceOnUse">
<stop stop-color="#7AD3FE" stop-opacity="0"/>
<stop offset="0.479167" stop-color="#7AD3FE" stop-opacity="0.13"/>
<stop offset="1" stop-color="#7AD3FE" stop-opacity="0"/>
</linearGradient>
<linearGradient id="paint59_linear_377_536" x1="5" y1="1.92999" x2="5" y2="3.41999" gradientUnits="userSpaceOnUse">
<stop stop-color="#3F70D6" stop-opacity="0.35"/>
<stop offset="0.058296" stop-color="#3F70D6" stop-opacity="0"/>
<stop offset="0.872197" stop-color="#3F70D6" stop-opacity="0"/>
<stop offset="0.939462" stop-color="#3F70D6" stop-opacity="0.438597"/>
<stop offset="1" stop-color="#3F70D6"/>
</linearGradient>
<linearGradient id="paint60_linear_377_536" x1="6.48942" y1="2.66163" x2="3.52978" y2="2.66163" gradientUnits="userSpaceOnUse">
<stop stop-color="#3F70D6" stop-opacity="0.35"/>
<stop offset="0.058296" stop-color="#3F70D6" stop-opacity="0"/>
<stop offset="0.872197" stop-color="#3F70D6" stop-opacity="0"/>
<stop offset="0.939462" stop-color="#3F70D6" stop-opacity="0.438597"/>
<stop offset="1" stop-color="#3F70D6"/>
</linearGradient>
<linearGradient id="paint61_linear_377_536" x1="5.00002" y1="5.25999" x2="5.00002" y2="6.37999" gradientUnits="userSpaceOnUse">
<stop stop-color="#59D88F"/>
<stop offset="1" stop-color="#55CE89"/>
</linearGradient>
<radialGradient id="paint62_radial_377_536" cx="0" cy="0" r="1" gradientUnits="userSpaceOnUse" gradientTransform="translate(6.54466 5.31999) rotate(162.063) scale(0.32471 0.222242)">
<stop stop-color="#6FF4A4" stop-opacity="0.6"/>
<stop offset="1" stop-color="#6FF4A4" stop-opacity="0"/>
</radialGradient>
<radialGradient id="paint63_radial_377_536" cx="0" cy="0" r="1" gradientUnits="userSpaceOnUse" gradientTransform="translate(3.39359 6.33999) rotate(-15.507) scale(0.448839 0.273326)">
<stop stop-color="#388964" stop-opacity="0.7"/>
<stop offset="1" stop-color="#388964" stop-opacity="0"/>
</radialGradient>
<linearGradient id="paint64_linear_377_536" x1="6.73002" y1="5.81999" x2="6.17395" y2="5.81999" gradientUnits="userSpaceOnUse">
<stop stop-color="#6FF4A4" stop-opacity="0"/>
<stop offset="0.479167" stop-color="#6FF4A4" stop-opacity="0.3"/>
<stop offset="1" stop-color="#6FF4A4" stop-opacity="0"/>
</linearGradient>
<linearGradient id="paint65_linear_377_536" x1="5.00002" y1="5.25999" x2="5.00002" y2="5.41999" gradientUnits="userSpaceOnUse">
<stop stop-color="#6FF4A4" stop-opacity="0"/>
<stop offset="0.479167" stop-color="#6FF4A4" stop-opacity="0.4"/>
<stop offset="1" stop-color="#6FF4A4" stop-opacity="0"/>
</linearGradient>
<linearGradient id="paint66_linear_377_536" x1="5.00002" y1="5.25999" x2="5.00002" y2="6.37999" gradientUnits="userSpaceOnUse">
<stop stop-color="#388964" stop-opacity="0.35"/>
<stop offset="0.058296" stop-color="#388964" stop-opacity="0"/>
<stop offset="0.872197" stop-color="#388964" stop-opacity="0"/>
<stop offset="0.939462" stop-color="#388964" stop-opacity="0.438597"/>
<stop offset="1" stop-color="#388964"/>
</linearGradient>
<linearGradient id="paint67_linear_377_536" x1="6.71781" y1="5.80995" x2="3.30436" y2="5.80995" gradientUnits="userSpaceOnUse">
<stop stop-color="#388964" stop-opacity="0.35"/>
<stop offset="0.058296" stop-color="#388964" stop-opacity="0"/>
<stop offset="0.872197" stop-color="#388964" stop-opacity="0"/>
<stop offset="0.939462" stop-color="#388964" stop-opacity="0.438597"/>
<stop offset="1" stop-color="#388964"/>
</linearGradient>
</defs>
</svg>
