<svg width="10" height="10" viewBox="0 0 10 10" fill="none" xmlns="http://www.w3.org/2000/svg">
<g filter="url(#filter0_i_564_1469)">
<path d="M7.8125 2.00005V1.2188H2.1875V2.00005C2.1875 3.25005 3.0625 4.2813 4.21875 4.56255C4.3125 4.5938 4.375 4.68755 4.375 4.7813V5.1563C4.375 5.25005 4.3125 5.3438 4.21875 5.3438C3.0625 5.62505 2.1875 6.6563 2.1875 7.9063V8.75005H7.8125V7.9063C7.8125 6.6563 6.9375 5.62505 5.78125 5.3438C5.6875 5.31255 5.625 5.25005 5.625 5.1563V4.7813C5.625 4.68755 5.6875 4.5938 5.78125 4.5938C6.9375 4.2813 7.8125 3.25005 7.8125 2.00005Z" fill="#9FD6FF"/>
<path d="M7.8125 2.00005V1.2188H2.1875V2.00005C2.1875 3.25005 3.0625 4.2813 4.21875 4.56255C4.3125 4.5938 4.375 4.68755 4.375 4.7813V5.1563C4.375 5.25005 4.3125 5.3438 4.21875 5.3438C3.0625 5.62505 2.1875 6.6563 2.1875 7.9063V8.75005H7.8125V7.9063C7.8125 6.6563 6.9375 5.62505 5.78125 5.3438C5.6875 5.31255 5.625 5.25005 5.625 5.1563V4.7813C5.625 4.68755 5.6875 4.5938 5.78125 4.5938C6.9375 4.2813 7.8125 3.25005 7.8125 2.00005Z" fill="url(#paint0_radial_564_1469)"/>
<path d="M7.8125 2.00005V1.2188H2.1875V2.00005C2.1875 3.25005 3.0625 4.2813 4.21875 4.56255C4.3125 4.5938 4.375 4.68755 4.375 4.7813V5.1563C4.375 5.25005 4.3125 5.3438 4.21875 5.3438C3.0625 5.62505 2.1875 6.6563 2.1875 7.9063V8.75005H7.8125V7.9063C7.8125 6.6563 6.9375 5.62505 5.78125 5.3438C5.6875 5.31255 5.625 5.25005 5.625 5.1563V4.7813C5.625 4.68755 5.6875 4.5938 5.78125 4.5938C6.9375 4.2813 7.8125 3.25005 7.8125 2.00005Z" fill="url(#paint1_radial_564_1469)"/>
</g>
<path d="M7.8125 1.25H2.1875C2 1.25 1.875 1.125 1.875 0.9375C1.875 0.75 2 0.625 2.1875 0.625H7.8125C8 0.625 8.125 0.75 8.125 0.9375C8.125 1.125 8 1.25 7.8125 1.25Z" fill="url(#paint2_radial_564_1469)"/>
<path d="M7.8125 1.25H2.1875C2 1.25 1.875 1.125 1.875 0.9375C1.875 0.75 2 0.625 2.1875 0.625H7.8125C8 0.625 8.125 0.75 8.125 0.9375C8.125 1.125 8 1.25 7.8125 1.25Z" fill="url(#paint3_linear_564_1469)"/>
<path d="M7.8125 1.25H2.1875C2 1.25 1.875 1.125 1.875 0.9375C1.875 0.75 2 0.625 2.1875 0.625H7.8125C8 0.625 8.125 0.75 8.125 0.9375C8.125 1.125 8 1.25 7.8125 1.25Z" fill="url(#paint4_linear_564_1469)"/>
<path d="M7.8125 9.375H2.1875C2 9.375 1.875 9.25 1.875 9.0625C1.875 8.875 2 8.75 2.1875 8.75H7.8125C8 8.75 8.125 8.875 8.125 9.0625C8.125 9.25 8 9.375 7.8125 9.375Z" fill="url(#paint5_radial_564_1469)"/>
<path d="M7.8125 9.375H2.1875C2 9.375 1.875 9.25 1.875 9.0625C1.875 8.875 2 8.75 2.1875 8.75H7.8125C8 8.75 8.125 8.875 8.125 9.0625C8.125 9.25 8 9.375 7.8125 9.375Z" fill="url(#paint6_linear_564_1469)"/>
<path d="M7.8125 9.375H2.1875C2 9.375 1.875 9.25 1.875 9.0625C1.875 8.875 2 8.75 2.1875 8.75H7.8125C8 8.75 8.125 8.875 8.125 9.0625C8.125 9.25 8 9.375 7.8125 9.375Z" fill="url(#paint7_linear_564_1469)"/>
<path d="M7.00002 8.37501C6.84377 8.37501 6.71877 8.25001 6.71877 8.09376C6.65627 7.50001 6.34377 6.68751 5.59377 6.40626C5.43752 6.34376 5.37502 6.18751 5.43752 6.03126C5.50002 5.87501 5.65627 5.81251 5.81252 5.87501C6.25002 6.03126 6.62502 6.34376 6.87502 6.78126C7.12502 7.15626 7.25002 7.59376 7.28127 8.09376C7.31252 8.21876 7.18752 8.37501 7.00002 8.37501Z" fill="url(#paint8_linear_564_1469)"/>
<g filter="url(#filter1_i_564_1469)">
<path d="M5.3126 6.9375V4.625C5.3126 4.46875 5.40635 4.34375 5.5626 4.3125C6.5626 4.09375 7.31259 3.28125 7.46884 2.25C7.50009 2.0625 7.34384 1.875 7.15634 1.875H2.84385C2.65635 1.875 2.5001 2.0625 2.53135 2.25C2.6876 3.28125 3.4376 4.09375 4.4376 4.3125C4.59385 4.34375 4.6876 4.46875 4.6876 4.625C4.6876 5.15625 4.6876 6.40625 4.6876 6.9375C4.6876 7.09375 4.59385 7.21875 4.4376 7.25C3.84385 7.375 3.34385 7.71875 3.0001 8.1875C2.8126 8.4375 3.0001 8.75 3.28135 8.75H6.71885C7.0001 8.75 7.18759 8.4375 7.00009 8.21875C6.65634 7.75 6.1251 7.40625 5.5626 7.28125C5.40635 7.21875 5.3126 7.09375 5.3126 6.9375Z" fill="url(#paint9_radial_564_1469)"/>
<path d="M5.3126 6.9375V4.625C5.3126 4.46875 5.40635 4.34375 5.5626 4.3125C6.5626 4.09375 7.31259 3.28125 7.46884 2.25C7.50009 2.0625 7.34384 1.875 7.15634 1.875H2.84385C2.65635 1.875 2.5001 2.0625 2.53135 2.25C2.6876 3.28125 3.4376 4.09375 4.4376 4.3125C4.59385 4.34375 4.6876 4.46875 4.6876 4.625C4.6876 5.15625 4.6876 6.40625 4.6876 6.9375C4.6876 7.09375 4.59385 7.21875 4.4376 7.25C3.84385 7.375 3.34385 7.71875 3.0001 8.1875C2.8126 8.4375 3.0001 8.75 3.28135 8.75H6.71885C7.0001 8.75 7.18759 8.4375 7.00009 8.21875C6.65634 7.75 6.1251 7.40625 5.5626 7.28125C5.40635 7.21875 5.3126 7.09375 5.3126 6.9375Z" fill="url(#paint10_radial_564_1469)"/>
<path d="M5.3126 6.9375V4.625C5.3126 4.46875 5.40635 4.34375 5.5626 4.3125C6.5626 4.09375 7.31259 3.28125 7.46884 2.25C7.50009 2.0625 7.34384 1.875 7.15634 1.875H2.84385C2.65635 1.875 2.5001 2.0625 2.53135 2.25C2.6876 3.28125 3.4376 4.09375 4.4376 4.3125C4.59385 4.34375 4.6876 4.46875 4.6876 4.625C4.6876 5.15625 4.6876 6.40625 4.6876 6.9375C4.6876 7.09375 4.59385 7.21875 4.4376 7.25C3.84385 7.375 3.34385 7.71875 3.0001 8.1875C2.8126 8.4375 3.0001 8.75 3.28135 8.75H6.71885C7.0001 8.75 7.18759 8.4375 7.00009 8.21875C6.65634 7.75 6.1251 7.40625 5.5626 7.28125C5.40635 7.21875 5.3126 7.09375 5.3126 6.9375Z" fill="url(#paint11_radial_564_1469)"/>
</g>
<path d="M5.3126 6.9375V4.625C5.3126 4.46875 5.40635 4.34375 5.5626 4.3125C6.5626 4.09375 7.31259 3.28125 7.46884 2.25C7.50009 2.0625 7.34384 1.875 7.15634 1.875H2.84385C2.65635 1.875 2.5001 2.0625 2.53135 2.25C2.6876 3.28125 3.4376 4.09375 4.4376 4.3125C4.59385 4.34375 4.6876 4.46875 4.6876 4.625C4.6876 5.15625 4.6876 6.40625 4.6876 6.9375C4.6876 7.09375 4.59385 7.21875 4.4376 7.25C3.84385 7.375 3.34385 7.71875 3.0001 8.1875C2.8126 8.4375 3.0001 8.75 3.28135 8.75H6.71885C7.0001 8.75 7.18759 8.4375 7.00009 8.21875C6.65634 7.75 6.1251 7.40625 5.5626 7.28125C5.40635 7.21875 5.3126 7.09375 5.3126 6.9375Z" fill="url(#paint12_radial_564_1469)"/>
<path d="M5.3126 6.9375V4.625C5.3126 4.46875 5.40635 4.34375 5.5626 4.3125C6.5626 4.09375 7.31259 3.28125 7.46884 2.25C7.50009 2.0625 7.34384 1.875 7.15634 1.875H2.84385C2.65635 1.875 2.5001 2.0625 2.53135 2.25C2.6876 3.28125 3.4376 4.09375 4.4376 4.3125C4.59385 4.34375 4.6876 4.46875 4.6876 4.625C4.6876 5.15625 4.6876 6.40625 4.6876 6.9375C4.6876 7.09375 4.59385 7.21875 4.4376 7.25C3.84385 7.375 3.34385 7.71875 3.0001 8.1875C2.8126 8.4375 3.0001 8.75 3.28135 8.75H6.71885C7.0001 8.75 7.18759 8.4375 7.00009 8.21875C6.65634 7.75 6.1251 7.40625 5.5626 7.28125C5.40635 7.21875 5.3126 7.09375 5.3126 6.9375Z" fill="url(#paint13_radial_564_1469)"/>
<path d="M5.3126 6.9375V4.625C5.3126 4.46875 5.40635 4.34375 5.5626 4.3125C6.5626 4.09375 7.31259 3.28125 7.46884 2.25C7.50009 2.0625 7.34384 1.875 7.15634 1.875H2.84385C2.65635 1.875 2.5001 2.0625 2.53135 2.25C2.6876 3.28125 3.4376 4.09375 4.4376 4.3125C4.59385 4.34375 4.6876 4.46875 4.6876 4.625C4.6876 5.15625 4.6876 6.40625 4.6876 6.9375C4.6876 7.09375 4.59385 7.21875 4.4376 7.25C3.84385 7.375 3.34385 7.71875 3.0001 8.1875C2.8126 8.4375 3.0001 8.75 3.28135 8.75H6.71885C7.0001 8.75 7.18759 8.4375 7.00009 8.21875C6.65634 7.75 6.1251 7.40625 5.5626 7.28125C5.40635 7.21875 5.3126 7.09375 5.3126 6.9375Z" fill="url(#paint14_radial_564_1469)"/>
<path d="M5.3126 6.9375V4.625C5.3126 4.46875 5.40635 4.34375 5.5626 4.3125C6.5626 4.09375 7.31259 3.28125 7.46884 2.25C7.50009 2.0625 7.34384 1.875 7.15634 1.875H2.84385C2.65635 1.875 2.5001 2.0625 2.53135 2.25C2.6876 3.28125 3.4376 4.09375 4.4376 4.3125C4.59385 4.34375 4.6876 4.46875 4.6876 4.625C4.6876 5.15625 4.6876 6.40625 4.6876 6.9375C4.6876 7.09375 4.59385 7.21875 4.4376 7.25C3.84385 7.375 3.34385 7.71875 3.0001 8.1875C2.8126 8.4375 3.0001 8.75 3.28135 8.75H6.71885C7.0001 8.75 7.18759 8.4375 7.00009 8.21875C6.65634 7.75 6.1251 7.40625 5.5626 7.28125C5.40635 7.21875 5.3126 7.09375 5.3126 6.9375Z" fill="url(#paint15_linear_564_1469)"/>
<path d="M5.3126 6.9375V4.625C5.3126 4.46875 5.40635 4.34375 5.5626 4.3125C6.5626 4.09375 7.31259 3.28125 7.46884 2.25C7.50009 2.0625 7.34384 1.875 7.15634 1.875H2.84385C2.65635 1.875 2.5001 2.0625 2.53135 2.25C2.6876 3.28125 3.4376 4.09375 4.4376 4.3125C4.59385 4.34375 4.6876 4.46875 4.6876 4.625C4.6876 5.15625 4.6876 6.40625 4.6876 6.9375C4.6876 7.09375 4.59385 7.21875 4.4376 7.25C3.84385 7.375 3.34385 7.71875 3.0001 8.1875C2.8126 8.4375 3.0001 8.75 3.28135 8.75H6.71885C7.0001 8.75 7.18759 8.4375 7.00009 8.21875C6.65634 7.75 6.1251 7.40625 5.5626 7.28125C5.40635 7.21875 5.3126 7.09375 5.3126 6.9375Z" fill="url(#paint16_radial_564_1469)"/>
<path d="M5.3126 6.9375V4.625C5.3126 4.46875 5.40635 4.34375 5.5626 4.3125C6.5626 4.09375 7.31259 3.28125 7.46884 2.25C7.50009 2.0625 7.34384 1.875 7.15634 1.875H2.84385C2.65635 1.875 2.5001 2.0625 2.53135 2.25C2.6876 3.28125 3.4376 4.09375 4.4376 4.3125C4.59385 4.34375 4.6876 4.46875 4.6876 4.625C4.6876 5.15625 4.6876 6.40625 4.6876 6.9375C4.6876 7.09375 4.59385 7.21875 4.4376 7.25C3.84385 7.375 3.34385 7.71875 3.0001 8.1875C2.8126 8.4375 3.0001 8.75 3.28135 8.75H6.71885C7.0001 8.75 7.18759 8.4375 7.00009 8.21875C6.65634 7.75 6.1251 7.40625 5.5626 7.28125C5.40635 7.21875 5.3126 7.09375 5.3126 6.9375Z" fill="url(#paint17_linear_564_1469)"/>
<path d="M5.3126 6.9375V4.625C5.3126 4.46875 5.40635 4.34375 5.5626 4.3125C6.5626 4.09375 7.31259 3.28125 7.46884 2.25C7.50009 2.0625 7.34384 1.875 7.15634 1.875H2.84385C2.65635 1.875 2.5001 2.0625 2.53135 2.25C2.6876 3.28125 3.4376 4.09375 4.4376 4.3125C4.59385 4.34375 4.6876 4.46875 4.6876 4.625C4.6876 5.15625 4.6876 6.40625 4.6876 6.9375C4.6876 7.09375 4.59385 7.21875 4.4376 7.25C3.84385 7.375 3.34385 7.71875 3.0001 8.1875C2.8126 8.4375 3.0001 8.75 3.28135 8.75H6.71885C7.0001 8.75 7.18759 8.4375 7.00009 8.21875C6.65634 7.75 6.1251 7.40625 5.5626 7.28125C5.40635 7.21875 5.3126 7.09375 5.3126 6.9375Z" fill="url(#paint18_linear_564_1469)"/>
<path d="M5.3126 6.9375V4.625C5.3126 4.46875 5.40635 4.34375 5.5626 4.3125C6.5626 4.09375 7.31259 3.28125 7.46884 2.25C7.50009 2.0625 7.34384 1.875 7.15634 1.875H2.84385C2.65635 1.875 2.5001 2.0625 2.53135 2.25C2.6876 3.28125 3.4376 4.09375 4.4376 4.3125C4.59385 4.34375 4.6876 4.46875 4.6876 4.625C4.6876 5.15625 4.6876 6.40625 4.6876 6.9375C4.6876 7.09375 4.59385 7.21875 4.4376 7.25C3.84385 7.375 3.34385 7.71875 3.0001 8.1875C2.8126 8.4375 3.0001 8.75 3.28135 8.75H6.71885C7.0001 8.75 7.18759 8.4375 7.00009 8.21875C6.65634 7.75 6.1251 7.40625 5.5626 7.28125C5.40635 7.21875 5.3126 7.09375 5.3126 6.9375Z" fill="url(#paint19_radial_564_1469)"/>
<path d="M7.00002 1.5313C6.84377 1.5313 6.71877 1.6563 6.71877 1.81255C6.65627 2.4063 6.34377 3.2188 5.59377 3.50005C5.43752 3.56255 5.37502 3.7188 5.43752 3.87505C5.50002 4.0313 5.65627 4.0938 5.81252 4.0313C6.25002 3.87505 6.62502 3.56255 6.87502 3.12505C7.12502 2.75005 7.25002 2.31255 7.28127 1.81255C7.31252 1.68755 7.18752 1.56255 7.00002 1.5313Z" fill="url(#paint20_linear_564_1469)"/>
<g filter="url(#filter2_f_564_1469)">
<path d="M5.03051 6.78733C5.03051 7.12614 4.94791 7.27987 4.90661 7.31438H5.36281C5.23665 7.18638 5.22013 6.90968 5.22764 6.78733L5.22764 4.61325C5.22764 4.37232 5.35154 4.20228 5.4135 4.19914H4.86719C5.00686 4.30455 5.03427 4.55365 5.03051 4.61325V6.78733Z" fill="url(#paint21_linear_564_1469)"/>
</g>
<defs>
<filter id="filter0_i_564_1469" x="2.1875" y="1.2188" width="5.625" height="7.53125" filterUnits="userSpaceOnUse" color-interpolation-filters="sRGB">
<feFlood flood-opacity="0" result="BackgroundImageFix"/>
<feBlend mode="normal" in="SourceGraphic" in2="BackgroundImageFix" result="shape"/>
<feColorMatrix in="SourceAlpha" type="matrix" values="0 0 0 0 0 0 0 0 0 0 0 0 0 0 0 0 0 0 127 0" result="hardAlpha"/>
<feOffset/>
<feGaussianBlur stdDeviation="0.5"/>
<feComposite in2="hardAlpha" operator="arithmetic" k2="-1" k3="1"/>
<feColorMatrix type="matrix" values="0 0 0 0 0.619608 0 0 0 0 0.756863 0 0 0 0 0.87451 0 0 0 1 0"/>
<feBlend mode="normal" in2="shape" result="effect1_innerShadow_564_1469"/>
</filter>
<filter id="filter1_i_564_1469" x="2.52734" y="1.875" width="5.24556" height="6.875" filterUnits="userSpaceOnUse" color-interpolation-filters="sRGB">
<feFlood flood-opacity="0" result="BackgroundImageFix"/>
<feBlend mode="normal" in="SourceGraphic" in2="BackgroundImageFix" result="shape"/>
<feColorMatrix in="SourceAlpha" type="matrix" values="0 0 0 0 0 0 0 0 0 0 0 0 0 0 0 0 0 0 127 0" result="hardAlpha"/>
<feOffset dx="0.3"/>
<feGaussianBlur stdDeviation="0.3"/>
<feComposite in2="hardAlpha" operator="arithmetic" k2="-1" k3="1"/>
<feColorMatrix type="matrix" values="0 0 0 0 0.705882 0 0 0 0 0.541176 0 0 0 0 0.384314 0 0 0 1 0"/>
<feBlend mode="normal" in2="shape" result="effect1_innerShadow_564_1469"/>
</filter>
<filter id="filter2_f_564_1469" x="4.11719" y="3.44914" width="2.04639" height="4.61523" filterUnits="userSpaceOnUse" color-interpolation-filters="sRGB">
<feFlood flood-opacity="0" result="BackgroundImageFix"/>
<feBlend mode="normal" in="SourceGraphic" in2="BackgroundImageFix" result="shape"/>
<feGaussianBlur stdDeviation="0.375" result="effect1_foregroundBlur_564_1469"/>
</filter>
<radialGradient id="paint0_radial_564_1469" cx="0" cy="0" r="1" gradientUnits="userSpaceOnUse" gradientTransform="translate(6.38517 7.03182) rotate(132.749) scale(2.04066 1.6649)">
<stop stop-color="#C4F4FF"/>
<stop offset="1" stop-color="#C4F4FF" stop-opacity="0"/>
</radialGradient>
<radialGradient id="paint1_radial_564_1469" cx="0" cy="0" r="1" gradientUnits="userSpaceOnUse" gradientTransform="translate(6.65832 1.5865) rotate(90) scale(1.65477 3.44108)">
<stop stop-color="#C4F4FF"/>
<stop offset="1" stop-color="#C4F4FF" stop-opacity="0"/>
</radialGradient>
<radialGradient id="paint2_radial_564_1469" cx="0" cy="0" r="1" gradientUnits="userSpaceOnUse" gradientTransform="translate(6.42578 0.9375) rotate(90) scale(0.3125 3.94531)">
<stop stop-color="#CDCFCF"/>
<stop offset="1" stop-color="#A9A9A9"/>
</radialGradient>
<linearGradient id="paint3_linear_564_1469" x1="1.23047" y1="1.02047" x2="5" y2="1.02047" gradientUnits="userSpaceOnUse">
<stop stop-color="#707477"/>
<stop offset="1" stop-color="#707477" stop-opacity="0"/>
</linearGradient>
<linearGradient id="paint4_linear_564_1469" x1="5" y1="1.50875" x2="5" y2="1.09859" gradientUnits="userSpaceOnUse">
<stop stop-color="#707477"/>
<stop offset="1" stop-color="#707477" stop-opacity="0"/>
</linearGradient>
<radialGradient id="paint5_radial_564_1469" cx="0" cy="0" r="1" gradientUnits="userSpaceOnUse" gradientTransform="translate(6.42578 8.95016) rotate(90) scale(0.351562 4.43848)">
<stop stop-color="#CDCFCF"/>
<stop offset="1" stop-color="#A9A9A9"/>
</radialGradient>
<linearGradient id="paint6_linear_564_1469" x1="1.23047" y1="9.14547" x2="5" y2="9.14547" gradientUnits="userSpaceOnUse">
<stop stop-color="#707477"/>
<stop offset="1" stop-color="#707477" stop-opacity="0"/>
</linearGradient>
<linearGradient id="paint7_linear_564_1469" x1="5" y1="9.46774" x2="5" y2="9.165" gradientUnits="userSpaceOnUse">
<stop stop-color="#7CA0B3"/>
<stop offset="1" stop-color="#7CA0B3" stop-opacity="0"/>
</linearGradient>
<linearGradient id="paint8_linear_564_1469" x1="6.23049" y1="6.31345" x2="6.4844" y2="8.37501" gradientUnits="userSpaceOnUse">
<stop stop-color="white"/>
<stop offset="0.821922" stop-color="white" stop-opacity="0"/>
</linearGradient>
<radialGradient id="paint9_radial_564_1469" cx="0" cy="0" r="1" gradientUnits="userSpaceOnUse" gradientTransform="translate(6.17852 7.45483) rotate(90) scale(3.59415 3.54254)">
<stop offset="0.088" stop-color="#FFD68C"/>
<stop offset="1" stop-color="#E69E45"/>
</radialGradient>
<radialGradient id="paint10_radial_564_1469" cx="0" cy="0" r="1" gradientUnits="userSpaceOnUse" gradientTransform="translate(6.64216 1.7223) rotate(127.981) scale(2.6683 2.1887)">
<stop stop-color="#F3C169"/>
<stop offset="1" stop-color="#F3C169" stop-opacity="0"/>
</radialGradient>
<radialGradient id="paint11_radial_564_1469" cx="0" cy="0" r="1" gradientUnits="userSpaceOnUse" gradientTransform="translate(7.74562 6.41972) rotate(164.385) scale(5.66164 9.86468)">
<stop offset="0.667023" stop-color="#B7845C" stop-opacity="0"/>
<stop offset="1" stop-color="#B7845C"/>
</radialGradient>
<radialGradient id="paint12_radial_564_1469" cx="0" cy="0" r="1" gradientUnits="userSpaceOnUse" gradientTransform="translate(3.29996 2.91183) rotate(-24.5429) scale(1.869 2.00747)">
<stop stop-color="#B69E6D"/>
<stop offset="1" stop-color="#B69E6D" stop-opacity="0"/>
</radialGradient>
<radialGradient id="paint13_radial_564_1469" cx="0" cy="0" r="1" gradientUnits="userSpaceOnUse" gradientTransform="translate(6.49297 2.23613) rotate(180) scale(3.54793 0.361128)">
<stop stop-color="#FFE379"/>
<stop offset="0.40625" stop-color="#FFCB56"/>
<stop offset="1" stop-color="#FFCB56" stop-opacity="0"/>
</radialGradient>
<radialGradient id="paint14_radial_564_1469" cx="0" cy="0" r="1" gradientUnits="userSpaceOnUse" gradientTransform="translate(7.47285 1.6738) rotate(132.917) scale(3.63141 3.83955)">
<stop stop-color="#FFD968"/>
<stop offset="1" stop-color="#FFD968" stop-opacity="0"/>
</radialGradient>
<linearGradient id="paint15_linear_564_1469" x1="5.0001" y1="1.826" x2="5.0001" y2="2.03351" gradientUnits="userSpaceOnUse">
<stop stop-color="#9E8563"/>
<stop offset="1" stop-color="#9E8563" stop-opacity="0"/>
</linearGradient>
<radialGradient id="paint16_radial_564_1469" cx="0" cy="0" r="1" gradientUnits="userSpaceOnUse" gradientTransform="translate(5.98892 8.39339) rotate(90) scale(0.201901 2.33308)">
<stop stop-color="#FFD894"/>
<stop offset="1" stop-color="#FFD894" stop-opacity="0"/>
</radialGradient>
<linearGradient id="paint17_linear_564_1469" x1="5.0001" y1="8.81963" x2="5.0001" y2="8.35974" gradientUnits="userSpaceOnUse">
<stop stop-color="#C9895B"/>
<stop offset="1" stop-color="#C9895B" stop-opacity="0"/>
</linearGradient>
<linearGradient id="paint18_linear_564_1469" x1="5.0001" y1="8.75969" x2="5.0001" y2="8.70598" gradientUnits="userSpaceOnUse">
<stop stop-color="#54453F"/>
<stop offset="1" stop-color="#54453F" stop-opacity="0"/>
</linearGradient>
<radialGradient id="paint19_radial_564_1469" cx="0" cy="0" r="1" gradientUnits="userSpaceOnUse" gradientTransform="translate(5.51764 7.1386) rotate(-154.746) scale(0.572241 0.212674)">
<stop stop-color="#FFD87F"/>
<stop offset="1" stop-color="#FFD87F" stop-opacity="0"/>
</radialGradient>
<linearGradient id="paint20_linear_564_1469" x1="7.16799" y1="1.66505" x2="5.93752" y2="3.93067" gradientUnits="userSpaceOnUse">
<stop stop-color="white"/>
<stop offset="0.821922" stop-color="white" stop-opacity="0"/>
</linearGradient>
<linearGradient id="paint21_linear_564_1469" x1="5.14034" y1="4.94133" x2="5.14034" y2="8.34953" gradientUnits="userSpaceOnUse">
<stop stop-color="#FFDF81"/>
<stop offset="1" stop-color="#FFDF81" stop-opacity="0"/>
</linearGradient>
</defs>
</svg>
