<svg width="10" height="10" viewBox="0 0 10 10" fill="none" xmlns="http://www.w3.org/2000/svg">
<g clip-path="url(#clip0_358_2155)">
<path d="M1.09375 1.09375H8.90625V8.90625H1.09375V1.09375Z" fill="url(#paint0_linear_358_2155)"/>
<path d="M2.81738 3.85254C2.81738 4.11412 2.60533 4.32617 2.34375 4.32617C2.08217 4.32617 1.87012 4.11412 1.87012 3.85254C1.87012 3.59096 2.08217 3.37891 2.34375 3.37891C2.60533 3.37891 2.81738 3.59096 2.81738 3.85254Z" fill="url(#paint1_radial_358_2155)"/>
<path d="M1.5625 5.00002L1.20117 4.06265L1.5625 3.12527C1.91833 3.17697 2.21087 3.42395 2.3279 3.75399C2.33516 3.77447 2.36031 3.7827 2.3785 3.77081C2.48359 3.70208 2.6092 3.66213 2.74414 3.66213C3.11358 3.66213 3.41309 3.96163 3.41309 4.33107C3.41309 4.70052 3.11358 5.00002 2.74414 5.00002H1.5625Z" fill="#DFDEFF"/>
<path d="M1.5625 5.00002L1.20117 4.06265L1.5625 3.12527C1.91833 3.17697 2.21087 3.42395 2.3279 3.75399C2.33516 3.77447 2.36031 3.7827 2.3785 3.77081C2.48359 3.70208 2.6092 3.66213 2.74414 3.66213C3.11358 3.66213 3.41309 3.96163 3.41309 4.33107C3.41309 4.70052 3.11358 5.00002 2.74414 5.00002H1.5625Z" fill="url(#paint2_linear_358_2155)"/>
<path d="M1.5625 5.00002L1.20117 4.06265L1.5625 3.12527C1.91833 3.17697 2.21087 3.42395 2.3279 3.75399C2.33516 3.77447 2.36031 3.7827 2.3785 3.77081C2.48359 3.70208 2.6092 3.66213 2.74414 3.66213C3.11358 3.66213 3.41309 3.96163 3.41309 4.33107C3.41309 4.70052 3.11358 5.00002 2.74414 5.00002H1.5625Z" fill="url(#paint3_radial_358_2155)"/>
<path d="M1.5625 5.00002L1.20117 4.06265L1.5625 3.12527C1.91833 3.17697 2.21087 3.42395 2.3279 3.75399C2.33516 3.77447 2.36031 3.7827 2.3785 3.77081C2.48359 3.70208 2.6092 3.66213 2.74414 3.66213C3.11358 3.66213 3.41309 3.96163 3.41309 4.33107C3.41309 4.70052 3.11358 5.00002 2.74414 5.00002H1.5625Z" fill="url(#paint4_radial_358_2155)"/>
<path d="M8.20493 3.78955C8.20493 4.14642 7.91563 4.43572 7.55876 4.43572C7.2019 4.43572 6.9126 4.14642 6.9126 3.78955C6.9126 3.43268 7.2019 3.14339 7.55876 3.14339C7.91563 3.14339 8.20493 3.43268 8.20493 3.78955Z" fill="url(#paint5_radial_358_2155)"/>
<path d="M8.20493 3.78955C8.20493 4.14642 7.91563 4.43572 7.55876 4.43572C7.2019 4.43572 6.9126 4.14642 6.9126 3.78955C6.9126 3.43268 7.2019 3.14339 7.55876 3.14339C7.91563 3.14339 8.20493 3.43268 8.20493 3.78955Z" fill="url(#paint6_radial_358_2155)"/>
<path d="M7.271 4.05841C7.60304 3.2937 8.18181 2.91491 8.43755 2.86041L8.95513 4.59609H7.71435L7.271 4.05841Z" fill="url(#paint7_radial_358_2155)"/>
<path d="M7.271 4.05841C7.60304 3.2937 8.18181 2.91491 8.43755 2.86041L8.95513 4.59609H7.71435L7.271 4.05841Z" fill="url(#paint8_radial_358_2155)"/>
<path d="M7.9848 4.6042C7.9848 5.16415 7.53087 5.61808 6.97091 5.61808C6.41096 5.61808 5.95703 5.16415 5.95703 4.6042C5.95703 4.04425 6.41096 3.59032 6.97091 3.59032C7.53087 3.59032 7.9848 4.04425 7.9848 4.6042Z" fill="url(#paint9_radial_358_2155)"/>
<path d="M2.3471 5.56499L1.5625 6.01522L1.26953 8.71094H8.83789C8.83789 8.71094 8.4375 3.99873 8.4375 3.82477C7.96875 3.82477 7.65625 3.97853 7.1875 4.4398L5.78125 5.82362C5.46875 6.13115 5.17888 6.24993 4.86638 6.09616C4.76221 6.04491 4.38579 5.80613 3.91533 5.5397C3.43044 5.2651 2.69616 5.34746 2.3471 5.56499Z" fill="url(#paint10_radial_358_2155)"/>
<path d="M2.3471 5.56499L1.5625 6.01522L1.26953 8.71094H8.83789C8.83789 8.71094 8.4375 3.99873 8.4375 3.82477C7.96875 3.82477 7.65625 3.97853 7.1875 4.4398L5.78125 5.82362C5.46875 6.13115 5.17888 6.24993 4.86638 6.09616C4.76221 6.04491 4.38579 5.80613 3.91533 5.5397C3.43044 5.2651 2.69616 5.34746 2.3471 5.56499Z" fill="url(#paint11_radial_358_2155)"/>
<path d="M2.3471 5.56499L1.5625 6.01522L1.26953 8.71094H8.83789C8.83789 8.71094 8.4375 3.99873 8.4375 3.82477C7.96875 3.82477 7.65625 3.97853 7.1875 4.4398L5.78125 5.82362C5.46875 6.13115 5.17888 6.24993 4.86638 6.09616C4.76221 6.04491 4.38579 5.80613 3.91533 5.5397C3.43044 5.2651 2.69616 5.34746 2.3471 5.56499Z" fill="url(#paint12_radial_358_2155)"/>
<path d="M2.3471 5.56499L1.5625 6.01522L1.26953 8.71094H8.83789C8.83789 8.71094 8.4375 3.99873 8.4375 3.82477C7.96875 3.82477 7.65625 3.97853 7.1875 4.4398L5.78125 5.82362C5.46875 6.13115 5.17888 6.24993 4.86638 6.09616C4.76221 6.04491 4.38579 5.80613 3.91533 5.5397C3.43044 5.2651 2.69616 5.34746 2.3471 5.56499Z" fill="url(#paint13_radial_358_2155)"/>
<path d="M2.3471 5.56499L1.5625 6.01522L1.26953 8.71094H8.83789C8.83789 8.71094 8.4375 3.99873 8.4375 3.82477C7.96875 3.82477 7.65625 3.97853 7.1875 4.4398L5.78125 5.82362C5.46875 6.13115 5.17888 6.24993 4.86638 6.09616C4.76221 6.04491 4.38579 5.80613 3.91533 5.5397C3.43044 5.2651 2.69616 5.34746 2.3471 5.56499Z" fill="url(#paint14_radial_358_2155)"/>
<path d="M8.4375 8.37858V8.4375H1.5625V8.37857C2.36364 7.5725 3.60564 7.03125 4.99999 7.03125C6.39435 7.03125 7.63635 7.5725 8.4375 8.37858Z" fill="url(#paint15_radial_358_2155)"/>
<path d="M8.4375 8.37858V8.4375H1.5625V8.37857C2.36364 7.5725 3.60564 7.03125 4.99999 7.03125C6.39435 7.03125 7.63635 7.5725 8.4375 8.37858Z" fill="url(#paint16_radial_358_2155)"/>
<path d="M8.4375 8.37858V8.4375H1.5625V8.37857C2.36364 7.5725 3.60564 7.03125 4.99999 7.03125C6.39435 7.03125 7.63635 7.5725 8.4375 8.37858Z" fill="url(#paint17_radial_358_2155)"/>
<path d="M5.07796 2.16677C5.17537 2.05713 5.3078 2.07458 5.39254 2.16677L5.44422 2.22661C5.46212 2.24608 5.48801 2.25617 5.51436 2.25395L5.60624 2.22661C5.73148 2.19976 5.84529 2.29319 5.84529 2.43831V2.49298C5.84795 2.52282 5.87401 2.54305 5.90093 2.5562L5.98395 2.59088C6.10403 2.64952 6.13403 2.78868 6.04656 2.90547L6.02172 2.93827C5.99942 2.9684 6.00401 3.00795 6.02619 3.03816L6.05104 3.07295C6.14149 3.18427 6.09049 3.337 5.96272 3.39036L5.89126 3.4202C5.86435 3.43145 5.8538 3.45074 5.84877 3.47947L5.8438 3.5729C5.8264 3.70112 5.71252 3.75904 5.62115 3.7461L5.51232 3.71703C5.48618 3.71333 5.45367 3.722 5.43628 3.74933L5.39702 3.803C5.29961 3.91284 5.16814 3.89457 5.10181 3.83034L5.02939 3.74262C5.01042 3.72426 4.98651 3.70858 4.9579 3.71938L4.84836 3.74933C4.75792 3.76214 4.65143 3.69261 4.63438 3.60288L4.62173 3.47301C4.6166 3.44598 4.59878 3.42307 4.57384 3.41145L4.497 3.38505C4.38144 3.3312 4.34274 3.20083 4.40909 3.09197L4.4524 3.03208C4.46979 3.00353 4.46897 2.96747 4.45028 2.93976L4.41798 2.89404C4.32653 2.76383 4.38976 2.61829 4.52526 2.57466L4.55514 2.56504C4.58813 2.55442 4.61999 2.52702 4.62273 2.49248L4.62939 2.40862C4.64019 2.27251 4.76439 2.1944 4.89503 2.23412L4.93731 2.24697C4.97807 2.26287 5.00999 2.24933 5.03224 2.2251L5.07796 2.16677Z" fill="url(#paint18_linear_358_2155)"/>
<path d="M5.07796 2.16677C5.17537 2.05713 5.3078 2.07458 5.39254 2.16677L5.44422 2.22661C5.46212 2.24608 5.48801 2.25617 5.51436 2.25395L5.60624 2.22661C5.73148 2.19976 5.84529 2.29319 5.84529 2.43831V2.49298C5.84795 2.52282 5.87401 2.54305 5.90093 2.5562L5.98395 2.59088C6.10403 2.64952 6.13403 2.78868 6.04656 2.90547L6.02172 2.93827C5.99942 2.9684 6.00401 3.00795 6.02619 3.03816L6.05104 3.07295C6.14149 3.18427 6.09049 3.337 5.96272 3.39036L5.89126 3.4202C5.86435 3.43145 5.8538 3.45074 5.84877 3.47947L5.8438 3.5729C5.8264 3.70112 5.71252 3.75904 5.62115 3.7461L5.51232 3.71703C5.48618 3.71333 5.45367 3.722 5.43628 3.74933L5.39702 3.803C5.29961 3.91284 5.16814 3.89457 5.10181 3.83034L5.02939 3.74262C5.01042 3.72426 4.98651 3.70858 4.9579 3.71938L4.84836 3.74933C4.75792 3.76214 4.65143 3.69261 4.63438 3.60288L4.62173 3.47301C4.6166 3.44598 4.59878 3.42307 4.57384 3.41145L4.497 3.38505C4.38144 3.3312 4.34274 3.20083 4.40909 3.09197L4.4524 3.03208C4.46979 3.00353 4.46897 2.96747 4.45028 2.93976L4.41798 2.89404C4.32653 2.76383 4.38976 2.61829 4.52526 2.57466L4.55514 2.56504C4.58813 2.55442 4.61999 2.52702 4.62273 2.49248L4.62939 2.40862C4.64019 2.27251 4.76439 2.1944 4.89503 2.23412L4.93731 2.24697C4.97807 2.26287 5.00999 2.24933 5.03224 2.2251L5.07796 2.16677Z" fill="url(#paint19_radial_358_2155)"/>
<path d="M5.07796 2.16677C5.17537 2.05713 5.3078 2.07458 5.39254 2.16677L5.44422 2.22661C5.46212 2.24608 5.48801 2.25617 5.51436 2.25395L5.60624 2.22661C5.73148 2.19976 5.84529 2.29319 5.84529 2.43831V2.49298C5.84795 2.52282 5.87401 2.54305 5.90093 2.5562L5.98395 2.59088C6.10403 2.64952 6.13403 2.78868 6.04656 2.90547L6.02172 2.93827C5.99942 2.9684 6.00401 3.00795 6.02619 3.03816L6.05104 3.07295C6.14149 3.18427 6.09049 3.337 5.96272 3.39036L5.89126 3.4202C5.86435 3.43145 5.8538 3.45074 5.84877 3.47947L5.8438 3.5729C5.8264 3.70112 5.71252 3.75904 5.62115 3.7461L5.51232 3.71703C5.48618 3.71333 5.45367 3.722 5.43628 3.74933L5.39702 3.803C5.29961 3.91284 5.16814 3.89457 5.10181 3.83034L5.02939 3.74262C5.01042 3.72426 4.98651 3.70858 4.9579 3.71938L4.84836 3.74933C4.75792 3.76214 4.65143 3.69261 4.63438 3.60288L4.62173 3.47301C4.6166 3.44598 4.59878 3.42307 4.57384 3.41145L4.497 3.38505C4.38144 3.3312 4.34274 3.20083 4.40909 3.09197L4.4524 3.03208C4.46979 3.00353 4.46897 2.96747 4.45028 2.93976L4.41798 2.89404C4.32653 2.76383 4.38976 2.61829 4.52526 2.57466L4.55514 2.56504C4.58813 2.55442 4.61999 2.52702 4.62273 2.49248L4.62939 2.40862C4.64019 2.27251 4.76439 2.1944 4.89503 2.23412L4.93731 2.24697C4.97807 2.26287 5.00999 2.24933 5.03224 2.2251L5.07796 2.16677Z" fill="url(#paint20_radial_358_2155)"/>
<path d="M5.07796 2.16677C5.17537 2.05713 5.3078 2.07458 5.39254 2.16677L5.44422 2.22661C5.46212 2.24608 5.48801 2.25617 5.51436 2.25395L5.60624 2.22661C5.73148 2.19976 5.84529 2.29319 5.84529 2.43831V2.49298C5.84795 2.52282 5.87401 2.54305 5.90093 2.5562L5.98395 2.59088C6.10403 2.64952 6.13403 2.78868 6.04656 2.90547L6.02172 2.93827C5.99942 2.9684 6.00401 3.00795 6.02619 3.03816L6.05104 3.07295C6.14149 3.18427 6.09049 3.337 5.96272 3.39036L5.89126 3.4202C5.86435 3.43145 5.8538 3.45074 5.84877 3.47947L5.8438 3.5729C5.8264 3.70112 5.71252 3.75904 5.62115 3.7461L5.51232 3.71703C5.48618 3.71333 5.45367 3.722 5.43628 3.74933L5.39702 3.803C5.29961 3.91284 5.16814 3.89457 5.10181 3.83034L5.02939 3.74262C5.01042 3.72426 4.98651 3.70858 4.9579 3.71938L4.84836 3.74933C4.75792 3.76214 4.65143 3.69261 4.63438 3.60288L4.62173 3.47301C4.6166 3.44598 4.59878 3.42307 4.57384 3.41145L4.497 3.38505C4.38144 3.3312 4.34274 3.20083 4.40909 3.09197L4.4524 3.03208C4.46979 3.00353 4.46897 2.96747 4.45028 2.93976L4.41798 2.89404C4.32653 2.76383 4.38976 2.61829 4.52526 2.57466L4.55514 2.56504C4.58813 2.55442 4.61999 2.52702 4.62273 2.49248L4.62939 2.40862C4.64019 2.27251 4.76439 2.1944 4.89503 2.23412L4.93731 2.24697C4.97807 2.26287 5.00999 2.24933 5.03224 2.2251L5.07796 2.16677Z" fill="url(#paint21_radial_358_2155)"/>
<path d="M5.07796 2.16677C5.17537 2.05713 5.3078 2.07458 5.39254 2.16677L5.44422 2.22661C5.46212 2.24608 5.48801 2.25617 5.51436 2.25395L5.60624 2.22661C5.73148 2.19976 5.84529 2.29319 5.84529 2.43831V2.49298C5.84795 2.52282 5.87401 2.54305 5.90093 2.5562L5.98395 2.59088C6.10403 2.64952 6.13403 2.78868 6.04656 2.90547L6.02172 2.93827C5.99942 2.9684 6.00401 3.00795 6.02619 3.03816L6.05104 3.07295C6.14149 3.18427 6.09049 3.337 5.96272 3.39036L5.89126 3.4202C5.86435 3.43145 5.8538 3.45074 5.84877 3.47947L5.8438 3.5729C5.8264 3.70112 5.71252 3.75904 5.62115 3.7461L5.51232 3.71703C5.48618 3.71333 5.45367 3.722 5.43628 3.74933L5.39702 3.803C5.29961 3.91284 5.16814 3.89457 5.10181 3.83034L5.02939 3.74262C5.01042 3.72426 4.98651 3.70858 4.9579 3.71938L4.84836 3.74933C4.75792 3.76214 4.65143 3.69261 4.63438 3.60288L4.62173 3.47301C4.6166 3.44598 4.59878 3.42307 4.57384 3.41145L4.497 3.38505C4.38144 3.3312 4.34274 3.20083 4.40909 3.09197L4.4524 3.03208C4.46979 3.00353 4.46897 2.96747 4.45028 2.93976L4.41798 2.89404C4.32653 2.76383 4.38976 2.61829 4.52526 2.57466L4.55514 2.56504C4.58813 2.55442 4.61999 2.52702 4.62273 2.49248L4.62939 2.40862C4.64019 2.27251 4.76439 2.1944 4.89503 2.23412L4.93731 2.24697C4.97807 2.26287 5.00999 2.24933 5.03224 2.2251L5.07796 2.16677Z" fill="url(#paint22_radial_358_2155)"/>
<path d="M5.07796 2.16677C5.17537 2.05713 5.3078 2.07458 5.39254 2.16677L5.44422 2.22661C5.46212 2.24608 5.48801 2.25617 5.51436 2.25395L5.60624 2.22661C5.73148 2.19976 5.84529 2.29319 5.84529 2.43831V2.49298C5.84795 2.52282 5.87401 2.54305 5.90093 2.5562L5.98395 2.59088C6.10403 2.64952 6.13403 2.78868 6.04656 2.90547L6.02172 2.93827C5.99942 2.9684 6.00401 3.00795 6.02619 3.03816L6.05104 3.07295C6.14149 3.18427 6.09049 3.337 5.96272 3.39036L5.89126 3.4202C5.86435 3.43145 5.8538 3.45074 5.84877 3.47947L5.8438 3.5729C5.8264 3.70112 5.71252 3.75904 5.62115 3.7461L5.51232 3.71703C5.48618 3.71333 5.45367 3.722 5.43628 3.74933L5.39702 3.803C5.29961 3.91284 5.16814 3.89457 5.10181 3.83034L5.02939 3.74262C5.01042 3.72426 4.98651 3.70858 4.9579 3.71938L4.84836 3.74933C4.75792 3.76214 4.65143 3.69261 4.63438 3.60288L4.62173 3.47301C4.6166 3.44598 4.59878 3.42307 4.57384 3.41145L4.497 3.38505C4.38144 3.3312 4.34274 3.20083 4.40909 3.09197L4.4524 3.03208C4.46979 3.00353 4.46897 2.96747 4.45028 2.93976L4.41798 2.89404C4.32653 2.76383 4.38976 2.61829 4.52526 2.57466L4.55514 2.56504C4.58813 2.55442 4.61999 2.52702 4.62273 2.49248L4.62939 2.40862C4.64019 2.27251 4.76439 2.1944 4.89503 2.23412L4.93731 2.24697C4.97807 2.26287 5.00999 2.24933 5.03224 2.2251L5.07796 2.16677Z" fill="url(#paint23_radial_358_2155)"/>
<path d="M5.07796 2.16677C5.17537 2.05713 5.3078 2.07458 5.39254 2.16677L5.44422 2.22661C5.46212 2.24608 5.48801 2.25617 5.51436 2.25395L5.60624 2.22661C5.73148 2.19976 5.84529 2.29319 5.84529 2.43831V2.49298C5.84795 2.52282 5.87401 2.54305 5.90093 2.5562L5.98395 2.59088C6.10403 2.64952 6.13403 2.78868 6.04656 2.90547L6.02172 2.93827C5.99942 2.9684 6.00401 3.00795 6.02619 3.03816L6.05104 3.07295C6.14149 3.18427 6.09049 3.337 5.96272 3.39036L5.89126 3.4202C5.86435 3.43145 5.8538 3.45074 5.84877 3.47947L5.8438 3.5729C5.8264 3.70112 5.71252 3.75904 5.62115 3.7461L5.51232 3.71703C5.48618 3.71333 5.45367 3.722 5.43628 3.74933L5.39702 3.803C5.29961 3.91284 5.16814 3.89457 5.10181 3.83034L5.02939 3.74262C5.01042 3.72426 4.98651 3.70858 4.9579 3.71938L4.84836 3.74933C4.75792 3.76214 4.65143 3.69261 4.63438 3.60288L4.62173 3.47301C4.6166 3.44598 4.59878 3.42307 4.57384 3.41145L4.497 3.38505C4.38144 3.3312 4.34274 3.20083 4.40909 3.09197L4.4524 3.03208C4.46979 3.00353 4.46897 2.96747 4.45028 2.93976L4.41798 2.89404C4.32653 2.76383 4.38976 2.61829 4.52526 2.57466L4.55514 2.56504C4.58813 2.55442 4.61999 2.52702 4.62273 2.49248L4.62939 2.40862C4.64019 2.27251 4.76439 2.1944 4.89503 2.23412L4.93731 2.24697C4.97807 2.26287 5.00999 2.24933 5.03224 2.2251L5.07796 2.16677Z" fill="url(#paint24_radial_358_2155)"/>
<path d="M5.07796 2.16677C5.17537 2.05713 5.3078 2.07458 5.39254 2.16677L5.44422 2.22661C5.46212 2.24608 5.48801 2.25617 5.51436 2.25395L5.60624 2.22661C5.73148 2.19976 5.84529 2.29319 5.84529 2.43831V2.49298C5.84795 2.52282 5.87401 2.54305 5.90093 2.5562L5.98395 2.59088C6.10403 2.64952 6.13403 2.78868 6.04656 2.90547L6.02172 2.93827C5.99942 2.9684 6.00401 3.00795 6.02619 3.03816L6.05104 3.07295C6.14149 3.18427 6.09049 3.337 5.96272 3.39036L5.89126 3.4202C5.86435 3.43145 5.8538 3.45074 5.84877 3.47947L5.8438 3.5729C5.8264 3.70112 5.71252 3.75904 5.62115 3.7461L5.51232 3.71703C5.48618 3.71333 5.45367 3.722 5.43628 3.74933L5.39702 3.803C5.29961 3.91284 5.16814 3.89457 5.10181 3.83034L5.02939 3.74262C5.01042 3.72426 4.98651 3.70858 4.9579 3.71938L4.84836 3.74933C4.75792 3.76214 4.65143 3.69261 4.63438 3.60288L4.62173 3.47301C4.6166 3.44598 4.59878 3.42307 4.57384 3.41145L4.497 3.38505C4.38144 3.3312 4.34274 3.20083 4.40909 3.09197L4.4524 3.03208C4.46979 3.00353 4.46897 2.96747 4.45028 2.93976L4.41798 2.89404C4.32653 2.76383 4.38976 2.61829 4.52526 2.57466L4.55514 2.56504C4.58813 2.55442 4.61999 2.52702 4.62273 2.49248L4.62939 2.40862C4.64019 2.27251 4.76439 2.1944 4.89503 2.23412L4.93731 2.24697C4.97807 2.26287 5.00999 2.24933 5.03224 2.2251L5.07796 2.16677Z" fill="url(#paint25_radial_358_2155)"/>
<path d="M5.07796 2.16677C5.17537 2.05713 5.3078 2.07458 5.39254 2.16677L5.44422 2.22661C5.46212 2.24608 5.48801 2.25617 5.51436 2.25395L5.60624 2.22661C5.73148 2.19976 5.84529 2.29319 5.84529 2.43831V2.49298C5.84795 2.52282 5.87401 2.54305 5.90093 2.5562L5.98395 2.59088C6.10403 2.64952 6.13403 2.78868 6.04656 2.90547L6.02172 2.93827C5.99942 2.9684 6.00401 3.00795 6.02619 3.03816L6.05104 3.07295C6.14149 3.18427 6.09049 3.337 5.96272 3.39036L5.89126 3.4202C5.86435 3.43145 5.8538 3.45074 5.84877 3.47947L5.8438 3.5729C5.8264 3.70112 5.71252 3.75904 5.62115 3.7461L5.51232 3.71703C5.48618 3.71333 5.45367 3.722 5.43628 3.74933L5.39702 3.803C5.29961 3.91284 5.16814 3.89457 5.10181 3.83034L5.02939 3.74262C5.01042 3.72426 4.98651 3.70858 4.9579 3.71938L4.84836 3.74933C4.75792 3.76214 4.65143 3.69261 4.63438 3.60288L4.62173 3.47301C4.6166 3.44598 4.59878 3.42307 4.57384 3.41145L4.497 3.38505C4.38144 3.3312 4.34274 3.20083 4.40909 3.09197L4.4524 3.03208C4.46979 3.00353 4.46897 2.96747 4.45028 2.93976L4.41798 2.89404C4.32653 2.76383 4.38976 2.61829 4.52526 2.57466L4.55514 2.56504C4.58813 2.55442 4.61999 2.52702 4.62273 2.49248L4.62939 2.40862C4.64019 2.27251 4.76439 2.1944 4.89503 2.23412L4.93731 2.24697C4.97807 2.26287 5.00999 2.24933 5.03224 2.2251L5.07796 2.16677Z" fill="url(#paint26_radial_358_2155)"/>
<path d="M5.07796 2.16677C5.17537 2.05713 5.3078 2.07458 5.39254 2.16677L5.44422 2.22661C5.46212 2.24608 5.48801 2.25617 5.51436 2.25395L5.60624 2.22661C5.73148 2.19976 5.84529 2.29319 5.84529 2.43831V2.49298C5.84795 2.52282 5.87401 2.54305 5.90093 2.5562L5.98395 2.59088C6.10403 2.64952 6.13403 2.78868 6.04656 2.90547L6.02172 2.93827C5.99942 2.9684 6.00401 3.00795 6.02619 3.03816L6.05104 3.07295C6.14149 3.18427 6.09049 3.337 5.96272 3.39036L5.89126 3.4202C5.86435 3.43145 5.8538 3.45074 5.84877 3.47947L5.8438 3.5729C5.8264 3.70112 5.71252 3.75904 5.62115 3.7461L5.51232 3.71703C5.48618 3.71333 5.45367 3.722 5.43628 3.74933L5.39702 3.803C5.29961 3.91284 5.16814 3.89457 5.10181 3.83034L5.02939 3.74262C5.01042 3.72426 4.98651 3.70858 4.9579 3.71938L4.84836 3.74933C4.75792 3.76214 4.65143 3.69261 4.63438 3.60288L4.62173 3.47301C4.6166 3.44598 4.59878 3.42307 4.57384 3.41145L4.497 3.38505C4.38144 3.3312 4.34274 3.20083 4.40909 3.09197L4.4524 3.03208C4.46979 3.00353 4.46897 2.96747 4.45028 2.93976L4.41798 2.89404C4.32653 2.76383 4.38976 2.61829 4.52526 2.57466L4.55514 2.56504C4.58813 2.55442 4.61999 2.52702 4.62273 2.49248L4.62939 2.40862C4.64019 2.27251 4.76439 2.1944 4.89503 2.23412L4.93731 2.24697C4.97807 2.26287 5.00999 2.24933 5.03224 2.2251L5.07796 2.16677Z" fill="url(#paint27_radial_358_2155)"/>
<path d="M5.23588 3.66823C5.61331 3.66823 5.91927 3.36227 5.91927 2.98484C5.91927 2.60742 5.61331 2.30145 5.23588 2.30145C4.85845 2.30145 4.55249 2.60742 4.55249 2.98484C4.55249 3.36227 4.85845 3.66823 5.23588 3.66823Z" fill="url(#paint28_radial_358_2155)"/>
<path d="M1.5625 1.5625L1.31836 0.957031L0.625 0.625V9.375L1.31836 8.98438L1.5625 8.4375V1.5625Z" fill="url(#paint29_linear_358_2155)"/>
<path d="M1.5625 1.5625L1.31836 0.957031L0.625 0.625V9.375L1.31836 8.98438L1.5625 8.4375V1.5625Z" fill="url(#paint30_linear_358_2155)"/>
<path d="M8.4375 8.4375L8.55469 8.90625L9.375 9.375L9.375 0.625L8.61328 1.09375L8.4375 1.5625V8.4375Z" fill="url(#paint31_linear_358_2155)"/>
<path d="M8.4375 8.4375L8.55469 8.90625L9.375 9.375L9.375 0.625L8.61328 1.09375L8.4375 1.5625V8.4375Z" fill="url(#paint32_linear_358_2155)"/>
<path d="M1.5625 8.4375L0.625 9.375L9.375 9.375L8.4375 8.4375H1.5625Z" fill="url(#paint33_linear_358_2155)"/>
<path d="M1.5625 8.4375L0.625 9.375L9.375 9.375L8.4375 8.4375H1.5625Z" fill="url(#paint34_linear_358_2155)"/>
<path d="M1.5625 8.4375L0.625 9.375L9.375 9.375L8.4375 8.4375H1.5625Z" fill="url(#paint35_linear_358_2155)"/>
<path d="M8.4375 1.5625H1.5625L0.625 0.625H9.375L8.4375 1.5625Z" fill="url(#paint36_linear_358_2155)"/>
<path d="M8.4375 1.5625H1.5625L0.625 0.625H9.375L8.4375 1.5625Z" fill="url(#paint37_linear_358_2155)"/>
<path d="M8.4375 1.5625H1.5625L0.625 0.625H9.375L8.4375 1.5625Z" fill="url(#paint38_linear_358_2155)"/>
</g>
<defs>
<linearGradient id="paint0_linear_358_2155" x1="5" y1="1.09375" x2="5" y2="8.90625" gradientUnits="userSpaceOnUse">
<stop stop-color="#A6E5F7"/>
<stop offset="0.614765" stop-color="#85D6F5"/>
</linearGradient>
<radialGradient id="paint1_radial_358_2155" cx="0" cy="0" r="1" gradientUnits="userSpaceOnUse" gradientTransform="translate(2.39745 3.78418) rotate(-115.017) scale(0.48495)">
<stop offset="0.108272" stop-color="#EBEAFF"/>
<stop offset="1" stop-color="#D5D8FF"/>
</radialGradient>
<linearGradient id="paint2_linear_358_2155" x1="2.20702" y1="5.00002" x2="2.20702" y2="4.72658" gradientUnits="userSpaceOnUse">
<stop stop-color="#CFC9FF"/>
<stop offset="1" stop-color="#CFC9FF" stop-opacity="0"/>
</linearGradient>
<radialGradient id="paint3_radial_358_2155" cx="0" cy="0" r="1" gradientUnits="userSpaceOnUse" gradientTransform="translate(3.30077 4.16017) rotate(151.736) scale(1.03114 0.865681)">
<stop stop-color="#F2F3FF"/>
<stop offset="1" stop-color="#F2F3FF" stop-opacity="0"/>
</radialGradient>
<radialGradient id="paint4_radial_358_2155" cx="0" cy="0" r="1" gradientUnits="userSpaceOnUse" gradientTransform="translate(2.14843 3.33986) rotate(121.861) scale(0.851009 0.689873)">
<stop offset="0.222069" stop-color="#F4F4FF"/>
<stop offset="1" stop-color="#F4F4FF" stop-opacity="0"/>
</radialGradient>
<radialGradient id="paint5_radial_358_2155" cx="0" cy="0" r="1" gradientUnits="userSpaceOnUse" gradientTransform="translate(6.97276 3.33984) rotate(18.4331) scale(0.617691)">
<stop offset="0.209985" stop-color="#D4D5FF"/>
<stop offset="0.754934" stop-color="#DDDCFF"/>
</radialGradient>
<radialGradient id="paint6_radial_358_2155" cx="0" cy="0" r="1" gradientUnits="userSpaceOnUse" gradientTransform="translate(7.4171 3.94043) rotate(-50.9342) scale(0.968485 0.450739)">
<stop offset="0.457026" stop-color="#EFEFFF"/>
<stop offset="1" stop-color="#EFEFFF" stop-opacity="0"/>
</radialGradient>
<radialGradient id="paint7_radial_358_2155" cx="0" cy="0" r="1" gradientUnits="userSpaceOnUse" gradientTransform="translate(8.43755 3.84768) rotate(-128.32) scale(0.771732 1.59222)">
<stop offset="0.581265" stop-color="#DEDFFF"/>
<stop offset="1" stop-color="#D8D9FF"/>
</radialGradient>
<radialGradient id="paint8_radial_358_2155" cx="0" cy="0" r="1" gradientUnits="userSpaceOnUse" gradientTransform="translate(7.43169 4.02346) rotate(-42.7094) scale(0.518315 0.798958)">
<stop offset="0.564164" stop-color="#EFEFFF"/>
<stop offset="0.728168" stop-color="#EFEFFF" stop-opacity="0"/>
</radialGradient>
<radialGradient id="paint9_radial_358_2155" cx="0" cy="0" r="1" gradientUnits="userSpaceOnUse" gradientTransform="translate(7.76821 3.99315) rotate(152.354) scale(1.93476)">
<stop offset="0.400983" stop-color="#EEEEFF"/>
<stop offset="1" stop-color="#D4D3FF"/>
</radialGradient>
<radialGradient id="paint10_radial_358_2155" cx="0" cy="0" r="1" gradientUnits="userSpaceOnUse" gradientTransform="translate(5 7.53235) rotate(-90) scale(2.72799 6.70983)">
<stop stop-color="#2DAC5B"/>
<stop offset="1" stop-color="#35BD69"/>
</radialGradient>
<radialGradient id="paint11_radial_358_2155" cx="0" cy="0" r="1" gradientUnits="userSpaceOnUse" gradientTransform="translate(3.61328 5.09766) rotate(50.3558) scale(2.66328 1.61982)">
<stop stop-color="#4DC277"/>
<stop offset="1" stop-color="#4DC277" stop-opacity="0"/>
</radialGradient>
<radialGradient id="paint12_radial_358_2155" cx="0" cy="0" r="1" gradientUnits="userSpaceOnUse" gradientTransform="translate(8.4375 3.82477) rotate(90) scale(3.9682 1.56394)">
<stop stop-color="#3BCC74"/>
<stop offset="1" stop-color="#3BCC74" stop-opacity="0"/>
</radialGradient>
<radialGradient id="paint13_radial_358_2155" cx="0" cy="0" r="1" gradientUnits="userSpaceOnUse" gradientTransform="translate(5.625 5.72266) rotate(110.45) scale(1.22985 0.804907)">
<stop offset="0.350226" stop-color="#4CA876"/>
<stop offset="1" stop-color="#4CA876" stop-opacity="0"/>
</radialGradient>
<radialGradient id="paint14_radial_358_2155" cx="0" cy="0" r="1" gradientUnits="userSpaceOnUse" gradientTransform="translate(1.5625 8.78906) rotate(-49.844) scale(1.6355 2.43762)">
<stop stop-color="#399E60"/>
<stop offset="1" stop-color="#399E60" stop-opacity="0"/>
</radialGradient>
<radialGradient id="paint15_radial_358_2155" cx="0" cy="0" r="1" gradientUnits="userSpaceOnUse" gradientTransform="translate(5 8.4375) rotate(-90) scale(1.26382 3.68428)">
<stop stop-color="#7FD86C"/>
<stop offset="1" stop-color="#9FD660"/>
</radialGradient>
<radialGradient id="paint16_radial_358_2155" cx="0" cy="0" r="1" gradientUnits="userSpaceOnUse" gradientTransform="translate(1.99696 8.83296) rotate(-31.3955) scale(3.224 4.35992)">
<stop stop-color="#79C56C"/>
<stop offset="1" stop-color="#79C56C" stop-opacity="0"/>
</radialGradient>
<radialGradient id="paint17_radial_358_2155" cx="0" cy="0" r="1" gradientUnits="userSpaceOnUse" gradientTransform="translate(8.61385 8.87343) rotate(-133.877) scale(2.91947 2.93883)">
<stop stop-color="#93EB81"/>
<stop offset="1" stop-color="#93EB81" stop-opacity="0"/>
</radialGradient>
<linearGradient id="paint18_linear_358_2155" x1="5.76673" y1="2.3917" x2="4.79027" y2="3.63753" gradientUnits="userSpaceOnUse">
<stop stop-color="#FC8B23"/>
<stop offset="1" stop-color="#E67639"/>
</linearGradient>
<radialGradient id="paint19_radial_358_2155" cx="0" cy="0" r="1" gradientUnits="userSpaceOnUse" gradientTransform="translate(5.40036 2.17354) rotate(138.155) scale(0.24037 0.212081)">
<stop offset="0.300161" stop-color="#FFA13A"/>
<stop offset="1" stop-color="#FFA13A" stop-opacity="0"/>
</radialGradient>
<radialGradient id="paint20_radial_358_2155" cx="0" cy="0" r="1" gradientUnits="userSpaceOnUse" gradientTransform="translate(4.77497 2.09766) rotate(67.8105) scale(0.382132 0.337159)">
<stop offset="0.300161" stop-color="#FF942A"/>
<stop offset="1" stop-color="#FF942A" stop-opacity="0"/>
</radialGradient>
<radialGradient id="paint21_radial_358_2155" cx="0" cy="0" r="1" gradientUnits="userSpaceOnUse" gradientTransform="translate(5.80125 2.45416) rotate(-164.745) scale(0.152361 0.210964)">
<stop offset="0.300161" stop-color="#FFA13D"/>
<stop offset="1" stop-color="#FFA13D" stop-opacity="0"/>
</radialGradient>
<radialGradient id="paint22_radial_358_2155" cx="0" cy="0" r="1" gradientUnits="userSpaceOnUse" gradientTransform="translate(6.1086 2.67599) rotate(154.195) scale(0.270144 0.199521)">
<stop offset="0.300161" stop-color="#FFA13D"/>
<stop offset="1" stop-color="#FFA13D" stop-opacity="0"/>
</radialGradient>
<radialGradient id="paint23_radial_358_2155" cx="0" cy="0" r="1" gradientUnits="userSpaceOnUse" gradientTransform="translate(6.1674 3.133) rotate(-173.379) scale(0.30134 0.169816)">
<stop offset="0.300161" stop-color="#FFA13D"/>
<stop offset="1" stop-color="#FFA13D" stop-opacity="0"/>
</radialGradient>
<radialGradient id="paint24_radial_358_2155" cx="0" cy="0" r="1" gradientUnits="userSpaceOnUse" gradientTransform="translate(5.89746 3.48311) rotate(-43.9639) scale(0.27334 0.263331)">
<stop stop-color="#E0762A"/>
<stop offset="1" stop-color="#E0762A" stop-opacity="0"/>
</radialGradient>
<radialGradient id="paint25_radial_358_2155" cx="0" cy="0" r="1" gradientUnits="userSpaceOnUse" gradientTransform="translate(4.63065 3.41897) rotate(-127.747) scale(0.209556 0.201883)">
<stop stop-color="#E0762A"/>
<stop offset="1" stop-color="#E0762A" stop-opacity="0"/>
</radialGradient>
<radialGradient id="paint26_radial_358_2155" cx="0" cy="0" r="1" gradientUnits="userSpaceOnUse" gradientTransform="translate(4.34469 2.71073) rotate(25.2777) scale(0.212803 0.257203)">
<stop stop-color="#F0851D"/>
<stop offset="1" stop-color="#F0851D" stop-opacity="0"/>
</radialGradient>
<radialGradient id="paint27_radial_358_2155" cx="0" cy="0" r="1" gradientUnits="userSpaceOnUse" gradientTransform="translate(5.61495 3.7866) rotate(-142.487) scale(0.248106 0.234066)">
<stop offset="0.336586" stop-color="#E3745B"/>
<stop offset="1" stop-color="#E3745B" stop-opacity="0"/>
</radialGradient>
<radialGradient id="paint28_radial_358_2155" cx="0" cy="0" r="1" gradientUnits="userSpaceOnUse" gradientTransform="translate(5.62369 2.58893) rotate(117.739) scale(1.21945 1.50591)">
<stop offset="0.17178" stop-color="#FFCB38"/>
<stop offset="1" stop-color="#DCA21C"/>
<stop offset="1" stop-color="#E5AE1B"/>
</radialGradient>
<linearGradient id="paint29_linear_358_2155" x1="1.09375" y1="0.625" x2="1.09375" y2="9.375" gradientUnits="userSpaceOnUse">
<stop stop-color="#D38E57"/>
<stop offset="0.272321" stop-color="#EFA570"/>
<stop offset="0.79771" stop-color="#EFA570"/>
<stop offset="1" stop-color="#D38E57"/>
</linearGradient>
<linearGradient id="paint30_linear_358_2155" x1="1.27841" y1="8.78296" x2="1.20858" y2="8.70706" gradientUnits="userSpaceOnUse">
<stop stop-color="#CB7734"/>
<stop offset="1" stop-color="#CB7734" stop-opacity="0"/>
</linearGradient>
<linearGradient id="paint31_linear_358_2155" x1="8.90625" y1="0.625" x2="8.90625" y2="9.375" gradientUnits="userSpaceOnUse">
<stop stop-color="#CA7C50"/>
<stop offset="1" stop-color="#E0966B"/>
</linearGradient>
<linearGradient id="paint32_linear_358_2155" x1="8.79883" y1="1.17188" x2="8.84155" y2="1.21582" gradientUnits="userSpaceOnUse">
<stop stop-color="#C2712E"/>
<stop offset="1" stop-color="#C2712E" stop-opacity="0"/>
</linearGradient>
<linearGradient id="paint33_linear_358_2155" x1="3.30348" y1="9.06228" x2="9.88571" y2="9.06228" gradientUnits="userSpaceOnUse">
<stop stop-color="#E69F70"/>
<stop offset="1" stop-color="#D3895C"/>
</linearGradient>
<linearGradient id="paint34_linear_358_2155" x1="5" y1="9.55078" x2="5" y2="9.12109" gradientUnits="userSpaceOnUse">
<stop stop-color="#D47F6E"/>
<stop offset="1" stop-color="#D47F6E" stop-opacity="0"/>
</linearGradient>
<linearGradient id="paint35_linear_358_2155" x1="8.70888" y1="8.67325" x2="8.63761" y2="8.74452" gradientUnits="userSpaceOnUse">
<stop stop-color="#C67331"/>
<stop offset="1" stop-color="#C67331" stop-opacity="0"/>
</linearGradient>
<linearGradient id="paint36_linear_358_2155" x1="8.55316" y1="1.3662" x2="1.12686" y2="1.3662" gradientUnits="userSpaceOnUse">
<stop stop-color="#D99569"/>
<stop offset="1" stop-color="#D28459"/>
</linearGradient>
<linearGradient id="paint37_linear_358_2155" x1="5" y1="1.5625" x2="5" y2="1.45996" gradientUnits="userSpaceOnUse">
<stop stop-color="#CC8159"/>
<stop offset="1" stop-color="#CC8159" stop-opacity="0"/>
</linearGradient>
<linearGradient id="paint38_linear_358_2155" x1="1.22224" y1="1.29218" x2="1.39245" y2="1.13506" gradientUnits="userSpaceOnUse">
<stop stop-color="#C77731"/>
<stop offset="1" stop-color="#C77731" stop-opacity="0"/>
</linearGradient>
<clipPath id="clip0_358_2155">
<rect width="10" height="10" fill="white"/>
</clipPath>
</defs>
</svg>
