<svg width="10" height="10" viewBox="0 0 10 10" fill="none" xmlns="http://www.w3.org/2000/svg">
<g clip-path="url(#clip0_360_2509)">
<path d="M5.81396 1.17015L6.50244 2.61383C6.60906 2.8282 6.80347 2.97894 7.02924 3.01243L8.56906 3.23017C9.36239 3.3474 9.66162 4.19922 9.04639 4.81934L7.96729 5.93262C7.79169 6.1068 7.71016 6.36471 7.75406 6.61593L7.99658 8.19824C8.13455 9.0189 7.44334 9.60111 6.74408 9.22596L5.32674 8.4723C5.12919 8.36846 4.89715 8.36846 4.6996 8.4723L3.28227 9.22596C2.58301 9.59776 1.84912 9.0332 2.0542 8.17871L2.29346 6.63086C2.33736 6.37964 2.25583 6.12173 2.08023 5.94755L0.979967 4.79492C0.359862 4.18213 0.663959 3.3474 1.45729 3.23017L2.94048 3.01243C3.16625 2.97894 3.42533 2.83155 3.52881 2.61383L4.2312 1.17015C4.58867 0.443284 5.45963 0.443284 5.81396 1.17015Z" fill="url(#paint0_radial_360_2509)"/>
<path d="M5.81396 1.17015L6.50244 2.61383C6.60906 2.8282 6.80347 2.97894 7.02924 3.01243L8.56906 3.23017C9.36239 3.3474 9.66162 4.19922 9.04639 4.81934L7.96729 5.93262C7.79169 6.1068 7.71016 6.36471 7.75406 6.61593L7.99658 8.19824C8.13455 9.0189 7.44334 9.60111 6.74408 9.22596L5.32674 8.4723C5.12919 8.36846 4.89715 8.36846 4.6996 8.4723L3.28227 9.22596C2.58301 9.59776 1.84912 9.0332 2.0542 8.17871L2.29346 6.63086C2.33736 6.37964 2.25583 6.12173 2.08023 5.94755L0.979967 4.79492C0.359862 4.18213 0.663959 3.3474 1.45729 3.23017L2.94048 3.01243C3.16625 2.97894 3.42533 2.83155 3.52881 2.61383L4.2312 1.17015C4.58867 0.443284 5.45963 0.443284 5.81396 1.17015Z" fill="url(#paint1_radial_360_2509)"/>
<path d="M5.81396 1.17015L6.50244 2.61383C6.60906 2.8282 6.80347 2.97894 7.02924 3.01243L8.56906 3.23017C9.36239 3.3474 9.66162 4.19922 9.04639 4.81934L7.96729 5.93262C7.79169 6.1068 7.71016 6.36471 7.75406 6.61593L7.99658 8.19824C8.13455 9.0189 7.44334 9.60111 6.74408 9.22596L5.32674 8.4723C5.12919 8.36846 4.89715 8.36846 4.6996 8.4723L3.28227 9.22596C2.58301 9.59776 1.84912 9.0332 2.0542 8.17871L2.29346 6.63086C2.33736 6.37964 2.25583 6.12173 2.08023 5.94755L0.979967 4.79492C0.359862 4.18213 0.663959 3.3474 1.45729 3.23017L2.94048 3.01243C3.16625 2.97894 3.42533 2.83155 3.52881 2.61383L4.2312 1.17015C4.58867 0.443284 5.45963 0.443284 5.81396 1.17015Z" fill="url(#paint2_radial_360_2509)"/>
<path d="M5.81396 1.17015L6.50244 2.61383C6.60906 2.8282 6.80347 2.97894 7.02924 3.01243L8.56906 3.23017C9.36239 3.3474 9.66162 4.19922 9.04639 4.81934L7.96729 5.93262C7.79169 6.1068 7.71016 6.36471 7.75406 6.61593L7.99658 8.19824C8.13455 9.0189 7.44334 9.60111 6.74408 9.22596L5.32674 8.4723C5.12919 8.36846 4.89715 8.36846 4.6996 8.4723L3.28227 9.22596C2.58301 9.59776 1.84912 9.0332 2.0542 8.17871L2.29346 6.63086C2.33736 6.37964 2.25583 6.12173 2.08023 5.94755L0.979967 4.79492C0.359862 4.18213 0.663959 3.3474 1.45729 3.23017L2.94048 3.01243C3.16625 2.97894 3.42533 2.83155 3.52881 2.61383L4.2312 1.17015C4.58867 0.443284 5.45963 0.443284 5.81396 1.17015Z" fill="url(#paint3_radial_360_2509)"/>
<path d="M5.81396 1.17015L6.50244 2.61383C6.60906 2.8282 6.80347 2.97894 7.02924 3.01243L8.56906 3.23017C9.36239 3.3474 9.66162 4.19922 9.04639 4.81934L7.96729 5.93262C7.79169 6.1068 7.71016 6.36471 7.75406 6.61593L7.99658 8.19824C8.13455 9.0189 7.44334 9.60111 6.74408 9.22596L5.32674 8.4723C5.12919 8.36846 4.89715 8.36846 4.6996 8.4723L3.28227 9.22596C2.58301 9.59776 1.84912 9.0332 2.0542 8.17871L2.29346 6.63086C2.33736 6.37964 2.25583 6.12173 2.08023 5.94755L0.979967 4.79492C0.359862 4.18213 0.663959 3.3474 1.45729 3.23017L2.94048 3.01243C3.16625 2.97894 3.42533 2.83155 3.52881 2.61383L4.2312 1.17015C4.58867 0.443284 5.45963 0.443284 5.81396 1.17015Z" fill="url(#paint4_radial_360_2509)"/>
<path d="M5.81396 1.17015L6.50244 2.61383C6.60906 2.8282 6.80347 2.97894 7.02924 3.01243L8.56906 3.23017C9.36239 3.3474 9.66162 4.19922 9.04639 4.81934L7.96729 5.93262C7.79169 6.1068 7.71016 6.36471 7.75406 6.61593L7.99658 8.19824C8.13455 9.0189 7.44334 9.60111 6.74408 9.22596L5.32674 8.4723C5.12919 8.36846 4.89715 8.36846 4.6996 8.4723L3.28227 9.22596C2.58301 9.59776 1.84912 9.0332 2.0542 8.17871L2.29346 6.63086C2.33736 6.37964 2.25583 6.12173 2.08023 5.94755L0.979967 4.79492C0.359862 4.18213 0.663959 3.3474 1.45729 3.23017L2.94048 3.01243C3.16625 2.97894 3.42533 2.83155 3.52881 2.61383L4.2312 1.17015C4.58867 0.443284 5.45963 0.443284 5.81396 1.17015Z" fill="url(#paint5_radial_360_2509)"/>
<path d="M5.81396 1.17015L6.50244 2.61383C6.60906 2.8282 6.80347 2.97894 7.02924 3.01243L8.56906 3.23017C9.36239 3.3474 9.66162 4.19922 9.04639 4.81934L7.96729 5.93262C7.79169 6.1068 7.71016 6.36471 7.75406 6.61593L7.99658 8.19824C8.13455 9.0189 7.44334 9.60111 6.74408 9.22596L5.32674 8.4723C5.12919 8.36846 4.89715 8.36846 4.6996 8.4723L3.28227 9.22596C2.58301 9.59776 1.84912 9.0332 2.0542 8.17871L2.29346 6.63086C2.33736 6.37964 2.25583 6.12173 2.08023 5.94755L0.979967 4.79492C0.359862 4.18213 0.663959 3.3474 1.45729 3.23017L2.94048 3.01243C3.16625 2.97894 3.42533 2.83155 3.52881 2.61383L4.2312 1.17015C4.58867 0.443284 5.45963 0.443284 5.81396 1.17015Z" fill="url(#paint6_radial_360_2509)"/>
<path d="M5.81396 1.17015L6.50244 2.61383C6.60906 2.8282 6.80347 2.97894 7.02924 3.01243L8.56906 3.23017C9.36239 3.3474 9.66162 4.19922 9.04639 4.81934L7.96729 5.93262C7.79169 6.1068 7.71016 6.36471 7.75406 6.61593L7.99658 8.19824C8.13455 9.0189 7.44334 9.60111 6.74408 9.22596L5.32674 8.4723C5.12919 8.36846 4.89715 8.36846 4.6996 8.4723L3.28227 9.22596C2.58301 9.59776 1.84912 9.0332 2.0542 8.17871L2.29346 6.63086C2.33736 6.37964 2.25583 6.12173 2.08023 5.94755L0.979967 4.79492C0.359862 4.18213 0.663959 3.3474 1.45729 3.23017L2.94048 3.01243C3.16625 2.97894 3.42533 2.83155 3.52881 2.61383L4.2312 1.17015C4.58867 0.443284 5.45963 0.443284 5.81396 1.17015Z" fill="url(#paint7_radial_360_2509)"/>
<path d="M5.81396 1.17015L6.50244 2.61383C6.60906 2.8282 6.80347 2.97894 7.02924 3.01243L8.56906 3.23017C9.36239 3.3474 9.66162 4.19922 9.04639 4.81934L7.96729 5.93262C7.79169 6.1068 7.71016 6.36471 7.75406 6.61593L7.99658 8.19824C8.13455 9.0189 7.44334 9.60111 6.74408 9.22596L5.32674 8.4723C5.12919 8.36846 4.89715 8.36846 4.6996 8.4723L3.28227 9.22596C2.58301 9.59776 1.84912 9.0332 2.0542 8.17871L2.29346 6.63086C2.33736 6.37964 2.25583 6.12173 2.08023 5.94755L0.979967 4.79492C0.359862 4.18213 0.663959 3.3474 1.45729 3.23017L2.94048 3.01243C3.16625 2.97894 3.42533 2.83155 3.52881 2.61383L4.2312 1.17015C4.58867 0.443284 5.45963 0.443284 5.81396 1.17015Z" fill="url(#paint8_radial_360_2509)"/>
<path d="M5.81396 1.17015L6.50244 2.61383C6.60906 2.8282 6.80347 2.97894 7.02924 3.01243L8.56906 3.23017C9.36239 3.3474 9.66162 4.19922 9.04639 4.81934L7.96729 5.93262C7.79169 6.1068 7.71016 6.36471 7.75406 6.61593L7.99658 8.19824C8.13455 9.0189 7.44334 9.60111 6.74408 9.22596L5.32674 8.4723C5.12919 8.36846 4.89715 8.36846 4.6996 8.4723L3.28227 9.22596C2.58301 9.59776 1.84912 9.0332 2.0542 8.17871L2.29346 6.63086C2.33736 6.37964 2.25583 6.12173 2.08023 5.94755L0.979967 4.79492C0.359862 4.18213 0.663959 3.3474 1.45729 3.23017L2.94048 3.01243C3.16625 2.97894 3.42533 2.83155 3.52881 2.61383L4.2312 1.17015C4.58867 0.443284 5.45963 0.443284 5.81396 1.17015Z" fill="url(#paint9_radial_360_2509)"/>
<path d="M5.81396 1.17015L6.50244 2.61383C6.60906 2.8282 6.80347 2.97894 7.02924 3.01243L8.56906 3.23017C9.36239 3.3474 9.66162 4.19922 9.04639 4.81934L7.96729 5.93262C7.79169 6.1068 7.71016 6.36471 7.75406 6.61593L7.99658 8.19824C8.13455 9.0189 7.44334 9.60111 6.74408 9.22596L5.32674 8.4723C5.12919 8.36846 4.89715 8.36846 4.6996 8.4723L3.28227 9.22596C2.58301 9.59776 1.84912 9.0332 2.0542 8.17871L2.29346 6.63086C2.33736 6.37964 2.25583 6.12173 2.08023 5.94755L0.979967 4.79492C0.359862 4.18213 0.663959 3.3474 1.45729 3.23017L2.94048 3.01243C3.16625 2.97894 3.42533 2.83155 3.52881 2.61383L4.2312 1.17015C4.58867 0.443284 5.45963 0.443284 5.81396 1.17015Z" fill="url(#paint10_radial_360_2509)"/>
<path d="M5.81396 1.17015L6.50244 2.61383C6.60906 2.8282 6.80347 2.97894 7.02924 3.01243L8.56906 3.23017C9.36239 3.3474 9.66162 4.19922 9.04639 4.81934L7.96729 5.93262C7.79169 6.1068 7.71016 6.36471 7.75406 6.61593L7.99658 8.19824C8.13455 9.0189 7.44334 9.60111 6.74408 9.22596L5.32674 8.4723C5.12919 8.36846 4.89715 8.36846 4.6996 8.4723L3.28227 9.22596C2.58301 9.59776 1.84912 9.0332 2.0542 8.17871L2.29346 6.63086C2.33736 6.37964 2.25583 6.12173 2.08023 5.94755L0.979967 4.79492C0.359862 4.18213 0.663959 3.3474 1.45729 3.23017L2.94048 3.01243C3.16625 2.97894 3.42533 2.83155 3.52881 2.61383L4.2312 1.17015C4.58867 0.443284 5.45963 0.443284 5.81396 1.17015Z" fill="url(#paint11_radial_360_2509)"/>
<path d="M5.81396 1.17015L6.50244 2.61383C6.60906 2.8282 6.80347 2.97894 7.02924 3.01243L8.56906 3.23017C9.36239 3.3474 9.66162 4.19922 9.04639 4.81934L7.96729 5.93262C7.79169 6.1068 7.71016 6.36471 7.75406 6.61593L7.99658 8.19824C8.13455 9.0189 7.44334 9.60111 6.74408 9.22596L5.32674 8.4723C5.12919 8.36846 4.89715 8.36846 4.6996 8.4723L3.28227 9.22596C2.58301 9.59776 1.84912 9.0332 2.0542 8.17871L2.29346 6.63086C2.33736 6.37964 2.25583 6.12173 2.08023 5.94755L0.979967 4.79492C0.359862 4.18213 0.663959 3.3474 1.45729 3.23017L2.94048 3.01243C3.16625 2.97894 3.42533 2.83155 3.52881 2.61383L4.2312 1.17015C4.58867 0.443284 5.45963 0.443284 5.81396 1.17015Z" fill="url(#paint12_radial_360_2509)"/>
<path d="M5.81396 1.17015L6.50244 2.61383C6.60906 2.8282 6.80347 2.97894 7.02924 3.01243L8.56906 3.23017C9.36239 3.3474 9.66162 4.19922 9.04639 4.81934L7.96729 5.93262C7.79169 6.1068 7.71016 6.36471 7.75406 6.61593L7.99658 8.19824C8.13455 9.0189 7.44334 9.60111 6.74408 9.22596L5.32674 8.4723C5.12919 8.36846 4.89715 8.36846 4.6996 8.4723L3.28227 9.22596C2.58301 9.59776 1.84912 9.0332 2.0542 8.17871L2.29346 6.63086C2.33736 6.37964 2.25583 6.12173 2.08023 5.94755L0.979967 4.79492C0.359862 4.18213 0.663959 3.3474 1.45729 3.23017L2.94048 3.01243C3.16625 2.97894 3.42533 2.83155 3.52881 2.61383L4.2312 1.17015C4.58867 0.443284 5.45963 0.443284 5.81396 1.17015Z" fill="url(#paint13_radial_360_2509)"/>
<path d="M5.81396 1.17015L6.50244 2.61383C6.60906 2.8282 6.80347 2.97894 7.02924 3.01243L8.56906 3.23017C9.36239 3.3474 9.66162 4.19922 9.04639 4.81934L7.96729 5.93262C7.79169 6.1068 7.71016 6.36471 7.75406 6.61593L7.99658 8.19824C8.13455 9.0189 7.44334 9.60111 6.74408 9.22596L5.32674 8.4723C5.12919 8.36846 4.89715 8.36846 4.6996 8.4723L3.28227 9.22596C2.58301 9.59776 1.84912 9.0332 2.0542 8.17871L2.29346 6.63086C2.33736 6.37964 2.25583 6.12173 2.08023 5.94755L0.979967 4.79492C0.359862 4.18213 0.663959 3.3474 1.45729 3.23017L2.94048 3.01243C3.16625 2.97894 3.42533 2.83155 3.52881 2.61383L4.2312 1.17015C4.58867 0.443284 5.45963 0.443284 5.81396 1.17015Z" fill="url(#paint14_radial_360_2509)"/>
<path d="M5.81396 1.17015L6.50244 2.61383C6.60906 2.8282 6.80347 2.97894 7.02924 3.01243L8.56906 3.23017C9.36239 3.3474 9.66162 4.19922 9.04639 4.81934L7.96729 5.93262C7.79169 6.1068 7.71016 6.36471 7.75406 6.61593L7.99658 8.19824C8.13455 9.0189 7.44334 9.60111 6.74408 9.22596L5.32674 8.4723C5.12919 8.36846 4.89715 8.36846 4.6996 8.4723L3.28227 9.22596C2.58301 9.59776 1.84912 9.0332 2.0542 8.17871L2.29346 6.63086C2.33736 6.37964 2.25583 6.12173 2.08023 5.94755L0.979967 4.79492C0.359862 4.18213 0.663959 3.3474 1.45729 3.23017L2.94048 3.01243C3.16625 2.97894 3.42533 2.83155 3.52881 2.61383L4.2312 1.17015C4.58867 0.443284 5.45963 0.443284 5.81396 1.17015Z" fill="url(#paint15_radial_360_2509)"/>
<path d="M5.81396 1.17015L6.50244 2.61383C6.60906 2.8282 6.80347 2.97894 7.02924 3.01243L8.56906 3.23017C9.36239 3.3474 9.66162 4.19922 9.04639 4.81934L7.96729 5.93262C7.79169 6.1068 7.71016 6.36471 7.75406 6.61593L7.99658 8.19824C8.13455 9.0189 7.44334 9.60111 6.74408 9.22596L5.32674 8.4723C5.12919 8.36846 4.89715 8.36846 4.6996 8.4723L3.28227 9.22596C2.58301 9.59776 1.84912 9.0332 2.0542 8.17871L2.29346 6.63086C2.33736 6.37964 2.25583 6.12173 2.08023 5.94755L0.979967 4.79492C0.359862 4.18213 0.663959 3.3474 1.45729 3.23017L2.94048 3.01243C3.16625 2.97894 3.42533 2.83155 3.52881 2.61383L4.2312 1.17015C4.58867 0.443284 5.45963 0.443284 5.81396 1.17015Z" fill="url(#paint16_radial_360_2509)"/>
<path d="M5.81396 1.17015L6.50244 2.61383C6.60906 2.8282 6.80347 2.97894 7.02924 3.01243L8.56906 3.23017C9.36239 3.3474 9.66162 4.19922 9.04639 4.81934L7.96729 5.93262C7.79169 6.1068 7.71016 6.36471 7.75406 6.61593L7.99658 8.19824C8.13455 9.0189 7.44334 9.60111 6.74408 9.22596L5.32674 8.4723C5.12919 8.36846 4.89715 8.36846 4.6996 8.4723L3.28227 9.22596C2.58301 9.59776 1.84912 9.0332 2.0542 8.17871L2.29346 6.63086C2.33736 6.37964 2.25583 6.12173 2.08023 5.94755L0.979967 4.79492C0.359862 4.18213 0.663959 3.3474 1.45729 3.23017L2.94048 3.01243C3.16625 2.97894 3.42533 2.83155 3.52881 2.61383L4.2312 1.17015C4.58867 0.443284 5.45963 0.443284 5.81396 1.17015Z" fill="url(#paint17_radial_360_2509)"/>
<path d="M5.81396 1.17015L6.50244 2.61383C6.60906 2.8282 6.80347 2.97894 7.02924 3.01243L8.56906 3.23017C9.36239 3.3474 9.66162 4.19922 9.04639 4.81934L7.96729 5.93262C7.79169 6.1068 7.71016 6.36471 7.75406 6.61593L7.99658 8.19824C8.13455 9.0189 7.44334 9.60111 6.74408 9.22596L5.32674 8.4723C5.12919 8.36846 4.89715 8.36846 4.6996 8.4723L3.28227 9.22596C2.58301 9.59776 1.84912 9.0332 2.0542 8.17871L2.29346 6.63086C2.33736 6.37964 2.25583 6.12173 2.08023 5.94755L0.979967 4.79492C0.359862 4.18213 0.663959 3.3474 1.45729 3.23017L2.94048 3.01243C3.16625 2.97894 3.42533 2.83155 3.52881 2.61383L4.2312 1.17015C4.58867 0.443284 5.45963 0.443284 5.81396 1.17015Z" fill="url(#paint18_radial_360_2509)"/>
<path d="M5.81396 1.17015L6.50244 2.61383C6.60906 2.8282 6.80347 2.97894 7.02924 3.01243L8.56906 3.23017C9.36239 3.3474 9.66162 4.19922 9.04639 4.81934L7.96729 5.93262C7.79169 6.1068 7.71016 6.36471 7.75406 6.61593L7.99658 8.19824C8.13455 9.0189 7.44334 9.60111 6.74408 9.22596L5.32674 8.4723C5.12919 8.36846 4.89715 8.36846 4.6996 8.4723L3.28227 9.22596C2.58301 9.59776 1.84912 9.0332 2.0542 8.17871L2.29346 6.63086C2.33736 6.37964 2.25583 6.12173 2.08023 5.94755L0.979967 4.79492C0.359862 4.18213 0.663959 3.3474 1.45729 3.23017L2.94048 3.01243C3.16625 2.97894 3.42533 2.83155 3.52881 2.61383L4.2312 1.17015C4.58867 0.443284 5.45963 0.443284 5.81396 1.17015Z" fill="url(#paint19_radial_360_2509)"/>
<path d="M5.81396 1.17015L6.50244 2.61383C6.60906 2.8282 6.80347 2.97894 7.02924 3.01243L8.56906 3.23017C9.36239 3.3474 9.66162 4.19922 9.04639 4.81934L7.96729 5.93262C7.79169 6.1068 7.71016 6.36471 7.75406 6.61593L7.99658 8.19824C8.13455 9.0189 7.44334 9.60111 6.74408 9.22596L5.32674 8.4723C5.12919 8.36846 4.89715 8.36846 4.6996 8.4723L3.28227 9.22596C2.58301 9.59776 1.84912 9.0332 2.0542 8.17871L2.29346 6.63086C2.33736 6.37964 2.25583 6.12173 2.08023 5.94755L0.979967 4.79492C0.359862 4.18213 0.663959 3.3474 1.45729 3.23017L2.94048 3.01243C3.16625 2.97894 3.42533 2.83155 3.52881 2.61383L4.2312 1.17015C4.58867 0.443284 5.45963 0.443284 5.81396 1.17015Z" fill="url(#paint20_radial_360_2509)"/>
</g>
<defs>
<radialGradient id="paint0_radial_360_2509" cx="0" cy="0" r="1" gradientUnits="userSpaceOnUse" gradientTransform="translate(7.66943 2.80274) rotate(132.939) scale(6.24386 6.1791)">
<stop stop-color="#F7C334"/>
<stop offset="1" stop-color="#FAC832"/>
</radialGradient>
<radialGradient id="paint1_radial_360_2509" cx="0" cy="0" r="1" gradientUnits="userSpaceOnUse" gradientTransform="translate(5.0121 4.98367) rotate(90) scale(4.35867 4.36293)">
<stop stop-color="#DDBA38"/>
<stop offset="1" stop-color="#DDBA38" stop-opacity="0"/>
</radialGradient>
<radialGradient id="paint2_radial_360_2509" cx="0" cy="0" r="1" gradientUnits="userSpaceOnUse" gradientTransform="translate(2.20631 3.15047) rotate(74.0546) scale(0.707859 2.36231)">
<stop stop-color="#DDBA38"/>
<stop offset="1" stop-color="#DDBA38" stop-opacity="0"/>
</radialGradient>
<radialGradient id="paint3_radial_360_2509" cx="0" cy="0" r="1" gradientUnits="userSpaceOnUse" gradientTransform="translate(0.64917 3.60016) rotate(16.0828) scale(1.22844 1.22964)">
<stop stop-color="#B5953A"/>
<stop offset="1" stop-color="#B5953A" stop-opacity="0"/>
</radialGradient>
<radialGradient id="paint4_radial_360_2509" cx="0" cy="0" r="1" gradientUnits="userSpaceOnUse" gradientTransform="translate(2.77755 9.62854) rotate(-58.4957) scale(0.883821 0.884685)">
<stop stop-color="#C47E42"/>
<stop offset="1" stop-color="#C47E42" stop-opacity="0"/>
</radialGradient>
<radialGradient id="paint5_radial_360_2509" cx="0" cy="0" r="1" gradientUnits="userSpaceOnUse" gradientTransform="translate(9.70532 3.64878) rotate(150.751) scale(0.696499 0.915817)">
<stop stop-color="#FFF246"/>
<stop offset="1" stop-color="#FFF246" stop-opacity="0"/>
</radialGradient>
<radialGradient id="paint6_radial_360_2509" cx="0" cy="0" r="1" gradientUnits="userSpaceOnUse" gradientTransform="translate(8.12506 9.21875) rotate(21.8014) scale(0.841432 0.420717)">
<stop stop-color="#FFF246"/>
<stop offset="1" stop-color="#FFF246" stop-opacity="0"/>
</radialGradient>
<radialGradient id="paint7_radial_360_2509" cx="0" cy="0" r="1" gradientUnits="userSpaceOnUse" gradientTransform="translate(6.87506 2.8125) rotate(-45) scale(2.87262)">
<stop offset="0.113127" stop-color="#FFF249"/>
<stop offset="0.298269" stop-color="#FFF249" stop-opacity="0"/>
</radialGradient>
<radialGradient id="paint8_radial_360_2509" cx="0" cy="0" r="1" gradientUnits="userSpaceOnUse" gradientTransform="translate(7.96881 7.1875) rotate(-18.435) scale(1.97642 4.12268)">
<stop offset="0.0592265" stop-color="#FFF249"/>
<stop offset="0.39519" stop-color="#FFF249" stop-opacity="0"/>
</radialGradient>
<radialGradient id="paint9_radial_360_2509" cx="0" cy="0" r="1" gradientUnits="userSpaceOnUse" gradientTransform="translate(8.12506 3.28125) rotate(3.57634) scale(2.50488 0.675668)">
<stop offset="0.26571" stop-color="#FFF249"/>
<stop offset="0.807393" stop-color="#FFF249" stop-opacity="0"/>
</radialGradient>
<radialGradient id="paint10_radial_360_2509" cx="0" cy="0" r="1" gradientUnits="userSpaceOnUse" gradientTransform="translate(5.93756 1.25) rotate(74.4759) scale(2.91899 0.787371)">
<stop offset="0.26571" stop-color="#FFF249"/>
<stop offset="0.738695" stop-color="#FFF249" stop-opacity="0"/>
</radialGradient>
<radialGradient id="paint11_radial_360_2509" cx="0" cy="0" r="1" gradientUnits="userSpaceOnUse" gradientTransform="translate(8.12506 8.75) rotate(-98.5308) scale(3.15996 0.85237)">
<stop offset="0.26571" stop-color="#FFF249"/>
<stop offset="0.738695" stop-color="#FFF249" stop-opacity="0"/>
</radialGradient>
<radialGradient id="paint12_radial_360_2509" cx="0" cy="0" r="1" gradientUnits="userSpaceOnUse" gradientTransform="translate(4.37506 1.09375) rotate(116.565) scale(3.14447 0.803587)">
<stop offset="0.0888889" stop-color="#B58B32"/>
<stop offset="0.933333" stop-color="#B58B32" stop-opacity="0"/>
</radialGradient>
<radialGradient id="paint13_radial_360_2509" cx="0" cy="0" r="1" gradientUnits="userSpaceOnUse" gradientTransform="translate(0.781311 4.53125) rotate(48.0128) scale(4.20426 1.49385)">
<stop offset="0.121202" stop-color="#B58B32"/>
<stop offset="0.758978" stop-color="#B58B32" stop-opacity="0"/>
</radialGradient>
<radialGradient id="paint14_radial_360_2509" cx="0" cy="0" r="1" gradientUnits="userSpaceOnUse" gradientTransform="translate(2.18756 7.5) rotate(100.62) scale(2.54357 1.04982)">
<stop offset="0.121202" stop-color="#B58B32"/>
<stop offset="0.863208" stop-color="#B58B32" stop-opacity="0"/>
</radialGradient>
<radialGradient id="paint15_radial_360_2509" cx="0" cy="0" r="1" gradientUnits="userSpaceOnUse" gradientTransform="translate(3.90631 8.90625) rotate(153.435) scale(2.4457 1.17918)">
<stop offset="0.121202" stop-color="#C6913B"/>
<stop offset="0.957143" stop-color="#C6913B" stop-opacity="0"/>
</radialGradient>
<radialGradient id="paint16_radial_360_2509" cx="0" cy="0" r="1" gradientUnits="userSpaceOnUse" gradientTransform="translate(6.09381 8.75) rotate(28.3007) scale(2.307 0.83867)">
<stop offset="0.121202" stop-color="#B48A32"/>
<stop offset="0.738695" stop-color="#B48A32" stop-opacity="0"/>
</radialGradient>
<radialGradient id="paint17_radial_360_2509" cx="0" cy="0" r="1" gradientUnits="userSpaceOnUse" gradientTransform="translate(2.03131 9.0625) rotate(119.745) scale(1.25973 1.58072)">
<stop offset="0.144231" stop-color="#B58B32"/>
<stop offset="0.738695" stop-color="#B58B32" stop-opacity="0"/>
</radialGradient>
<radialGradient id="paint18_radial_360_2509" cx="0" cy="0" r="1" gradientUnits="userSpaceOnUse" gradientTransform="translate(9.21881 3.4375) rotate(-29.7449) scale(1.25973 1.4608)">
<stop offset="0.0027979" stop-color="#FFF249"/>
<stop offset="0.686538" stop-color="#FFF249" stop-opacity="0"/>
</radialGradient>
<radialGradient id="paint19_radial_360_2509" cx="0" cy="0" r="1" gradientUnits="userSpaceOnUse" gradientTransform="translate(8.59381 5.15625) rotate(45) scale(1.10485 2.69007)">
<stop offset="0.125" stop-color="#E0AE33"/>
<stop offset="0.95" stop-color="#E0AE33" stop-opacity="0"/>
</radialGradient>
<radialGradient id="paint20_radial_360_2509" cx="0" cy="0" r="1" gradientUnits="userSpaceOnUse" gradientTransform="translate(8.75006 5.3125) rotate(45) scale(0.883884 3.02598)">
<stop offset="0.234947" stop-color="#E5BD42"/>
<stop offset="0.693004" stop-color="#E5BD42" stop-opacity="0"/>
</radialGradient>
<clipPath id="clip0_360_2509">
<rect width="10" height="10" fill="white"/>
</clipPath>
</defs>
</svg>
