<svg width="10" height="10" viewBox="0 0 10 10" fill="none" xmlns="http://www.w3.org/2000/svg">
<path d="M4.63743 1.3686L0.681178 8.22172C0.521803 8.49985 0.721803 8.84985 1.04368 8.84985H8.95618C9.27805 8.84985 9.47805 8.50297 9.31868 8.22172L5.36243 1.3686C5.19993 1.09047 4.79993 1.09047 4.63743 1.3686Z" fill="url(#paint0_linear_399_806)"/>
<path d="M4.63743 1.3686L0.681178 8.22172C0.521803 8.49985 0.721803 8.84985 1.04368 8.84985H8.95618C9.27805 8.84985 9.47805 8.50297 9.31868 8.22172L5.36243 1.3686C5.19993 1.09047 4.79993 1.09047 4.63743 1.3686Z" fill="url(#paint1_linear_399_806)"/>
<path d="M4.63743 1.3686L0.681178 8.22172C0.521803 8.49985 0.721803 8.84985 1.04368 8.84985H8.95618C9.27805 8.84985 9.47805 8.50297 9.31868 8.22172L5.36243 1.3686C5.19993 1.09047 4.79993 1.09047 4.63743 1.3686Z" fill="url(#paint2_radial_399_806)"/>
<path d="M4.63743 1.3686L0.681178 8.22172C0.521803 8.49985 0.721803 8.84985 1.04368 8.84985H8.95618C9.27805 8.84985 9.47805 8.50297 9.31868 8.22172L5.36243 1.3686C5.19993 1.09047 4.79993 1.09047 4.63743 1.3686Z" fill="url(#paint3_linear_399_806)"/>
<path d="M4.63743 1.3686L0.681178 8.22172C0.521803 8.49985 0.721803 8.84985 1.04368 8.84985H8.95618C9.27805 8.84985 9.47805 8.50297 9.31868 8.22172L5.36243 1.3686C5.19993 1.09047 4.79993 1.09047 4.63743 1.3686Z" fill="url(#paint4_radial_399_806)"/>
<path d="M4.63743 1.3686L0.681178 8.22172C0.521803 8.49985 0.721803 8.84985 1.04368 8.84985H8.95618C9.27805 8.84985 9.47805 8.50297 9.31868 8.22172L5.36243 1.3686C5.19993 1.09047 4.79993 1.09047 4.63743 1.3686Z" fill="url(#paint5_linear_399_806)"/>
<path d="M4.63743 1.3686L0.681178 8.22172C0.521803 8.49985 0.721803 8.84985 1.04368 8.84985H8.95618C9.27805 8.84985 9.47805 8.50297 9.31868 8.22172L5.36243 1.3686C5.19993 1.09047 4.79993 1.09047 4.63743 1.3686Z" fill="url(#paint6_radial_399_806)"/>
<path d="M4.5625 6.39312C4.5625 6.63375 4.75625 6.83062 5 6.83062C5.24375 6.83062 5.4375 6.63375 5.4375 6.39V3.5275C5.4375 3.28687 5.24375 3.09 5 3.09C4.75937 3.09 4.5625 3.28375 4.5625 3.5275V6.39312Z" fill="#4A4351"/>
<path d="M5.4375 7.63688C5.4375 7.8785 5.24162 8.07438 5 8.07438C4.75838 8.07438 4.5625 7.8785 4.5625 7.63688C4.5625 7.39525 4.75838 7.19938 5 7.19938C5.24162 7.19938 5.4375 7.39525 5.4375 7.63688Z" fill="#4A4351"/>
<defs>
<linearGradient id="paint0_linear_399_806" x1="4.99993" y1="1.16" x2="4.99993" y2="8.84985" gradientUnits="userSpaceOnUse">
<stop stop-color="#FFD758"/>
<stop offset="1" stop-color="#FFA956"/>
</linearGradient>
<linearGradient id="paint1_linear_399_806" x1="4.99993" y1="4.78763" x2="4.99993" y2="8.84985" gradientUnits="userSpaceOnUse">
<stop offset="0.927949" stop-color="#E2834E" stop-opacity="0"/>
<stop offset="1" stop-color="#E2834E"/>
</linearGradient>
<radialGradient id="paint2_radial_399_806" cx="0" cy="0" r="1" gradientUnits="userSpaceOnUse" gradientTransform="translate(0.546804 8.74759) rotate(-42.7353) scale(0.6116 0.695868)">
<stop stop-color="#E2834E"/>
<stop offset="0.927949" stop-color="#E2834E" stop-opacity="0"/>
</radialGradient>
<linearGradient id="paint3_linear_399_806" x1="5.64446" y1="5.14896" x2="3.21282" y2="3.75247" gradientUnits="userSpaceOnUse">
<stop offset="0.884306" stop-color="#CA8C43" stop-opacity="0"/>
<stop offset="1" stop-color="#CA8C43"/>
</linearGradient>
<radialGradient id="paint4_radial_399_806" cx="0" cy="0" r="1" gradientUnits="userSpaceOnUse" gradientTransform="translate(4.80218 0.987579) rotate(70.3155) scale(0.460245 0.523659)">
<stop offset="0.156068" stop-color="#CA8C43"/>
<stop offset="0.884306" stop-color="#CA8C43" stop-opacity="0"/>
</radialGradient>
<linearGradient id="paint5_linear_399_806" x1="4.43352" y1="5.37357" x2="7.00188" y2="3.88919" gradientUnits="userSpaceOnUse">
<stop offset="0.854167" stop-color="#FAEE6D" stop-opacity="0"/>
<stop offset="0.945975" stop-color="#FFF268"/>
</linearGradient>
<radialGradient id="paint6_radial_399_806" cx="0" cy="0" r="1" gradientUnits="userSpaceOnUse" gradientTransform="translate(9.69964 8.77689) rotate(-113.231) scale(0.563246 0.640851)">
<stop offset="0.312113" stop-color="#FAEE6D"/>
<stop offset="1" stop-color="#FAEE6D" stop-opacity="0"/>
</radialGradient>
</defs>
</svg>
