<svg width="10" height="10" viewBox="0 0 10 10" fill="none" xmlns="http://www.w3.org/2000/svg">
<path d="M5.09229 4.80644C3.19541 4.80644 1.65479 6.34394 1.65479 8.24394V9.33769H8.52666V8.24394C8.52666 6.34394 6.98916 4.80644 5.09229 4.80644Z" fill="#56436B"/>
<path d="M5.09229 4.80644C3.19541 4.80644 1.65479 6.34394 1.65479 8.24394V9.33769H8.52666V8.24394C8.52666 6.34394 6.98916 4.80644 5.09229 4.80644Z" fill="url(#paint0_radial_558_1107)"/>
<path d="M5.09229 4.80644C3.19541 4.80644 1.65479 6.34394 1.65479 8.24394V9.33769H8.52666V8.24394C8.52666 6.34394 6.98916 4.80644 5.09229 4.80644Z" fill="url(#paint1_radial_558_1107)"/>
<path d="M7.28464 5.61871C7.2999 5.5878 7.29236 5.55056 7.26628 5.52804C6.68629 5.02727 5.90797 4.75098 5.09304 4.75098C4.27815 4.75098 3.49523 5.03021 2.91503 5.52817C2.88888 5.55062 2.88123 5.58783 2.89641 5.61877C3.29491 6.43112 4.07 7.06055 5.09304 7.06055C6.1161 7.06055 6.88363 6.43108 7.28464 5.61871Z" fill="url(#paint2_radial_558_1107)"/>
<path d="M7.28464 5.61871C7.2999 5.5878 7.29236 5.55056 7.26628 5.52804C6.68629 5.02727 5.90797 4.75098 5.09304 4.75098C4.27815 4.75098 3.49523 5.03021 2.91503 5.52817C2.88888 5.55062 2.88123 5.58783 2.89641 5.61877C3.29491 6.43112 4.07 7.06055 5.09304 7.06055C6.1161 7.06055 6.88363 6.43108 7.28464 5.61871Z" fill="url(#paint3_radial_558_1107)"/>
<path d="M7.28464 5.61871C7.2999 5.5878 7.29236 5.55056 7.26628 5.52804C6.68629 5.02727 5.90797 4.75098 5.09304 4.75098C4.27815 4.75098 3.49523 5.03021 2.91503 5.52817C2.88888 5.55062 2.88123 5.58783 2.89641 5.61877C3.29491 6.43112 4.07 7.06055 5.09304 7.06055C6.1161 7.06055 6.88363 6.43108 7.28464 5.61871Z" fill="url(#paint4_radial_558_1107)"/>
<path d="M7.28464 5.61871C7.2999 5.5878 7.29236 5.55056 7.26628 5.52804C6.68629 5.02727 5.90797 4.75098 5.09304 4.75098C4.27815 4.75098 3.49523 5.03021 2.91503 5.52817C2.88888 5.55062 2.88123 5.58783 2.89641 5.61877C3.29491 6.43112 4.07 7.06055 5.09304 7.06055C6.1161 7.06055 6.88363 6.43108 7.28464 5.61871Z" fill="url(#paint5_radial_558_1107)"/>
<path d="M7.28464 5.61871C7.2999 5.5878 7.29236 5.55056 7.26628 5.52804C6.68629 5.02727 5.90797 4.75098 5.09304 4.75098C4.27815 4.75098 3.49523 5.03021 2.91503 5.52817C2.88888 5.55062 2.88123 5.58783 2.89641 5.61877C3.29491 6.43112 4.07 7.06055 5.09304 7.06055C6.1161 7.06055 6.88363 6.43108 7.28464 5.61871Z" fill="url(#paint6_radial_558_1107)"/>
<path d="M7.28464 5.61871C7.2999 5.5878 7.29236 5.55056 7.26628 5.52804C6.68629 5.02727 5.90797 4.75098 5.09304 4.75098C4.27815 4.75098 3.49523 5.03021 2.91503 5.52817C2.88888 5.55062 2.88123 5.58783 2.89641 5.61877C3.29491 6.43112 4.07 7.06055 5.09304 7.06055C6.1161 7.06055 6.88363 6.43108 7.28464 5.61871Z" fill="url(#paint7_radial_558_1107)"/>
<path d="M6.60148 3.72246C6.70664 3.71906 6.80512 3.6834 6.88525 3.62567V3.91773C6.88525 4.19791 6.71832 4.44752 6.4646 4.5511C6.51802 4.43733 6.55474 4.31337 6.5731 4.18093L6.60148 3.72246Z" fill="url(#paint8_radial_558_1107)"/>
<path d="M6.60148 3.72246C6.70664 3.71906 6.80512 3.6834 6.88525 3.62567V3.91773C6.88525 4.19791 6.71832 4.44752 6.4646 4.5511C6.51802 4.43733 6.55474 4.31337 6.5731 4.18093L6.60148 3.72246Z" fill="url(#paint9_radial_558_1107)"/>
<path d="M3.55037 3.72269C3.44521 3.71929 3.34672 3.68363 3.2666 3.6259V3.91796C3.2666 4.19814 3.43353 4.44774 3.68725 4.55132C3.63383 4.43756 3.59711 4.3136 3.57875 4.18115L3.55037 3.72269Z" fill="url(#paint10_radial_558_1107)"/>
<path d="M3.55037 3.72269C3.44521 3.71929 3.34672 3.68363 3.2666 3.6259V3.91796C3.2666 4.19814 3.43353 4.44774 3.68725 4.55132C3.63383 4.43756 3.59711 4.3136 3.57875 4.18115L3.55037 3.72269Z" fill="url(#paint11_radial_558_1107)"/>
<path d="M4.99888 5.85956C5.01853 5.87302 5.05192 5.88457 5.08638 5.88577C5.12084 5.88457 5.15422 5.87302 5.17388 5.85956C5.49165 5.64209 5.73013 5.42544 5.73013 5.05127V3.91581C5.73013 3.55956 5.44263 3.27206 5.08638 3.27206C4.73013 3.27206 4.44263 3.55956 4.44263 3.91581V5.05127C4.44263 5.42544 4.6811 5.64209 4.99888 5.85956Z" fill="url(#paint12_radial_558_1107)"/>
<g filter="url(#filter0_ii_558_1107)">
<path d="M3.56183 4.19817C3.64256 4.81083 4.16394 5.26696 4.78118 5.26696H5.3732C5.99044 5.26696 6.51182 4.81083 6.59255 4.19817C6.62957 3.60706 6.6668 3.01833 6.69426 2.42753C6.69093 2.18684 6.5012 1.98823 6.26153 1.97813H5.82214C5.52256 1.97813 5.25127 1.8014 5.12811 1.52537C5.09649 1.44627 5.01993 1.39409 4.93505 1.39409H4.5356C3.95641 1.39409 3.48706 1.86873 3.48706 2.45446C3.48706 3.03836 3.52353 3.6128 3.56183 4.19817Z" fill="url(#paint13_radial_558_1107)"/>
</g>
<path d="M3.56183 4.19817C3.64256 4.81083 4.16394 5.26696 4.78118 5.26696H5.3732C5.99044 5.26696 6.51182 4.81083 6.59255 4.19817C6.62957 3.60706 6.6668 3.01833 6.69426 2.42753C6.69093 2.18684 6.5012 1.98823 6.26153 1.97813H5.82214C5.52256 1.97813 5.25127 1.8014 5.12811 1.52537C5.09649 1.44627 5.01993 1.39409 4.93505 1.39409H4.5356C3.95641 1.39409 3.48706 1.86873 3.48706 2.45446C3.48706 3.03836 3.52353 3.6128 3.56183 4.19817Z" fill="url(#paint14_radial_558_1107)"/>
<path d="M3.56183 4.19817C3.64256 4.81083 4.16394 5.26696 4.78118 5.26696H5.3732C5.99044 5.26696 6.51182 4.81083 6.59255 4.19817C6.62957 3.60706 6.6668 3.01833 6.69426 2.42753C6.69093 2.18684 6.5012 1.98823 6.26153 1.97813H5.82214C5.52256 1.97813 5.25127 1.8014 5.12811 1.52537C5.09649 1.44627 5.01993 1.39409 4.93505 1.39409H4.5356C3.95641 1.39409 3.48706 1.86873 3.48706 2.45446C3.48706 3.03836 3.52353 3.6128 3.56183 4.19817Z" fill="url(#paint15_radial_558_1107)"/>
<path d="M3.56183 4.19817C3.64256 4.81083 4.16394 5.26696 4.78118 5.26696H5.3732C5.99044 5.26696 6.51182 4.81083 6.59255 4.19817C6.62957 3.60706 6.6668 3.01833 6.69426 2.42753C6.69093 2.18684 6.5012 1.98823 6.26153 1.97813H5.82214C5.52256 1.97813 5.25127 1.8014 5.12811 1.52537C5.09649 1.44627 5.01993 1.39409 4.93505 1.39409H4.5356C3.95641 1.39409 3.48706 1.86873 3.48706 2.45446C3.48706 3.03836 3.52353 3.6128 3.56183 4.19817Z" fill="url(#paint16_radial_558_1107)"/>
<path d="M3.56183 4.19817C3.64256 4.81083 4.16394 5.26696 4.78118 5.26696H5.3732C5.99044 5.26696 6.51182 4.81083 6.59255 4.19817C6.62957 3.60706 6.6668 3.01833 6.69426 2.42753C6.69093 2.18684 6.5012 1.98823 6.26153 1.97813H5.82214C5.52256 1.97813 5.25127 1.8014 5.12811 1.52537C5.09649 1.44627 5.01993 1.39409 4.93505 1.39409H4.5356C3.95641 1.39409 3.48706 1.86873 3.48706 2.45446C3.48706 3.03836 3.52353 3.6128 3.56183 4.19817Z" fill="url(#paint17_radial_558_1107)"/>
<path d="M3.56183 4.19817C3.64256 4.81083 4.16394 5.26696 4.78118 5.26696H5.3732C5.99044 5.26696 6.51182 4.81083 6.59255 4.19817C6.62957 3.60706 6.6668 3.01833 6.69426 2.42753C6.69093 2.18684 6.5012 1.98823 6.26153 1.97813H5.82214C5.52256 1.97813 5.25127 1.8014 5.12811 1.52537C5.09649 1.44627 5.01993 1.39409 4.93505 1.39409H4.5356C3.95641 1.39409 3.48706 1.86873 3.48706 2.45446C3.48706 3.03836 3.52353 3.6128 3.56183 4.19817Z" fill="url(#paint18_radial_558_1107)"/>
<g filter="url(#filter1_f_558_1107)">
<path d="M4.92329 3.16767L4.7241 3.74436C4.69007 3.86299 4.77173 3.98161 4.88742 3.98161H5.1341C5.24979 3.98161 5.33145 3.86116 5.29743 3.74436L5.1307 3.16767C5.09498 3.03992 4.96071 3.03992 4.92329 3.16767Z" fill="#EE9020"/>
</g>
<g filter="url(#filter2_f_558_1107)">
<path d="M4.95576 3.10622L4.78904 3.68292C4.75501 3.80154 4.83667 3.92017 4.95236 3.92017H5.19905C5.31473 3.92017 5.39639 3.79972 5.36237 3.68292L5.19564 3.10622C5.15992 2.97847 4.99319 2.97847 4.95576 3.10622Z" fill="url(#paint19_linear_558_1107)"/>
<path d="M4.95576 3.10622L4.78904 3.68292C4.75501 3.80154 4.83667 3.92017 4.95236 3.92017H5.19905C5.31473 3.92017 5.39639 3.79972 5.36237 3.68292L5.19564 3.10622C5.15992 2.97847 4.99319 2.97847 4.95576 3.10622Z" fill="url(#paint20_linear_558_1107)"/>
<path d="M4.95576 3.10622L4.78904 3.68292C4.75501 3.80154 4.83667 3.92017 4.95236 3.92017H5.19905C5.31473 3.92017 5.39639 3.79972 5.36237 3.68292L5.19564 3.10622C5.15992 2.97847 4.99319 2.97847 4.95576 3.10622Z" fill="url(#paint21_linear_558_1107)"/>
<path d="M4.95576 3.10622L4.78904 3.68292C4.75501 3.80154 4.83667 3.92017 4.95236 3.92017H5.19905C5.31473 3.92017 5.39639 3.79972 5.36237 3.68292L5.19564 3.10622C5.15992 2.97847 4.99319 2.97847 4.95576 3.10622Z" fill="url(#paint22_linear_558_1107)"/>
</g>
<g filter="url(#filter3_f_558_1107)">
<path d="M4.6759 4.0699L4.6759 4.06991C4.79061 4.12971 4.92836 4.16448 5.07598 4.16448C5.22514 4.16448 5.3613 4.12974 5.47607 4.06991L5.47675 4.06955L5.47675 4.06956C5.53057 4.04219 5.58802 4.05838 5.62209 4.09375C5.65708 4.13008 5.67057 4.19048 5.63535 4.24346M4.6759 4.0699L5.57285 4.202M4.6759 4.0699L4.67522 4.06956C4.62033 4.04165 4.56282 4.05965 4.52952 4.09471C4.49587 4.13013 4.48057 4.19064 4.51691 4.2439M4.6759 4.0699L4.57912 4.202M5.63535 4.24346C5.63531 4.24351 5.63528 4.24356 5.63525 4.24361L5.57285 4.202M5.63535 4.24346C5.63538 4.24341 5.63541 4.24336 5.63545 4.24331L5.57285 4.202M5.63535 4.24346C5.51675 4.42308 5.31047 4.54247 5.07598 4.54247C4.84169 4.54247 4.63556 4.42327 4.51691 4.2439M5.57285 4.202C5.46774 4.36128 5.2846 4.46747 5.07598 4.46747C4.86736 4.46747 4.68422 4.36128 4.57912 4.202M4.51691 4.2439C4.5171 4.24418 4.51729 4.24446 4.51749 4.24474L4.57912 4.202M4.51691 4.2439C4.51678 4.2437 4.51665 4.2435 4.51652 4.24331L4.57912 4.202" stroke="url(#paint23_radial_558_1107)" stroke-width="0.15"/>
</g>
<path d="M5.07598 4.23948C4.91673 4.23948 4.76704 4.202 4.64123 4.13641C4.59823 4.11455 4.55205 4.16296 4.57912 4.202C4.68422 4.36128 4.86736 4.46747 5.07598 4.46747C5.2846 4.46747 5.46774 4.36128 5.57285 4.202C5.59992 4.1614 5.55374 4.11455 5.51074 4.13641C5.38493 4.202 5.23683 4.23948 5.07598 4.23948Z" fill="url(#paint24_radial_558_1107)"/>
<g filter="url(#filter4_ii_558_1107)">
<path d="M6.59938 1.24596C6.76082 1.30151 6.90562 1.41428 6.99716 1.57586C7.14362 1.83338 7.12198 2.14139 6.96387 2.36861C6.90895 2.4494 6.87899 2.54534 6.87899 2.64296V3.01577C6.82029 2.97488 6.74286 2.94457 6.66961 2.93162L6.69425 2.42752C6.69092 2.18683 6.50118 1.98822 6.26152 1.97812H5.82213C5.52254 1.97812 5.25126 1.8014 5.12809 1.52536C5.09647 1.44626 5.01991 1.39408 4.93503 1.39408H4.53559C3.95639 1.39408 3.48704 1.86872 3.48704 2.45445L3.49666 2.93688C3.41696 2.94859 3.33371 2.97523 3.27068 3.01962V2.64296C3.27068 2.54534 3.24072 2.4494 3.1858 2.36861C3.03601 2.14812 3.00938 1.85189 3.14086 1.6011C3.2324 1.42774 3.38053 1.30656 3.54863 1.24765C3.72838 1.18369 3.8815 1.0625 3.98302 0.89924C4.11284 0.692216 4.34086 0.60791 4.60216 0.60791C4.70368 0.60791 4.80022 0.629791 4.89009 0.66682C5.00992 0.718996 5.14474 0.718996 5.26457 0.66682C5.35278 0.629791 5.44931 0.60791 5.55084 0.60791C5.81547 0.60791 6.04681 0.697265 6.17497 0.909339C6.2715 1.06924 6.42296 1.18537 6.59938 1.24596Z" fill="url(#paint25_linear_558_1107)"/>
<path d="M6.59938 1.24596C6.76082 1.30151 6.90562 1.41428 6.99716 1.57586C7.14362 1.83338 7.12198 2.14139 6.96387 2.36861C6.90895 2.4494 6.87899 2.54534 6.87899 2.64296V3.01577C6.82029 2.97488 6.74286 2.94457 6.66961 2.93162L6.69425 2.42752C6.69092 2.18683 6.50118 1.98822 6.26152 1.97812H5.82213C5.52254 1.97812 5.25126 1.8014 5.12809 1.52536C5.09647 1.44626 5.01991 1.39408 4.93503 1.39408H4.53559C3.95639 1.39408 3.48704 1.86872 3.48704 2.45445L3.49666 2.93688C3.41696 2.94859 3.33371 2.97523 3.27068 3.01962V2.64296C3.27068 2.54534 3.24072 2.4494 3.1858 2.36861C3.03601 2.14812 3.00938 1.85189 3.14086 1.6011C3.2324 1.42774 3.38053 1.30656 3.54863 1.24765C3.72838 1.18369 3.8815 1.0625 3.98302 0.89924C4.11284 0.692216 4.34086 0.60791 4.60216 0.60791C4.70368 0.60791 4.80022 0.629791 4.89009 0.66682C5.00992 0.718996 5.14474 0.718996 5.26457 0.66682C5.35278 0.629791 5.44931 0.60791 5.55084 0.60791C5.81547 0.60791 6.04681 0.697265 6.17497 0.909339C6.2715 1.06924 6.42296 1.18537 6.59938 1.24596Z" fill="url(#paint26_radial_558_1107)"/>
<path d="M6.59938 1.24596C6.76082 1.30151 6.90562 1.41428 6.99716 1.57586C7.14362 1.83338 7.12198 2.14139 6.96387 2.36861C6.90895 2.4494 6.87899 2.54534 6.87899 2.64296V3.01577C6.82029 2.97488 6.74286 2.94457 6.66961 2.93162L6.69425 2.42752C6.69092 2.18683 6.50118 1.98822 6.26152 1.97812H5.82213C5.52254 1.97812 5.25126 1.8014 5.12809 1.52536C5.09647 1.44626 5.01991 1.39408 4.93503 1.39408H4.53559C3.95639 1.39408 3.48704 1.86872 3.48704 2.45445L3.49666 2.93688C3.41696 2.94859 3.33371 2.97523 3.27068 3.01962V2.64296C3.27068 2.54534 3.24072 2.4494 3.1858 2.36861C3.03601 2.14812 3.00938 1.85189 3.14086 1.6011C3.2324 1.42774 3.38053 1.30656 3.54863 1.24765C3.72838 1.18369 3.8815 1.0625 3.98302 0.89924C4.11284 0.692216 4.34086 0.60791 4.60216 0.60791C4.70368 0.60791 4.80022 0.629791 4.89009 0.66682C5.00992 0.718996 5.14474 0.718996 5.26457 0.66682C5.35278 0.629791 5.44931 0.60791 5.55084 0.60791C5.81547 0.60791 6.04681 0.697265 6.17497 0.909339C6.2715 1.06924 6.42296 1.18537 6.59938 1.24596Z" fill="url(#paint27_radial_558_1107)"/>
<path d="M6.59938 1.24596C6.76082 1.30151 6.90562 1.41428 6.99716 1.57586C7.14362 1.83338 7.12198 2.14139 6.96387 2.36861C6.90895 2.4494 6.87899 2.54534 6.87899 2.64296V3.01577C6.82029 2.97488 6.74286 2.94457 6.66961 2.93162L6.69425 2.42752C6.69092 2.18683 6.50118 1.98822 6.26152 1.97812H5.82213C5.52254 1.97812 5.25126 1.8014 5.12809 1.52536C5.09647 1.44626 5.01991 1.39408 4.93503 1.39408H4.53559C3.95639 1.39408 3.48704 1.86872 3.48704 2.45445L3.49666 2.93688C3.41696 2.94859 3.33371 2.97523 3.27068 3.01962V2.64296C3.27068 2.54534 3.24072 2.4494 3.1858 2.36861C3.03601 2.14812 3.00938 1.85189 3.14086 1.6011C3.2324 1.42774 3.38053 1.30656 3.54863 1.24765C3.72838 1.18369 3.8815 1.0625 3.98302 0.89924C4.11284 0.692216 4.34086 0.60791 4.60216 0.60791C4.70368 0.60791 4.80022 0.629791 4.89009 0.66682C5.00992 0.718996 5.14474 0.718996 5.26457 0.66682C5.35278 0.629791 5.44931 0.60791 5.55084 0.60791C5.81547 0.60791 6.04681 0.697265 6.17497 0.909339C6.2715 1.06924 6.42296 1.18537 6.59938 1.24596Z" fill="url(#paint28_radial_558_1107)"/>
<path d="M6.59938 1.24596C6.76082 1.30151 6.90562 1.41428 6.99716 1.57586C7.14362 1.83338 7.12198 2.14139 6.96387 2.36861C6.90895 2.4494 6.87899 2.54534 6.87899 2.64296V3.01577C6.82029 2.97488 6.74286 2.94457 6.66961 2.93162L6.69425 2.42752C6.69092 2.18683 6.50118 1.98822 6.26152 1.97812H5.82213C5.52254 1.97812 5.25126 1.8014 5.12809 1.52536C5.09647 1.44626 5.01991 1.39408 4.93503 1.39408H4.53559C3.95639 1.39408 3.48704 1.86872 3.48704 2.45445L3.49666 2.93688C3.41696 2.94859 3.33371 2.97523 3.27068 3.01962V2.64296C3.27068 2.54534 3.24072 2.4494 3.1858 2.36861C3.03601 2.14812 3.00938 1.85189 3.14086 1.6011C3.2324 1.42774 3.38053 1.30656 3.54863 1.24765C3.72838 1.18369 3.8815 1.0625 3.98302 0.89924C4.11284 0.692216 4.34086 0.60791 4.60216 0.60791C4.70368 0.60791 4.80022 0.629791 4.89009 0.66682C5.00992 0.718996 5.14474 0.718996 5.26457 0.66682C5.35278 0.629791 5.44931 0.60791 5.55084 0.60791C5.81547 0.60791 6.04681 0.697265 6.17497 0.909339C6.2715 1.06924 6.42296 1.18537 6.59938 1.24596Z" fill="url(#paint29_radial_558_1107)"/>
</g>
<g filter="url(#filter5_i_558_1107)">
<path d="M6.24719 2.39542C6.19223 2.34755 6.12831 2.29683 6.03151 2.26636C5.93607 2.23631 5.81653 2.22824 5.65115 2.24848C5.60346 2.25431 5.56953 2.2977 5.57536 2.34539C5.58119 2.39309 5.62459 2.42702 5.67228 2.42118C5.82322 2.40272 5.91569 2.41231 5.97926 2.43233C6.04146 2.45191 6.08355 2.48363 6.13291 2.52663C6.16914 2.55818 6.22409 2.5544 6.25565 2.51816C6.28721 2.48193 6.28342 2.42698 6.24719 2.39542Z" fill="#C05029"/>
</g>
<g filter="url(#filter6_i_558_1107)">
<path d="M4.00544 2.36123C4.03371 2.34431 4.07439 2.32266 4.12576 2.30246C4.22848 2.26207 4.37529 2.227 4.55095 2.24849C4.59864 2.25432 4.63257 2.29772 4.62674 2.34541C4.6209 2.3931 4.57751 2.42703 4.52982 2.4212C4.38915 2.40399 4.27179 2.43201 4.18943 2.46439C4.14826 2.48058 4.11616 2.49774 4.0948 2.51053C4.08414 2.51691 4.07621 2.52216 4.07124 2.5256C4.06875 2.52732 4.06701 2.52858 4.06604 2.52929L4.06517 2.52993C4.02726 2.55916 3.9728 2.55228 3.94338 2.51445C3.91388 2.47652 3.92071 2.42186 3.95864 2.39236L4.00544 2.36123Z" fill="#C05029"/>
</g>
<g filter="url(#filter7_f_558_1107)">
<path d="M5.14878 1.56829C5.14146 1.55427 5.13454 1.53995 5.12803 1.52536C5.09641 1.44626 5.01985 1.39408 4.93496 1.39408H4.53552C3.95633 1.39408 3.48698 1.86872 3.48698 2.45445V2.5408C3.38029 2.4596 3.24609 2.28833 3.24609 2.01115C3.24609 1.67481 3.49141 1.5048 3.64788 1.39635C3.69206 1.36573 3.72916 1.34002 3.75165 1.31687C3.76121 1.30703 3.77162 1.29599 3.78293 1.28399C3.89262 1.16765 4.08805 0.960374 4.42932 0.869786C4.59652 0.825403 4.76593 0.814628 4.9035 0.818024C5.05122 0.821671 5.15539 0.949255 5.15539 1.09702V1.56407L5.14878 1.56829Z" fill="url(#paint30_radial_558_1107)"/>
<path d="M5.14878 1.56829C5.14146 1.55427 5.13454 1.53995 5.12803 1.52536C5.09641 1.44626 5.01985 1.39408 4.93496 1.39408H4.53552C3.95633 1.39408 3.48698 1.86872 3.48698 2.45445V2.5408C3.38029 2.4596 3.24609 2.28833 3.24609 2.01115C3.24609 1.67481 3.49141 1.5048 3.64788 1.39635C3.69206 1.36573 3.72916 1.34002 3.75165 1.31687C3.76121 1.30703 3.77162 1.29599 3.78293 1.28399C3.89262 1.16765 4.08805 0.960374 4.42932 0.869786C4.59652 0.825403 4.76593 0.814628 4.9035 0.818024C5.05122 0.821671 5.15539 0.949255 5.15539 1.09702V1.56407L5.14878 1.56829Z" fill="url(#paint31_radial_558_1107)"/>
</g>
<g filter="url(#filter8_f_558_1107)">
<path d="M6.71157 2.62651L6.70241 2.42844C6.69908 2.18886 6.5011 1.99117 6.26144 1.98112H5.82205C5.54312 1.98112 5.28871 1.82862 5.15556 1.58583C5.15556 1.58583 5.13681 1.5424 5.11733 1.46814C5.0378 1.16493 5.32745 0.932957 5.63521 0.992471C5.9412 1.05164 6.29023 1.1547 6.54812 1.32291C7.09557 1.67997 6.99973 2.32347 6.71157 2.62651Z" fill="url(#paint32_radial_558_1107)"/>
<path d="M6.71157 2.62651L6.70241 2.42844C6.69908 2.18886 6.5011 1.99117 6.26144 1.98112H5.82205C5.54312 1.98112 5.28871 1.82862 5.15556 1.58583C5.15556 1.58583 5.13681 1.5424 5.11733 1.46814C5.0378 1.16493 5.32745 0.932957 5.63521 0.992471C5.9412 1.05164 6.29023 1.1547 6.54812 1.32291C7.09557 1.67997 6.99973 2.32347 6.71157 2.62651Z" fill="url(#paint33_radial_558_1107)"/>
<path d="M6.71157 2.62651L6.70241 2.42844C6.69908 2.18886 6.5011 1.99117 6.26144 1.98112H5.82205C5.54312 1.98112 5.28871 1.82862 5.15556 1.58583C5.15556 1.58583 5.13681 1.5424 5.11733 1.46814C5.0378 1.16493 5.32745 0.932957 5.63521 0.992471C5.9412 1.05164 6.29023 1.1547 6.54812 1.32291C7.09557 1.67997 6.99973 2.32347 6.71157 2.62651Z" fill="url(#paint34_radial_558_1107)"/>
<path d="M6.71157 2.62651L6.70241 2.42844C6.69908 2.18886 6.5011 1.99117 6.26144 1.98112H5.82205C5.54312 1.98112 5.28871 1.82862 5.15556 1.58583C5.15556 1.58583 5.13681 1.5424 5.11733 1.46814C5.0378 1.16493 5.32745 0.932957 5.63521 0.992471C5.9412 1.05164 6.29023 1.1547 6.54812 1.32291C7.09557 1.67997 6.99973 2.32347 6.71157 2.62651Z" fill="url(#paint35_radial_558_1107)"/>
<path d="M6.71157 2.62651L6.70241 2.42844C6.69908 2.18886 6.5011 1.99117 6.26144 1.98112H5.82205C5.54312 1.98112 5.28871 1.82862 5.15556 1.58583C5.15556 1.58583 5.13681 1.5424 5.11733 1.46814C5.0378 1.16493 5.32745 0.932957 5.63521 0.992471C5.9412 1.05164 6.29023 1.1547 6.54812 1.32291C7.09557 1.67997 6.99973 2.32347 6.71157 2.62651Z" fill="url(#paint36_radial_558_1107)"/>
</g>
<path d="M5.82603 2.80803C6.03092 2.80803 6.20399 2.94928 6.25107 3.14017C6.26507 3.19489 6.22308 3.24707 6.16708 3.24707H5.46717C5.42263 3.24707 5.387 3.20634 5.39591 3.1618C5.43536 2.96074 5.61224 2.80803 5.82603 2.80803Z" fill="white"/>
<path d="M5.76122 2.89331C5.91647 2.89331 6.04118 3.0193 6.04118 3.17328C6.04118 3.19873 6.03737 3.22418 6.031 3.24709H5.49016C5.4838 3.22291 5.47998 3.19873 5.47998 3.17328C5.47998 3.0193 5.60597 2.89331 5.76122 2.89331Z" fill="url(#paint37_radial_558_1107)"/>
<path d="M5.60083 3.17321C5.60083 3.08419 5.67205 3.01297 5.76107 3.01297C5.85009 3.01297 5.92131 3.08419 5.92131 3.17321C5.92131 3.19991 5.91495 3.22535 5.9035 3.24697H5.61991C5.60719 3.22535 5.60083 3.19991 5.60083 3.17321Z" fill="black"/>
<g filter="url(#filter9_f_558_1107)">
<path d="M5.7403 2.95264C5.76022 2.97929 5.71858 3.01177 5.67123 3.04717C5.62388 3.08258 5.58875 3.10749 5.56883 3.08084C5.5489 3.0542 5.57114 3.0039 5.61849 2.96849C5.66584 2.93309 5.72037 2.92599 5.7403 2.95264Z" fill="#C7A7A3"/>
<path d="M5.7403 2.95264C5.76022 2.97929 5.71858 3.01177 5.67123 3.04717C5.62388 3.08258 5.58875 3.10749 5.56883 3.08084C5.5489 3.0542 5.57114 3.0039 5.61849 2.96849C5.66584 2.93309 5.72037 2.92599 5.7403 2.95264Z" fill="url(#paint38_radial_558_1107)"/>
</g>
<g filter="url(#filter10_f_558_1107)">
<path d="M6.0102 3.13612C5.99989 3.0639 5.95763 3.00947 5.93779 2.99129L5.85645 3.08057L5.89315 3.15199L6.0102 3.13612Z" fill="url(#paint39_linear_558_1107)"/>
</g>
<path d="M4.32548 2.808C4.12058 2.808 3.94751 2.94926 3.90042 3.14016C3.88642 3.19488 3.92842 3.24706 3.98441 3.24706H4.68436C4.7289 3.24706 4.76454 3.20633 4.75563 3.16179C4.71618 2.96071 4.53801 2.808 4.32548 2.808Z" fill="white"/>
<path d="M4.39033 2.8933C4.23507 2.8933 4.11035 3.01929 4.11035 3.17328C4.11035 3.19873 4.11417 3.22418 4.12053 3.24709H4.6614C4.66777 3.22291 4.67158 3.19873 4.67158 3.17328C4.67031 3.01929 4.54559 2.8933 4.39033 2.8933Z" fill="url(#paint40_radial_558_1107)"/>
<path d="M4.55047 3.1732C4.55047 3.08418 4.47925 3.01295 4.39023 3.01295C4.3012 3.01295 4.22998 3.08418 4.22998 3.1732C4.22998 3.19991 4.23634 3.22534 4.24779 3.24697H4.5314C4.54284 3.22534 4.55047 3.19991 4.55047 3.1732Z" fill="black"/>
<g filter="url(#filter11_f_558_1107)">
<path d="M4.64593 3.14004C4.64593 3.04976 4.57252 2.98958 4.55268 2.97139L4.4624 3.05869L4.51796 3.17178L4.64593 3.14004Z" fill="url(#paint41_linear_558_1107)"/>
</g>
<g filter="url(#filter12_f_558_1107)">
<path d="M4.41369 2.95582C4.42966 2.98597 4.39431 3.036 4.33473 3.06756C4.27515 3.09913 4.2139 3.10027 4.19793 3.07012C4.18196 3.03997 4.2173 2.98994 4.27688 2.95837C4.33646 2.92681 4.39771 2.92566 4.41369 2.95582Z" fill="#C7A7A3" fill-opacity="0.9"/>
<path d="M4.41369 2.95582C4.42966 2.98597 4.39431 3.036 4.33473 3.06756C4.27515 3.09913 4.2139 3.10027 4.19793 3.07012C4.18196 3.03997 4.2173 2.98994 4.27688 2.95837C4.33646 2.92681 4.39771 2.92566 4.41369 2.95582Z" fill="url(#paint42_radial_558_1107)"/>
</g>
<path d="M6.62061 3.75133C6.64125 3.41739 6.66116 3.08384 6.67853 2.74989C6.91563 2.79138 7.09584 2.99827 7.09584 3.24725C7.09584 3.51615 6.88565 3.73596 6.62061 3.75133Z" fill="url(#paint43_linear_558_1107)"/>
<path d="M6.62061 3.75133C6.64125 3.41739 6.66116 3.08384 6.67853 2.74989C6.91563 2.79138 7.09584 2.99827 7.09584 3.24725C7.09584 3.51615 6.88565 3.73596 6.62061 3.75133Z" fill="url(#paint44_radial_558_1107)"/>
<path d="M6.62061 3.75133C6.64125 3.41739 6.66116 3.08384 6.67853 2.74989C6.91563 2.79138 7.09584 2.99827 7.09584 3.24725C7.09584 3.51615 6.88565 3.73596 6.62061 3.75133Z" fill="url(#paint45_radial_558_1107)"/>
<path d="M3.48995 2.74734C3.24477 2.78192 3.05615 2.99259 3.05615 3.24731C3.05615 3.51689 3.26741 3.73713 3.5334 3.7515C3.51315 3.41618 3.49644 3.08277 3.48995 2.74734Z" fill="url(#paint46_linear_558_1107)"/>
<path d="M3.48995 2.74734C3.24477 2.78192 3.05615 2.99259 3.05615 3.24731C3.05615 3.51689 3.26741 3.73713 3.5334 3.7515C3.51315 3.41618 3.49644 3.08277 3.48995 2.74734Z" fill="url(#paint47_radial_558_1107)"/>
<g filter="url(#filter13_f_558_1107)">
<path d="M3.49509 2.95462C3.36124 2.98463 3.26123 3.10417 3.26123 3.24707C3.26123 3.39914 3.37449 3.52477 3.52126 3.54418C3.51039 3.34755 3.50121 3.15129 3.49509 2.95462Z" fill="#DD8224"/>
</g>
<g filter="url(#filter14_f_558_1107)">
<path d="M6.63306 3.5468C6.64515 3.34774 6.65684 3.14876 6.66776 2.94971C6.81559 2.96815 6.92999 3.09426 6.92999 3.2471C6.92999 3.41169 6.7973 3.5453 6.63306 3.5468Z" fill="#FFC837"/>
</g>
<g filter="url(#filter15_f_558_1107)">
<path d="M4.01733 2.44899C4.09796 2.39116 4.2989 2.28941 4.53657 2.32937" stroke="#C96953" stroke-width="0.25" stroke-linecap="round"/>
</g>
<g filter="url(#filter16_f_558_1107)">
<path d="M6.19355 2.43471C6.11293 2.37687 5.91198 2.27513 5.67432 2.31509" stroke="#C96953" stroke-width="0.25" stroke-linecap="round"/>
</g>
<path d="M7.81982 3.61046V0.84082H7.56982V3.61046H7.81982Z" fill="url(#paint48_linear_558_1107)"/>
<path d="M7.81982 3.61046V0.84082H7.56982V3.61046H7.81982Z" fill="url(#paint49_radial_558_1107)"/>
<path d="M3.14273 1.604C3.12506 1.5625 3.37609 1.2278 3.53458 0.981445L6.58145 0.947266C6.78579 1.19751 7.00626 1.5625 7.00626 1.5918C5.54874 2.09473 3.79581 1.8335 3.14273 1.604Z" fill="url(#paint50_radial_558_1107)"/>
<path d="M7.5729 1.09082H2.58228C2.44478 1.09082 2.33228 0.97832 2.33228 0.84082C2.33228 0.70332 2.44478 0.59082 2.58228 0.59082H7.56978C7.70728 0.59082 7.81978 0.70332 7.81978 0.84082C7.8229 0.97832 7.7104 1.09082 7.5729 1.09082Z" fill="url(#paint51_linear_558_1107)"/>
<path d="M7.5729 1.09082H2.58228C2.44478 1.09082 2.33228 0.97832 2.33228 0.84082C2.33228 0.70332 2.44478 0.59082 2.58228 0.59082H7.56978C7.70728 0.59082 7.81978 0.70332 7.81978 0.84082C7.8229 0.97832 7.7104 1.09082 7.5729 1.09082Z" fill="url(#paint52_radial_558_1107)"/>
<path d="M7.5729 1.09082H2.58228C2.44478 1.09082 2.33228 0.97832 2.33228 0.84082C2.33228 0.70332 2.44478 0.59082 2.58228 0.59082H7.56978C7.70728 0.59082 7.81978 0.70332 7.81978 0.84082C7.8229 0.97832 7.7104 1.09082 7.5729 1.09082Z" fill="url(#paint53_radial_558_1107)"/>
<path d="M7.56945 3.60303C7.48808 3.64742 7.43286 3.73375 7.43286 3.83298C7.43286 3.97754 7.55005 4.09473 7.69462 4.09473C7.83918 4.09473 7.95638 3.97754 7.95638 3.83298C7.95638 3.73375 7.90116 3.64742 7.81978 3.60303H7.56945Z" fill="url(#paint54_radial_558_1107)"/>
<path d="M7.56945 3.60303C7.48808 3.64742 7.43286 3.73375 7.43286 3.83298C7.43286 3.97754 7.55005 4.09473 7.69462 4.09473C7.83918 4.09473 7.95638 3.97754 7.95638 3.83298C7.95638 3.73375 7.90116 3.64742 7.81978 3.60303H7.56945Z" fill="url(#paint55_radial_558_1107)"/>
<g filter="url(#filter17_f_558_1107)">
<path d="M7.72681 1.12317V3.55053" stroke="url(#paint56_linear_558_1107)" stroke-width="0.15"/>
</g>
<path d="M7.42797 4.21586L7.2666 4.9154C7.2461 5.00426 7.3143 5.08883 7.40549 5.08762H7.98771C8.07815 5.08643 8.14396 5.0014 8.12244 4.91355L7.95292 4.2138C7.9358 4.14389 7.87314 4.09473 7.80116 4.09473H7.58022C7.50745 4.09473 7.44432 4.14495 7.42797 4.21586Z" fill="url(#paint57_linear_558_1107)"/>
<path d="M7.42797 4.21586L7.2666 4.9154C7.2461 5.00426 7.3143 5.08883 7.40549 5.08762H7.98771C8.07815 5.08643 8.14396 5.0014 8.12244 4.91355L7.95292 4.2138C7.9358 4.14389 7.87314 4.09473 7.80116 4.09473H7.58022C7.50745 4.09473 7.44432 4.14495 7.42797 4.21586Z" fill="url(#paint58_radial_558_1107)"/>
<path d="M7.42797 4.21586L7.2666 4.9154C7.2461 5.00426 7.3143 5.08883 7.40549 5.08762H7.98771C8.07815 5.08643 8.14396 5.0014 8.12244 4.91355L7.95292 4.2138C7.9358 4.14389 7.87314 4.09473 7.80116 4.09473H7.58022C7.50745 4.09473 7.44432 4.14495 7.42797 4.21586Z" fill="url(#paint59_radial_558_1107)"/>
<path d="M7.42797 4.21586L7.2666 4.9154C7.2461 5.00426 7.3143 5.08883 7.40549 5.08762H7.98771C8.07815 5.08643 8.14396 5.0014 8.12244 4.91355L7.95292 4.2138C7.9358 4.14389 7.87314 4.09473 7.80116 4.09473H7.58022C7.50745 4.09473 7.44432 4.14495 7.42797 4.21586Z" fill="url(#paint60_radial_558_1107)"/>
<path d="M2.83149 9.3377V5.6545C2.11054 6.28437 1.65479 7.21054 1.65479 8.24395V9.3377H2.83149Z" fill="url(#paint61_radial_558_1107)"/>
<path d="M2.83149 9.3377V5.6545C2.11054 6.28437 1.65479 7.21054 1.65479 8.24395V9.3377H2.83149Z" fill="url(#paint62_radial_558_1107)"/>
<path d="M2.83149 9.3377V5.6545C2.11054 6.28437 1.65479 7.21054 1.65479 8.24395V9.3377H2.83149Z" fill="url(#paint63_linear_558_1107)"/>
<path d="M7.34985 9.3377V5.6545C8.0708 6.28437 8.52655 7.21054 8.52655 8.24395V9.3377H7.34985Z" fill="url(#paint64_radial_558_1107)"/>
<path d="M7.34985 9.3377V5.6545C8.0708 6.28437 8.52655 7.21054 8.52655 8.24395V9.3377H7.34985Z" fill="url(#paint65_radial_558_1107)"/>
<g filter="url(#filter18_f_558_1107)">
<path d="M3.73682 7.39279C3.73682 7.33402 3.78518 7.28638 3.84485 7.28638C3.90451 7.28638 3.95288 7.33402 3.95288 7.39279V9.29688H3.73682V7.39279Z" fill="url(#paint66_linear_558_1107)"/>
<path d="M4.98254 7.39279C4.98254 7.33402 5.03091 7.28638 5.09058 7.28638C5.15024 7.28638 5.19861 7.33402 5.19861 7.39279V9.29688H4.98254V7.39279Z" fill="url(#paint67_linear_558_1107)"/>
<path d="M6.22827 7.39279C6.22827 7.33402 6.27664 7.28638 6.3363 7.28638C6.39597 7.28638 6.44434 7.33402 6.44434 7.39279V9.29688H6.22827V7.39279Z" fill="url(#paint68_linear_558_1107)"/>
</g>
<defs>
<filter id="filter0_ii_558_1107" x="3.48706" y="1.39409" width="3.70728" height="4.07288" filterUnits="userSpaceOnUse" color-interpolation-filters="sRGB">
<feFlood flood-opacity="0" result="BackgroundImageFix"/>
<feBlend mode="normal" in="SourceGraphic" in2="BackgroundImageFix" result="shape"/>
<feColorMatrix in="SourceAlpha" type="matrix" values="0 0 0 0 0 0 0 0 0 0 0 0 0 0 0 0 0 0 127 0" result="hardAlpha"/>
<feOffset dx="0.5"/>
<feGaussianBlur stdDeviation="0.5"/>
<feComposite in2="hardAlpha" operator="arithmetic" k2="-1" k3="1"/>
<feColorMatrix type="matrix" values="0 0 0 0 0.823529 0 0 0 0 0.623529 0 0 0 0 0.313726 0 0 0 1 0"/>
<feBlend mode="normal" in2="shape" result="effect1_innerShadow_558_1107"/>
<feColorMatrix in="SourceAlpha" type="matrix" values="0 0 0 0 0 0 0 0 0 0 0 0 0 0 0 0 0 0 127 0" result="hardAlpha"/>
<feOffset dy="0.2"/>
<feGaussianBlur stdDeviation="0.375"/>
<feComposite in2="hardAlpha" operator="arithmetic" k2="-1" k3="1"/>
<feColorMatrix type="matrix" values="0 0 0 0 0.980392 0 0 0 0 0.54902 0 0 0 0 0.0941176 0 0 0 1 0"/>
<feBlend mode="normal" in2="effect1_innerShadow_558_1107" result="effect2_innerShadow_558_1107"/>
</filter>
<filter id="filter1_f_558_1107" x="3.71631" y="2.07185" width="2.58887" height="2.90976" filterUnits="userSpaceOnUse" color-interpolation-filters="sRGB">
<feFlood flood-opacity="0" result="BackgroundImageFix"/>
<feBlend mode="normal" in="SourceGraphic" in2="BackgroundImageFix" result="shape"/>
<feGaussianBlur stdDeviation="0.5" result="effect1_foregroundBlur_558_1107"/>
</filter>
<filter id="filter2_f_558_1107" x="4.68125" y="2.91041" width="0.788867" height="1.10976" filterUnits="userSpaceOnUse" color-interpolation-filters="sRGB">
<feFlood flood-opacity="0" result="BackgroundImageFix"/>
<feBlend mode="normal" in="SourceGraphic" in2="BackgroundImageFix" result="shape"/>
<feGaussianBlur stdDeviation="0.05" result="effect1_foregroundBlur_558_1107"/>
</filter>
<filter id="filter3_f_558_1107" x="4.3209" y="3.88073" width="1.51006" height="0.836734" filterUnits="userSpaceOnUse" color-interpolation-filters="sRGB">
<feFlood flood-opacity="0" result="BackgroundImageFix"/>
<feBlend mode="normal" in="SourceGraphic" in2="BackgroundImageFix" result="shape"/>
<feGaussianBlur stdDeviation="0.05" result="effect1_foregroundBlur_558_1107"/>
</filter>
<filter id="filter4_ii_558_1107" x="3.05615" y="0.10791" width="4.03955" height="2.91171" filterUnits="userSpaceOnUse" color-interpolation-filters="sRGB">
<feFlood flood-opacity="0" result="BackgroundImageFix"/>
<feBlend mode="normal" in="SourceGraphic" in2="BackgroundImageFix" result="shape"/>
<feColorMatrix in="SourceAlpha" type="matrix" values="0 0 0 0 0 0 0 0 0 0 0 0 0 0 0 0 0 0 127 0" result="hardAlpha"/>
<feOffset dy="-0.5"/>
<feGaussianBlur stdDeviation="0.625"/>
<feComposite in2="hardAlpha" operator="arithmetic" k2="-1" k3="1"/>
<feColorMatrix type="matrix" values="0 0 0 0 0.945098 0 0 0 0 0.509804 0 0 0 0 0.0627451 0 0 0 1 0"/>
<feBlend mode="normal" in2="shape" result="effect1_innerShadow_558_1107"/>
<feColorMatrix in="SourceAlpha" type="matrix" values="0 0 0 0 0 0 0 0 0 0 0 0 0 0 0 0 0 0 127 0" result="hardAlpha"/>
<feOffset dy="-0.2"/>
<feGaussianBlur stdDeviation="0.2"/>
<feComposite in2="hardAlpha" operator="arithmetic" k2="-1" k3="1"/>
<feColorMatrix type="matrix" values="0 0 0 0 0.862745 0 0 0 0 0.486275 0 0 0 0 0.0470588 0 0 0 1 0"/>
<feBlend mode="normal" in2="effect1_innerShadow_558_1107" result="effect2_innerShadow_558_1107"/>
</filter>
<filter id="filter5_i_558_1107" x="5.57471" y="2.03732" width="0.802393" height="0.510699" filterUnits="userSpaceOnUse" color-interpolation-filters="sRGB">
<feFlood flood-opacity="0" result="BackgroundImageFix"/>
<feBlend mode="normal" in="SourceGraphic" in2="BackgroundImageFix" result="shape"/>
<feColorMatrix in="SourceAlpha" type="matrix" values="0 0 0 0 0 0 0 0 0 0 0 0 0 0 0 0 0 0 127 0" result="hardAlpha"/>
<feOffset dx="0.1" dy="-0.2"/>
<feGaussianBlur stdDeviation="0.125"/>
<feComposite in2="hardAlpha" operator="arithmetic" k2="-1" k3="1"/>
<feColorMatrix type="matrix" values="0 0 0 0 0.603922 0 0 0 0 0.243137 0 0 0 0 0.152941 0 0 0 1 0"/>
<feBlend mode="normal" in2="shape" result="effect1_innerShadow_558_1107"/>
</filter>
<filter id="filter6_i_558_1107" x="3.92505" y="2.04196" width="0.802393" height="0.506076" filterUnits="userSpaceOnUse" color-interpolation-filters="sRGB">
<feFlood flood-opacity="0" result="BackgroundImageFix"/>
<feBlend mode="normal" in="SourceGraphic" in2="BackgroundImageFix" result="shape"/>
<feColorMatrix in="SourceAlpha" type="matrix" values="0 0 0 0 0 0 0 0 0 0 0 0 0 0 0 0 0 0 127 0" result="hardAlpha"/>
<feOffset dx="0.1" dy="-0.2"/>
<feGaussianBlur stdDeviation="0.125"/>
<feComposite in2="hardAlpha" operator="arithmetic" k2="-1" k3="1"/>
<feColorMatrix type="matrix" values="0 0 0 0 0.603922 0 0 0 0 0.243137 0 0 0 0 0.152941 0 0 0 1 0"/>
<feBlend mode="normal" in2="shape" result="effect1_innerShadow_558_1107"/>
</filter>
<filter id="filter7_f_558_1107" x="2.99609" y="0.567444" width="2.40918" height="2.22336" filterUnits="userSpaceOnUse" color-interpolation-filters="sRGB">
<feFlood flood-opacity="0" result="BackgroundImageFix"/>
<feBlend mode="normal" in="SourceGraphic" in2="BackgroundImageFix" result="shape"/>
<feGaussianBlur stdDeviation="0.125" result="effect1_foregroundBlur_558_1107"/>
</filter>
<filter id="filter8_f_558_1107" x="4.854" y="0.733109" width="2.3396" height="2.1434" filterUnits="userSpaceOnUse" color-interpolation-filters="sRGB">
<feFlood flood-opacity="0" result="BackgroundImageFix"/>
<feBlend mode="normal" in="SourceGraphic" in2="BackgroundImageFix" result="shape"/>
<feGaussianBlur stdDeviation="0.125" result="effect1_foregroundBlur_558_1107"/>
</filter>
<filter id="filter9_f_558_1107" x="5.46152" y="2.83651" width="0.383838" height="0.355518" filterUnits="userSpaceOnUse" color-interpolation-filters="sRGB">
<feFlood flood-opacity="0" result="BackgroundImageFix"/>
<feBlend mode="normal" in="SourceGraphic" in2="BackgroundImageFix" result="shape"/>
<feGaussianBlur stdDeviation="0.05" result="effect1_foregroundBlur_558_1107"/>
</filter>
<filter id="filter10_f_558_1107" x="5.65645" y="2.79129" width="0.553809" height="0.560706" filterUnits="userSpaceOnUse" color-interpolation-filters="sRGB">
<feFlood flood-opacity="0" result="BackgroundImageFix"/>
<feBlend mode="normal" in="SourceGraphic" in2="BackgroundImageFix" result="shape"/>
<feGaussianBlur stdDeviation="0.1" result="effect1_foregroundBlur_558_1107"/>
</filter>
<filter id="filter11_f_558_1107" x="4.2624" y="2.77139" width="0.583594" height="0.600394" filterUnits="userSpaceOnUse" color-interpolation-filters="sRGB">
<feFlood flood-opacity="0" result="BackgroundImageFix"/>
<feBlend mode="normal" in="SourceGraphic" in2="BackgroundImageFix" result="shape"/>
<feGaussianBlur stdDeviation="0.1" result="effect1_foregroundBlur_558_1107"/>
</filter>
<filter id="filter12_f_558_1107" x="4.09409" y="2.83393" width="0.423389" height="0.358081" filterUnits="userSpaceOnUse" color-interpolation-filters="sRGB">
<feFlood flood-opacity="0" result="BackgroundImageFix"/>
<feBlend mode="normal" in="SourceGraphic" in2="BackgroundImageFix" result="shape"/>
<feGaussianBlur stdDeviation="0.05" result="effect1_foregroundBlur_558_1107"/>
</filter>
<filter id="filter13_f_558_1107" x="3.01123" y="2.70462" width="0.76001" height="1.08955" filterUnits="userSpaceOnUse" color-interpolation-filters="sRGB">
<feFlood flood-opacity="0" result="BackgroundImageFix"/>
<feBlend mode="normal" in="SourceGraphic" in2="BackgroundImageFix" result="shape"/>
<feGaussianBlur stdDeviation="0.125" result="effect1_foregroundBlur_558_1107"/>
</filter>
<filter id="filter14_f_558_1107" x="6.38306" y="2.69971" width="0.796875" height="1.09709" filterUnits="userSpaceOnUse" color-interpolation-filters="sRGB">
<feFlood flood-opacity="0" result="BackgroundImageFix"/>
<feBlend mode="normal" in="SourceGraphic" in2="BackgroundImageFix" result="shape"/>
<feGaussianBlur stdDeviation="0.125" result="effect1_foregroundBlur_558_1107"/>
</filter>
<filter id="filter15_f_558_1107" x="3.64233" y="1.94528" width="1.26929" height="0.878723" filterUnits="userSpaceOnUse" color-interpolation-filters="sRGB">
<feFlood flood-opacity="0" result="BackgroundImageFix"/>
<feBlend mode="normal" in="SourceGraphic" in2="BackgroundImageFix" result="shape"/>
<feGaussianBlur stdDeviation="0.125" result="effect1_foregroundBlur_558_1107"/>
</filter>
<filter id="filter16_f_558_1107" x="5.29932" y="1.931" width="1.26929" height="0.878723" filterUnits="userSpaceOnUse" color-interpolation-filters="sRGB">
<feFlood flood-opacity="0" result="BackgroundImageFix"/>
<feBlend mode="normal" in="SourceGraphic" in2="BackgroundImageFix" result="shape"/>
<feGaussianBlur stdDeviation="0.125" result="effect1_foregroundBlur_558_1107"/>
</filter>
<filter id="filter17_f_558_1107" x="7.40186" y="0.873169" width="0.649902" height="2.92735" filterUnits="userSpaceOnUse" color-interpolation-filters="sRGB">
<feFlood flood-opacity="0" result="BackgroundImageFix"/>
<feBlend mode="normal" in="SourceGraphic" in2="BackgroundImageFix" result="shape"/>
<feGaussianBlur stdDeviation="0.125" result="effect1_foregroundBlur_558_1107"/>
</filter>
<filter id="filter18_f_558_1107" x="3.58682" y="7.13638" width="3.00752" height="2.3105" filterUnits="userSpaceOnUse" color-interpolation-filters="sRGB">
<feFlood flood-opacity="0" result="BackgroundImageFix"/>
<feBlend mode="normal" in="SourceGraphic" in2="BackgroundImageFix" result="shape"/>
<feGaussianBlur stdDeviation="0.075" result="effect1_foregroundBlur_558_1107"/>
</filter>
<radialGradient id="paint0_radial_558_1107" cx="0" cy="0" r="1" gradientUnits="userSpaceOnUse" gradientTransform="translate(7.3725 7.1875) rotate(90) scale(3.39844 1.14258)">
<stop stop-color="#70647F"/>
<stop offset="1" stop-color="#70647F" stop-opacity="0"/>
</radialGradient>
<radialGradient id="paint1_radial_558_1107" cx="0" cy="0" r="1" gradientUnits="userSpaceOnUse" gradientTransform="translate(2.81195 6.66992) scale(0.410156 2.20703)">
<stop stop-color="#5D516A"/>
<stop offset="1" stop-color="#5D516A" stop-opacity="0"/>
</radialGradient>
<radialGradient id="paint2_radial_558_1107" cx="0" cy="0" r="1" gradientUnits="userSpaceOnUse" gradientTransform="translate(5.09311 6.63574) rotate(-90) scale(1.47461 4.26646)">
<stop stop-color="#47404D"/>
<stop offset="1" stop-color="#3B2D3A"/>
</radialGradient>
<radialGradient id="paint3_radial_558_1107" cx="0" cy="0" r="1" gradientUnits="userSpaceOnUse" gradientTransform="translate(5.09067 5.24414) rotate(90) scale(1.85547 2.35689)">
<stop offset="0.931579" stop-color="#342542" stop-opacity="0"/>
<stop offset="0.994737" stop-color="#342542"/>
</radialGradient>
<radialGradient id="paint4_radial_558_1107" cx="0" cy="0" r="1" gradientUnits="userSpaceOnUse" gradientTransform="translate(4.96034 4.82422) rotate(145.631) scale(2.22722 3.07061)">
<stop offset="0.9281" stop-color="#6A656F" stop-opacity="0"/>
<stop offset="1" stop-color="#6A656F"/>
</radialGradient>
<radialGradient id="paint5_radial_558_1107" cx="0" cy="0" r="1" gradientUnits="userSpaceOnUse" gradientTransform="translate(4.88221 4.75098) rotate(34.2663) scale(2.5583 3.52707)">
<stop offset="0.933129" stop-color="#6A656F" stop-opacity="0"/>
<stop offset="1" stop-color="#615B67"/>
</radialGradient>
<radialGradient id="paint6_radial_558_1107" cx="0" cy="0" r="1" gradientUnits="userSpaceOnUse" gradientTransform="translate(5.09067 7.34375) rotate(-90) scale(3.14453 3.32668)">
<stop offset="0.506211" stop-color="#57525D" stop-opacity="0"/>
<stop offset="1" stop-color="#57525D"/>
</radialGradient>
<radialGradient id="paint7_radial_558_1107" cx="0" cy="0" r="1" gradientUnits="userSpaceOnUse" gradientTransform="translate(5.09067 4.75098) rotate(90) scale(1.20605 1.57564)">
<stop offset="0.316364" stop-color="#361E27"/>
<stop offset="1" stop-color="#361E27" stop-opacity="0"/>
</radialGradient>
<radialGradient id="paint8_radial_558_1107" cx="0" cy="0" r="1" gradientUnits="userSpaceOnUse" gradientTransform="translate(6.81693 3.62567) rotate(103.169) scale(1.20116 1.42689)">
<stop offset="0.0431525" stop-color="#FFC135"/>
<stop offset="1" stop-color="#E26839"/>
</radialGradient>
<radialGradient id="paint9_radial_558_1107" cx="0" cy="0" r="1" gradientUnits="userSpaceOnUse" gradientTransform="translate(6.58294 3.7098) rotate(53.9017) scale(0.156179 0.132677)">
<stop stop-color="#E18C2A"/>
<stop offset="1" stop-color="#E18C2A" stop-opacity="0"/>
</radialGradient>
<radialGradient id="paint10_radial_558_1107" cx="0" cy="0" r="1" gradientUnits="userSpaceOnUse" gradientTransform="translate(3.33496 3.66271) rotate(71.2338) scale(1.29991 0.590867)">
<stop stop-color="#D57A26"/>
<stop offset="1" stop-color="#D06A3C"/>
</radialGradient>
<radialGradient id="paint11_radial_558_1107" cx="0" cy="0" r="1" gradientUnits="userSpaceOnUse" gradientTransform="translate(3.54265 3.66008) rotate(72.2903) scale(0.32842 0.288093)">
<stop offset="0.263377" stop-color="#BE691E"/>
<stop offset="0.977292" stop-color="#BE691E" stop-opacity="0"/>
</radialGradient>
<radialGradient id="paint12_radial_558_1107" cx="0" cy="0" r="1" gradientUnits="userSpaceOnUse" gradientTransform="translate(5.52672 5.70801) rotate(-135.444) scale(0.445408 0.941493)">
<stop stop-color="#D89D21"/>
<stop offset="1" stop-color="#CF7B39"/>
</radialGradient>
<radialGradient id="paint13_radial_558_1107" cx="0" cy="0" r="1" gradientUnits="userSpaceOnUse" gradientTransform="translate(5.95699 3.33052) rotate(180) scale(1.64052 2.90207)">
<stop stop-color="#FFE846"/>
<stop offset="1" stop-color="#F5A129"/>
</radialGradient>
<radialGradient id="paint14_radial_558_1107" cx="0" cy="0" r="1" gradientUnits="userSpaceOnUse" gradientTransform="translate(5.24354 2.53907) rotate(94.7148) scale(2.85145 3.26816)">
<stop offset="0.623188" stop-color="#FBA036" stop-opacity="0"/>
<stop offset="0.979213" stop-color="#C56B42"/>
</radialGradient>
<radialGradient id="paint15_radial_558_1107" cx="0" cy="0" r="1" gradientUnits="userSpaceOnUse" gradientTransform="translate(6.69427 3.25783) rotate(93.7745) scale(1.91897 0.705494)">
<stop offset="0.389903" stop-color="#FFD930"/>
<stop offset="1" stop-color="#FFD930" stop-opacity="0"/>
</radialGradient>
<radialGradient id="paint16_radial_558_1107" cx="0" cy="0" r="1" gradientUnits="userSpaceOnUse" gradientTransform="translate(4.41962 2.9601) rotate(-90) scale(0.443675 0.534162)">
<stop offset="0.276316" stop-color="#F59632"/>
<stop offset="1" stop-color="#F59632" stop-opacity="0"/>
</radialGradient>
<radialGradient id="paint17_radial_558_1107" cx="0" cy="0" r="1" gradientUnits="userSpaceOnUse" gradientTransform="translate(5.85685 2.83094) rotate(-90) scale(0.481765 0.624864)">
<stop offset="0.178218" stop-color="#FFBE3A"/>
<stop offset="1" stop-color="#FFBE3A" stop-opacity="0"/>
</radialGradient>
<radialGradient id="paint18_radial_558_1107" cx="0" cy="0" r="1" gradientUnits="userSpaceOnUse" gradientTransform="translate(4.88286 1.39409) rotate(90) scale(0.775743 1.98329)">
<stop offset="0.633626" stop-color="#E28222"/>
<stop offset="1" stop-color="#E28222" stop-opacity="0"/>
</radialGradient>
<linearGradient id="paint19_linear_558_1107" x1="5.0757" y1="3.59038" x2="5.34387" y2="3.59038" gradientUnits="userSpaceOnUse">
<stop stop-color="#FFC92F"/>
<stop offset="1" stop-color="#FFEA47"/>
</linearGradient>
<linearGradient id="paint20_linear_558_1107" x1="4.73919" y1="3.54158" x2="5.07613" y2="3.56018" gradientUnits="userSpaceOnUse">
<stop stop-color="#F49F22"/>
<stop offset="1" stop-color="#E88830" stop-opacity="0"/>
<stop offset="1" stop-color="#F49F22" stop-opacity="0"/>
</linearGradient>
<linearGradient id="paint21_linear_558_1107" x1="5.0757" y1="3.71547" x2="5.0757" y2="3.98271" gradientUnits="userSpaceOnUse">
<stop stop-color="#E88830" stop-opacity="0"/>
<stop offset="0.844655" stop-color="#E88830"/>
</linearGradient>
<linearGradient id="paint22_linear_558_1107" x1="5.0757" y1="3.01041" x2="5.0757" y2="3.14197" gradientUnits="userSpaceOnUse">
<stop stop-color="#FAC137"/>
<stop offset="1" stop-color="#FAC137" stop-opacity="0"/>
</linearGradient>
<radialGradient id="paint23_radial_558_1107" cx="0" cy="0" r="1" gradientUnits="userSpaceOnUse" gradientTransform="translate(4.72239 4.36263) rotate(-60.732) scale(0.222831 0.648445)">
<stop stop-color="#FFB534"/>
<stop offset="1" stop-color="#FFB534" stop-opacity="0"/>
</radialGradient>
<radialGradient id="paint24_radial_558_1107" cx="0" cy="0" r="1" gradientUnits="userSpaceOnUse" gradientTransform="translate(5.07598 4.44117) rotate(-90) scale(0.22617 0.90994)">
<stop stop-color="#89014E"/>
<stop offset="1" stop-color="#87004D"/>
</radialGradient>
<linearGradient id="paint25_linear_558_1107" x1="6.75903" y1="1.55355" x2="3.58213" y2="1.55355" gradientUnits="userSpaceOnUse">
<stop stop-color="#FFE235"/>
<stop offset="1" stop-color="#D29935"/>
</linearGradient>
<radialGradient id="paint26_radial_558_1107" cx="0" cy="0" r="1" gradientUnits="userSpaceOnUse" gradientTransform="translate(3.43486 2.83408) rotate(-90) scale(1.79464 3.17974)">
<stop offset="0.314517" stop-color="#C98537"/>
<stop offset="1" stop-color="#C98537" stop-opacity="0"/>
</radialGradient>
<radialGradient id="paint27_radial_558_1107" cx="0" cy="0" r="1" gradientUnits="userSpaceOnUse" gradientTransform="translate(6.60124 2.83408) rotate(-90) scale(1.13994 2.01975)">
<stop stop-color="#FFB52A"/>
<stop offset="1" stop-color="#FFB52A" stop-opacity="0"/>
</radialGradient>
<radialGradient id="paint28_radial_558_1107" cx="0" cy="0" r="1" gradientUnits="userSpaceOnUse" gradientTransform="translate(6.36455 0.864526) rotate(-160.666) scale(1.36566 0.727304)">
<stop offset="0.347073" stop-color="#FFE639"/>
<stop offset="1" stop-color="#FFE639" stop-opacity="0"/>
</radialGradient>
<radialGradient id="paint29_radial_558_1107" cx="0" cy="0" r="1" gradientUnits="userSpaceOnUse" gradientTransform="translate(4.79188 0.364848) rotate(58.4652) scale(0.543057 1.25746)">
<stop offset="0.286771" stop-color="#F3C130"/>
<stop offset="1" stop-color="#F3C130" stop-opacity="0"/>
</radialGradient>
<radialGradient id="paint30_radial_558_1107" cx="0" cy="0" r="1" gradientUnits="userSpaceOnUse" gradientTransform="translate(5.15539 0.817444) rotate(160.16) scale(1.27001 0.353474)">
<stop stop-color="#FFDD30"/>
<stop offset="1" stop-color="#FFDC2B" stop-opacity="0"/>
</radialGradient>
<radialGradient id="paint31_radial_558_1107" cx="0" cy="0" r="1" gradientUnits="userSpaceOnUse" gradientTransform="translate(3.37167 2.31096) rotate(-57.7244) scale(1.89118 2.09523)">
<stop offset="0.0926981" stop-color="#D67227"/>
<stop offset="0.233498" stop-color="#EF8A23"/>
<stop offset="1" stop-color="#EF8A23" stop-opacity="0"/>
</radialGradient>
<radialGradient id="paint32_radial_558_1107" cx="0" cy="0" r="1" gradientUnits="userSpaceOnUse" gradientTransform="translate(6.21199 1.18156) rotate(13.3074) scale(1.09179 0.610604)">
<stop stop-color="#FFEB3B"/>
<stop offset="1" stop-color="#FFEB3B" stop-opacity="0"/>
</radialGradient>
<radialGradient id="paint33_radial_558_1107" cx="0" cy="0" r="1" gradientUnits="userSpaceOnUse" gradientTransform="translate(6.68536 2.62651) rotate(-120.119) scale(1.34365 0.749344)">
<stop stop-color="#EB8F29"/>
<stop offset="1" stop-color="#EB8F29" stop-opacity="0"/>
</radialGradient>
<radialGradient id="paint34_radial_558_1107" cx="0" cy="0" r="1" gradientUnits="userSpaceOnUse" gradientTransform="translate(6.49075 2.53232) rotate(-120.695) scale(0.803688 0.575647)">
<stop offset="0.394122" stop-color="#E48421"/>
<stop offset="1" stop-color="#E48421" stop-opacity="0"/>
</radialGradient>
<radialGradient id="paint35_radial_558_1107" cx="0" cy="0" r="1" gradientUnits="userSpaceOnUse" gradientTransform="translate(6.58017 1.14491) rotate(166.509) scale(1.54849 1.67398)">
<stop offset="0.734853" stop-color="#F29415" stop-opacity="0"/>
<stop offset="1" stop-color="#F29415"/>
</radialGradient>
<radialGradient id="paint36_radial_558_1107" cx="0" cy="0" r="1" gradientUnits="userSpaceOnUse" gradientTransform="translate(6.15939 1.10564) rotate(107.002) scale(0.125919 0.575687)">
<stop offset="0.461072" stop-color="#FFCE3C"/>
<stop offset="1" stop-color="#FFCE3C" stop-opacity="0"/>
</radialGradient>
<radialGradient id="paint37_radial_558_1107" cx="0" cy="0" r="1" gradientUnits="userSpaceOnUse" gradientTransform="translate(5.76058 3.04295) rotate(90) scale(0.254514 0.404833)">
<stop offset="0.80198" stop-color="#925C51"/>
<stop offset="1" stop-color="#694B43"/>
<stop offset="1" stop-color="#804D49"/>
<stop offset="1" stop-color="#85534D"/>
</radialGradient>
<radialGradient id="paint38_radial_558_1107" cx="0" cy="0" r="1" gradientUnits="userSpaceOnUse" gradientTransform="translate(5.6888 3.06936) rotate(-127.812) scale(0.118531 0.163188)">
<stop offset="0.765532" stop-color="#FFE6E2" stop-opacity="0"/>
<stop offset="0.966159" stop-color="#FFE6E2"/>
</radialGradient>
<linearGradient id="paint39_linear_558_1107" x1="6.00425" y1="3.05973" x2="5.90605" y2="3.12025" gradientUnits="userSpaceOnUse">
<stop stop-color="#B4948D"/>
<stop offset="1" stop-color="#B4948D" stop-opacity="0"/>
</linearGradient>
<radialGradient id="paint40_radial_558_1107" cx="0" cy="0" r="1" gradientUnits="userSpaceOnUse" gradientTransform="translate(4.39097 3.04295) rotate(90) scale(0.254527 0.404854)">
<stop offset="0.80198" stop-color="#925C51"/>
<stop offset="1" stop-color="#694B43"/>
<stop offset="1" stop-color="#804D49"/>
<stop offset="1" stop-color="#85534D"/>
</radialGradient>
<linearGradient id="paint41_linear_558_1107" x1="4.62418" y1="3.05968" x2="4.52597" y2="3.1202" gradientUnits="userSpaceOnUse">
<stop stop-color="#B4948D"/>
<stop offset="1" stop-color="#B4948D" stop-opacity="0"/>
</linearGradient>
<radialGradient id="paint42_radial_558_1107" cx="0" cy="0" r="1" gradientUnits="userSpaceOnUse" gradientTransform="translate(4.34788 3.10238) rotate(-118.811) scale(0.154833 0.186115)">
<stop offset="0.765532" stop-color="#FFE6E2" stop-opacity="0"/>
<stop offset="0.966159" stop-color="#FFE6E2"/>
</radialGradient>
<linearGradient id="paint43_linear_558_1107" x1="7.09584" y1="3.06842" x2="6.71714" y2="3.75133" gradientUnits="userSpaceOnUse">
<stop stop-color="#FFE343"/>
<stop offset="1" stop-color="#FFC136"/>
</linearGradient>
<radialGradient id="paint44_radial_558_1107" cx="0" cy="0" r="1" gradientUnits="userSpaceOnUse" gradientTransform="translate(6.52515 3.04738) rotate(74.3475) scale(0.73106 0.697488)">
<stop offset="0.856273" stop-color="#E1943D" stop-opacity="0"/>
<stop offset="1" stop-color="#E08F2E"/>
</radialGradient>
<radialGradient id="paint45_radial_558_1107" cx="0" cy="0" r="1" gradientUnits="userSpaceOnUse" gradientTransform="translate(6.63824 3.21833) rotate(-53.9198) scale(0.41977 0.35185)">
<stop offset="0.663731" stop-color="#FFBD22"/>
<stop offset="1" stop-color="#FFBD22" stop-opacity="0"/>
</radialGradient>
<linearGradient id="paint46_linear_558_1107" x1="3.24024" y1="3.28939" x2="3.69784" y2="3.24942" gradientUnits="userSpaceOnUse">
<stop stop-color="#E39726"/>
<stop offset="1" stop-color="#D9851D"/>
</linearGradient>
<radialGradient id="paint47_radial_558_1107" cx="0" cy="0" r="1" gradientUnits="userSpaceOnUse" gradientTransform="translate(3.42434 3.10004) rotate(101.248) scale(0.664223 0.652992)">
<stop offset="0.77507" stop-color="#C77937" stop-opacity="0"/>
<stop offset="1" stop-color="#C77937"/>
</radialGradient>
<linearGradient id="paint48_linear_558_1107" x1="7.49391" y1="2.75852" x2="7.86455" y2="2.75852" gradientUnits="userSpaceOnUse">
<stop stop-color="#33203C"/>
<stop offset="1" stop-color="#61546D"/>
</linearGradient>
<radialGradient id="paint49_radial_558_1107" cx="0" cy="0" r="1" gradientUnits="userSpaceOnUse" gradientTransform="translate(7.77045 3.61046) rotate(-90) scale(0.729604 0.0563482)">
<stop stop-color="#70635D"/>
<stop offset="1" stop-color="#70635D" stop-opacity="0"/>
</radialGradient>
<radialGradient id="paint50_radial_558_1107" cx="0" cy="0" r="1" gradientUnits="userSpaceOnUse" gradientTransform="translate(5.95648 1.88007) rotate(-102.428) scale(1.22518 6.53637)">
<stop stop-color="#534D5B"/>
<stop offset="1" stop-color="#2B2135"/>
</radialGradient>
<linearGradient id="paint51_linear_558_1107" x1="5.644" y1="1.20117" x2="5.24361" y2="-0.166016" gradientUnits="userSpaceOnUse">
<stop stop-color="#3D294B"/>
<stop offset="1" stop-color="#433A4D"/>
</linearGradient>
<radialGradient id="paint52_radial_558_1107" cx="0" cy="0" r="1" gradientUnits="userSpaceOnUse" gradientTransform="translate(6.88424 0.712891) rotate(90) scale(0.292969 3.96484)">
<stop stop-color="#696070"/>
<stop offset="0.866667" stop-color="#696070" stop-opacity="0"/>
</radialGradient>
<radialGradient id="paint53_radial_558_1107" cx="0" cy="0" r="1" gradientUnits="userSpaceOnUse" gradientTransform="translate(2.2065 0.908203) scale(2.42188 0.273437)">
<stop stop-color="#75707B"/>
<stop offset="0.935484" stop-color="#75707B" stop-opacity="0"/>
</radialGradient>
<radialGradient id="paint54_radial_558_1107" cx="0" cy="0" r="1" gradientUnits="userSpaceOnUse" gradientTransform="translate(7.85094 3.72653) rotate(126.437) scale(0.427542 0.383176)">
<stop stop-color="#686071"/>
<stop offset="0.661286" stop-color="#402A4C"/>
</radialGradient>
<radialGradient id="paint55_radial_558_1107" cx="0" cy="0" r="1" gradientUnits="userSpaceOnUse" gradientTransform="translate(7.43286 3.84888) rotate(-6.43681) scale(0.25044 0.293741)">
<stop offset="0.0866887" stop-color="#685352"/>
<stop offset="1" stop-color="#685352" stop-opacity="0"/>
</radialGradient>
<linearGradient id="paint56_linear_558_1107" x1="8.22681" y1="1.12317" x2="8.22681" y2="3.55053" gradientUnits="userSpaceOnUse">
<stop stop-color="#60546C"/>
<stop offset="1" stop-color="#504B55"/>
</linearGradient>
<linearGradient id="paint57_linear_558_1107" x1="8.05452" y1="4.59118" x2="7.32979" y2="4.59118" gradientUnits="userSpaceOnUse">
<stop stop-color="#F9B72A"/>
<stop offset="0.89726" stop-color="#FAAC28"/>
</linearGradient>
<radialGradient id="paint58_radial_558_1107" cx="0" cy="0" r="1" gradientUnits="userSpaceOnUse" gradientTransform="translate(8.08927 4.55324) rotate(169.33) scale(0.348537 1.73875)">
<stop offset="0.285799" stop-color="#FFD93A"/>
<stop offset="1" stop-color="#FFD93A" stop-opacity="0"/>
</radialGradient>
<radialGradient id="paint59_radial_558_1107" cx="0" cy="0" r="1" gradientUnits="userSpaceOnUse" gradientTransform="translate(7.69474 5.24414) rotate(-90) scale(0.410156 0.903261)">
<stop offset="0.421677" stop-color="#A16739"/>
<stop offset="1" stop-color="#DB9820" stop-opacity="0"/>
</radialGradient>
<radialGradient id="paint60_radial_558_1107" cx="0" cy="0" r="1" gradientUnits="userSpaceOnUse" gradientTransform="translate(7.69474 4.06006) rotate(90) scale(0.124512 0.431802)">
<stop offset="0.16129" stop-color="#845D03"/>
<stop offset="1" stop-color="#EBA429" stop-opacity="0"/>
</radialGradient>
<radialGradient id="paint61_radial_558_1107" cx="0" cy="0" r="1" gradientUnits="userSpaceOnUse" gradientTransform="translate(1.65479 9.3377) rotate(-90) scale(5.11668 1.36395)">
<stop stop-color="#766C83"/>
<stop offset="0.441285" stop-color="#58496A"/>
<stop offset="1" stop-color="#4D4159"/>
</radialGradient>
<radialGradient id="paint62_radial_558_1107" cx="0" cy="0" r="1" gradientUnits="userSpaceOnUse" gradientTransform="translate(2.83149 9.3377) rotate(-90) scale(3.28755 0.257539)">
<stop offset="0.285977" stop-color="#4F445B"/>
<stop offset="1" stop-color="#4F445B" stop-opacity="0"/>
</radialGradient>
<linearGradient id="paint63_linear_558_1107" x1="2.87654" y1="8.73421" x2="2.74362" y2="8.73421" gradientUnits="userSpaceOnUse">
<stop offset="0.444444" stop-color="#433850"/>
<stop offset="1" stop-color="#433850" stop-opacity="0"/>
</linearGradient>
<radialGradient id="paint64_radial_558_1107" cx="0" cy="0" r="1" gradientUnits="userSpaceOnUse" gradientTransform="translate(7.93826 9.3377) rotate(-100.465) scale(3.23923 0.909779)">
<stop stop-color="#736782"/>
<stop offset="1" stop-color="#5F5070"/>
</radialGradient>
<radialGradient id="paint65_radial_558_1107" cx="0" cy="0" r="1" gradientUnits="userSpaceOnUse" gradientTransform="translate(7.29728 7.20068) rotate(87.4134) scale(3.76428 0.219837)">
<stop offset="0.176695" stop-color="#3F2A51"/>
<stop offset="1" stop-color="#3F2A51" stop-opacity="0"/>
</radialGradient>
<linearGradient id="paint66_linear_558_1107" x1="5.09058" y1="9.29687" x2="5.09058" y2="7.28638" gradientUnits="userSpaceOnUse">
<stop stop-color="#3F3748"/>
<stop offset="1" stop-color="#3F3748" stop-opacity="0"/>
</linearGradient>
<linearGradient id="paint67_linear_558_1107" x1="5.09058" y1="9.29687" x2="5.09058" y2="7.28638" gradientUnits="userSpaceOnUse">
<stop stop-color="#3F3748"/>
<stop offset="1" stop-color="#3F3748" stop-opacity="0"/>
</linearGradient>
<linearGradient id="paint68_linear_558_1107" x1="5.09058" y1="9.29687" x2="5.09058" y2="7.28638" gradientUnits="userSpaceOnUse">
<stop stop-color="#3F3748"/>
<stop offset="1" stop-color="#3F3748" stop-opacity="0"/>
</linearGradient>
</defs>
</svg>
