<svg width="10" height="10" viewBox="0 0 10 10" fill="none" xmlns="http://www.w3.org/2000/svg">
<g clip-path="url(#clip0_558_1051)">
<g filter="url(#filter0_i_558_1051)">
<path d="M9.17935 7.7752H0.819971C0.713721 7.7752 0.626221 7.6877 0.626221 7.58145V1.40957C0.626221 1.30332 0.713721 1.21582 0.819971 1.21582H9.17622C9.2856 1.21582 9.36997 1.30332 9.36997 1.40957V7.57832C9.3731 7.6877 9.2856 7.7752 9.17935 7.7752Z" fill="url(#paint0_linear_558_1051)"/>
</g>
<path d="M0.938721 7.4627V1.52832H9.0606V7.4627H0.938721Z" fill="url(#paint1_linear_558_1051)"/>
<path d="M0.938721 7.4627V1.52832H9.0606V7.4627H0.938721Z" fill="url(#paint2_radial_558_1051)"/>
<path d="M0.938721 7.4627V1.52832H9.0606V7.4627H0.938721Z" fill="url(#paint3_radial_558_1051)"/>
<g filter="url(#filter1_f_558_1051)">
<path d="M1.00586 1.33873H9.19727C9.21452 1.33873 9.22852 1.35272 9.22852 1.36998V7.49023" stroke="url(#paint4_linear_558_1051)" stroke-width="0.3" stroke-linecap="round"/>
</g>
<g filter="url(#filter2_i_558_1051)">
<path d="M9.0606 7.4627H0.938721V1.52833L0.651221 1.31583C0.635596 1.34395 0.626221 1.37833 0.626221 1.40958V7.57833C0.626221 7.6877 0.713721 7.77208 0.819971 7.77208H9.17622C9.25122 7.77208 9.31372 7.73145 9.3481 7.66895L9.0606 7.4627Z" fill="url(#paint5_linear_558_1051)"/>
<path d="M9.0606 7.4627H0.938721V1.52833L0.651221 1.31583C0.635596 1.34395 0.626221 1.37833 0.626221 1.40958V7.57833C0.626221 7.6877 0.713721 7.77208 0.819971 7.77208H9.17622C9.25122 7.77208 9.31372 7.73145 9.3481 7.66895L9.0606 7.4627Z" fill="url(#paint6_linear_558_1051)"/>
<path d="M9.0606 7.4627H0.938721V1.52833L0.651221 1.31583C0.635596 1.34395 0.626221 1.37833 0.626221 1.40958V7.57833C0.626221 7.6877 0.713721 7.77208 0.819971 7.77208H9.17622C9.25122 7.77208 9.31372 7.73145 9.3481 7.66895L9.0606 7.4627Z" fill="url(#paint7_radial_558_1051)"/>
</g>
<path d="M5.00122 4.80957C3.10435 4.80957 1.56372 6.34707 1.56372 8.24707V9.34082C2.33743 9.34082 7.81241 9.34082 8.4356 9.34082V8.24707C8.4356 6.34707 6.8981 4.80957 5.00122 4.80957Z" fill="url(#paint8_radial_558_1051)"/>
<path d="M5.00122 4.80957C3.10435 4.80957 1.56372 6.34707 1.56372 8.24707V9.34082C2.33743 9.34082 7.81241 9.34082 8.4356 9.34082V8.24707C8.4356 6.34707 6.8981 4.80957 5.00122 4.80957Z" fill="url(#paint9_radial_558_1051)"/>
<path d="M5.00122 4.80957C3.10435 4.80957 1.56372 6.34707 1.56372 8.24707V9.34082C2.33743 9.34082 7.81241 9.34082 8.4356 9.34082V8.24707C8.4356 6.34707 6.8981 4.80957 5.00122 4.80957Z" fill="url(#paint10_radial_558_1051)"/>
<path d="M7.08569 9.34083V5.51434C7.90637 6.14221 8.4357 7.13224 8.4357 8.24708V9.34083H7.08569Z" fill="url(#paint11_radial_558_1051)"/>
<path d="M7.08569 9.34083V5.51434C7.90637 6.14221 8.4357 7.13224 8.4357 8.24708V9.34083H7.08569Z" fill="url(#paint12_linear_558_1051)"/>
<path d="M7.08569 9.34083V5.51434C7.90637 6.14221 8.4357 7.13224 8.4357 8.24708V9.34083H7.08569Z" fill="url(#paint13_linear_558_1051)"/>
<path d="M2.90445 9.34083V5.51434C2.08377 6.14221 1.55444 7.13224 1.55444 8.24708V9.34083H2.90445Z" fill="url(#paint14_linear_558_1051)"/>
<path d="M2.90445 9.34083V5.51434C2.08377 6.14221 1.55444 7.13224 1.55444 8.24708V9.34083H2.90445Z" fill="url(#paint15_radial_558_1051)"/>
<path d="M5.6418 5.22208H4.35742V9.34083H5.6418V5.22208Z" fill="url(#paint16_radial_558_1051)"/>
<g filter="url(#filter3_i_558_1051)">
<path d="M6.04497 4.98457L6.46997 5.89971C6.4981 5.95909 6.45435 6.02784 6.38872 6.02784L6.08757 5.94488C5.95574 5.91192 5.95122 6.03135 6.00122 6.08135L6.42622 6.56895C6.50747 6.6502 6.53872 6.77207 6.4981 6.88145L5.64185 9.34082V4.98457H6.04497Z" fill="url(#paint17_linear_558_1051)"/>
<path d="M6.04497 4.98457L6.46997 5.89971C6.4981 5.95909 6.45435 6.02784 6.38872 6.02784L6.08757 5.94488C5.95574 5.91192 5.95122 6.03135 6.00122 6.08135L6.42622 6.56895C6.50747 6.6502 6.53872 6.77207 6.4981 6.88145L5.64185 9.34082V4.98457H6.04497Z" fill="url(#paint18_radial_558_1051)"/>
<path d="M6.04497 4.98457L6.46997 5.89971C6.4981 5.95909 6.45435 6.02784 6.38872 6.02784L6.08757 5.94488C5.95574 5.91192 5.95122 6.03135 6.00122 6.08135L6.42622 6.56895C6.50747 6.6502 6.53872 6.77207 6.4981 6.88145L5.64185 9.34082V4.98457H6.04497Z" fill="url(#paint19_radial_558_1051)"/>
<path d="M6.04497 4.98457L6.46997 5.89971C6.4981 5.95909 6.45435 6.02784 6.38872 6.02784L6.08757 5.94488C5.95574 5.91192 5.95122 6.03135 6.00122 6.08135L6.42622 6.56895C6.50747 6.6502 6.53872 6.77207 6.4981 6.88145L5.64185 9.34082V4.98457H6.04497Z" fill="url(#paint20_radial_558_1051)"/>
</g>
<g filter="url(#filter4_i_558_1051)">
<path d="M3.95452 4.98457L3.52952 5.89971C3.50139 5.95909 3.54514 6.02784 3.61077 6.02784L3.91191 5.94488C4.04375 5.91192 4.04827 6.03135 3.99827 6.08135L3.57327 6.56895C3.49202 6.6502 3.46077 6.77207 3.50139 6.88145L4.35764 9.34082V4.98457H3.95452Z" fill="url(#paint21_linear_558_1051)"/>
<path d="M3.95452 4.98457L3.52952 5.89971C3.50139 5.95909 3.54514 6.02784 3.61077 6.02784L3.91191 5.94488C4.04375 5.91192 4.04827 6.03135 3.99827 6.08135L3.57327 6.56895C3.49202 6.6502 3.46077 6.77207 3.50139 6.88145L4.35764 9.34082V4.98457H3.95452Z" fill="url(#paint22_radial_558_1051)"/>
<path d="M3.95452 4.98457L3.52952 5.89971C3.50139 5.95909 3.54514 6.02784 3.61077 6.02784L3.91191 5.94488C4.04375 5.91192 4.04827 6.03135 3.99827 6.08135L3.57327 6.56895C3.49202 6.6502 3.46077 6.77207 3.50139 6.88145L4.35764 9.34082V4.98457H3.95452Z" fill="url(#paint23_linear_558_1051)"/>
<path d="M3.95452 4.98457L3.52952 5.89971C3.50139 5.95909 3.54514 6.02784 3.61077 6.02784L3.91191 5.94488C4.04375 5.91192 4.04827 6.03135 3.99827 6.08135L3.57327 6.56895C3.49202 6.6502 3.46077 6.77207 3.50139 6.88145L4.35764 9.34082V4.98457H3.95452Z" fill="url(#paint24_radial_558_1051)"/>
</g>
<path d="M5.00117 5.80019C4.64492 5.80019 4.35742 5.51269 4.35742 5.15644V4.35644C4.35742 4.00019 4.64492 3.71269 5.00117 3.71269C5.35742 3.71269 5.64492 4.00019 5.64492 4.35644V5.15644C5.6418 5.51269 5.3543 5.80019 5.00117 5.80019Z" fill="url(#paint25_radial_558_1051)"/>
<path d="M6.88989 7.18701C7.06177 7.18701 7.20239 7.32764 7.20239 7.49951V8.21514H6.57739V7.49951C6.57739 7.32764 6.71489 7.18701 6.88989 7.18701Z" fill="url(#paint26_radial_558_1051)"/>
<path d="M3.10962 7.18457C2.93774 7.18457 2.79712 7.3252 2.79712 7.49707V8.2127H3.42212V7.49707C3.42212 7.3252 3.28462 7.18457 3.10962 7.18457Z" fill="url(#paint27_radial_558_1051)"/>
<path d="M3.22314 6.80332V9.34082H6.76689V6.46894C6.76689 6.32832 6.65439 6.21582 6.51377 6.21582H3.81377C3.48564 6.21269 3.22314 6.47832 3.22314 6.80332Z" fill="url(#paint28_linear_558_1051)"/>
<path d="M3.87749 9.34082V6.71387H3.22314V9.34082H3.87749Z" fill="#513358"/>
<path d="M3.87749 9.34082V6.71387H3.22314V9.34082H3.87749Z" fill="url(#paint29_linear_558_1051)"/>
<g filter="url(#filter5_i_558_1051)">
<path d="M4.16991 7.89369C4.17269 7.98033 4.13378 8.05734 4.07542 8.10226C4.131 8.14397 4.16991 8.21777 4.16991 8.3012C4.16991 8.38463 4.13378 8.45843 4.07542 8.50014C4.131 8.54185 4.16991 8.61565 4.16991 8.69908C4.16991 8.78251 4.13378 8.85631 4.07542 8.89802C4.13378 8.94294 4.16991 9.01995 4.16991 9.10658C4.16713 9.23814 4.06987 9.34082 3.95593 9.34082H3.03889C2.9055 9.34082 2.79712 9.21568 2.79712 9.06166V7.93541C2.79712 7.78139 2.9055 7.65625 3.03889 7.65625H3.92703C4.07542 7.65625 4.16747 7.77828 4.16991 7.89369Z" fill="url(#paint30_linear_558_1051)"/>
</g>
<g filter="url(#filter6_i_558_1051)">
<path d="M5.82949 7.89369C5.82671 7.98033 5.86561 8.05734 5.92397 8.10226C5.86839 8.14397 5.82949 8.21777 5.82949 8.3012C5.82949 8.38463 5.86561 8.45843 5.92397 8.50014C5.86839 8.54185 5.82949 8.61565 5.82949 8.69908C5.82949 8.78251 5.86561 8.85631 5.92397 8.89802C5.86561 8.94294 5.82949 9.01995 5.82949 9.10658C5.83226 9.23814 5.92953 9.34082 6.04346 9.34082H6.96051C7.0939 9.34082 7.20227 9.21568 7.20227 9.06166V7.93541C7.20227 7.78139 7.0939 7.65625 6.96051 7.65625H6.07237C5.92397 7.65625 5.83192 7.77828 5.82949 7.89369Z" fill="url(#paint31_linear_558_1051)"/>
</g>
<path d="M6.7669 7.14844V6.43414C6.7669 6.31285 6.65439 6.21581 6.51377 6.21581H3.81377C3.81191 6.2158 3.81006 6.21579 3.80821 6.21579H3.80787C3.4825 6.21587 3.22314 6.44391 3.22314 6.72254C3.22314 6.95776 3.41382 7.14844 3.64904 7.14844H6.7669Z" fill="url(#paint32_linear_558_1051)"/>
<path d="M6.54543 3.79142C6.6503 3.78803 6.74852 3.75247 6.82842 3.6949V3.98615C6.82842 4.26555 6.66196 4.51447 6.40894 4.61776C6.4622 4.50431 6.49882 4.3807 6.51714 4.24862L6.54543 3.79142Z" fill="url(#paint33_radial_558_1051)"/>
<path d="M6.54543 3.79142C6.6503 3.78803 6.74852 3.75247 6.82842 3.6949V3.98615C6.82842 4.26555 6.66196 4.51447 6.40894 4.61776C6.4622 4.50431 6.49882 4.3807 6.51714 4.24862L6.54543 3.79142Z" fill="url(#paint34_radial_558_1051)"/>
<path d="M3.50393 3.79142C3.39906 3.78803 3.30085 3.75247 3.22095 3.6949V3.98615C3.22095 4.26555 3.38741 4.51447 3.64043 4.61776C3.58716 4.50431 3.55054 4.3807 3.53223 4.24862L3.50393 3.79142Z" fill="url(#paint35_radial_558_1051)"/>
<path d="M3.50393 3.79142C3.39906 3.78803 3.30085 3.75247 3.22095 3.6949V3.98615C3.22095 4.26555 3.38741 4.51447 3.64043 4.61776C3.58716 4.50431 3.55054 4.3807 3.53223 4.24862L3.50393 3.79142Z" fill="url(#paint36_radial_558_1051)"/>
<g filter="url(#filter7_ii_558_1051)">
<path d="M3.51522 4.2654C3.5957 4.87616 4.11546 5.33088 4.7308 5.33088H5.32099C5.93632 5.33088 6.45609 4.87616 6.53657 4.2654C6.57348 3.67611 6.61059 3.08919 6.63797 2.50022C6.63465 2.26027 6.4455 2.06228 6.20658 2.05221H5.76855C5.46989 2.05221 5.19944 1.87603 5.07666 1.60085C5.04513 1.52199 4.96881 1.46997 4.88419 1.46997H4.48598C3.90857 1.46997 3.44067 1.94315 3.44067 2.52706C3.44067 3.10916 3.47703 3.68183 3.51522 4.2654Z" fill="url(#paint37_radial_558_1051)"/>
</g>
<path d="M3.51522 4.2654C3.5957 4.87616 4.11546 5.33088 4.7308 5.33088H5.32099C5.93632 5.33088 6.45609 4.87616 6.53657 4.2654C6.57348 3.67611 6.61059 3.08919 6.63797 2.50022C6.63465 2.26027 6.4455 2.06228 6.20658 2.05221H5.76855C5.46989 2.05221 5.19944 1.87603 5.07666 1.60085C5.04513 1.52199 4.96881 1.46997 4.88419 1.46997H4.48598C3.90857 1.46997 3.44067 1.94315 3.44067 2.52706C3.44067 3.10916 3.47703 3.68183 3.51522 4.2654Z" fill="url(#paint38_radial_558_1051)"/>
<path d="M3.51522 4.2654C3.5957 4.87616 4.11546 5.33088 4.7308 5.33088H5.32099C5.93632 5.33088 6.45609 4.87616 6.53657 4.2654C6.57348 3.67611 6.61059 3.08919 6.63797 2.50022C6.63465 2.26027 6.4455 2.06228 6.20658 2.05221H5.76855C5.46989 2.05221 5.19944 1.87603 5.07666 1.60085C5.04513 1.52199 4.96881 1.46997 4.88419 1.46997H4.48598C3.90857 1.46997 3.44067 1.94315 3.44067 2.52706C3.44067 3.10916 3.47703 3.68183 3.51522 4.2654Z" fill="url(#paint39_radial_558_1051)"/>
<path d="M3.51522 4.2654C3.5957 4.87616 4.11546 5.33088 4.7308 5.33088H5.32099C5.93632 5.33088 6.45609 4.87616 6.53657 4.2654C6.57348 3.67611 6.61059 3.08919 6.63797 2.50022C6.63465 2.26027 6.4455 2.06228 6.20658 2.05221H5.76855C5.46989 2.05221 5.19944 1.87603 5.07666 1.60085C5.04513 1.52199 4.96881 1.46997 4.88419 1.46997H4.48598C3.90857 1.46997 3.44067 1.94315 3.44067 2.52706C3.44067 3.10916 3.47703 3.68183 3.51522 4.2654Z" fill="url(#paint40_radial_558_1051)"/>
<path d="M3.51522 4.2654C3.5957 4.87616 4.11546 5.33088 4.7308 5.33088H5.32099C5.93632 5.33088 6.45609 4.87616 6.53657 4.2654C6.57348 3.67611 6.61059 3.08919 6.63797 2.50022C6.63465 2.26027 6.4455 2.06228 6.20658 2.05221H5.76855C5.46989 2.05221 5.19944 1.87603 5.07666 1.60085C5.04513 1.52199 4.96881 1.46997 4.88419 1.46997H4.48598C3.90857 1.46997 3.44067 1.94315 3.44067 2.52706C3.44067 3.10916 3.47703 3.68183 3.51522 4.2654Z" fill="url(#paint41_radial_558_1051)"/>
<g filter="url(#filter8_f_558_1051)">
<path d="M4.87266 3.23811L4.67403 3.81321C4.64009 3.93151 4.72153 4.0498 4.8369 4.0498H5.0829C5.19826 4.0498 5.2797 3.92969 5.24577 3.81321L5.07951 3.23811C5.04388 3.11071 4.90999 3.11071 4.87266 3.23811Z" fill="#EE9020"/>
</g>
<g filter="url(#filter9_f_558_1051)">
<path d="M4.90523 3.17686L4.73897 3.75196C4.70504 3.87026 4.78647 3.98855 4.90184 3.98855H5.14784C5.26321 3.98855 5.34464 3.86844 5.31071 3.75196L5.14445 3.17686C5.10882 3.04947 4.94256 3.04947 4.90523 3.17686Z" fill="url(#paint42_linear_558_1051)"/>
<path d="M4.90523 3.17686L4.73897 3.75196C4.70504 3.87026 4.78647 3.98855 4.90184 3.98855H5.14784C5.26321 3.98855 5.34464 3.86844 5.31071 3.75196L5.14445 3.17686C5.10882 3.04947 4.94256 3.04947 4.90523 3.17686Z" fill="url(#paint43_linear_558_1051)"/>
<path d="M4.90523 3.17686L4.73897 3.75196C4.70504 3.87026 4.78647 3.98855 4.90184 3.98855H5.14784C5.26321 3.98855 5.34464 3.86844 5.31071 3.75196L5.14445 3.17686C5.10882 3.04947 4.94256 3.04947 4.90523 3.17686Z" fill="url(#paint44_linear_558_1051)"/>
<path d="M4.90523 3.17686L4.73897 3.75196C4.70504 3.87026 4.78647 3.98855 4.90184 3.98855H5.14784C5.26321 3.98855 5.34464 3.86844 5.31071 3.75196L5.14445 3.17686C5.10882 3.04947 4.94256 3.04947 4.90523 3.17686Z" fill="url(#paint45_linear_558_1051)"/>
</g>
<g filter="url(#filter10_f_558_1051)">
<path d="M4.62588 4.13733L4.62588 4.13733C4.7402 4.19693 4.87749 4.23158 5.02462 4.23158C5.17327 4.23158 5.30898 4.19696 5.42336 4.13733L5.42404 4.13698L5.42404 4.13698C5.47779 4.10965 5.53518 4.12582 5.56921 4.16115C5.60415 4.19743 5.61763 4.25777 5.58245 4.31068M4.62588 4.13733L5.51995 4.26922M4.62588 4.13733L4.6252 4.13698C4.57038 4.10911 4.51294 4.12709 4.47968 4.16211C4.44607 4.19748 4.43079 4.25793 4.46708 4.31113M4.62588 4.13733L4.52929 4.26922M5.58245 4.31068C5.58242 4.31073 5.58238 4.31078 5.58235 4.31083L5.51995 4.26922M5.58245 4.31068C5.58248 4.31063 5.58252 4.31058 5.58255 4.31053L5.51995 4.26922M5.58245 4.31068C5.46418 4.48981 5.25846 4.60887 5.02462 4.60887C4.79097 4.60887 4.5854 4.49001 4.46708 4.31113M5.51995 4.26922C5.41517 4.42801 5.23259 4.53387 5.02462 4.53387C4.81664 4.53387 4.63407 4.42801 4.52929 4.26922M4.46708 4.31113C4.46727 4.3114 4.46746 4.31168 4.46766 4.31196L4.52929 4.26922M4.46708 4.31113C4.46695 4.31093 4.46682 4.31073 4.46669 4.31053L4.52929 4.26922" stroke="url(#paint46_radial_558_1051)" stroke-width="0.15"/>
</g>
<path d="M5.02462 4.30658C4.86586 4.30658 4.71663 4.26922 4.59121 4.20384C4.54834 4.18204 4.5023 4.2303 4.52929 4.26922C4.63407 4.42801 4.81664 4.53387 5.02462 4.53387C5.23259 4.53387 5.41517 4.42801 5.51995 4.26922C5.54694 4.22875 5.5009 4.18204 5.45803 4.20384C5.33261 4.26922 5.18497 4.30658 5.02462 4.30658Z" fill="url(#paint47_radial_558_1051)"/>
<g filter="url(#filter11_ii_558_1051)">
<path d="M6.54352 1.32232C6.70446 1.37769 6.84881 1.49011 6.94007 1.65119C7.08608 1.90792 7.06451 2.21498 6.90688 2.4415C6.85213 2.52204 6.82226 2.61768 6.82226 2.715V3.08666C6.76374 3.0459 6.68655 3.01568 6.61353 3.00277L6.63809 2.50023C6.63477 2.26028 6.44562 2.06229 6.2067 2.05222H5.76866C5.47001 2.05222 5.19955 1.87604 5.07677 1.60086C5.04525 1.52199 4.96892 1.46998 4.88431 1.46998H4.48609C3.90869 1.46998 3.44079 1.94315 3.44079 2.52707L3.45038 3.00801C3.37093 3.01968 3.28793 3.04624 3.22509 3.09049V2.715C3.22509 2.61768 3.19523 2.52204 3.14048 2.4415C2.99115 2.22169 2.9646 1.92637 3.09568 1.67636C3.18693 1.50354 3.3346 1.38272 3.50218 1.324C3.68138 1.26024 3.83403 1.13943 3.93524 0.976666C4.06466 0.770281 4.29197 0.63269 4.55246 0.63269C4.65367 0.63269 4.74991 0.654504 4.83951 0.691418C4.95897 0.743434 5.09337 0.743434 5.21283 0.691418C5.30077 0.654504 5.397 0.63269 5.49821 0.63269C5.76203 0.63269 5.99266 0.775314 6.12042 0.986733C6.21665 1.14614 6.36764 1.26191 6.54352 1.32232Z" fill="url(#paint48_linear_558_1051)"/>
<path d="M6.54352 1.32232C6.70446 1.37769 6.84881 1.49011 6.94007 1.65119C7.08608 1.90792 7.06451 2.21498 6.90688 2.4415C6.85213 2.52204 6.82226 2.61768 6.82226 2.715V3.08666C6.76374 3.0459 6.68655 3.01568 6.61353 3.00277L6.63809 2.50023C6.63477 2.26028 6.44562 2.06229 6.2067 2.05222H5.76866C5.47001 2.05222 5.19955 1.87604 5.07677 1.60086C5.04525 1.52199 4.96892 1.46998 4.88431 1.46998H4.48609C3.90869 1.46998 3.44079 1.94315 3.44079 2.52707L3.45038 3.00801C3.37093 3.01968 3.28793 3.04624 3.22509 3.09049V2.715C3.22509 2.61768 3.19523 2.52204 3.14048 2.4415C2.99115 2.22169 2.9646 1.92637 3.09568 1.67636C3.18693 1.50354 3.3346 1.38272 3.50218 1.324C3.68138 1.26024 3.83403 1.13943 3.93524 0.976666C4.06466 0.770281 4.29197 0.63269 4.55246 0.63269C4.65367 0.63269 4.74991 0.654504 4.83951 0.691418C4.95897 0.743434 5.09337 0.743434 5.21283 0.691418C5.30077 0.654504 5.397 0.63269 5.49821 0.63269C5.76203 0.63269 5.99266 0.775314 6.12042 0.986733C6.21665 1.14614 6.36764 1.26191 6.54352 1.32232Z" fill="url(#paint49_radial_558_1051)"/>
<path d="M6.54352 1.32232C6.70446 1.37769 6.84881 1.49011 6.94007 1.65119C7.08608 1.90792 7.06451 2.21498 6.90688 2.4415C6.85213 2.52204 6.82226 2.61768 6.82226 2.715V3.08666C6.76374 3.0459 6.68655 3.01568 6.61353 3.00277L6.63809 2.50023C6.63477 2.26028 6.44562 2.06229 6.2067 2.05222H5.76866C5.47001 2.05222 5.19955 1.87604 5.07677 1.60086C5.04525 1.52199 4.96892 1.46998 4.88431 1.46998H4.48609C3.90869 1.46998 3.44079 1.94315 3.44079 2.52707L3.45038 3.00801C3.37093 3.01968 3.28793 3.04624 3.22509 3.09049V2.715C3.22509 2.61768 3.19523 2.52204 3.14048 2.4415C2.99115 2.22169 2.9646 1.92637 3.09568 1.67636C3.18693 1.50354 3.3346 1.38272 3.50218 1.324C3.68138 1.26024 3.83403 1.13943 3.93524 0.976666C4.06466 0.770281 4.29197 0.63269 4.55246 0.63269C4.65367 0.63269 4.74991 0.654504 4.83951 0.691418C4.95897 0.743434 5.09337 0.743434 5.21283 0.691418C5.30077 0.654504 5.397 0.63269 5.49821 0.63269C5.76203 0.63269 5.99266 0.775314 6.12042 0.986733C6.21665 1.14614 6.36764 1.26191 6.54352 1.32232Z" fill="url(#paint50_radial_558_1051)"/>
<path d="M6.54352 1.32232C6.70446 1.37769 6.84881 1.49011 6.94007 1.65119C7.08608 1.90792 7.06451 2.21498 6.90688 2.4415C6.85213 2.52204 6.82226 2.61768 6.82226 2.715V3.08666C6.76374 3.0459 6.68655 3.01568 6.61353 3.00277L6.63809 2.50023C6.63477 2.26028 6.44562 2.06229 6.2067 2.05222H5.76866C5.47001 2.05222 5.19955 1.87604 5.07677 1.60086C5.04525 1.52199 4.96892 1.46998 4.88431 1.46998H4.48609C3.90869 1.46998 3.44079 1.94315 3.44079 2.52707L3.45038 3.00801C3.37093 3.01968 3.28793 3.04624 3.22509 3.09049V2.715C3.22509 2.61768 3.19523 2.52204 3.14048 2.4415C2.99115 2.22169 2.9646 1.92637 3.09568 1.67636C3.18693 1.50354 3.3346 1.38272 3.50218 1.324C3.68138 1.26024 3.83403 1.13943 3.93524 0.976666C4.06466 0.770281 4.29197 0.63269 4.55246 0.63269C4.65367 0.63269 4.74991 0.654504 4.83951 0.691418C4.95897 0.743434 5.09337 0.743434 5.21283 0.691418C5.30077 0.654504 5.397 0.63269 5.49821 0.63269C5.76203 0.63269 5.99266 0.775314 6.12042 0.986733C6.21665 1.14614 6.36764 1.26191 6.54352 1.32232Z" fill="url(#paint51_radial_558_1051)"/>
<path d="M6.54352 1.32232C6.70446 1.37769 6.84881 1.49011 6.94007 1.65119C7.08608 1.90792 7.06451 2.21498 6.90688 2.4415C6.85213 2.52204 6.82226 2.61768 6.82226 2.715V3.08666C6.76374 3.0459 6.68655 3.01568 6.61353 3.00277L6.63809 2.50023C6.63477 2.26028 6.44562 2.06229 6.2067 2.05222H5.76866C5.47001 2.05222 5.19955 1.87604 5.07677 1.60086C5.04525 1.52199 4.96892 1.46998 4.88431 1.46998H4.48609C3.90869 1.46998 3.44079 1.94315 3.44079 2.52707L3.45038 3.00801C3.37093 3.01968 3.28793 3.04624 3.22509 3.09049V2.715C3.22509 2.61768 3.19523 2.52204 3.14048 2.4415C2.99115 2.22169 2.9646 1.92637 3.09568 1.67636C3.18693 1.50354 3.3346 1.38272 3.50218 1.324C3.68138 1.26024 3.83403 1.13943 3.93524 0.976666C4.06466 0.770281 4.29197 0.63269 4.55246 0.63269C4.65367 0.63269 4.74991 0.654504 4.83951 0.691418C4.95897 0.743434 5.09337 0.743434 5.21283 0.691418C5.30077 0.654504 5.397 0.63269 5.49821 0.63269C5.76203 0.63269 5.99266 0.775314 6.12042 0.986733C6.21665 1.14614 6.36764 1.26191 6.54352 1.32232Z" fill="url(#paint52_radial_558_1051)"/>
</g>
<g filter="url(#filter12_i_558_1051)">
<path d="M6.19259 2.46827C6.13779 2.42054 6.07405 2.36996 5.97751 2.33957C5.88233 2.3096 5.76313 2.30156 5.5982 2.32173C5.55064 2.32755 5.51681 2.37082 5.52262 2.41838C5.52844 2.46594 5.57171 2.49978 5.61927 2.49396C5.7698 2.47555 5.86201 2.48512 5.92541 2.50507C5.98743 2.5246 6.0294 2.55624 6.07863 2.59911C6.11476 2.63058 6.16956 2.6268 6.20103 2.59067C6.2325 2.55454 6.22872 2.49974 6.19259 2.46827Z" fill="#C05029"/>
</g>
<g filter="url(#filter13_i_558_1051)">
<path d="M3.95761 2.43417C3.98581 2.4173 4.02637 2.39571 4.0776 2.37557C4.18004 2.33529 4.32643 2.30031 4.50161 2.32174C4.54917 2.32756 4.58301 2.37083 4.57719 2.41839C4.57137 2.46595 4.5281 2.49979 4.48054 2.49397C4.34026 2.47681 4.22322 2.50476 4.14109 2.53705C4.10003 2.55319 4.06803 2.5703 4.04672 2.58306C4.03609 2.58942 4.02819 2.59466 4.02323 2.59808C4.02075 2.5998 4.01901 2.60105 4.01804 2.60177L4.01718 2.60241C3.97937 2.63156 3.92506 2.62469 3.89572 2.58697C3.8663 2.54915 3.87312 2.49464 3.91094 2.46522L3.95761 2.43417Z" fill="#C05029"/>
</g>
<g filter="url(#filter14_f_558_1051)">
<path d="M5.0975 1.64364C5.0902 1.62966 5.0833 1.61539 5.07681 1.60084C5.04528 1.52198 4.96896 1.46997 4.88434 1.46997H4.48613C3.90872 1.46997 3.44083 1.94314 3.44083 2.52706V2.61314C3.33446 2.5322 3.20068 2.36145 3.20068 2.08514C3.20068 1.74983 3.44524 1.58034 3.60123 1.47223C3.64527 1.44171 3.68225 1.41608 3.70468 1.39299C3.71421 1.38318 3.72458 1.37218 3.73586 1.36021C3.84521 1.24424 4.04004 1.0376 4.38026 0.947291C4.54662 0.90313 4.71519 0.892345 4.85219 0.895671C4.99992 0.899256 5.10408 1.02684 5.10408 1.17461V1.63944L5.0975 1.64364Z" fill="url(#paint53_radial_558_1051)"/>
<path d="M5.0975 1.64364C5.0902 1.62966 5.0833 1.61539 5.07681 1.60084C5.04528 1.52198 4.96896 1.46997 4.88434 1.46997H4.48613C3.90872 1.46997 3.44083 1.94314 3.44083 2.52706V2.61314C3.33446 2.5322 3.20068 2.36145 3.20068 2.08514C3.20068 1.74983 3.44524 1.58034 3.60123 1.47223C3.64527 1.44171 3.68225 1.41608 3.70468 1.39299C3.71421 1.38318 3.72458 1.37218 3.73586 1.36021C3.84521 1.24424 4.04004 1.0376 4.38026 0.947291C4.54662 0.90313 4.71519 0.892345 4.85219 0.895671C4.99992 0.899256 5.10408 1.02684 5.10408 1.17461V1.63944L5.0975 1.64364Z" fill="url(#paint54_radial_558_1051)"/>
</g>
<g filter="url(#filter15_f_558_1051)">
<path d="M6.65557 2.6986L6.64643 2.50114C6.64312 2.2623 6.44575 2.06522 6.20682 2.0552H5.76879C5.49072 2.0552 5.2371 1.90317 5.10436 1.66114C5.10436 1.66114 5.08594 1.61847 5.06667 1.54542C4.98673 1.24232 5.27645 1.01029 5.58418 1.06993C5.88883 1.12897 6.23599 1.23164 6.49262 1.39903C7.03838 1.75499 6.94283 2.3965 6.65557 2.6986Z" fill="url(#paint55_radial_558_1051)"/>
<path d="M6.65557 2.6986L6.64643 2.50114C6.64312 2.2623 6.44575 2.06522 6.20682 2.0552H5.76879C5.49072 2.0552 5.2371 1.90317 5.10436 1.66114C5.10436 1.66114 5.08594 1.61847 5.06667 1.54542C4.98673 1.24232 5.27645 1.01029 5.58418 1.06993C5.88883 1.12897 6.23599 1.23164 6.49262 1.39903C7.03838 1.75499 6.94283 2.3965 6.65557 2.6986Z" fill="url(#paint56_radial_558_1051)"/>
<path d="M6.65557 2.6986L6.64643 2.50114C6.64312 2.2623 6.44575 2.06522 6.20682 2.0552H5.76879C5.49072 2.0552 5.2371 1.90317 5.10436 1.66114C5.10436 1.66114 5.08594 1.61847 5.06667 1.54542C4.98673 1.24232 5.27645 1.01029 5.58418 1.06993C5.88883 1.12897 6.23599 1.23164 6.49262 1.39903C7.03838 1.75499 6.94283 2.3965 6.65557 2.6986Z" fill="url(#paint57_radial_558_1051)"/>
<path d="M6.65557 2.6986L6.64643 2.50114C6.64312 2.2623 6.44575 2.06522 6.20682 2.0552H5.76879C5.49072 2.0552 5.2371 1.90317 5.10436 1.66114C5.10436 1.66114 5.08594 1.61847 5.06667 1.54542C4.98673 1.24232 5.27645 1.01029 5.58418 1.06993C5.88883 1.12897 6.23599 1.23164 6.49262 1.39903C7.03838 1.75499 6.94283 2.3965 6.65557 2.6986Z" fill="url(#paint58_radial_558_1051)"/>
<path d="M6.65557 2.6986L6.64643 2.50114C6.64312 2.2623 6.44575 2.06522 6.20682 2.0552H5.76879C5.49072 2.0552 5.2371 1.90317 5.10436 1.66114C5.10436 1.66114 5.08594 1.61847 5.06667 1.54542C4.98673 1.24232 5.27645 1.01029 5.58418 1.06993C5.88883 1.12897 6.23599 1.23164 6.49262 1.39903C7.03838 1.75499 6.94283 2.3965 6.65557 2.6986Z" fill="url(#paint59_radial_558_1051)"/>
</g>
<path d="M5.77284 2.87955C5.97715 2.87955 6.14974 3.02041 6.1967 3.21077C6.21066 3.26534 6.16878 3.31737 6.11294 3.31737H5.41497C5.37055 3.31737 5.33502 3.27676 5.3439 3.23234C5.38324 3.03183 5.55964 2.87955 5.77284 2.87955Z" fill="white"/>
<path d="M5.70795 2.96457C5.86277 2.96457 5.98714 3.0902 5.98714 3.24376C5.98714 3.26914 5.98333 3.29452 5.97699 3.31736H5.43764C5.4313 3.29325 5.42749 3.26914 5.42749 3.24376C5.42749 3.0902 5.55313 2.96457 5.70795 2.96457Z" fill="url(#paint60_radial_558_1051)"/>
<path d="M5.5481 3.24376C5.5481 3.15493 5.61916 3.08386 5.708 3.08386C5.79683 3.08386 5.8679 3.15493 5.8679 3.24376C5.8679 3.27041 5.86155 3.29579 5.85013 3.31737H5.56713C5.55444 3.29579 5.5481 3.27041 5.5481 3.24376Z" fill="black"/>
<g filter="url(#filter16_f_558_1051)">
<path d="M5.68774 3.0235C5.70765 3.05013 5.66603 3.08261 5.6187 3.11799C5.57136 3.15338 5.53625 3.17829 5.51633 3.15165C5.49642 3.12501 5.51864 3.07473 5.56598 3.03934C5.61331 3.00396 5.66782 2.99686 5.68774 3.0235Z" fill="#C7A7A3"/>
<path d="M5.68774 3.0235C5.70765 3.05013 5.66603 3.08261 5.6187 3.11799C5.57136 3.15338 5.53625 3.17829 5.51633 3.15165C5.49642 3.12501 5.51864 3.07473 5.56598 3.03934C5.61331 3.00396 5.66782 2.99686 5.68774 3.0235Z" fill="url(#paint61_radial_558_1051)"/>
</g>
<g filter="url(#filter17_f_558_1051)">
<path d="M5.95684 3.20718C5.94652 3.13492 5.90423 3.08045 5.88438 3.06226L5.80298 3.15159L5.83971 3.22307L5.95684 3.20718Z" fill="url(#paint62_linear_558_1051)"/>
</g>
<path d="M4.27669 2.87953C4.07236 2.87953 3.89976 3.0204 3.8528 3.21077C3.83884 3.26534 3.88072 3.31738 3.93656 3.31738H4.63458C4.67899 3.31738 4.71453 3.27676 4.70565 3.23234C4.6663 3.03183 4.48863 2.87953 4.27669 2.87953Z" fill="white"/>
<path d="M4.34146 2.96455C4.18663 2.96455 4.06226 3.0902 4.06226 3.24376C4.06226 3.26914 4.06606 3.29452 4.07241 3.31737H4.61178C4.61813 3.29325 4.62193 3.26914 4.62193 3.24376C4.62066 3.0902 4.49629 2.96455 4.34146 2.96455Z" fill="url(#paint63_radial_558_1051)"/>
<path d="M4.50146 3.24377C4.50146 3.15493 4.43039 3.08386 4.34155 3.08386C4.25271 3.08386 4.18164 3.15493 4.18164 3.24377C4.18164 3.27042 4.18799 3.2958 4.19941 3.31738H4.48242C4.49384 3.2958 4.50146 3.27042 4.50146 3.24377Z" fill="black"/>
<g filter="url(#filter18_f_558_1051)">
<path d="M4.59674 3.21116C4.59674 3.12083 4.52328 3.0606 4.50342 3.0424L4.41309 3.12976L4.46868 3.24293L4.59674 3.21116Z" fill="url(#paint64_linear_558_1051)"/>
</g>
<g filter="url(#filter19_f_558_1051)">
<path d="M4.36526 3.02672C4.38123 3.05686 4.3459 3.10687 4.28634 3.13842C4.22678 3.16998 4.16556 3.17112 4.14959 3.14098C4.13362 3.11084 4.16896 3.06082 4.22851 3.02927C4.28807 2.99772 4.3493 2.99657 4.36526 3.02672Z" fill="#C7A7A3" fill-opacity="0.9"/>
<path d="M4.36526 3.02672C4.38123 3.05686 4.3459 3.10687 4.28634 3.13842C4.22678 3.16998 4.16556 3.17112 4.14959 3.14098C4.13362 3.11084 4.16896 3.06082 4.22851 3.02927C4.28807 2.99772 4.3493 2.99657 4.36526 3.02672Z" fill="url(#paint65_radial_558_1051)"/>
</g>
<path d="M6.56445 3.8199C6.58504 3.48698 6.60489 3.15446 6.6222 2.82155C6.85857 2.86291 7.03822 3.06916 7.03822 3.31737C7.03822 3.58544 6.82868 3.80457 6.56445 3.8199Z" fill="url(#paint66_linear_558_1051)"/>
<path d="M6.56445 3.8199C6.58504 3.48698 6.60489 3.15446 6.6222 2.82155C6.85857 2.86291 7.03822 3.06916 7.03822 3.31737C7.03822 3.58544 6.82868 3.80457 6.56445 3.8199Z" fill="url(#paint67_radial_558_1051)"/>
<path d="M6.56445 3.8199C6.58504 3.48698 6.60489 3.15446 6.6222 2.82155C6.85857 2.86291 7.03822 3.06916 7.03822 3.31737C7.03822 3.58544 6.82868 3.80457 6.56445 3.8199Z" fill="url(#paint68_radial_558_1051)"/>
<path d="M3.44369 2.81876C3.19926 2.85322 3.01123 3.06324 3.01123 3.31718C3.01123 3.58593 3.22184 3.80548 3.48701 3.81981C3.46681 3.48553 3.45016 3.15315 3.44369 2.81876Z" fill="url(#paint69_linear_558_1051)"/>
<path d="M3.44369 2.81876C3.19926 2.85322 3.01123 3.06324 3.01123 3.31718C3.01123 3.58593 3.22184 3.80548 3.48701 3.81981C3.46681 3.48553 3.45016 3.15315 3.44369 2.81876Z" fill="url(#paint70_radial_558_1051)"/>
<g filter="url(#filter20_f_558_1051)">
<path d="M3.44928 3.02579C3.3158 3.05571 3.21606 3.17492 3.21606 3.31743C3.21606 3.46908 3.32901 3.59435 3.47537 3.61372C3.46453 3.41763 3.45538 3.22191 3.44928 3.02579Z" fill="#DD8224"/>
</g>
<g filter="url(#filter21_f_558_1051)">
<path d="M6.5769 3.61623C6.58896 3.41773 6.60062 3.2193 6.61151 3.0208C6.75893 3.03919 6.87301 3.16495 6.87301 3.31736C6.87301 3.4815 6.74069 3.61474 6.5769 3.61623Z" fill="#FFC837"/>
</g>
<g filter="url(#filter22_f_558_1051)">
<path d="M3.96948 2.52167C4.04988 2.46399 4.25027 2.36253 4.48728 2.40238" stroke="#C96953" stroke-width="0.25" stroke-linecap="round"/>
</g>
<g filter="url(#filter23_f_558_1051)">
<path d="M6.13865 2.50725C6.05825 2.44957 5.85786 2.34811 5.62085 2.38796" stroke="#C96953" stroke-width="0.25" stroke-linecap="round"/>
</g>
<g filter="url(#filter24_ii_558_1051)">
<path d="M6.51074 2.61894H5.42637C5.33262 2.61894 5.24512 2.66269 5.18574 2.73457C5.14824 2.78144 5.09199 2.80957 5.02637 2.80957C4.96074 2.80957 4.90449 2.78144 4.86699 2.73457C4.80762 2.66269 4.72012 2.61894 4.62637 2.61894H3.53887C3.47949 2.61894 3.43262 2.66582 3.43262 2.72519V2.79394C3.43262 2.82832 3.44824 2.85644 3.47324 2.87519C3.48574 2.88457 3.49512 2.90019 3.49512 2.91582V3.25957C3.49512 3.58769 3.76074 3.85644 4.09199 3.85644H4.31387C4.64199 3.85644 4.91074 3.59082 4.91074 3.25957V3.06894C4.91387 3.00644 4.96387 2.95957 5.02637 2.95957C5.08887 2.95957 5.13887 3.00957 5.14199 3.07207C5.14199 3.13457 5.14199 3.19707 5.14199 3.25957C5.14199 3.58769 5.40762 3.85644 5.73887 3.85644H5.96074C6.28887 3.85644 6.55762 3.59082 6.55762 3.25957V2.91269C6.55762 2.89707 6.56387 2.88144 6.57637 2.87207C6.60137 2.85332 6.61699 2.82207 6.61699 2.79082V2.72519C6.61699 2.66582 6.57012 2.61894 6.51074 2.61894ZM4.80449 3.22832C4.80449 3.51269 4.57324 3.74394 4.28887 3.74394H4.11699C3.83262 3.74394 3.60137 3.51269 3.60137 3.22832V3.00332C3.60137 2.85019 3.72324 2.72832 3.87637 2.72832H4.52637C4.67949 2.72832 4.80449 2.85019 4.80449 3.00332V3.22832ZM6.45449 3.22832C6.45449 3.51269 6.22324 3.74394 5.93887 3.74394H5.76699C5.48262 3.74394 5.25137 3.51269 5.25137 3.22832V3.00332C5.25137 2.85019 5.37324 2.72832 5.52637 2.72832H6.17949C6.33262 2.72832 6.45449 2.85019 6.45449 3.00332V3.22832Z" fill="url(#paint71_linear_558_1051)"/>
<path d="M6.51074 2.61894H5.42637C5.33262 2.61894 5.24512 2.66269 5.18574 2.73457C5.14824 2.78144 5.09199 2.80957 5.02637 2.80957C4.96074 2.80957 4.90449 2.78144 4.86699 2.73457C4.80762 2.66269 4.72012 2.61894 4.62637 2.61894H3.53887C3.47949 2.61894 3.43262 2.66582 3.43262 2.72519V2.79394C3.43262 2.82832 3.44824 2.85644 3.47324 2.87519C3.48574 2.88457 3.49512 2.90019 3.49512 2.91582V3.25957C3.49512 3.58769 3.76074 3.85644 4.09199 3.85644H4.31387C4.64199 3.85644 4.91074 3.59082 4.91074 3.25957V3.06894C4.91387 3.00644 4.96387 2.95957 5.02637 2.95957C5.08887 2.95957 5.13887 3.00957 5.14199 3.07207C5.14199 3.13457 5.14199 3.19707 5.14199 3.25957C5.14199 3.58769 5.40762 3.85644 5.73887 3.85644H5.96074C6.28887 3.85644 6.55762 3.59082 6.55762 3.25957V2.91269C6.55762 2.89707 6.56387 2.88144 6.57637 2.87207C6.60137 2.85332 6.61699 2.82207 6.61699 2.79082V2.72519C6.61699 2.66582 6.57012 2.61894 6.51074 2.61894ZM4.80449 3.22832C4.80449 3.51269 4.57324 3.74394 4.28887 3.74394H4.11699C3.83262 3.74394 3.60137 3.51269 3.60137 3.22832V3.00332C3.60137 2.85019 3.72324 2.72832 3.87637 2.72832H4.52637C4.67949 2.72832 4.80449 2.85019 4.80449 3.00332V3.22832ZM6.45449 3.22832C6.45449 3.51269 6.22324 3.74394 5.93887 3.74394H5.76699C5.48262 3.74394 5.25137 3.51269 5.25137 3.22832V3.00332C5.25137 2.85019 5.37324 2.72832 5.52637 2.72832H6.17949C6.33262 2.72832 6.45449 2.85019 6.45449 3.00332V3.22832Z" fill="url(#paint72_radial_558_1051)"/>
</g>
<path d="M3.48364 6.68211C3.48364 6.56211 3.58092 6.46483 3.70093 6.46483H6.767V6.8994H3.70093C3.58092 6.8994 3.48364 6.80212 3.48364 6.68211Z" fill="url(#paint73_linear_558_1051)"/>
<g filter="url(#filter25_f_558_1051)">
<path d="M5.94482 8.10303H6.54541" stroke="url(#paint74_linear_558_1051)" stroke-width="0.1" stroke-linecap="round"/>
</g>
<g filter="url(#filter26_f_558_1051)">
<path d="M4.04126 8.10303H3.44067" stroke="url(#paint75_linear_558_1051)" stroke-width="0.1" stroke-linecap="round"/>
</g>
<g filter="url(#filter27_f_558_1051)">
<path d="M5.94482 8.49854H6.54541" stroke="url(#paint76_linear_558_1051)" stroke-width="0.1" stroke-linecap="round"/>
</g>
<g filter="url(#filter28_f_558_1051)">
<path d="M4.04126 8.49854H3.44067" stroke="url(#paint77_linear_558_1051)" stroke-width="0.1" stroke-linecap="round"/>
</g>
<g filter="url(#filter29_f_558_1051)">
<path d="M5.94482 8.89404H6.54541" stroke="url(#paint78_linear_558_1051)" stroke-width="0.1" stroke-linecap="round"/>
</g>
<g filter="url(#filter30_f_558_1051)">
<path d="M4.0415 8.89404H3.44092" stroke="url(#paint79_linear_558_1051)" stroke-width="0.1" stroke-linecap="round"/>
</g>
</g>
<defs>
<filter id="filter0_i_558_1051" x="0.626221" y="1.21582" width="8.7439" height="6.65937" filterUnits="userSpaceOnUse" color-interpolation-filters="sRGB">
<feFlood flood-opacity="0" result="BackgroundImageFix"/>
<feBlend mode="normal" in="SourceGraphic" in2="BackgroundImageFix" result="shape"/>
<feColorMatrix in="SourceAlpha" type="matrix" values="0 0 0 0 0 0 0 0 0 0 0 0 0 0 0 0 0 0 127 0" result="hardAlpha"/>
<feOffset dy="0.1"/>
<feGaussianBlur stdDeviation="0.1"/>
<feComposite in2="hardAlpha" operator="arithmetic" k2="-1" k3="1"/>
<feColorMatrix type="matrix" values="0 0 0 0 0.81585 0 0 0 0 0.641744 0 0 0 0 0.41905 0 0 0 1 0"/>
<feBlend mode="normal" in2="shape" result="effect1_innerShadow_558_1051"/>
</filter>
<filter id="filter1_f_558_1051" x="0.455957" y="0.788736" width="9.32246" height="7.25149" filterUnits="userSpaceOnUse" color-interpolation-filters="sRGB">
<feFlood flood-opacity="0" result="BackgroundImageFix"/>
<feBlend mode="normal" in="SourceGraphic" in2="BackgroundImageFix" result="shape"/>
<feGaussianBlur stdDeviation="0.2" result="effect1_foregroundBlur_558_1051"/>
</filter>
<filter id="filter2_i_558_1051" x="0.626221" y="1.01583" width="8.72192" height="6.75625" filterUnits="userSpaceOnUse" color-interpolation-filters="sRGB">
<feFlood flood-opacity="0" result="BackgroundImageFix"/>
<feBlend mode="normal" in="SourceGraphic" in2="BackgroundImageFix" result="shape"/>
<feColorMatrix in="SourceAlpha" type="matrix" values="0 0 0 0 0 0 0 0 0 0 0 0 0 0 0 0 0 0 127 0" result="hardAlpha"/>
<feOffset dy="-0.3"/>
<feGaussianBlur stdDeviation="0.2"/>
<feComposite in2="hardAlpha" operator="arithmetic" k2="-1" k3="1"/>
<feColorMatrix type="matrix" values="0 0 0 0 0.85098 0 0 0 0 0.482353 0 0 0 0 0.647059 0 0 0 1 0"/>
<feBlend mode="normal" in2="shape" result="effect1_innerShadow_558_1051"/>
</filter>
<filter id="filter3_i_558_1051" x="5.64185" y="4.88457" width="0.874023" height="4.45625" filterUnits="userSpaceOnUse" color-interpolation-filters="sRGB">
<feFlood flood-opacity="0" result="BackgroundImageFix"/>
<feBlend mode="normal" in="SourceGraphic" in2="BackgroundImageFix" result="shape"/>
<feColorMatrix in="SourceAlpha" type="matrix" values="0 0 0 0 0 0 0 0 0 0 0 0 0 0 0 0 0 0 127 0" result="hardAlpha"/>
<feOffset dy="-0.1"/>
<feGaussianBlur stdDeviation="0.125"/>
<feComposite in2="hardAlpha" operator="arithmetic" k2="-1" k3="1"/>
<feColorMatrix type="matrix" values="0 0 0 0 0.380392 0 0 0 0 0.164706 0 0 0 0 0.203922 0 0 0 1 0"/>
<feBlend mode="normal" in2="shape" result="effect1_innerShadow_558_1051"/>
</filter>
<filter id="filter4_i_558_1051" x="3.48364" y="4.88457" width="0.874023" height="4.45625" filterUnits="userSpaceOnUse" color-interpolation-filters="sRGB">
<feFlood flood-opacity="0" result="BackgroundImageFix"/>
<feBlend mode="normal" in="SourceGraphic" in2="BackgroundImageFix" result="shape"/>
<feColorMatrix in="SourceAlpha" type="matrix" values="0 0 0 0 0 0 0 0 0 0 0 0 0 0 0 0 0 0 127 0" result="hardAlpha"/>
<feOffset dy="-0.1"/>
<feGaussianBlur stdDeviation="0.125"/>
<feComposite in2="hardAlpha" operator="arithmetic" k2="-1" k3="1"/>
<feColorMatrix type="matrix" values="0 0 0 0 0.380392 0 0 0 0 0.164706 0 0 0 0 0.203922 0 0 0 1 0"/>
<feBlend mode="normal" in2="shape" result="effect1_innerShadow_558_1051"/>
</filter>
<filter id="filter5_i_558_1051" x="2.79712" y="7.45625" width="1.57305" height="1.88457" filterUnits="userSpaceOnUse" color-interpolation-filters="sRGB">
<feFlood flood-opacity="0" result="BackgroundImageFix"/>
<feBlend mode="normal" in="SourceGraphic" in2="BackgroundImageFix" result="shape"/>
<feColorMatrix in="SourceAlpha" type="matrix" values="0 0 0 0 0 0 0 0 0 0 0 0 0 0 0 0 0 0 127 0" result="hardAlpha"/>
<feOffset dx="0.2" dy="-0.2"/>
<feGaussianBlur stdDeviation="0.25"/>
<feComposite in2="hardAlpha" operator="arithmetic" k2="-1" k3="1"/>
<feColorMatrix type="matrix" values="0 0 0 0 0.847059 0 0 0 0 0.588235 0 0 0 0 0.317647 0 0 0 1 0"/>
<feBlend mode="normal" in2="shape" result="effect1_innerShadow_558_1051"/>
</filter>
<filter id="filter6_i_558_1051" x="5.82935" y="7.45625" width="1.57305" height="1.88457" filterUnits="userSpaceOnUse" color-interpolation-filters="sRGB">
<feFlood flood-opacity="0" result="BackgroundImageFix"/>
<feBlend mode="normal" in="SourceGraphic" in2="BackgroundImageFix" result="shape"/>
<feColorMatrix in="SourceAlpha" type="matrix" values="0 0 0 0 0 0 0 0 0 0 0 0 0 0 0 0 0 0 127 0" result="hardAlpha"/>
<feOffset dx="0.2" dy="-0.2"/>
<feGaussianBlur stdDeviation="0.25"/>
<feComposite in2="hardAlpha" operator="arithmetic" k2="-1" k3="1"/>
<feColorMatrix type="matrix" values="0 0 0 0 0.835294 0 0 0 0 0.458824 0 0 0 0 0.2 0 0 0 1 0"/>
<feBlend mode="normal" in2="shape" result="effect1_innerShadow_558_1051"/>
</filter>
<filter id="filter7_ii_558_1051" x="3.44067" y="1.46997" width="3.69727" height="4.06092" filterUnits="userSpaceOnUse" color-interpolation-filters="sRGB">
<feFlood flood-opacity="0" result="BackgroundImageFix"/>
<feBlend mode="normal" in="SourceGraphic" in2="BackgroundImageFix" result="shape"/>
<feColorMatrix in="SourceAlpha" type="matrix" values="0 0 0 0 0 0 0 0 0 0 0 0 0 0 0 0 0 0 127 0" result="hardAlpha"/>
<feOffset dx="0.5"/>
<feGaussianBlur stdDeviation="0.5"/>
<feComposite in2="hardAlpha" operator="arithmetic" k2="-1" k3="1"/>
<feColorMatrix type="matrix" values="0 0 0 0 0.823529 0 0 0 0 0.623529 0 0 0 0 0.313726 0 0 0 1 0"/>
<feBlend mode="normal" in2="shape" result="effect1_innerShadow_558_1051"/>
<feColorMatrix in="SourceAlpha" type="matrix" values="0 0 0 0 0 0 0 0 0 0 0 0 0 0 0 0 0 0 127 0" result="hardAlpha"/>
<feOffset dy="0.2"/>
<feGaussianBlur stdDeviation="0.375"/>
<feComposite in2="hardAlpha" operator="arithmetic" k2="-1" k3="1"/>
<feColorMatrix type="matrix" values="0 0 0 0 0.980392 0 0 0 0 0.54902 0 0 0 0 0.0941176 0 0 0 1 0"/>
<feBlend mode="normal" in2="effect1_innerShadow_558_1051" result="effect2_innerShadow_558_1051"/>
</filter>
<filter id="filter8_f_558_1051" x="3.66626" y="2.14256" width="2.58716" height="2.90724" filterUnits="userSpaceOnUse" color-interpolation-filters="sRGB">
<feFlood flood-opacity="0" result="BackgroundImageFix"/>
<feBlend mode="normal" in="SourceGraphic" in2="BackgroundImageFix" result="shape"/>
<feGaussianBlur stdDeviation="0.5" result="effect1_foregroundBlur_558_1051"/>
</filter>
<filter id="filter9_f_558_1051" x="4.6312" y="2.98131" width="0.787158" height="1.10724" filterUnits="userSpaceOnUse" color-interpolation-filters="sRGB">
<feFlood flood-opacity="0" result="BackgroundImageFix"/>
<feBlend mode="normal" in="SourceGraphic" in2="BackgroundImageFix" result="shape"/>
<feGaussianBlur stdDeviation="0.05" result="effect1_foregroundBlur_558_1051"/>
</filter>
<filter id="filter10_f_558_1051" x="4.27109" y="3.94817" width="1.50713" height="0.835696" filterUnits="userSpaceOnUse" color-interpolation-filters="sRGB">
<feFlood flood-opacity="0" result="BackgroundImageFix"/>
<feBlend mode="normal" in="SourceGraphic" in2="BackgroundImageFix" result="shape"/>
<feGaussianBlur stdDeviation="0.05" result="effect1_foregroundBlur_558_1051"/>
</filter>
<filter id="filter11_ii_558_1051" x="3.01123" y="0.13269" width="4.0271" height="2.95781" filterUnits="userSpaceOnUse" color-interpolation-filters="sRGB">
<feFlood flood-opacity="0" result="BackgroundImageFix"/>
<feBlend mode="normal" in="SourceGraphic" in2="BackgroundImageFix" result="shape"/>
<feColorMatrix in="SourceAlpha" type="matrix" values="0 0 0 0 0 0 0 0 0 0 0 0 0 0 0 0 0 0 127 0" result="hardAlpha"/>
<feOffset dy="-0.5"/>
<feGaussianBlur stdDeviation="0.625"/>
<feComposite in2="hardAlpha" operator="arithmetic" k2="-1" k3="1"/>
<feColorMatrix type="matrix" values="0 0 0 0 0.945098 0 0 0 0 0.509804 0 0 0 0 0.0627451 0 0 0 1 0"/>
<feBlend mode="normal" in2="shape" result="effect1_innerShadow_558_1051"/>
<feColorMatrix in="SourceAlpha" type="matrix" values="0 0 0 0 0 0 0 0 0 0 0 0 0 0 0 0 0 0 127 0" result="hardAlpha"/>
<feOffset dy="-0.2"/>
<feGaussianBlur stdDeviation="0.2"/>
<feComposite in2="hardAlpha" operator="arithmetic" k2="-1" k3="1"/>
<feColorMatrix type="matrix" values="0 0 0 0 0.862745 0 0 0 0 0.486275 0 0 0 0 0.0470588 0 0 0 1 0"/>
<feBlend mode="normal" in2="effect1_innerShadow_558_1051" result="effect2_innerShadow_558_1051"/>
</filter>
<filter id="filter12_i_558_1051" x="5.52197" y="2.11061" width="0.800439" height="0.509845" filterUnits="userSpaceOnUse" color-interpolation-filters="sRGB">
<feFlood flood-opacity="0" result="BackgroundImageFix"/>
<feBlend mode="normal" in="SourceGraphic" in2="BackgroundImageFix" result="shape"/>
<feColorMatrix in="SourceAlpha" type="matrix" values="0 0 0 0 0 0 0 0 0 0 0 0 0 0 0 0 0 0 127 0" result="hardAlpha"/>
<feOffset dx="0.1" dy="-0.2"/>
<feGaussianBlur stdDeviation="0.125"/>
<feComposite in2="hardAlpha" operator="arithmetic" k2="-1" k3="1"/>
<feColorMatrix type="matrix" values="0 0 0 0 0.603922 0 0 0 0 0.243137 0 0 0 0 0.152941 0 0 0 1 0"/>
<feBlend mode="normal" in2="shape" result="effect1_innerShadow_558_1051"/>
</filter>
<filter id="filter13_i_558_1051" x="3.87744" y="2.11523" width="0.800439" height="0.505222" filterUnits="userSpaceOnUse" color-interpolation-filters="sRGB">
<feFlood flood-opacity="0" result="BackgroundImageFix"/>
<feBlend mode="normal" in="SourceGraphic" in2="BackgroundImageFix" result="shape"/>
<feColorMatrix in="SourceAlpha" type="matrix" values="0 0 0 0 0 0 0 0 0 0 0 0 0 0 0 0 0 0 127 0" result="hardAlpha"/>
<feOffset dx="0.1" dy="-0.2"/>
<feGaussianBlur stdDeviation="0.125"/>
<feComposite in2="hardAlpha" operator="arithmetic" k2="-1" k3="1"/>
<feColorMatrix type="matrix" values="0 0 0 0 0.603922 0 0 0 0 0.243137 0 0 0 0 0.152941 0 0 0 1 0"/>
<feBlend mode="normal" in2="shape" result="effect1_innerShadow_558_1051"/>
</filter>
<filter id="filter14_f_558_1051" x="2.95068" y="0.645111" width="2.40332" height="2.21803" filterUnits="userSpaceOnUse" color-interpolation-filters="sRGB">
<feFlood flood-opacity="0" result="BackgroundImageFix"/>
<feBlend mode="normal" in="SourceGraphic" in2="BackgroundImageFix" result="shape"/>
<feGaussianBlur stdDeviation="0.125" result="effect1_foregroundBlur_558_1051"/>
</filter>
<filter id="filter15_f_558_1051" x="4.80322" y="0.810532" width="2.33374" height="2.13806" filterUnits="userSpaceOnUse" color-interpolation-filters="sRGB">
<feFlood flood-opacity="0" result="BackgroundImageFix"/>
<feBlend mode="normal" in="SourceGraphic" in2="BackgroundImageFix" result="shape"/>
<feGaussianBlur stdDeviation="0.125" result="effect1_foregroundBlur_558_1051"/>
</filter>
<filter id="filter16_f_558_1051" x="5.40903" y="2.90737" width="0.383838" height="0.355457" filterUnits="userSpaceOnUse" color-interpolation-filters="sRGB">
<feFlood flood-opacity="0" result="BackgroundImageFix"/>
<feBlend mode="normal" in="SourceGraphic" in2="BackgroundImageFix" result="shape"/>
<feGaussianBlur stdDeviation="0.05" result="effect1_foregroundBlur_558_1051"/>
</filter>
<filter id="filter17_f_558_1051" x="5.60298" y="2.86226" width="0.553809" height="0.560812" filterUnits="userSpaceOnUse" color-interpolation-filters="sRGB">
<feFlood flood-opacity="0" result="BackgroundImageFix"/>
<feBlend mode="normal" in="SourceGraphic" in2="BackgroundImageFix" result="shape"/>
<feGaussianBlur stdDeviation="0.1" result="effect1_foregroundBlur_558_1051"/>
</filter>
<filter id="filter18_f_558_1051" x="4.21309" y="2.8424" width="0.583594" height="0.600531" filterUnits="userSpaceOnUse" color-interpolation-filters="sRGB">
<feFlood flood-opacity="0" result="BackgroundImageFix"/>
<feBlend mode="normal" in="SourceGraphic" in2="BackgroundImageFix" result="shape"/>
<feGaussianBlur stdDeviation="0.1" result="effect1_foregroundBlur_558_1051"/>
</filter>
<filter id="filter19_f_558_1051" x="4.04575" y="2.90484" width="0.423389" height="0.35802" filterUnits="userSpaceOnUse" color-interpolation-filters="sRGB">
<feFlood flood-opacity="0" result="BackgroundImageFix"/>
<feBlend mode="normal" in="SourceGraphic" in2="BackgroundImageFix" result="shape"/>
<feGaussianBlur stdDeviation="0.05" result="effect1_foregroundBlur_558_1051"/>
</filter>
<filter id="filter20_f_558_1051" x="2.96606" y="2.77579" width="0.759277" height="1.08792" filterUnits="userSpaceOnUse" color-interpolation-filters="sRGB">
<feFlood flood-opacity="0" result="BackgroundImageFix"/>
<feBlend mode="normal" in="SourceGraphic" in2="BackgroundImageFix" result="shape"/>
<feGaussianBlur stdDeviation="0.125" result="effect1_foregroundBlur_558_1051"/>
</filter>
<filter id="filter21_f_558_1051" x="6.3269" y="2.7708" width="0.796143" height="1.09543" filterUnits="userSpaceOnUse" color-interpolation-filters="sRGB">
<feFlood flood-opacity="0" result="BackgroundImageFix"/>
<feBlend mode="normal" in="SourceGraphic" in2="BackgroundImageFix" result="shape"/>
<feGaussianBlur stdDeviation="0.125" result="effect1_foregroundBlur_558_1051"/>
</filter>
<filter id="filter22_f_558_1051" x="3.59448" y="2.01831" width="1.26782" height="0.878372" filterUnits="userSpaceOnUse" color-interpolation-filters="sRGB">
<feFlood flood-opacity="0" result="BackgroundImageFix"/>
<feBlend mode="normal" in="SourceGraphic" in2="BackgroundImageFix" result="shape"/>
<feGaussianBlur stdDeviation="0.125" result="effect1_foregroundBlur_558_1051"/>
</filter>
<filter id="filter23_f_558_1051" x="5.24585" y="2.00389" width="1.26782" height="0.878372" filterUnits="userSpaceOnUse" color-interpolation-filters="sRGB">
<feFlood flood-opacity="0" result="BackgroundImageFix"/>
<feBlend mode="normal" in="SourceGraphic" in2="BackgroundImageFix" result="shape"/>
<feGaussianBlur stdDeviation="0.125" result="effect1_foregroundBlur_558_1051"/>
</filter>
<filter id="filter24_ii_558_1051" x="3.33262" y="2.61894" width="3.28433" height="1.3375" filterUnits="userSpaceOnUse" color-interpolation-filters="sRGB">
<feFlood flood-opacity="0" result="BackgroundImageFix"/>
<feBlend mode="normal" in="SourceGraphic" in2="BackgroundImageFix" result="shape"/>
<feColorMatrix in="SourceAlpha" type="matrix" values="0 0 0 0 0 0 0 0 0 0 0 0 0 0 0 0 0 0 127 0" result="hardAlpha"/>
<feOffset dx="-0.1" dy="0.1"/>
<feGaussianBlur stdDeviation="0.05"/>
<feComposite in2="hardAlpha" operator="arithmetic" k2="-1" k3="1"/>
<feColorMatrix type="matrix" values="0 0 0 0 0.376863 0 0 0 0 0.313721 0 0 0 0 0.444863 0 0 0 1 0"/>
<feBlend mode="normal" in2="shape" result="effect1_innerShadow_558_1051"/>
<feColorMatrix in="SourceAlpha" type="matrix" values="0 0 0 0 0 0 0 0 0 0 0 0 0 0 0 0 0 0 127 0" result="hardAlpha"/>
<feOffset dy="0.1"/>
<feGaussianBlur stdDeviation="0.05"/>
<feComposite in2="hardAlpha" operator="arithmetic" k2="-1" k3="1"/>
<feColorMatrix type="matrix" values="0 0 0 0 0.25098 0 0 0 0 0.160784 0 0 0 0 0.321569 0 0 0 1 0"/>
<feBlend mode="normal" in2="effect1_innerShadow_558_1051" result="effect2_innerShadow_558_1051"/>
</filter>
<filter id="filter25_f_558_1051" x="5.79478" y="7.95302" width="0.900684" height="0.300006" filterUnits="userSpaceOnUse" color-interpolation-filters="sRGB">
<feFlood flood-opacity="0" result="BackgroundImageFix"/>
<feBlend mode="normal" in="SourceGraphic" in2="BackgroundImageFix" result="shape"/>
<feGaussianBlur stdDeviation="0.05" result="effect1_foregroundBlur_558_1051"/>
</filter>
<filter id="filter26_f_558_1051" x="3.29062" y="7.95302" width="0.900684" height="0.300006" filterUnits="userSpaceOnUse" color-interpolation-filters="sRGB">
<feFlood flood-opacity="0" result="BackgroundImageFix"/>
<feBlend mode="normal" in="SourceGraphic" in2="BackgroundImageFix" result="shape"/>
<feGaussianBlur stdDeviation="0.05" result="effect1_foregroundBlur_558_1051"/>
</filter>
<filter id="filter27_f_558_1051" x="5.79478" y="8.34853" width="0.900684" height="0.300006" filterUnits="userSpaceOnUse" color-interpolation-filters="sRGB">
<feFlood flood-opacity="0" result="BackgroundImageFix"/>
<feBlend mode="normal" in="SourceGraphic" in2="BackgroundImageFix" result="shape"/>
<feGaussianBlur stdDeviation="0.05" result="effect1_foregroundBlur_558_1051"/>
</filter>
<filter id="filter28_f_558_1051" x="3.29062" y="8.34853" width="0.900684" height="0.300006" filterUnits="userSpaceOnUse" color-interpolation-filters="sRGB">
<feFlood flood-opacity="0" result="BackgroundImageFix"/>
<feBlend mode="normal" in="SourceGraphic" in2="BackgroundImageFix" result="shape"/>
<feGaussianBlur stdDeviation="0.05" result="effect1_foregroundBlur_558_1051"/>
</filter>
<filter id="filter29_f_558_1051" x="5.79478" y="8.74404" width="0.900684" height="0.300006" filterUnits="userSpaceOnUse" color-interpolation-filters="sRGB">
<feFlood flood-opacity="0" result="BackgroundImageFix"/>
<feBlend mode="normal" in="SourceGraphic" in2="BackgroundImageFix" result="shape"/>
<feGaussianBlur stdDeviation="0.05" result="effect1_foregroundBlur_558_1051"/>
</filter>
<filter id="filter30_f_558_1051" x="3.29087" y="8.74404" width="0.900684" height="0.300006" filterUnits="userSpaceOnUse" color-interpolation-filters="sRGB">
<feFlood flood-opacity="0" result="BackgroundImageFix"/>
<feBlend mode="normal" in="SourceGraphic" in2="BackgroundImageFix" result="shape"/>
<feGaussianBlur stdDeviation="0.05" result="effect1_foregroundBlur_558_1051"/>
</filter>
<linearGradient id="paint0_linear_558_1051" x1="3.6932" y1="1.40612" x2="9.76904" y2="7.1047" gradientUnits="userSpaceOnUse">
<stop stop-color="#EFBE85"/>
<stop offset="0.567876" stop-color="#E8AC81"/>
<stop offset="1" stop-color="#D6753D"/>
</linearGradient>
<linearGradient id="paint1_linear_558_1051" x1="9.39444" y1="4.12109" x2="2.85147" y2="4.12109" gradientUnits="userSpaceOnUse">
<stop stop-color="#509245"/>
<stop offset="1" stop-color="#44803D"/>
</linearGradient>
<radialGradient id="paint2_radial_558_1051" cx="0" cy="0" r="1" gradientUnits="userSpaceOnUse" gradientTransform="translate(2.01163 8.00781) rotate(-56.7456) scale(5.69884 7.79952)">
<stop stop-color="#25585F"/>
<stop offset="1" stop-color="#25585F" stop-opacity="0"/>
</radialGradient>
<radialGradient id="paint3_radial_558_1051" cx="0" cy="0" r="1" gradientUnits="userSpaceOnUse" gradientTransform="translate(9.23819 7.92969) rotate(-125.417) scale(5.39236 5.33381)">
<stop stop-color="#358175"/>
<stop offset="1" stop-color="#358175" stop-opacity="0"/>
</radialGradient>
<linearGradient id="paint4_linear_558_1051" x1="4.19922" y1="1.07506" x2="9.76563" y2="7.57896" gradientUnits="userSpaceOnUse">
<stop stop-color="#FFD59C"/>
<stop offset="1" stop-color="#F69C5B"/>
</linearGradient>
<linearGradient id="paint5_linear_558_1051" x1="-1.53329" y1="7.97852" x2="9.03311" y2="7.97852" gradientUnits="userSpaceOnUse">
<stop stop-color="#D18F7B"/>
<stop offset="1" stop-color="#F1B58B"/>
</linearGradient>
<linearGradient id="paint6_linear_558_1051" x1="0.966706" y1="1.5918" x2="0.966706" y2="7.35352" gradientUnits="userSpaceOnUse">
<stop stop-color="#D78248"/>
<stop offset="1" stop-color="#D78248" stop-opacity="0"/>
</linearGradient>
<radialGradient id="paint7_radial_558_1051" cx="0" cy="0" r="1" gradientUnits="userSpaceOnUse" gradientTransform="translate(0.62622 1.31583) rotate(90) scale(2.90981 0.193014)">
<stop offset="0.355159" stop-color="#BC7B53"/>
<stop offset="1" stop-color="#BC7B53" stop-opacity="0"/>
</radialGradient>
<radialGradient id="paint8_radial_558_1051" cx="0" cy="0" r="1" gradientUnits="userSpaceOnUse" gradientTransform="translate(4.99988 4.95117) rotate(90) scale(4.38965 1.94333)">
<stop stop-color="#61342D"/>
<stop offset="1" stop-color="#764747"/>
</radialGradient>
<radialGradient id="paint9_radial_558_1051" cx="0" cy="0" r="1" gradientUnits="userSpaceOnUse" gradientTransform="translate(7.07999 6.36719) rotate(90) scale(2.61719 0.917969)">
<stop stop-color="#9A6D66"/>
<stop offset="1" stop-color="#9A6D66" stop-opacity="0"/>
</radialGradient>
<radialGradient id="paint10_radial_558_1051" cx="0" cy="0" r="1" gradientUnits="userSpaceOnUse" gradientTransform="translate(3.97452 5.92773) rotate(135) scale(0.676723 0.545522)">
<stop stop-color="#61332B"/>
<stop offset="1" stop-color="#61332B" stop-opacity="0"/>
</radialGradient>
<radialGradient id="paint11_radial_558_1051" cx="0" cy="0" r="1" gradientUnits="userSpaceOnUse" gradientTransform="translate(8.4357 8.78907) rotate(-90) scale(3.18359 1.20346)">
<stop stop-color="#7C5A5A"/>
<stop offset="1" stop-color="#735451"/>
</radialGradient>
<linearGradient id="paint12_linear_558_1051" x1="7.86676" y1="9.48272" x2="7.86676" y2="8.28995" gradientUnits="userSpaceOnUse">
<stop stop-color="#614451"/>
<stop offset="1" stop-color="#614451" stop-opacity="0"/>
</linearGradient>
<linearGradient id="paint13_linear_558_1051" x1="7.00196" y1="9.11133" x2="7.25587" y2="9.10645" gradientUnits="userSpaceOnUse">
<stop offset="0.253974" stop-color="#4F2737"/>
<stop offset="1" stop-color="#4F2737" stop-opacity="0"/>
</linearGradient>
<linearGradient id="paint14_linear_558_1051" x1="2.22939" y1="8.76182" x2="2.97768" y2="8.76182" gradientUnits="userSpaceOnUse">
<stop stop-color="#623D44"/>
<stop offset="1" stop-color="#4F2E37"/>
</linearGradient>
<radialGradient id="paint15_radial_558_1051" cx="0" cy="0" r="1" gradientUnits="userSpaceOnUse" gradientTransform="translate(3.58062 9.273) rotate(180) scale(2.16271 5.40023)">
<stop offset="0.575758" stop-color="#5D3841" stop-opacity="0"/>
<stop offset="1" stop-color="#7F6260"/>
</radialGradient>
<radialGradient id="paint16_radial_558_1051" cx="0" cy="0" r="1" gradientUnits="userSpaceOnUse" gradientTransform="translate(4.74597 6.3086) scale(1.12305 3.68652)">
<stop stop-color="#BFAABA"/>
<stop offset="1" stop-color="#7A5D72"/>
</radialGradient>
<linearGradient id="paint17_linear_558_1051" x1="5.64185" y1="5.7078" x2="6.51585" y2="5.7078" gradientUnits="userSpaceOnUse">
<stop stop-color="#613327"/>
<stop offset="0.371011" stop-color="#764440"/>
</linearGradient>
<radialGradient id="paint18_radial_558_1051" cx="0" cy="0" r="1" gradientUnits="userSpaceOnUse" gradientTransform="translate(6.63459 6.04204) rotate(-115.221) scale(1.16889 0.707042)">
<stop stop-color="#90645E"/>
<stop offset="1" stop-color="#90645E" stop-opacity="0"/>
</radialGradient>
<radialGradient id="paint19_radial_558_1051" cx="0" cy="0" r="1" gradientUnits="userSpaceOnUse" gradientTransform="translate(6.14739 6.35743) rotate(-125.283) scale(0.511427 0.0931435)">
<stop stop-color="#8A5D57"/>
<stop offset="1" stop-color="#8A5D57" stop-opacity="0"/>
</radialGradient>
<radialGradient id="paint20_radial_558_1051" cx="0" cy="0" r="1" gradientUnits="userSpaceOnUse" gradientTransform="translate(5.61462 5.11231) rotate(69.6775) scale(0.296795 0.555546)">
<stop offset="0.358549" stop-color="#481E13"/>
<stop offset="1" stop-color="#4A1D14" stop-opacity="0"/>
</radialGradient>
<linearGradient id="paint21_linear_558_1051" x1="4.35767" y1="5.7078" x2="3.48366" y2="5.7078" gradientUnits="userSpaceOnUse">
<stop stop-color="#744036"/>
<stop offset="0.639259" stop-color="#72433E"/>
</linearGradient>
<radialGradient id="paint22_radial_558_1051" cx="0" cy="0" r="1" gradientUnits="userSpaceOnUse" gradientTransform="translate(4.22376 6.32813) rotate(-88.8542) scale(0.976758 0.394552)">
<stop stop-color="#875955"/>
<stop offset="1" stop-color="#875955" stop-opacity="0"/>
</radialGradient>
<linearGradient id="paint23_linear_558_1051" x1="3.7843" y1="5.25879" x2="3.96008" y2="5.32715" gradientUnits="userSpaceOnUse">
<stop stop-color="#6F5048"/>
<stop offset="1" stop-color="#6F5048" stop-opacity="0"/>
</linearGradient>
<radialGradient id="paint24_radial_558_1051" cx="0" cy="0" r="1" gradientUnits="userSpaceOnUse" gradientTransform="translate(4.38489 5.11231) rotate(115.115) scale(0.345129 0.646019)">
<stop offset="0.219333" stop-color="#481E13"/>
<stop offset="1" stop-color="#4A1D14" stop-opacity="0"/>
</radialGradient>
<radialGradient id="paint25_radial_558_1051" cx="0" cy="0" r="1" gradientUnits="userSpaceOnUse" gradientTransform="translate(5.00117 5.35156) rotate(90) scale(1.04492 0.787426)">
<stop offset="0.333333" stop-color="#BC7120"/>
<stop offset="1" stop-color="#6C3A0B"/>
</radialGradient>
<radialGradient id="paint26_radial_558_1051" cx="0" cy="0" r="1" gradientUnits="userSpaceOnUse" gradientTransform="translate(7.20239 7.35107) rotate(135) scale(0.441942 0.494231)">
<stop stop-color="#FFE549"/>
<stop offset="0.813629" stop-color="#FEAE1B"/>
</radialGradient>
<radialGradient id="paint27_radial_558_1051" cx="0" cy="0" r="1" gradientUnits="userSpaceOnUse" gradientTransform="translate(2.83216 7.66113) scale(0.497947 1.56023)">
<stop offset="0.213333" stop-color="#DF9A32"/>
<stop offset="1" stop-color="#B36C17"/>
</radialGradient>
<linearGradient id="paint28_linear_558_1051" x1="6.82615" y1="7.71484" x2="5.45896" y2="7.71484" gradientUnits="userSpaceOnUse">
<stop stop-color="#E9266F"/>
<stop offset="1" stop-color="#BF1B74"/>
</linearGradient>
<linearGradient id="paint29_linear_558_1051" x1="3.22314" y1="7.33398" x2="3.35691" y2="7.33398" gradientUnits="userSpaceOnUse">
<stop stop-color="#6D6670"/>
<stop offset="1" stop-color="#6D6670" stop-opacity="0"/>
</linearGradient>
<linearGradient id="paint30_linear_558_1051" x1="3.90628" y1="8.7207" x2="2.67581" y2="8.7207" gradientUnits="userSpaceOnUse">
<stop stop-color="#FFD743"/>
<stop offset="1" stop-color="#F5891F"/>
<stop offset="1" stop-color="#F19E2D"/>
</linearGradient>
<linearGradient id="paint31_linear_558_1051" x1="7.02143" y1="8.59375" x2="5.8294" y2="8.59375" gradientUnits="userSpaceOnUse">
<stop stop-color="#FFE243"/>
<stop offset="1" stop-color="#F5891F"/>
<stop offset="1" stop-color="#FFAB30"/>
</linearGradient>
<linearGradient id="paint32_linear_558_1051" x1="3.36912" y1="6.82617" x2="6.7669" y2="6.82617" gradientUnits="userSpaceOnUse">
<stop stop-color="#564567"/>
<stop offset="1" stop-color="#564567"/>
</linearGradient>
<radialGradient id="paint33_radial_558_1051" cx="0" cy="0" r="1" gradientUnits="userSpaceOnUse" gradientTransform="translate(6.76023 3.6949) rotate(103.169) scale(1.19784 1.42294)">
<stop offset="0.0431525" stop-color="#FFC135"/>
<stop offset="1" stop-color="#E26839"/>
</radialGradient>
<radialGradient id="paint34_radial_558_1051" cx="0" cy="0" r="1" gradientUnits="userSpaceOnUse" gradientTransform="translate(6.5269 3.7788) rotate(53.9017) scale(0.155747 0.13231)">
<stop stop-color="#E18C2A"/>
<stop offset="1" stop-color="#E18C2A" stop-opacity="0"/>
</radialGradient>
<radialGradient id="paint35_radial_558_1051" cx="0" cy="0" r="1" gradientUnits="userSpaceOnUse" gradientTransform="translate(3.28911 3.73161) rotate(71.2338) scale(1.29631 0.58923)">
<stop stop-color="#D57A26"/>
<stop offset="1" stop-color="#D06A3C"/>
</radialGradient>
<radialGradient id="paint36_radial_558_1051" cx="0" cy="0" r="1" gradientUnits="userSpaceOnUse" gradientTransform="translate(3.49623 3.72898) rotate(72.2903) scale(0.327511 0.287295)">
<stop offset="0.263377" stop-color="#BE691E"/>
<stop offset="0.977292" stop-color="#BE691E" stop-opacity="0"/>
</radialGradient>
<radialGradient id="paint37_radial_558_1051" cx="0" cy="0" r="1" gradientUnits="userSpaceOnUse" gradientTransform="translate(5.90297 3.40043) rotate(180) scale(1.63546 2.8931)">
<stop stop-color="#FFE846"/>
<stop offset="1" stop-color="#F5A129"/>
</radialGradient>
<radialGradient id="paint38_radial_558_1051" cx="0" cy="0" r="1" gradientUnits="userSpaceOnUse" gradientTransform="translate(4.96397 5.38235) rotate(-90) scale(1.0592 4.12042)">
<stop offset="0.0824176" stop-color="#E27426"/>
<stop offset="1" stop-color="#FFA041" stop-opacity="0"/>
</radialGradient>
<radialGradient id="paint39_radial_558_1051" cx="0" cy="0" r="1" gradientUnits="userSpaceOnUse" gradientTransform="translate(6.63798 3.32796) rotate(93.7745) scale(1.91305 0.703315)">
<stop offset="0.389903" stop-color="#FFD930"/>
<stop offset="1" stop-color="#FFD930" stop-opacity="0"/>
</radialGradient>
<radialGradient id="paint40_radial_558_1051" cx="0" cy="0" r="1" gradientUnits="userSpaceOnUse" gradientTransform="translate(4.37035 3.03115) rotate(-90) scale(0.442305 0.532512)">
<stop offset="0.276316" stop-color="#F59632"/>
<stop offset="1" stop-color="#F59632" stop-opacity="0"/>
</radialGradient>
<radialGradient id="paint41_radial_558_1051" cx="0" cy="0" r="1" gradientUnits="userSpaceOnUse" gradientTransform="translate(5.80315 2.90238) rotate(-90) scale(0.480278 0.622935)">
<stop offset="0.178218" stop-color="#FFBE3A"/>
<stop offset="1" stop-color="#FFBE3A" stop-opacity="0"/>
</radialGradient>
<linearGradient id="paint42_linear_558_1051" x1="5.02484" y1="3.65968" x2="5.29226" y2="3.65968" gradientUnits="userSpaceOnUse">
<stop stop-color="#FFC92F"/>
<stop offset="1" stop-color="#FFEA47"/>
</linearGradient>
<linearGradient id="paint43_linear_558_1051" x1="4.68925" y1="3.61102" x2="5.02526" y2="3.62956" gradientUnits="userSpaceOnUse">
<stop stop-color="#F49F22"/>
<stop offset="1" stop-color="#E88830" stop-opacity="0"/>
<stop offset="1" stop-color="#F49F22" stop-opacity="0"/>
</linearGradient>
<linearGradient id="paint44_linear_558_1051" x1="5.02484" y1="3.78442" x2="5.02484" y2="4.05093" gradientUnits="userSpaceOnUse">
<stop stop-color="#E88830" stop-opacity="0"/>
<stop offset="0.844655" stop-color="#E88830"/>
</linearGradient>
<linearGradient id="paint45_linear_558_1051" x1="5.02484" y1="3.08131" x2="5.02484" y2="3.21251" gradientUnits="userSpaceOnUse">
<stop stop-color="#FAC137"/>
<stop offset="1" stop-color="#FAC137" stop-opacity="0"/>
</linearGradient>
<radialGradient id="paint46_radial_558_1051" cx="0" cy="0" r="1" gradientUnits="userSpaceOnUse" gradientTransform="translate(4.67211 4.42935) rotate(-60.732) scale(0.222143 0.646443)">
<stop stop-color="#FFB534"/>
<stop offset="1" stop-color="#FFB534" stop-opacity="0"/>
</radialGradient>
<radialGradient id="paint47_radial_558_1051" cx="0" cy="0" r="1" gradientUnits="userSpaceOnUse" gradientTransform="translate(5.02462 4.50766) rotate(-90) scale(0.225472 0.90713)">
<stop stop-color="#89014E"/>
<stop offset="1" stop-color="#87004D"/>
</radialGradient>
<linearGradient id="paint48_linear_558_1051" x1="6.70267" y1="1.62896" x2="3.53558" y2="1.62896" gradientUnits="userSpaceOnUse">
<stop stop-color="#FFE235"/>
<stop offset="1" stop-color="#D29935"/>
</linearGradient>
<radialGradient id="paint49_radial_558_1051" cx="0" cy="0" r="1" gradientUnits="userSpaceOnUse" gradientTransform="translate(3.38876 2.90553) rotate(-90) scale(1.7891 3.16992)">
<stop offset="0.314517" stop-color="#C98537"/>
<stop offset="1" stop-color="#C98537" stop-opacity="0"/>
</radialGradient>
<radialGradient id="paint50_radial_558_1051" cx="0" cy="0" r="1" gradientUnits="userSpaceOnUse" gradientTransform="translate(6.54537 2.90553) rotate(-90) scale(1.13642 2.01351)">
<stop stop-color="#FFB52A"/>
<stop offset="1" stop-color="#FFB52A" stop-opacity="0"/>
</radialGradient>
<radialGradient id="paint51_radial_558_1051" cx="0" cy="0" r="1" gradientUnits="userSpaceOnUse" gradientTransform="translate(6.30941 0.942059) rotate(-160.666) scale(1.36144 0.725058)">
<stop offset="0.347073" stop-color="#FFE639"/>
<stop offset="1" stop-color="#FFE639" stop-opacity="0"/>
</radialGradient>
<radialGradient id="paint52_radial_558_1051" cx="0" cy="0" r="1" gradientUnits="userSpaceOnUse" gradientTransform="translate(4.74159 0.443923) rotate(58.4652) scale(0.54138 1.25358)">
<stop offset="0.286771" stop-color="#F3C130"/>
<stop offset="1" stop-color="#F3C130" stop-opacity="0"/>
</radialGradient>
<radialGradient id="paint53_radial_558_1051" cx="0" cy="0" r="1" gradientUnits="userSpaceOnUse" gradientTransform="translate(5.10408 0.895111) rotate(160.16) scale(1.26609 0.352382)">
<stop stop-color="#FFDD30"/>
<stop offset="1" stop-color="#FFDC2B" stop-opacity="0"/>
</radialGradient>
<radialGradient id="paint54_radial_558_1051" cx="0" cy="0" r="1" gradientUnits="userSpaceOnUse" gradientTransform="translate(3.32588 2.38402) rotate(-57.7244) scale(1.88534 2.08876)">
<stop offset="0.0926981" stop-color="#D67227"/>
<stop offset="0.233498" stop-color="#EF8A23"/>
<stop offset="1" stop-color="#EF8A23" stop-opacity="0"/>
</radialGradient>
<radialGradient id="paint55_radial_558_1051" cx="0" cy="0" r="1" gradientUnits="userSpaceOnUse" gradientTransform="translate(6.15754 1.25809) rotate(13.3074) scale(1.08842 0.608718)">
<stop stop-color="#FFEB3B"/>
<stop offset="1" stop-color="#FFEB3B" stop-opacity="0"/>
</radialGradient>
<radialGradient id="paint56_radial_558_1051" cx="0" cy="0" r="1" gradientUnits="userSpaceOnUse" gradientTransform="translate(6.62946 2.69859) rotate(-120.119) scale(1.3395 0.74703)">
<stop stop-color="#EB8F29"/>
<stop offset="1" stop-color="#EB8F29" stop-opacity="0"/>
</radialGradient>
<radialGradient id="paint57_radial_558_1051" cx="0" cy="0" r="1" gradientUnits="userSpaceOnUse" gradientTransform="translate(6.43545 2.60468) rotate(-120.695) scale(0.801206 0.57387)">
<stop offset="0.394122" stop-color="#E48421"/>
<stop offset="1" stop-color="#E48421" stop-opacity="0"/>
</radialGradient>
<radialGradient id="paint58_radial_558_1051" cx="0" cy="0" r="1" gradientUnits="userSpaceOnUse" gradientTransform="translate(6.52459 1.22156) rotate(166.509) scale(1.54371 1.66881)">
<stop offset="0.734853" stop-color="#F29415" stop-opacity="0"/>
<stop offset="1" stop-color="#F29415"/>
</radialGradient>
<radialGradient id="paint59_radial_558_1051" cx="0" cy="0" r="1" gradientUnits="userSpaceOnUse" gradientTransform="translate(6.1051 1.18241) rotate(107.002) scale(0.125531 0.573909)">
<stop offset="0.461072" stop-color="#FFCE3C"/>
<stop offset="1" stop-color="#FFCE3C" stop-opacity="0"/>
</radialGradient>
<radialGradient id="paint60_radial_558_1051" cx="0" cy="0" r="1" gradientUnits="userSpaceOnUse" gradientTransform="translate(5.70732 3.1138) rotate(90) scale(0.253809 0.403712)">
<stop offset="0.80198" stop-color="#925C51"/>
<stop offset="1" stop-color="#694B43"/>
<stop offset="1" stop-color="#804D49"/>
<stop offset="1" stop-color="#85534D"/>
</radialGradient>
<radialGradient id="paint61_radial_558_1051" cx="0" cy="0" r="1" gradientUnits="userSpaceOnUse" gradientTransform="translate(5.6361 3.14016) rotate(-127.812) scale(0.118487 0.163128)">
<stop offset="0.765532" stop-color="#FFE6E2" stop-opacity="0"/>
<stop offset="0.966159" stop-color="#FFE6E2"/>
</radialGradient>
<linearGradient id="paint62_linear_558_1051" x1="5.95088" y1="3.13075" x2="5.85261" y2="3.1913" gradientUnits="userSpaceOnUse">
<stop stop-color="#B4948D"/>
<stop offset="1" stop-color="#B4948D" stop-opacity="0"/>
</linearGradient>
<radialGradient id="paint63_radial_558_1051" cx="0" cy="0" r="1" gradientUnits="userSpaceOnUse" gradientTransform="translate(4.34209 3.11379) rotate(90) scale(0.253822 0.403733)">
<stop offset="0.80198" stop-color="#925C51"/>
<stop offset="1" stop-color="#694B43"/>
<stop offset="1" stop-color="#804D49"/>
<stop offset="1" stop-color="#85534D"/>
</radialGradient>
<linearGradient id="paint64_linear_558_1051" x1="4.57497" y1="3.13076" x2="4.47669" y2="3.19131" gradientUnits="userSpaceOnUse">
<stop stop-color="#B4948D"/>
<stop offset="1" stop-color="#B4948D" stop-opacity="0"/>
</linearGradient>
<radialGradient id="paint65_radial_558_1051" cx="0" cy="0" r="1" gradientUnits="userSpaceOnUse" gradientTransform="translate(4.29933 3.17322) rotate(-118.811) scale(0.154775 0.186046)">
<stop offset="0.765532" stop-color="#FFE6E2" stop-opacity="0"/>
<stop offset="0.966159" stop-color="#FFE6E2"/>
</radialGradient>
<linearGradient id="paint66_linear_558_1051" x1="7.03822" y1="3.13909" x2="6.66069" y2="3.8199" gradientUnits="userSpaceOnUse">
<stop stop-color="#FFE343"/>
<stop offset="1" stop-color="#FFC136"/>
</linearGradient>
<radialGradient id="paint67_radial_558_1051" cx="0" cy="0" r="1" gradientUnits="userSpaceOnUse" gradientTransform="translate(6.4693 3.11812) rotate(74.3475) scale(0.728802 0.695334)">
<stop offset="0.856273" stop-color="#E1943D" stop-opacity="0"/>
<stop offset="1" stop-color="#E08F2E"/>
</radialGradient>
<radialGradient id="paint68_radial_558_1051" cx="0" cy="0" r="1" gradientUnits="userSpaceOnUse" gradientTransform="translate(6.58203 3.28853) rotate(-53.9198) scale(0.418473 0.350764)">
<stop offset="0.663731" stop-color="#FFBD22"/>
<stop offset="1" stop-color="#FFBD22" stop-opacity="0"/>
</radialGradient>
<linearGradient id="paint69_linear_558_1051" x1="3.19475" y1="3.35913" x2="3.65094" y2="3.31928" gradientUnits="userSpaceOnUse">
<stop stop-color="#E39726"/>
<stop offset="1" stop-color="#D9851D"/>
</linearGradient>
<radialGradient id="paint70_radial_558_1051" cx="0" cy="0" r="1" gradientUnits="userSpaceOnUse" gradientTransform="translate(3.37828 3.17036) rotate(101.248) scale(0.662172 0.650976)">
<stop offset="0.77507" stop-color="#C77937" stop-opacity="0"/>
<stop offset="1" stop-color="#C77937"/>
</radialGradient>
<linearGradient id="paint71_linear_558_1051" x1="7.16565" y1="2.11419" x2="5.02499" y2="4.25485" gradientUnits="userSpaceOnUse">
<stop stop-color="#52336D"/>
<stop offset="1" stop-color="#3C2850"/>
</linearGradient>
<radialGradient id="paint72_radial_558_1051" cx="0" cy="0" r="1" gradientUnits="userSpaceOnUse" gradientTransform="translate(3.55475 3.09082) scale(0.283203 0.84961)">
<stop stop-color="#52396B"/>
<stop offset="1" stop-color="#52396B" stop-opacity="0"/>
</radialGradient>
<linearGradient id="paint73_linear_558_1051" x1="5.12532" y1="6.5332" x2="5.12532" y2="6.8994" gradientUnits="userSpaceOnUse">
<stop stop-color="#DCD5E1"/>
<stop offset="1" stop-color="#B2ACB9"/>
</linearGradient>
<linearGradient id="paint74_linear_558_1051" x1="5.94482" y1="8.18115" x2="6.51611" y2="8.18115" gradientUnits="userSpaceOnUse">
<stop stop-color="#D27619"/>
<stop offset="1" stop-color="#D27619" stop-opacity="0"/>
</linearGradient>
<linearGradient id="paint75_linear_558_1051" x1="4.04126" y1="8.18115" x2="3.35439" y2="8.18115" gradientUnits="userSpaceOnUse">
<stop stop-color="#FFB60A"/>
<stop offset="1" stop-color="#FFB60A" stop-opacity="0"/>
</linearGradient>
<linearGradient id="paint76_linear_558_1051" x1="5.94482" y1="8.57666" x2="6.51611" y2="8.57666" gradientUnits="userSpaceOnUse">
<stop stop-color="#D27619"/>
<stop offset="1" stop-color="#D27619" stop-opacity="0"/>
</linearGradient>
<linearGradient id="paint77_linear_558_1051" x1="4.04126" y1="8.57666" x2="3.35439" y2="8.57666" gradientUnits="userSpaceOnUse">
<stop stop-color="#FFB60A"/>
<stop offset="1" stop-color="#FFB60A" stop-opacity="0"/>
</linearGradient>
<linearGradient id="paint78_linear_558_1051" x1="5.94482" y1="8.97217" x2="6.51611" y2="8.97217" gradientUnits="userSpaceOnUse">
<stop stop-color="#D27619"/>
<stop offset="1" stop-color="#D27619" stop-opacity="0"/>
</linearGradient>
<linearGradient id="paint79_linear_558_1051" x1="4.0415" y1="8.97217" x2="3.35463" y2="8.97217" gradientUnits="userSpaceOnUse">
<stop stop-color="#FFB60A"/>
<stop offset="1" stop-color="#FFB60A" stop-opacity="0"/>
</linearGradient>
<clipPath id="clip0_558_1051">
<rect width="10" height="10" fill="white"/>
</clipPath>
</defs>
</svg>
