<svg width="10" height="10" viewBox="0 0 10 10" fill="none" xmlns="http://www.w3.org/2000/svg">
<g clip-path="url(#clip0_71_263)">
<rect x="0.5" y="0.5" width="4" height="1" rx="0.5" fill="black"/>
<rect x="9.5" y="9.5" width="4" height="1" rx="0.5" transform="rotate(-180 9.5 9.5)" fill="black"/>
<rect x="9.5" y="0.5" width="4" height="1" rx="0.5" transform="rotate(90 9.5 0.5)" fill="black"/>
<rect x="0.5" y="9.5" width="4" height="1" rx="0.5" transform="rotate(-90 0.5 9.5)" fill="black"/>
<rect x="0.5" y="0.5" width="1" height="4" rx="0.5" fill="black"/>
<rect x="9.5" y="9.5" width="1" height="4" rx="0.5" transform="rotate(-180 9.5 9.5)" fill="black"/>
<rect x="9.5" y="0.5" width="1" height="4" rx="0.5" transform="rotate(90 9.5 0.5)" fill="black"/>
<rect x="0.5" y="9.5" width="1" height="4" rx="0.5" transform="rotate(-90 0.5 9.5)" fill="black"/>
</g>
<defs>
<clipPath id="clip0_71_263">
<rect width="10" height="10" fill="white"/>
</clipPath>
</defs>
</svg>
