<svg width="10" height="6" viewBox="0 0 10 6" fill="none" xmlns="http://www.w3.org/2000/svg">
<g clip-path="url(#clip0_140_528)">
<rect y="0.140015" width="10" height="5.72" rx="2.86" fill="#F5F5F5"/>
<circle cx="7.14001" cy="3" r="2.5" fill="#505050"/>
<g clip-path="url(#clip1_140_528)">
<path fill-rule="evenodd" clip-rule="evenodd" d="M7.26299 1.00529C7.36505 0.997016 7.39526 1.13578 7.31209 1.19551C6.67333 1.65428 6.38952 2.49763 6.67172 3.27296C6.95391 4.04829 7.71342 4.51191 8.49763 4.45276C8.59973 4.44506 8.66579 4.57077 8.58229 4.63004C8.43923 4.73157 8.28034 4.81583 8.10751 4.87873C7.06956 5.25652 5.92187 4.72134 5.54409 3.68339C5.1663 2.64543 5.70148 1.49775 6.73943 1.11996C6.91226 1.05706 7.08813 1.01946 7.26299 1.00529Z" fill="#F5F5F5"/>
</g>
</g>
<defs>
<clipPath id="clip0_140_528">
<rect width="10" height="6" fill="white"/>
</clipPath>
<clipPath id="clip1_140_528">
<rect width="4" height="4" fill="white" transform="translate(5.14001 1)"/>
</clipPath>
</defs>
</svg>
