<svg width="10" height="6" viewBox="0 0 10 6" fill="none" xmlns="http://www.w3.org/2000/svg">
<g clip-path="url(#clip0_140_524)">
<rect y="0.140015" width="10" height="5.72" rx="2.86" fill="#F5F5F5"/>
<rect x="3.39001" y="0.5" width="6.25" height="5" rx="2.5" fill="#505050"/>
<g clip-path="url(#clip1_140_524)">
<path fill-rule="evenodd" clip-rule="evenodd" d="M6.63298 1.00529C6.73505 0.997016 6.76525 1.13578 6.68208 1.19551C6.04333 1.65428 5.75952 2.49763 6.04171 3.27296C6.32391 4.04829 7.08342 4.51191 7.86762 4.45276C7.96973 4.44506 8.03579 4.57077 7.95228 4.63004C7.80923 4.73157 7.65034 4.81583 7.47751 4.87873C6.43955 5.25652 5.29187 4.72134 4.91408 3.68339C4.5363 2.64543 5.07147 1.49775 6.10943 1.11996C6.28226 1.05706 6.45813 1.01946 6.63298 1.00529Z" fill="#F5F5F5" fill-opacity="0.5"/>
</g>
</g>
<defs>
<clipPath id="clip0_140_524">
<rect width="10" height="6" fill="white"/>
</clipPath>
<clipPath id="clip1_140_524">
<rect width="4" height="4" fill="white" transform="translate(4.51001 1)"/>
</clipPath>
</defs>
</svg>
