<svg width="10" height="6" viewBox="0 0 10 6" fill="none" xmlns="http://www.w3.org/2000/svg">
<g clip-path="url(#clip0_140_516)">
<rect y="0.139999" width="10" height="5.72" rx="2.86" fill="#101010"/>
<circle cx="2.85999" cy="3" r="2.5" fill="#505050"/>
<g clip-path="url(#clip1_140_516)">
<circle cx="2.86001" cy="2.99999" r="1.1" fill="#F5F5F5"/>
<rect x="2.76001" y="1.10001" width="0.2" height="0.6" rx="0.1" fill="#F5F5F5"/>
<rect x="0.959961" y="3.10001" width="0.2" height="0.6" rx="0.1" transform="rotate(-90 0.959961 3.10001)" fill="#F5F5F5"/>
<rect x="1.58722" y="4.41422" width="0.2" height="0.6" rx="0.1" transform="rotate(-135 1.58722 4.41422)" fill="#F5F5F5"/>
<rect x="4.27417" y="4.2728" width="0.2" height="0.6" rx="0.1" transform="rotate(135 4.27417 4.2728)" fill="#F5F5F5"/>
<rect x="2.76001" y="4.3" width="0.2" height="0.6" rx="0.1" fill="#F5F5F5"/>
<rect x="4.15997" y="3.10001" width="0.2" height="0.6" rx="0.1" transform="rotate(-90 4.15997 3.10001)" fill="#F5F5F5"/>
<rect x="3.84991" y="2.15147" width="0.2" height="0.6" rx="0.1" transform="rotate(-135 3.84991 2.15147)" fill="#F5F5F5"/>
<rect x="2.01147" y="2.01006" width="0.2" height="0.6" rx="0.1" transform="rotate(135 2.01147 2.01006)" fill="#F5F5F5"/>
</g>
</g>
<defs>
<clipPath id="clip0_140_516">
<rect width="10" height="6" fill="white"/>
</clipPath>
<clipPath id="clip1_140_516">
<rect width="4" height="4" fill="white" transform="translate(0.859985 1)"/>
</clipPath>
</defs>
</svg>
