<svg width="10" height="10" viewBox="0 0 10 10" fill="none" xmlns="http://www.w3.org/2000/svg">
<path d="M8.26647 8.4H1.73314V3.26667H8.26647M6.86647 0V0.933333H3.13314V0H2.1998V0.933333H1.73314C1.21514 0.933333 0.799805 1.34867 0.799805 1.86667V8.4C0.799805 8.64754 0.898138 8.88493 1.07317 9.05997C1.24821 9.235 1.4856 9.33333 1.73314 9.33333H8.26647C8.51401 9.33333 8.7514 9.235 8.92644 9.05997C9.10147 8.88493 9.1998 8.64754 9.1998 8.4V1.86667C9.1998 1.61913 9.10147 1.38173 8.92644 1.2067C8.7514 1.03167 8.51401 0.933333 8.26647 0.933333H7.7998V0M7.33314 5.13333H4.9998V7.46667H7.33314V5.13333Z" fill="#F5F5F5"/>
</svg>
