<svg width="10" height="10" viewBox="0 0 10 10" fill="none" xmlns="http://www.w3.org/2000/svg">
<g clip-path="url(#clip0_377_582)">
<path fill-rule="evenodd" clip-rule="evenodd" d="M0 8V2C0 0.895431 0.895431 0 2 0H8C9.10457 0 10 0.89543 10 2V8C10 9.10457 9.10457 10 8 10H2C0.89543 10 0 9.10457 0 8ZM1 2V8C1 8.55228 1.44772 9 2 9H8C8.55228 9 9 8.55228 9 8V2C9 1.44772 8.55228 1 8 1H2C1.44772 1 1 1.44772 1 2Z" fill="#101010"/>
<path fill-rule="evenodd" clip-rule="evenodd" d="M5.5 9V1H6.5V9H5.5Z" fill="#101010"/>
<path fill-rule="evenodd" clip-rule="evenodd" d="M6.75 2.5C6.75 2.36193 6.86193 2.25 7 2.25H8C8.13807 2.25 8.25 2.36193 8.25 2.5C8.25 2.63807 8.13807 2.75 8 2.75H7C6.86193 2.75 6.75 2.63807 6.75 2.5ZM6.75 3.5C6.75 3.36193 6.86193 3.25 7 3.25H8.5C8.63807 3.25 8.75 3.36193 8.75 3.5C8.75 3.63807 8.63807 3.75 8.5 3.75H7C6.86193 3.75 6.75 3.63807 6.75 3.5ZM6.75 4.5C6.75 4.36193 6.86193 4.25 7 4.25H8C8.13807 4.25 8.25 4.36193 8.25 4.5C8.25 4.63807 8.13807 4.75 8 4.75H7C6.86193 4.75 6.75 4.63807 6.75 4.5ZM6.75 5.5C6.75 5.36193 6.86193 5.25 7 5.25H8C8.13807 5.25 8.25 5.36193 8.25 5.5C8.25 5.63807 8.13807 5.75 8 5.75H7C6.86193 5.75 6.75 5.63807 6.75 5.5ZM6.75 6.5C6.75 6.36193 6.86193 6.25 7 6.25H7.5C7.63807 6.25 7.75 6.36193 7.75 6.5C7.75 6.63807 7.63807 6.75 7.5 6.75H7C6.86193 6.75 6.75 6.63807 6.75 6.5Z" fill="#101010"/>
<path fill-rule="evenodd" clip-rule="evenodd" d="M1.72929 2.64645C1.53403 2.84171 1.53403 3.15829 1.72929 3.35355L3.37574 5L1.72929 6.64645C1.53403 6.84171 1.53403 7.15829 1.72929 7.35355C1.92455 7.54882 2.24113 7.54882 2.4364 7.35355L4.29497 5.49497C4.56834 5.22161 4.56834 4.77839 4.29497 4.50503L2.4364 2.64645C2.24113 2.45118 1.92455 2.45118 1.72929 2.64645Z" fill="#101010"/>
</g>
<defs>
<clipPath id="clip0_377_582">
<rect width="10" height="10" fill="white"/>
</clipPath>
</defs>
</svg>
