<svg width="10" height="10" viewBox="0 0 10 10" fill="none" xmlns="http://www.w3.org/2000/svg">
<path d="M1.5 8.9C1.5 8.56863 1.76117 8.3 2.08333 8.3H7.91667C8.23883 8.3 8.5 8.56863 8.5 8.9C8.5 9.23137 8.23883 9.5 7.91667 9.5H2.08333C1.76117 9.5 1.5 9.23137 1.5 8.9Z" fill="#101010"/>
<path d="M4.41667 1.1C4.41667 0.768629 4.67783 0.5 5 0.5C5.32217 0.5 5.58333 0.768629 5.58333 1.1V7.1C5.58333 7.43137 5.32217 7.7 5 7.7C4.67783 7.7 4.41667 7.43137 4.41667 7.1V1.1Z" fill="#101010"/>
<path d="M2.11072 4.52426C1.88292 4.75858 1.88292 5.13848 2.11072 5.37279L4.58039 7.91302C4.5821 7.91482 4.58381 7.91661 4.58555 7.91839C4.75018 8.08773 4.98873 8.13469 5.19436 8.05927C5.27329 8.03033 5.34737 7.98337 5.41055 7.91838C5.41174 7.91715 5.41293 7.91592 5.41411 7.91469L7.88538 5.37281C8.11319 5.1385 8.11319 4.7586 7.88538 4.52428C7.65757 4.28997 7.28823 4.28997 7.06042 4.52428L4.99806 6.64557L2.93568 4.52426C2.70787 4.28995 2.33853 4.28995 2.11072 4.52426Z" fill="#101010"/>
</svg>
