<svg width="10" height="10" viewBox="0 0 10 10" fill="none" xmlns="http://www.w3.org/2000/svg">
<g clip-path="url(#clip0_314_154)">
<path d="M1.0625 0.5C0.75184 0.5 0.5 0.75184 0.5 1.0625V3.875C0.5 4.18566 0.75184 4.4375 1.0625 4.4375C1.37316 4.4375 1.625 4.18566 1.625 3.875L1.625 1.625H3.875C4.18566 1.625 4.4375 1.37316 4.4375 1.0625C4.4375 0.75184 4.18566 0.5 3.875 0.5H1.0625Z" fill="#101010"/>
<path d="M9.5 1.0625C9.5 0.75184 9.24816 0.5 8.9375 0.5L6.125 0.5C5.81434 0.5 5.5625 0.75184 5.5625 1.0625C5.5625 1.37316 5.81434 1.625 6.125 1.625L8.375 1.625V3.875C8.375 4.18566 8.62684 4.4375 8.9375 4.4375C9.24816 4.4375 9.5 4.18566 9.5 3.875V1.0625Z" fill="#101010"/>
<path d="M8.9375 9.5C9.24816 9.5 9.5 9.24816 9.5 8.9375V6.125C9.5 5.81434 9.24816 5.5625 8.9375 5.5625C8.62684 5.5625 8.375 5.81434 8.375 6.125L8.375 8.375H6.125C5.81434 8.375 5.5625 8.62684 5.5625 8.9375C5.5625 9.24816 5.81434 9.5 6.125 9.5H8.9375Z" fill="#101010"/>
<path d="M0.5 8.9375C0.5 9.24816 0.75184 9.5 1.0625 9.5H3.875C4.18566 9.5 4.4375 9.24816 4.4375 8.9375C4.4375 8.62684 4.18566 8.375 3.875 8.375H1.625L1.625 6.125C1.625 5.81434 1.37316 5.5625 1.0625 5.5625C0.75184 5.5625 0.5 5.81434 0.5 6.125L0.5 8.9375Z" fill="#101010"/>
</g>
<defs>
<clipPath id="clip0_314_154">
<rect width="10" height="10" fill="white"/>
</clipPath>
</defs>
</svg>
